<svg xmlns="http://www.w3.org/2000/svg" viewBox="0 0 100 100" id="svg" style="--frame-c: #f6c6a4; --frame-bdw: 1em; stroke: rgba(255, 255, 255, 0.5); background-color: rgb(12, 8, 38); --frame-asr: 100 / 100.;"><g transform="translate(25 25) scale(0.5)"><polygon points="58.66025403784439,100 41.33974596215563,100 24.14552389153236,97.91224345622098 7.328318301780506,93.7671745602895 -8.866638080552413,87.62523775059054 -24.203186323546134,79.57599629624674 -38.45768501891877,69.73682626297568 -51.42227147735616,58.25120490574379 -62.907892834588054,45.286618447306395 -72.74706286785913,31.032119751933763 -80.79630432220293,15.69557150894002 -86.93824113190189,-0.4993848733928701 -91.08331002783333,-17.316590463144717 -93.17106657161239,-34.51081253376802 -93.17106657161239,-51.83132060945672 -91.08331002783336,-69.02554268008002 -86.93824113190189,-85.84274826983187 -80.79630432220296,-102.03770465216476 -72.74706286785914,-117.3742528951585 -62.90789283458811,-131.62875159053107 -51.42227147735619,-144.59333804896855 -38.45768501891875,-156.07895940620045 -24.203186323546163,-165.9181294394715 -8.866638080552413,-173.9673708938153 7.328318301780406,-180.10930770351425 24.145523891532324,-184.25437659944572 41.339745962155625,-186.34213314322477 58.66025403784432,-186.34213314322477 75.85447610846762,-184.25437659944575 92.67168169821942,-180.1093077035143 108.86663808055238,-173.96737089381534 124.20318632354612,-165.91812943947153 138.4576850189187,-156.0789594062005 151.42227147735613,-144.59333804896858 162.9078928345881,-131.62875159053112 172.7470628678591,-117.37425289515855 180.79630432220293,-102.03770465216482 186.9382411319019,-85.84274826983187 191.08331002783333,-69.02554268008006 193.17106657161239,-51.83132060945677 193.17106657161239,-34.510812533768075 191.08331002783336,-17.31659046314477 186.9382411319019,-0.49938487339284876 180.79630432220299,15.695571508939977 172.74706286785914,31.03211975193372 162.9078928345881,45.286618447306296 151.4222714773562,58.25120490574375 138.45768501891877,69.73682626297568 124.20318632354619,79.57599629624673 108.86663808055243,87.62523775059054 92.6716816982196,93.76717456028948 75.8544761084677,97.91224345622095" fill="#281b7e" fill-opacity="0.75" stroke-width="0.25"></polygon><polygon points="58.6602540378444,100 41.33974596215562,100 24.150518509903705,97.87151236913422 7.353142847531075,93.64680281022578 -8.797749932222587,87.38991361375592 -24.057328758129827,79.19569284202149 -38.19427396994794,69.18835652919326 -50.9942838886744,57.519605692856715 -62.26332341155289,44.366326701221084 -71.83056538644293,29.927909856085307 -79.55098017731473,14.423226839109745 -85.30753416569607,-1.912687159771643 -89.01296386103121,-18.832196336249808 -90.6110987262459,-36.078818178007275 -90.07771266583245,-53.391111478161214 -87.42089126876292,-70.50663951746148 -82.68090923920226,-87.16594833744085 -75.92961987304703,-103.11649979795274 -67.26936583520262,-118.11649979795281 -56.83142774910597,-131.9385636275989 -44.77403411629396,-144.3731628886699 -31.279962733609878,-155.2318017315003 -16.55376996811617,-164.3498742599198 -0.8186898910832454,-171.58915978884903 15.686749722978291,-176.83991812899063 32.712343234238205,-180.02255313623647 49.99999999999997,-181.08881930807615 67.28765676576174,-180.0225531362365 84.31325027702167,-176.83991812899066 100.8186898910832,-171.58915978884906 116.55376996811601,-164.3498742599199 131.27996273360984,-155.2318017315003 144.77403411629393,-144.37316288866992 156.83142774910596,-131.93856362759897 167.2693658352026,-118.11649979795286 175.92961987304702,-103.11649979795278 182.68090923920226,-87.16594833744091 187.4208912687629,-70.5066395174616 190.07771266583245,-53.391111478161264 190.6110987262459,-36.078818178007324 189.0129638610312,-18.832196336249797 185.3075341656961,-1.9126871597716928 179.55098017731473,14.423226839109695 171.83056538644294,29.927909856085265 162.26332341155293,44.366326701221055 150.99428388867437,57.51960569285673 138.19427396994797,69.18835652919323 124.05732875812986,79.19569284202146 108.79774993222259,87.38991361375594 92.64685715246897,93.64680281022578 75.84948149009628,97.87151236913422" fill="#271b7c" fill-opacity="0.75" stroke-width="0.25"></polygon><polygon points="58.66025403784441,100 41.33974596215564,100 24.15581526602868,97.82916471589726 7.3794628017240385,93.52172951691628 -8.724738330688965,87.14562522928198 -23.90281525916869,78.8014068265105 -37.91540064360946,68.62066761740795 -50.54150764178574,56.763963940980744 -61.58201500386569,43.41828309705754 -70.86280733346985,28.79409444487031 -78.23752099148373,13.12203017553098 -83.58985233808008,-3.350751895395682 -86.83539191059529,-20.36446615428802 -87.92295561117947,-37.65079616378317 -86.83539191059532,-54.937126173278315 -83.58985233808008,-71.95084043217071 -78.23752099148373,-88.42362250309732 -70.86280733346983,-104.0956867724367 -61.582015003865735,-118.71987542462387 -50.54150764178577,-132.06555626854708 -37.91540064360943,-143.92225994497431 -23.902815259168776,-154.10299915407683 -8.724738330688893,-162.4472175568484 7.37946280172401,-168.82332184448262 24.155815266028643,-173.13075704346363 41.33974596215563,-175.30159232756637 58.66025403784431,-175.30159232756637 75.84418473397142,-173.13075704346363 92.62053719827594,-168.82332184448265 108.72473833068895,-162.44721755684836 123.90281525916873,-154.10299915407683 137.91540064360942,-143.92225994497437 150.5415076417858,-132.06555626854703 161.5820150038657,-118.71987542462392 170.8628073334699,-104.09568677243658 178.23752099148373,-88.4236225030973 183.58985233808008,-71.95084043217076 186.83539191059532,-54.937126173278244 187.92295561117947,-37.65079616378322 186.8353919105953,-20.364466154287946 183.58985233808008,-3.3507518953956748 178.23752099148376,13.122030175530874 170.86280733346982,28.794094444870368 161.58201500386573,43.41828309705748 150.5415076417857,56.7639639409808 137.91540064360944,68.62066761740795 123.9028152591688,78.80140682651044 108.72473833068891,87.14562522928202 92.62053719827601,93.52172951691625 75.84418473397125,97.82916471589729" fill="#271a7a" fill-opacity="0.75" stroke-width="0.25"></polygon><polygon points="58.66025403784439,100 41.339745962155625,100 24.16143901834259,97.78510258834734 7.407400531502823,93.39167631930724 -8.647268649600193,86.8918611307545 -23.738951300868038,78.39238380838809 -37.619842410398945,68.03280553486049 -50.062018129932454,55.98323029901701 -60.86117827813621,42.441511793101824 -69.84000094393573,27.630004660600875 -76.85105410739143,11.791913439143805 -81.77921646939049,-4.812700851280944 -84.54356774019521,-21.911190903083764 -85.09871734836364,-39.22279998232739 -83.43554975267756,-56.463271946535954 -79.58137411907742,-73.34951872269556 -73.59947590491245,-89.60426860558738 -65.58807771348083,-104.96061905152094 -55.67872648159867,-119.16641921072342 -44.03413348253483,-131.9884102373211 -30.845502611401628,-143.21605539314046 -16.32939082248376,-152.66499705512786 -0.7241522700358018,-160.18008386242354 15.713975460341373,-165.6379182974176 32.71507876577132,-168.9488828695773 49.99999999999998,-170.0586116321644 67.2849212342285,-168.94888286957732 84.28602453965857,-165.6379182974176 100.72415227003576,-160.18008386242357 116.32939082248372,-152.6649970551279 130.84550261140157,-143.2160553931405 144.0341334825347,-131.9884102373212 155.67872648159863,-119.16641921072346 165.5880777134808,-104.96061905152098 173.59947590491242,-89.60426860558744 179.5813741190774,-73.3495187226956 183.43554975267756,-56.463271946536 185.09871734836364,-39.22279998232744 184.54356774019521,-21.911190903083874 181.7792164693905,-4.81270085128099 176.8510541073915,11.791913439143649 169.84000094393576,27.630004660600825 160.86117827813624,42.44151179310178 150.0620181299325,55.98323029901698 137.61984241039897,68.03280553486046 123.73895130086812,78.39238380838802 108.64726864960024,86.89186113075449 92.59259946849727,93.39167631930721 75.83856098165745,97.78510258834731" fill="#261a79" fill-opacity="0.75" stroke-width="0.25"></polygon><polygon points="58.66025403784438,100 41.339745962155604,100 24.167417234130404,97.7392200335637 7.4370911593742335,93.25634267272343 -8.56497174445105,86.6280711920116 -23.564971744451043,77.96781715416724 -37.30625468184007,67.42375990685382 -49.553703395755946,55.176311192937945 -60.097760643069364,41.43502825554893 -68.75801468091373,26.43502825554893 -75.38628616162556,10.432965351723645 -79.86916352246584,-6.297360723032494 -82.12994348890214,-23.46968945105775 -82.12994348890214,-40.7901975267465 -79.86916352246584,-57.96252625477176 -75.38628616162558,-74.6928523295279 -68.75801468091375,-90.69491523335319 -60.09776064306938,-105.69491523335319 -49.553703395755974,-119.43619817074222 -37.3062546818401,-131.6836468846581 -23.56497174445107,-142.2277041319715 -8.564971744451086,-150.88795816981587 7.437091159374205,-157.5162296505277 24.167417234130344,-161.99910701136795 41.33974596215554,-164.25988697780429 58.66025403784441,-164.25988697780429 75.83258276586949,-161.999107011368 92.56290884062574,-157.51622965052772 108.56497174445104,-150.8879581698159 123.56497174445101,-142.2277041319715 137.30625468184002,-131.68364688465817 149.55370339575592,-119.43619817074229 160.09776064306936,-105.69491523335321 168.75801468091367,-90.69491523335333 175.38628616162555,-74.69285232952794 179.8691635224658,-57.962526254771916 182.12994348890214,-40.79019752674661 182.12994348890214,-23.46968945105774 179.86916352246587,-6.297360723032657 175.38628616162558,10.432965351723595 168.7580146809138,26.435028255548787 160.09776064306936,41.43502825554887 149.55370339575595,55.17631119293796 137.30625468184016,67.42375990685375 123.56497174445109,77.96781715416721 108.5649717444512,86.62807119201152 92.56290884062581,93.25634267272342 75.83258276586979,97.73922003356367" fill="#261977" fill-opacity="0.75" stroke-width="0.25"></polygon><polygon points="58.660254037844396,100 41.33974596215562,100 24.173780324937404,97.6914022130645 7.468684189655207,93.11540362139307 -8.477439607405813,86.35366302826147 -23.38003210931643,77.52684385474278 -36.97315619983107,66.79246089809963 -49.0142422575274,54.342069476495595 -59.28841681644721,40.39784711980447 -67.61233698818685,25.20862880632611 -73.8374622200843,9.045466496703845 -77.85270500490041,-7.803207794734703 -79.58641324001727,-25.03672907610631 -79.00764886090687,-42.347564751875204 -76.12673993162568,-59.42680254930592 -70.99509634026668,-75.96966306528876 -63.70429238828858,-91.68093856200832 -54.38443264493675,-106.28026095601861 -43.20183022812293,-119.50710499333415 -30.35603894289585,-131.12543732875935 -16.076292239063022,-140.92792854652492 -0.6174125348476167,-148.7396529586248 15.744736095200928,-154.4212101578617 32.71817072115287,-157.87121262141673 49.99999999999998,-159.02809497359564 67.28182927884708,-157.87121262141676 84.25526390479902,-154.4212101578617 100.61741253484757,-148.73965295862482 116.07629223906298,-140.92792854652498 130.35603894289582,-131.12543732875935 143.20183022812293,-119.50710499333415 154.38443264493668,-106.2802609560187 163.7042923882886,-91.68093856200832 170.99509634026663,-75.96966306528887 176.1267399316257,-59.42680254930591 179.00764886090687,-42.347564751875254 179.58641324001727,-25.036729076106244 177.85270500490043,-7.80320779473475 173.8374622200843,9.04546649670391 167.61233698818688,25.208628806326068 159.28841681644718,40.39784711980451 149.01424225752743,54.34206947649555 136.97315619983118,66.79246089809952 123.38003210931646,77.52684385474275 108.47743960740596,86.3536630282614 92.53131581034481,93.11540362139304 75.8262196750627,97.69140221306448" fill="#251975" fill-opacity="0.75" stroke-width="0.25"></polygon><polygon points="58.66025403784439,100 41.339745962155625,100 24.18056203336197,97.64152445468899 7.502345381634093,92.968507301069 -8.384220373204109,86.06799800702396 -23.183198569676748,77.06854000443697 -36.61891224472559,66.13777616826776 -48.441079473931055,53.47932594698473 -58.42947565021244,39.32899231750274 -66.39803585157689,23.95036922187976 -72.198320878568,7.629931310914742 -75.72228239569358,-9.328302536565296 -76.90427566748086,-26.6084325101925 -75.72228239569358,-43.8885624838197 -72.19832087856801,-60.84679633129974 -66.3980358515769,-77.16723424226475 -58.42947565021247,-92.54585733788774 -48.44107947393107,-106.69619096736973 -36.618912244725664,-119.35464118865274 -23.18319856967676,-130.28540502482198 -8.384220373204187,-139.28486302740896 7.502345381634065,-146.185372321454 24.180562033361994,-150.85838947507403 41.33974596215557,-153.21686502038503 58.66025403784438,-153.21686502038503 75.81943796663796,-150.85838947507403 92.49765461836589,-146.18537232145403 108.38422037320404,-139.28486302740902 123.18319856967673,-130.285405024822 136.61891224472564,-119.35464118865276 148.44107947393104,-106.69619096736977 158.4294756502124,-92.54585733788788 166.39803585157688,-77.16723424226481 172.19832087856798,-60.846796331299785 175.72228239569358,-43.888562483819804 176.90427566748087,-26.608432510192547 175.72228239569358,-9.328302536565399 172.198320878568,7.629931310914699 166.39803585157696,23.95036922187962 158.42947565021245,39.328992317502696 148.44107947393115,53.4793259469846 136.61891224472566,66.13777616826769 123.18319856967678,77.06854000443694 108.3842203732042,86.06799800702392 92.49765461836594,92.96850730106898 75.81943796663813,97.64152445468896" fill="#251973" fill-opacity="0.75" stroke-width="0.25"></polygon><polygon points="58.6602540378444,100 41.33974596215564,100.00000000000001 24.187799880420553,97.58945118090254 7.538258913070592,92.81527213351272 -8.284812563536839,85.77038682243979 -22.973436461586715,76.5919159268255 -36.241715424965506,65.4585079422971 -47.831397496094624,52.58686199120959 -57.516902696527524,38.22751002072061 -65.1097136846367,22.659940483414886 -70.46204503123306,6.187158412488223 -73.46971969484176,-10.870212226560607 -74.0741967093149,-28.180169116714154 -72.26371061714819,-45.405793636889605 -68.0735004707282,-62.21180859965933 -61.58512394426165,-78.27110404033158 -52.92486990641727,-93.27110404033161 -42.26130035114872,-106.91985066190645 -29.801969530218784,-118.9516865772863 -15.789384145778044,-129.13242578638886 -0.49628323325511303,-137.26391178092805 15.779670393732374,-143.18787443544855 32.721683811457865,-146.7890105552877 49.99999999999998,-147.9972281221044 67.27831618854208,-146.7890105552877 84.22032960626758,-143.18787443544858 100.49628323325507,-137.26391178092808 115.789384145778,-129.13242578638886 129.80196953021874,-118.95168657728632 142.26130035114872,-106.91985066190644 152.9248699064172,-93.27110404033169 161.58512394426162,-78.27110404033166 168.0735004707282,-62.21180859965937 172.26371061714818,-45.405793636889655 174.0741967093149,-28.180169116714147 173.46971969484179,-10.870212226560707 170.46204503123306,6.187158412488177 165.10971368463672,22.659940483414843 157.51690269652755,38.227510020720565 147.83139749609467,52.58686199120952 136.24171542496555,65.45850794229708 122.97343646158676,76.59191592682546 108.28481256353689,85.77038682243976 92.46174108692941,92.81527213351272 75.81220011957954,97.58945118090251" fill="#241871" fill-opacity="0.75" stroke-width="0.25"></polygon><polygon points="58.66025403784439,100 41.339745962155625,100 24.19553568456701,97.53503469439723 7.5766298865104815,92.6552836684408 -8.178658434932359,85.46008458097926 -22.749597044036534,76.09591093619261 -35.839563649837814,64.75339030544184 -47.18208428058858,51.66342369964056 -56.546257925375244,37.09248509053639 -63.741457012836776,21.337196769093573 -68.62120803879321,4.718290971036996 -71.08617334439599,-12.425919306551592 -71.08617334439599,-29.746427382240356 -68.62120803879321,-46.890637659829 -63.74145701283679,-63.50954345788552 -56.54625792537526,-79.26483177932835 -47.1820842805886,-93.83577038843251 -35.83956364983783,-106.9257369942338 -22.749597044036562,-118.26825762498457 -8.178658434932288,-127.63243126977127 7.576629886510432,-134.82763035723275 24.19553568456706,-139.70738138318922 41.33974596215555,-142.17234668879198 58.66025403784441,-142.17234668879198 75.8044643154329,-139.70738138318922 92.42337011348953,-134.82763035723278 108.17865843493234,-127.63243126977125 122.74959704403652,-118.2682576249846 135.8395636498378,-106.92573699423382 147.18208428058858,-93.83577038843255 156.5462579253753,-79.26483177932829 163.74145701283678,-63.50954345788556 168.6212080387932,-46.89063765982894 171.086173344396,-29.74642738224045 171.086173344396,-12.425919306551583 168.62120803879324,4.7182909710369 163.7414570128368,21.33719676909353 156.5462579253753,37.09248509053626 147.1820842805886,51.66342369964052 135.83956364983777,64.75339030544187 122.74959704403656,76.09591093619258 108.1786584349323,85.4600845809793 92.42337011348958,92.65528366844079 75.80446431543295,97.53503469439724" fill="#231870" fill-opacity="0.75" stroke-width="0.25"></polygon><polygon points="58.66025403784438,100 41.339745962155604,100 24.203816165781532,97.47811379841615 7.617687241783592,92.48809102126188 -8.065136267834639,85.13628534060312 -22.510402207703066,75.57938773068408 -35.41023481346511,64.02108687185023 -46.4896965491761,50.7077278799611 -55.51264792354935,35.92306188793764 -62.28678039323911,19.982198382998646 -66.66771508556549,3.2248891950182568 -68.56207998352231,-13.991712723867716 -67.92949998821163,-31.30066539436549 -64.78345744397963,-48.33305854124538 -59.19100478565413,-64.72587627537484 -51.27133543230943,-80.12973414714493 -41.19324338647641,-94.2163256694301 -29.17152568303024,-106.68541960037184 -15.46240436331199,-117.2712588510524 -0.3580655471576648,-125.74822463645046 15.819568006967913,-131.93564514813647 32.72569812666033,-135.70164626019528 49.99999999999998,-136.96596219726695 67.27430187333974,-135.70164626019528 84.18043199303204,-131.9356451481365 100.35806554715762,-125.74822463645047 115.46240436331203,-117.27125885105235 129.1715256830302,-106.68541960037187 141.19324338647647,-94.21632566943005 151.2713354323094,-80.12973414714497 159.19100478565412,-64.72587627537483 164.78345744397964,-48.33305854124532 167.92949998821163,-31.30066539436553 168.56207998352232,-13.991712723867654 166.6677150855655,3.224889195018214 162.2867803932391,19.982198382998654 155.5126479235493,35.9230618879377 146.48969654917613,50.70772787996107 135.41023481346508,64.02108687185027 122.51040220770297,75.57938773068415 108.06513626783465,85.13628534060312 92.38231275821634,92.48809102126191 75.79618383421851,97.47811379841613" fill="#23186e" fill-opacity="0.75" stroke-width="0.25"></polygon><polygon points="58.6602540378444,100 41.33974596215564,100 24.212693651033284,97.41851222507661 7.661687151505866,92.31320284634151 -7.943551400942141,84.7981160390458 -22.254426763929544,75.04112642415737 -34.9512576298568,63.260189026732846 -45.75041777806062,49.71847052081755 -54.41067181590499,34.71847052081759 -60.738563978823535,18.595264239979002 -64.5927396124237,1.7090174638192686 -65.88710280188434,-15.563058958364834 -64.59273961242371,-32.835135380548934 -60.73856397882355,-49.72138215670867 -54.410671815905005,-65.84458843754726 -45.75041777806064,-80.84458843754722 -34.95125762985681,-94.38630694346251 -22.254426763929573,-106.16724434088704 -7.943551400942219,-115.92423395577545 7.661687151505866,-123.43932076307121 24.212693651033256,-128.5446301418063 41.33974596215556,-131.1261179167297 58.660254037844396,-131.1261179167297 75.7873063489667,-128.5446301418063 92.3383128484941,-123.43932076307121 107.94355140094218,-115.92423395577548 122.25442676392953,-106.16724434088707 134.9512576298568,-94.38630694346256 145.7504177780606,-80.84458843754726 154.410671815905,-65.84458843754729 160.73856397882355,-49.721382156708714 164.5927396124237,-32.83513538054898 165.88710280188434,-15.563058958364877 164.5927396124237,1.709017463819226 160.73856397882355,18.59526423997896 154.410671815905,34.71847052081755 145.75041777806064,49.71847052081752 134.95125762985683,63.2601890267328 122.25442676392957,75.04112642415733 107.94355140094223,84.79811603904575 92.33831284849416,92.3132028463415 75.78730634896675,97.4185122250766" fill="#22176c" fill-opacity="0.75" stroke-width="0.25"></polygon><polygon points="58.66025403784439,100 41.339745962155604,100 24.222226901022967,97.35603683993888 7.708916993103017,92.1300827753692 -7.813125773395107,84.4446297402512 -21.98007787189799,74.47981823984014 -34.45987795256855,62.46921500992306 -44.96001007890398,48.694338410493934 -53.23436005336217,33.47805987399949 -59.088984125555754,17.177036072615337 -62.38665486938173,0.1733491881389675 -63.050077677580944,-17.134448770514254 -61.0637024818203,-34.340677688602845 -56.474088233114884,-51.04203814361004 -49.38881159947768,-66.84706440188737 -39.97394545999914,-81.3853000436598 -28.450166297318233,-94.31598114752121 -15.087581727905729,-105.33602350793437 -0.19939940846733606,-114.18712667212581 15.865414286067654,-120.6618282837742 32.73031373860397,-124.60836682480502 49.99999999999998,-125.93423877674748 67.26968626139609,-124.60836682480502 84.13458571393241,-120.66182828377418 100.1993994084673,-114.18712667212583 115.08758172790579,-105.33602350793433 128.4501662973182,-94.31598114752123 139.9739454599992,-81.38530004365974 149.38881159947772,-66.84706440188731 156.47408823311486,-51.04203814361008 161.06370248182031,-34.34067768860279 163.05007767758093,-17.134448770514297 162.38665486938174,0.17334918813897637 159.08898412555573,17.177036072615394 153.2343600533622,33.478059873999456 144.96001007890393,48.694338410493984 134.45987795256858,62.46921500992302 121.98007787189799,74.47981823984014 107.81312577339506,84.44462974025123 92.29108300689703,92.13008277536919 75.77777309897704,97.35603683993888" fill="#22176a" fill-opacity="0.75" stroke-width="0.25"></polygon><polygon points="58.66025403784439,100 41.33974596215562,100 24.2324820826139,97.29047558495463 7.759700011687258,91.93814423835828 -7.672985686008751,84.07479812133349 -21.685571070449484,73.89405891223095 -33.933019784365385,61.64661019831506 -44.11375899346791,47.63402481387432 -51.977105110492715,32.201339116178325 -57.32943645708907,15.728557045251684 -60.03896087213444,-1.378706834290039 -60.03896087213444,-18.69921490997881 -57.32943645708907,-35.80647878952054 -51.97710511049273,-52.279260860447174 -44.113758993467926,-67.71194655814318 -33.933019784365385,-81.72453194258392 -21.68557107044954,-93.97198065649978 -7.672985686008722,-104.15271986560238 7.759700011687187,-112.01606598262714 24.23248208261392,-117.36839732922351 41.33974596215555,-120.07792174426888 58.66025403784441,-120.07792174426888 75.76751791738604,-117.36839732922353 92.24029998831277,-112.01606598262715 107.6729856860087,-104.15271986560239 121.68557107044951,-93.97198065649981 133.93301978436534,-81.724531942584 144.1137589934679,-67.71194655814318 151.9771051104927,-52.27926086044725 157.32943645708906,-35.806478789520526 160.03896087213445,-18.6992149099789 160.03896087213445,-1.378706834290032 157.3294364570891,15.728557045251595 151.97710511049272,32.201339116178325 144.11375899346797,47.63402481387425 133.93301978436537,61.64661019831506 121.68557107044956,73.89405891223089 107.67298568600873,84.07479812133349 92.24029998831281,91.93814423835826 75.7675179173861,97.29047558495463" fill="#211668" fill-opacity="0.75" stroke-width="0.25"></polygon><polygon points="58.660254037844396,100 41.33974596215563,100.00000000000001 24.24353391702495,97.2215951144716 7.8144008141943,91.73674457052103 -7.522147428799421,83.68750311617723 -21.36890226838068,73.28234187703578 -33.36724002756999,60.79074906361072 -43.206410060841066,46.53625036823811 -50.63158303261038,30.88802981958444 -55.45045086317296,14.251368110227912 -57.538207406952,-2.942853960395311 -56.84078086611167,-20.249315072365373 -53.37623422171846,-37.21978697354781 -47.234297412019515,-53.41474335588073 -38.57404337417512,-68.41474335588074 -27.61976813874341,-81.8312948526852 -14.655181680306043,-93.3169162099171 -0.016059978152561882,-102.5741358675434 15.918451405207698,-109.36319669902517 32.73565699495958,-113.50826559495664 49.99999999999998,-114.90198744823766 67.26434300504029,-113.50826559495665 84.08154859479227,-109.36319669902517 100.01605997815253,-102.57413586754342 114.65518168030592,-93.31691620991718 127.61976813874334,-81.83129485268528 138.57404337417506,-68.41474335588086 147.2342974120195,-53.414743355880766 153.37623422171845,-37.21978697354794 156.8407808661117,-20.249315072365363 157.53820740695198,-2.9428539603953983 155.450450863173,14.25136811022778 150.6315830326104,30.888029819584403 143.2064100608411,46.536250368237994 133.36724002757,60.79074906361073 121.36890226838075,73.28234187703572 107.52214742879953,83.68750311617715 92.18559918580573,91.73674457052101 75.75646608297518,97.22159511447157" fill="#211667" fill-opacity="0.75" stroke-width="0.25"></polygon><polygon points="58.660254037844396,100 41.33974596215562,100 24.25546704102186,97.14913806982787 7.873431868020354,91.5251782912963 -7.3595003421079355,83.28152762659465 -21.02781490796133,72.64305137626256 -32.75867583882017,59.89993943997125 -42.23209582856276,45.3997906925292 -49.189664675231754,29.538131392699903 -53.44159803771835,12.747626257922889 -54.871914257856986,-4.513723501305337 -53.441598037718364,-21.775073260533564 -49.18966467523177,-38.56557839531058 -42.23209582856279,-54.427237695139844 -32.75867583882018,-68.92738644258193 -21.027814907961385,-81.6704983788732 -7.359500342107964,-92.30897462920534 7.87343186802029,-100.55262529390697 24.25546704102186,-106.17658507243857 41.33974596215557,-109.0274470026107 58.66025403784439,-109.0274470026107 75.74453295897811,-106.17658507243857 92.12656813197967,-100.55262529390698 107.35950034210794,-92.30897462920537 121.02781490796129,-81.67049837887329 132.75867583882015,-68.92738644258196 142.23209582856273,-54.42723769513995 149.18966467523177,-38.56557839531062 153.44159803771834,-21.77507326053365 154.871914257857,-4.513723501305376 153.44159803771836,12.747626257922807 149.18966467523177,29.538131392699874 142.23209582856282,45.39979069252913 132.75867583882024,59.89993943997115 121.02781490796139,72.6430513762625 107.35950034210805,83.28152762659458 92.12656813197972,91.52517829129626 75.74453295897824,97.14913806982784" fill="#201665" fill-opacity="0.75" stroke-width="0.25"></polygon><polygon points="58.66025403784439,100 41.339745962155625,100 24.268377627450786,97.07281992681739 7.937261218957282,91.30266942165427 -7.183786778241341,82.85554520885763 -20.659761344088466,71.9744556723893 -32.10298322596985,58.97242994706355 -41.184251764965296,44.223512640269476 -47.64231539943202,28.15200324963725 -51.2913873967732,11.22024983901204 -52.026490599474045,-6.084651873548487 -49.826477426791854,-23.264871372729065 -44.7546382521508,-39.82616502348522 -36.956880654330945,-55.29209456055618 -26.65753192208011,-69.21773334990733 -14.15288556644802,-81.20246611791589 0.19732250406596563,-90.90151392339419 15.980262930631397,-98.03585281999057 32.7418892531031,-102.40024086710802 49.99999999999998,-103.86912256685234 67.25811074689676,-102.40024086710804 84.01973706936857,-98.03585281999058 99.802677495934,-90.9015139233942 114.15288556644799,-81.20246611791592 126.6575319220801,-69.21773334990736 136.95688065433092,-55.292094560556215 144.75463825215078,-39.82616502348525 149.82647742679183,-23.264871372729147 152.02649059947402,-6.084651873548524 151.29138739677322,11.220249839011911 147.64231539943202,28.152003249637218 141.18425176496535,44.22351264026936 132.10298322596987,58.97242994706352 120.65976134408851,71.97445567238927 107.18378677824141,82.85554520885759 92.06273878104275,91.30266942165426 75.7316223725493,97.07281992681736" fill="#1f1563" fill-opacity="0.75" stroke-width="0.25"></polygon><polygon points="58.66025403784438,100 41.339745962155604,100 24.28237532310674,96.99232533639129 8.00642169611929,91.06836268187082 -6.993578303880724,82.40810864402641 -20.261857267259487,71.27470065949804 -31.395265251787848,58.0064216961193 -40.05551928963226,43.006421696119276 -45.97948194415274,26.73046806913178 -48.98715660776145,9.673097430082938 -48.98715660776145,-7.647410645605811 -45.97948194415274,-24.7047812846547 -40.05551928963227,-40.98073491164215 -31.395265251787876,-55.98073491164217 -20.2618572672595,-69.24901387502094 -6.993578303880682,-80.38242185954935 8.006421696119304,-89.04267589739372 24.282375323106766,-94.96663855191419 41.339745962155604,-97.9743132155229 58.66025403784435,-97.9743132155229 75.7176246768932,-94.9666385519142 91.99357830388067,-89.04267589739374 106.99357830388072,-80.38242185954932 120.26185726725947,-69.24901387502095 131.39526525178786,-55.98073491164221 140.05551928963223,-40.98073491164222 145.97948194415272,-24.70478128465469 148.98715660776145,-7.647410645605849 148.98715660776145,9.673097430082903 145.97948194415275,26.73046806913175 140.05551928963226,43.00642169611928 131.39526525178786,58.00642169611927 120.2618572672595,71.27470065949802 106.99357830388075,82.4081086440264 91.99357830388078,91.06836268187078 75.71762467689325,96.99232533639129" fill="#1f1561" fill-opacity="0.75" stroke-width="0.25"></polygon><polygon points="58.66025403784439,100 41.33974596215562,100 24.297585576923925,96.9073038616703 8.081521939266928,90.82131338357568 -6.787247322879473,81.93763730725175 -19.8308277313658,70.54180429130459 -30.629987879569597,57.00008578538935 -38.837633874749,41.747723764449276 -44.18996522134536,25.27494169352264 -46.514953585966126,8.111188342219261 -45.73787192956564,-9.191879134366667 -41.88369629596549,-26.078125910526335 -35.07630306125587,-42.004814120823845 -25.53448744514216,-56.46004690165752 -13.564931252558296,-68.97922117764622 0.4476541318824374,-79.15996038674876 16.052892684330452,-86.67504719404448 32.74921919767702,-91.28294052611284 49.999999999999986,-92.83553889987392 67.25078080232294,-91.28294052611284 83.94710731566951,-86.6750471940445 99.55234586811754,-79.15996038674878 113.56493125255827,-68.97922117764625 125.53448744514215,-56.46004690165755 135.07630306125586,-42.00481412082387 141.88369629596548,-26.078125910526374 145.73787192956564,-9.191879134366703 146.51495358596614,8.111188342219226 144.18996522134535,25.274941693522607 138.83763387474903,41.74772376444924 130.62998787956963,57.000085785389324 119.83082773136583,70.54180429130456 106.78724732287951,81.93763730725173 91.91847806073311,90.82131338357567 75.7024144230761,96.9073038616703" fill="#1e145f" fill-opacity="0.75" stroke-width="0.25"></polygon><polygon points="58.66025403784439,99.99999999999999 41.339745962155625,100 24.314152450895765,96.81736499275416 8.163259671142114,90.56047579628432 -6.562933094351642,81.44240326786478 -19.36294301307811,69.77365243152822 -29.800881099174745,55.95158860188211 -37.52129589004653,40.44690558490658 -42.26127791960718,23.787596764927226 -43.859412784821856,6.540974923169782 -42.26127791960718,-10.705646918587703 -37.521295890046545,-27.36495573856702 -29.80088109917476,-42.869638755542546 -19.362943013078123,-56.69170258518866 -6.562933094351656,-68.36045342152524 8.163259671142136,-77.4785259499448 24.314152450895747,-83.73541514641462 41.33974596215562,-86.91805015366046 58.66025403784434,-86.91805015366046 75.68584754910422,-83.73541514641462 91.83674032885791,-77.47852594994477 106.56293309435162,-68.36045342152525 119.3629430130781,-56.69170258518868 129.80088109917477,-42.8696387555425 137.52129589004653,-27.364955738567048 142.26127791960718,-10.705646918587657 143.85941278482187,6.540974923169747 142.26127791960718,23.787596764927233 137.52129589004653,40.446905584906624 129.80088109917477,55.95158860188207 119.36294301307807,69.77365243152826 106.56293309435165,81.44240326786476 91.83674032885787,90.56047579628432 75.68584754910418,96.81736499275418" fill="#1e145e" fill-opacity="0.75" stroke-width="0.25"></polygon><polygon points="58.660254037844396,100 41.33974596215563,100 24.332242031466368,96.72207229372137 8.252437750450973,90.28468972902634 -6.318500858653195,80.9205160842397 -18.853942110302924,68.96799699300044 -28.90082249688993,54.85912763725075 -36.096021584351476,39.10383931580791 -40.17948613075829,22.27156919861222 -41.00362908804017,4.970679383751199 -38.53866378243741,-12.173530893837377 -32.873680482498926,-28.541425205917314 -24.21342644465453,-43.541425205917335 -12.870905813903768,-56.6313918117186 0.7439331615088776,-67.33821952461221 16.139014727894875,-75.27493569468658 32.75792052595143,-80.15468672064301 49.999999999999986,-81.80110568633614 67.24207947404847,-80.15468672064304 83.8609852721051,-75.27493569468659 99.2560668384911,-67.33821952461223 112.8709058139037,-56.63139181171866 124.21342644465452,-43.541425205917356 132.87368048249886,-28.54142520591742 138.5386637824374,-12.173530893837409 141.00362908804016,4.970679383751126 140.1794861307583,22.271569198612106 136.0960215843515,39.10383931580788 128.90082249689,54.85912763725066 118.85394211030292,68.96799699300044 106.31850085865325,80.92051608423965 91.74756224954913,90.28468972902628 75.66775796853366,96.72207229372135" fill="#1d145c" fill-opacity="0.75" stroke-width="0.25"></polygon><polygon points="58.660254037844396,99.99999999999999 41.33974596215563,100 24.352046592414805,96.62093650203093 8.349983688589475,89.99266502131908 -6.051492445986554,80.36990631369079 -18.298941159902427,68.12245759977492 -27.921699867530762,53.72098146519886 -34.54997134824259,37.718918561373535 -37.929034846211664,20.731219191632725 -37.92903484621168,3.410711115943977 -34.54997134824261,-13.57698825379687 -27.92169986753079,-29.579051157622168 -18.29894115990247,-43.980527292198225 -6.051492445986533,-56.22797600611416 8.349983688589461,-65.85073471374244 24.352046592414705,-72.47900619445426 41.33974596215563,-75.85806969242336 58.66025403784434,-75.85806969242336 75.64795340758519,-72.47900619445429 91.65001631141052,-65.85073471374244 106.05149244598653,-56.227976006114176 118.29894115990248,-43.980527292198225 127.92169986753075,-29.579051157622224 134.5499713482426,-13.576988253796976 137.92903484621166,3.410711115943945 137.92903484621166,20.731219191632654 134.5499713482426,37.718918561373584 127.92169986753076,53.72098146519883 118.2989411599025,68.12245759977483 106.05149244598655,80.36990631369079 91.65001631141055,89.99266502131907 75.6479534075853,96.6209365020309" fill="#1d135a" fill-opacity="0.75" stroke-width="0.25"></polygon><polygon points="58.66025403784439,100 41.33974596215562,100 24.37378970431285,96.51340735718017 8.456973506927362,89.68296358399479 -5.759066304733373,79.78830785106112 -17.692323390466242,67.23452852665815 -26.854248803083095,52.53557881133343 -32.869752239710934,36.293235433485556 -35.49255828286256,19.172461839397958 -34.61528894496472,1.8741845116180578 -30.273859735785706,-14.893403043593551 -22.646009277245597,-30.443833821618618 -12.044022663351392,-44.14047135930676 1.0980535282435469,-55.42257370657846 16.242181154126925,-63.82825026774566 32.76835784993564,-69.01337165676911 49.999999999999986,-70.76565839475631 67.23164215006432,-69.01337165676911 83.75781884587305,-63.82825026774566 98.90194647175645,-55.422573706578476 112.04402266335137,-44.14047135930679 122.64600927724562,-30.443833821618583 130.2738597357857,-14.89340304359358 134.61528894496473,1.8741845116181022 135.49255828286255,19.172461839397926 132.86975223971092,36.2932354334856 126.85424880308312,52.5355788113334 117.69232339046621,67.2345285266582 105.75906630473344,79.78830785106109 91.54302649307263,89.68296358399479 75.62621029568722,96.51340735718014" fill="#1c1358" fill-opacity="0.75" stroke-width="0.25"></polygon><polygon points="58.66025403784438,99.99999999999999 41.339745962155604,99.99999999999999 24.39773254443014,96.39886388016089 8.574661067822646,89.35397856908793 -5.437924316618073,79.1732393599854 -17.0276063877472,66.30159340889787 -25.687860425591595,51.30159340889786 -31.040191772187924,34.82881133797126 -32.850677864354665,17.603186817795756 -31.040191772187924,0.37756229762024773 -25.68786042559161,-16.095219773306347 -17.027606387747213,-31.095219773306376 -5.437924316618059,-43.96686572439392 8.574661067822632,-54.14760493349644 24.397732544430124,-61.1924902445694 41.33974596215562,-64.79362636440851 58.660254037844346,-64.79362636440851 75.60226745556986,-61.1924902445694 91.42533893217734,-54.14760493349645 105.43792431661804,-43.96686572439394 117.0276063877472,-31.095219773306397 125.6878604255916,-16.095219773306376 131.04019177218794,0.37756229762021576 132.85067786435468,17.603186817795724 131.04019177218794,34.82881133797123 125.68786042559161,51.30159340889783 117.02760638774721,66.30159340889784 105.43792431661808,79.1732393599854 91.42533893217737,89.35397856908793 75.60226745556989,96.39886388016089" fill="#1b1256" fill-opacity="0.75" stroke-width="0.25"></polygon><polygon points="58.660254037844396,100 41.33974596215562,100 24.424181740095413,96.2766027542906 8.704514354387982,89.00391017982234 -5.084222019166454,78.52198529836011 -16.297281392820253,65.32095126753833 -24.410353572681757,50.01807376674269 -29.044080320652725,33.328898339983624 -29.981793724015432,16.033792281530154 -27.17964734622221,-1.0585444714542263 -20.768666437536695,-17.1488932491678 -11.04862133995546,-31.484887225902973 1.5259894408128005,-43.39619125662052 16.367191080335353,-52.32584600330759 32.781025484759155,-57.85631073460762 49.999999999999986,-59.728987066355046 67.21897451524082,-57.85631073460762 83.63280891966463,-52.32584600330759 98.47401055918724,-43.3961912566205 111.04862133995547,-31.484887225902966 120.76866643753667,-17.148893249167855 127.17964734622223,-1.0585444714541872 129.98179372401543,16.033792281530122 129.0440803206527,33.32889833998367 124.41035357268177,50.01807376674266 116.29728139282024,65.32095126753836 105.08422201916648,78.52198529836008 91.2954856456121,89.00391017982228 75.5758182599046,96.2766027542906" fill="#1b1255" fill-opacity="0.75" stroke-width="0.25"></polygon><polygon points="58.66025403784439,100 41.33974596215562,100 24.453499185995955,96.14582436639985 8.848260633547937,88.63073755910415 -4.693457872367304,77.83157741090037 -15.492618020571086,64.28985890498512 -23.007704827866803,48.68462035253711 -26.861880461466953,31.798373576377443 -26.861880461466953,14.477865500688672 -23.007704827866803,-2.408381275470994 -15.4926180205711,-18.013619827919015 -4.693457872367318,-31.555338333834257 8.848260633547916,-42.35449848203804 24.45349918599593,-49.86958528933374 41.339745962155604,-53.723760922933906 58.66025403784437,-53.723760922933906 75.54650081400403,-49.869585289333756 91.15173936645206,-42.35449848203805 104.6934578723673,-31.55533833383427 115.49261802057109,-18.013619827919044 123.00770482786679,-2.408381275471026 126.86188046146695,14.477865500688644 126.86188046146695,31.798373576377415 123.0077048278668,48.68462035253708 115.4926180205711,64.2898589049851 104.69345787236732,77.83157741090034 91.15173936645209,88.63073755910413 75.54650081400408,96.14582436639984" fill="#1a1253" fill-opacity="0.75" stroke-width="0.25"></polygon><polygon points="58.66025403784439,100 41.33974596215562,100 24.486114423270244,96.00561594842357 9.007943059849502,88.23218612339896 -4.260335903529267,77.09877813887059 -14.603426113584291,63.2055969010596 -21.46372889988244,47.30162740661231 -24.471403563491137,30.244256767563453 -23.46430558478771,12.953052250199967 -18.49672787648163,-3.6398128342856104 -9.836473838637254,-18.639812834285614 2.049579991942039,-31.238293867194756 16.52065337665934,-40.756068559533645 32.79660700364681,-46.680031214054125 49.999999999999986,-48.690819470690414 67.20339299635316,-46.680031214054125 83.47934662334063,-40.756068559533645 97.95042000805795,-31.23829386719477 109.83647383863723,-18.639812834285635 118.4967278764816,-3.639812834285692 123.46430558478771,12.95305225019994 124.47140356349115,30.24425676756336 121.46372889988244,47.30162740661229 114.60342611358433,63.20559690105952 104.26033590352927,77.09877813887059 90.99205694015055,88.23218612339892 75.51388557672975,96.00561594842357" fill="#1a1151" fill-opacity="0.75" stroke-width="0.25"></polygon><polygon points="58.66025403784438,100 41.33974596215561,100 24.522540372403743,95.85493110406854 9.185992129410046,87.80568964972474 -3.7785943290273707,76.32006829249283 -13.617764362298438,62.06556959712021 -19.759701171997392,45.87061321478729 -21.84745771577643,28.67639114416405 -19.759701171997392,11.482169073540813 -13.617764362298445,-4.712787308792102 -3.778594329027378,-18.967286004164734 9.185992129410032,-30.452907361396647 24.522540372403725,-38.50214881574044 41.33974596215564,-42.64721771167193 58.66025403784433,-42.64721771167193 75.47745962759625,-38.502148815740455 90.81400787058995,-30.45290736139667 103.77859432902734,-18.967286004164777 113.61776436229846,-4.712787308792102 119.75970117199738,11.482169073540724 121.84745771577643,28.676391144164025 119.75970117199738,45.870613214787326 113.61776436229847,62.06556959712015 103.77859432902736,76.32006829249283 90.81400787059002,87.8056896497247 75.47745962759629,95.85493110406853" fill="#19114f" fill-opacity="0.75" stroke-width="0.25"></polygon><polygon points="58.66025403784438,100 41.339745962155604,99.99999999999999 24.563393497851003,95.69256480101899 9.385316569371255,87.34834639824751 -3.24079042880507,75.49164272182026 -12.521582758409195,60.8674540696331 -17.873914105005554,44.39467199870644 -18.961477805589723,27.108341989211297 -15.715938233074496,10.094627730318962 -8.341224575060608,-5.577436539020411 2.6992827870192997,-18.923117382943587 16.711868171460054,-29.103856592046142 32.816069303873064,-35.47996087968043 49.999999999999986,-37.65079616378314 67.18393069612698,-35.47996087968042 83.28813182853997,-29.103856592046128 97.30071721298067,-18.9231173829436 108.34122457506064,-5.577436539020383 115.7159382330745,10.094627730318937 118.96147780558972,27.108341989211333 117.87391410500555,44.394671998706414 112.52158275840921,60.86745406963307 103.24079042880504,75.49164272182028 90.61468343062876,87.34834639824749 75.43660650214899,95.692564801019" fill="#19114e" fill-opacity="0.75" stroke-width="0.25"></polygon><polygon points="58.660254037844396,100 41.339745962155625,100.00000000000001 24.609419887399458,95.51712263915974 9.609419887399447,86.85686860131534 -2.6380288265164324,74.60941988739947 -11.298282864360814,59.60941988739949 -15.781160225201091,42.87909381264329 -15.781160225201106,25.55858573695454 -11.298282864360843,8.828259662198398 -2.6380288265164396,-6.171740337801644 9.609419887399433,-18.419189051717517 24.609419887399415,-27.079443089561906 41.33974596215561,-31.562320450402183 58.66025403784437,-31.562320450402197 75.3905801126005,-27.079443089561934 90.3905801126005,-18.419189051717566 102.63802882651643,-6.171740337801658 111.29828286436081,8.82825966219832 115.78116022520109,25.558585736954516 115.7811602252011,42.87909381264327 111.29828286436086,59.60941988739941 102.63802882651645,74.60941988739944 90.39058011260057,86.85686860131534 75.39058011260059,95.51712263915972" fill="#18104c" fill-opacity="0.75" stroke-width="0.25"></polygon><polygon points="58.66025403784438,100 41.339745962155625,100 24.661529310427735,95.32698284638 9.862551113955085,86.32752484379301 -1.9596161152503626,73.66907462250998 -9.928176316614838,58.290451526886955 -13.452137833740423,41.33221767940692 -12.270144561953153,24.052087705779684 -6.469859534962069,7.7316497948147145 3.5185366413192867,-6.4186838346672275 16.95425031636816,-17.34944767083647 32.84081607120636,-24.24995696488149 49.999999999999986,-26.608432510192515 67.15918392879362,-24.2499569648815 83.04574968363181,-17.349447670836483 96.48146335868071,-6.41868383466722 106.46985953496204,7.731649794814668 112.27014456195315,24.05208770577969 113.45213783374044,41.33221767940684 109.92817631661484,58.290451526886926 101.95961611525041,73.66907462250991 90.13744888604492,86.32752484379299 75.33847068957225,95.32698284638002" fill="#17104a" fill-opacity="0.75" stroke-width="0.25"></polygon><polygon points="58.66025403784438,100 41.33974596215561,100 24.720840164099073,95.12024897404356 10.149901554994905,85.7560753292569 -1.1926190757558928,72.66610872345562 -8.387818163217418,56.9108204020128 -10.852783468820192,39.76661012442421 -8.387818163217418,22.622399846835624 -1.1926190757558857,6.8671115253927795 10.14990155499489,-6.222855080408493 24.720840164099084,-15.587028725195161 41.33974596215561,-20.466779751151584 58.66025403784437,-20.46677975115159 75.27915983590094,-15.587028725195147 89.85009844500512,-6.222855080408493 101.19261907575589,6.867111525392787 108.38781816321742,22.622399846835602 110.85278346882019,39.76661012442419 108.38781816321742,56.910820402012774 101.19261907575587,72.66610872345564 89.8500984450051,85.75607532925692 75.27915983590093,95.12024897404356" fill="#170f48" fill-opacity="0.75" stroke-width="0.25"></polygon><polygon points="58.66025403784438,100 41.33974596215561,100 24.788739462628186,94.89469062126489 10.47786409964079,85.13770100637645 -0.321296048562985,71.59598250046122 -6.649188211481537,55.4727762196226 -7.943551400942177,38.200699797438446 -4.08937576734202,21.314453021278762 4.570878270502355,6.314453021278794 17.267709136429644,-5.466484376145765 32.87294768887769,-12.981571183441481 49.999999999999986,-15.563058958364856 67.12705231112234,-12.981571183441467 82.73229086357038,-5.4664843761457504 95.42912172949767,6.3144530212788155 104.08937576734203,21.31445302127879 107.94355140094217,38.200699797438475 106.64918821148153,55.47277621962263 100.32129604856297,71.59598250046122 89.52213590035919,85.13770100637646 75.21126053737179,94.8946906212649" fill="#160f46" fill-opacity="0.75" stroke-width="0.25"></polygon><polygon points="58.66025403784439,100 41.33974596215562,100 24.866963891228984,94.64766865340366 10.854378506788251,84.46692944430112 0.6736392976857104,70.45434405986038 -4.678692048910641,53.98156198893374 -4.678692048910648,36.66105391324498 0.6736392976857033,20.188271842318336 10.854378506788237,6.175686457877603 24.866963891228973,-4.005052751224937 41.339745962155604,-9.357384097821289 58.660254037844375,-9.357384097821296 75.13303610877101,-4.0050527512249445 89.14562149321173,6.175686457877589 99.32636070231429,20.188271842318322 104.67869204891065,36.661053913244956 104.67869204891065,53.98156198893372 99.3263607023143,70.45434405986036 89.14562149321176,84.46692944430109 75.13303610877104,94.64766865340363" fill="#160f45" fill-opacity="0.75" stroke-width="0.25"></polygon><polygon points="58.66025403784439,100 41.33974596215562,100 24.957710789154092,94.37604022146843 11.28939622330072,83.73756397113634 1.8159762335581178,69.23741522369428 -2.435957128928493,52.44691008891727 -1.0056409087898714,35.18556032968904 5.951927937879113,19.323901029859744 17.682788868737944,6.580789093568434 32.915721078866234,-1.6628615711332202 49.99999999999999,-4.513723501305357 67.08427892113374,-1.6628615711332273 82.31721113126204,6.580789093568427 94.04807206212085,19.323901029859687 101.00564090878987,35.185560329689025 102.4359571289285,52.4469100889172 98.1840237664419,69.23741522369427 88.71060377669932,83.7375639711363 75.04228921084591,94.37604022146843" fill="#150e43" fill-opacity="0.75" stroke-width="0.25"></polygon><polygon points="58.66025403784439,100 41.33974596215562,100 25.063792335168152,94.07603734547953 11.795513371789383,82.94262936095114 3.135259333944994,67.94262936095114 0.12758467033628307,50.88525872190228 3.1352593339449797,33.827888082853434 11.795513371789376,18.82788808285342 25.06379233516812,7.694480098325037 41.33974596215562,1.7705174438045503 58.66025403784437,1.7705174438045503 74.93620766483187,7.69448009832503 88.20448662821062,18.8278880828534 96.86474066605501,33.82788808285342 99.87241532966371,50.88525872190226 96.86474066605501,67.94262936095114 88.20448662821063,82.94262936095113 74.93620766483188,94.0760373454795" fill="#150e41" fill-opacity="0.75" stroke-width="0.25"></polygon><polygon points="58.66025403784438,100 41.33974596215561,100 25.18885318240195,93.74311080353016 12.388843263675518,82.07435996719362 4.668428472803754,66.56967695021812 3.070293607589079,49.323055108460665 7.810275637149722,32.663746288481306 18.248213723246405,18.84168245883515 32.97440648874016,9.723609930415606 49.99999999999999,6.5409749231697845 67.02559351125987,9.72360993041562 81.75178627675359,18.841682458835145 92.18972436285028,32.66374628848131 96.92970639241092,49.32305510846062 95.33157152719625,66.56967695021811 87.61115673632446,82.07435996719363 74.81114681759806,93.74311080353013" fill="#140d3f" fill-opacity="0.75" stroke-width="0.25"></polygon><polygon points="58.66025403784439,100 41.33974596215562,100 25.337683058330313,93.37172851928818 13.090234344414405,81.12427980537227 6.461962863702574,65.12221690154698 6.461962863702574,47.801708825858185 13.090234344414398,31.799645922032887 25.337683058330303,19.552197208116986 41.3397459621556,12.923925727405155 58.66025403784439,12.923925727405148 74.66231694166967,19.552197208116972 86.90976565558557,31.799645922032845 93.53803713629742,47.80170882585817 93.53803713629742,65.12221690154696 86.9097656555856,81.12427980537225 74.66231694166973,93.37172851928814" fill="#130d3d" fill-opacity="0.75" stroke-width="0.25"></polygon><polygon points="58.66025403784439,100 41.339745962155625,100 25.516674485548155,92.95511468892705 13.926992414419026,80.08346873783954 8.574661067822674,63.6106866669129 10.385147159989394,46.38506214673741 19.045401197833772,31.385062146737415 33.057986582274495,21.204322937634878 49.99999999999999,17.603186817795752 66.94201341772546,21.20432293763485 80.95459880216619,31.38506214673738 89.61485284001058,46.385062146737354 91.42533893217734,63.61068666691286 86.073007585581,80.0834687378395 74.48332551445189,92.95511468892703" fill="#130d3c" fill-opacity="0.75" stroke-width="0.25"></polygon><polygon points="58.66025403784439,100 41.33974596215562,100 25.734507409707597,92.4849131927043 14.935347261503814,78.94319468678907 11.081171627903657,62.0569479106294 14.935347261503807,45.170701134469724 25.73450740970759,31.628982628554493 41.339745962155604,24.11389582125878 58.66025403784438,24.11389582125878 74.2654925902924,31.628982628554482 85.06465273849619,45.17070113446971 88.91882837209634,62.05694791062938 85.06465273849619,78.94319468678904 74.26549259029241,92.48491319270428" fill="#120c3a" fill-opacity="0.75" stroke-width="0.25"></polygon><polygon points="58.66025403784439,100 41.33974596215562,100 26.003197719161914,91.95075854565621 16.16402768589083,77.69625985028357 14.076271142111786,60.50203777966031 20.218207951810726,44.30708139732741 33.18279441024811,32.821460040095516 49.99999999999999,28.676391144164036 66.81720558975185,32.821460040095495 79.78179204818927,44.307081397327394 85.92372885788822,60.502037779660284 83.83597231410917,77.69625985028355 73.99680228083811,91.95075854565619" fill="#120c38" fill-opacity="0.75" stroke-width="0.25"></polygon><polygon points="58.66025403784438,100 41.33974596215561,100 26.339745962155618,91.33974596215562 17.67949192431123,76.33974596215562 17.679491924311222,59.01923788646687 26.33974596215561,44.019237886466854 41.33974596215562,35.358983848622465 58.66025403784437,35.35898384862246 73.66025403784438,44.01923788646685 82.32050807568876,59.019237886466854 82.32050807568878,76.3397459621556 73.6602540378444,91.33974596215562" fill="#110b36" fill-opacity="0.75" stroke-width="0.25"></polygon><polygon points="58.66025403784439,100 41.33974596215562,100 26.768807353051436,90.63582635521335 19.5736082655899,74.88053803377052 22.03857357119267,57.73632775618193 33.38109420194347,44.646361150380635 49.99999999999999,39.766610124424204 66.61890579805652,44.64636115038063 77.96142642880733,57.73632775618192 80.4263917344101,74.8805380337705 73.23119264694856,90.63582635521335" fill="#110b34" fill-opacity="0.75" stroke-width="0.25"></polygon><polygon points="58.66025403784439,100 41.33974596215562,100 27.32716057771488,89.81926079089746 21.97482923111853,73.34647871997082 27.327160577714874,56.873696649044184 41.33974596215561,46.69295743994164 58.66025403784438,46.69295743994164 72.67283942228512,56.87369664904418 78.02517076888147,73.34647871997082 72.67283942228512,89.81926079089745" fill="#100b33" fill-opacity="0.75" stroke-width="0.25"></polygon><polygon points="58.66025403784439,100 41.33974596215562,100 28.071466998776852,88.86659201547162 25.06379233516814,71.80922137642276 33.72404637301253,56.809221376422755 49.99999999999999,50.885258721902275 66.27595362698744,56.80922137642274 74.93620766483185,71.80922137642276 71.92853300122316,88.8665920154716" fill="#0f0a31" fill-opacity="0.75" stroke-width="0.25"></polygon><polygon points="58.66025403784439,100 41.33974596215562,100 29.092297248239728,87.75255128608411 29.092297248239724,70.43204321039535 41.339745962155604,58.18459449647946 58.66025403784439,58.18459449647946 70.90770275176027,70.43204321039534 70.90770275176027,87.75255128608413" fill="#0f0a2f" fill-opacity="0.75" stroke-width="0.25"></polygon><polygon points="58.66025403784438,100 41.33974596215562,100 30.54058581395183,86.45828149408477 34.39476144755198,69.5720347179251 49.99999999999999,62.0569479106294 65.60523855244801,69.5720347179251 69.45941418604818,86.45828149408476" fill="#0e0a2d" fill-opacity="0.75" stroke-width="0.25"></polygon><polygon points="58.66025403784438,100 41.33974596215561,100 32.67949192431122,85 41.33974596215562,70 58.660254037844375,69.99999999999999 67.32050807568878,85" fill="#0e092b" fill-opacity="0.75" stroke-width="0.25"></polygon><polygon points="58.66025403784438,100 41.33974596215562,100 35.98741461555927,83.52721792907337 50,73.34647871997082 64.01258538444074,83.52721792907336" fill="#0d092a" fill-opacity="0.75" stroke-width="0.25"></polygon><polygon points="58.66025403784439,100 41.33974596215562,100 41.33974596215561,82.67949192431124 58.66025403784438,82.67949192431124" fill="#0d0828" fill-opacity="0.75" stroke-width="0.25"></polygon><polygon points="58.66025403784438,100 41.33974596215562,100 50,85" fill="#0c0826" fill-opacity="0.75" stroke-width="0.25"></polygon></g></svg>