<svg xmlns="http://www.w3.org/2000/svg" viewBox="0 0 100 100" id="svg" style="--frame-c: #f6c6a4; --frame-bdw: 1em; stroke: rgba(255, 255, 255, 0.25); background-color: rgb(69, 12, 12); --frame-asr: 100 / 100.;"><g transform="translate(3.75 3.75) scale(0.925)"><polygon points="58.66025403784439,100 41.33974596215562,100 25.063792335168152,94.07603734547953 11.795513371789383,82.94262936095114 3.135259333944994,67.94262936095114 0.12758467033628307,50.88525872190228 3.1352593339449797,33.827888082853434 11.795513371789376,18.82788808285342 25.06379233516812,7.694480098325037 41.33974596215562,1.7705174438045503 58.66025403784437,1.7705174438045503 74.93620766483187,7.69448009832503 88.20448662821062,18.8278880828534 96.86474066605501,33.82788808285342 99.87241532966371,50.88525872190226 96.86474066605501,67.94262936095114 88.20448662821063,82.94262936095113 74.93620766483188,94.0760373454795" fill="#031c09" fill-opacity="1" stroke-width="0.25"></polygon><polygon points="58.66025403784438,100 41.33974596215561,100 25.18885318240195,93.74311080353016 12.388843263675518,82.07435996719362 4.668428472803754,66.56967695021812 3.070293607589079,49.323055108460665 7.810275637149722,32.663746288481306 18.248213723246405,18.84168245883515 32.97440648874016,9.723609930415606 49.99999999999999,6.5409749231697845 67.02559351125987,9.72360993041562 81.75178627675359,18.841682458835145 92.18972436285028,32.66374628848131 96.92970639241092,49.32305510846062 95.33157152719625,66.56967695021811 87.61115673632446,82.07435996719363 74.81114681759806,93.74311080353013" fill="#042610" fill-opacity="1" stroke-width="0.25"></polygon><polygon points="58.66025403784439,100 41.33974596215562,100 25.337683058330313,93.37172851928818 13.090234344414405,81.12427980537227 6.461962863702574,65.12221690154698 6.461962863702574,47.801708825858185 13.090234344414398,31.799645922032887 25.337683058330303,19.552197208116986 41.3397459621556,12.923925727405155 58.66025403784439,12.923925727405148 74.66231694166967,19.552197208116972 86.90976565558557,31.799645922032845 93.53803713629742,47.80170882585817 93.53803713629742,65.12221690154696 86.9097656555856,81.12427980537225 74.66231694166973,93.37172851928814" fill="#053118" fill-opacity="1" stroke-width="0.25"></polygon><polygon points="58.66025403784439,100 41.339745962155625,100 25.516674485548155,92.95511468892705 13.926992414419026,80.08346873783954 8.574661067822674,63.6106866669129 10.385147159989394,46.38506214673741 19.045401197833772,31.385062146737415 33.057986582274495,21.204322937634878 49.99999999999999,17.603186817795752 66.94201341772546,21.20432293763485 80.95459880216619,31.38506214673738 89.61485284001058,46.385062146737354 91.42533893217734,63.61068666691286 86.073007585581,80.0834687378395 74.48332551445189,92.95511468892703" fill="#063b1f" fill-opacity="1" stroke-width="0.25"></polygon><polygon points="58.66025403784439,100 41.33974596215562,100 25.734507409707597,92.4849131927043 14.935347261503814,78.94319468678907 11.081171627903657,62.0569479106294 14.935347261503807,45.170701134469724 25.73450740970759,31.628982628554493 41.339745962155604,24.11389582125878 58.66025403784438,24.11389582125878 74.2654925902924,31.628982628554482 85.06465273849619,45.17070113446971 88.91882837209634,62.05694791062938 85.06465273849619,78.94319468678904 74.26549259029241,92.48491319270428" fill="#084627" fill-opacity="1" stroke-width="0.25"></polygon><polygon points="58.66025403784439,100 41.33974596215562,100 26.003197719161914,91.95075854565621 16.16402768589083,77.69625985028357 14.076271142111786,60.50203777966031 20.218207951810726,44.30708139732741 33.18279441024811,32.821460040095516 49.99999999999999,28.676391144164036 66.81720558975185,32.821460040095495 79.78179204818927,44.307081397327394 85.92372885788822,60.502037779660284 83.83597231410917,77.69625985028355 73.99680228083811,91.95075854565619" fill="#09502e" fill-opacity="1" stroke-width="0.25"></polygon><polygon points="58.66025403784438,100 41.33974596215561,100 26.339745962155618,91.33974596215562 17.67949192431123,76.33974596215562 17.679491924311222,59.01923788646687 26.33974596215561,44.019237886466854 41.33974596215562,35.358983848622465 58.66025403784437,35.35898384862246 73.66025403784438,44.01923788646685 82.32050807568876,59.019237886466854 82.32050807568878,76.3397459621556 73.6602540378444,91.33974596215562" fill="#0a5a36" fill-opacity="1" stroke-width="0.25"></polygon><polygon points="58.66025403784439,100 41.33974596215562,100 26.768807353051436,90.63582635521335 19.5736082655899,74.88053803377052 22.03857357119267,57.73632775618193 33.38109420194347,44.646361150380635 49.99999999999999,39.766610124424204 66.61890579805652,44.64636115038063 77.96142642880733,57.73632775618192 80.4263917344101,74.8805380337705 73.23119264694856,90.63582635521335" fill="#0b653d" fill-opacity="1" stroke-width="0.25"></polygon><polygon points="58.66025403784439,100 41.33974596215562,100 27.32716057771488,89.81926079089746 21.97482923111853,73.34647871997082 27.327160577714874,56.873696649044184 41.33974596215561,46.69295743994164 58.66025403784438,46.69295743994164 72.67283942228512,56.87369664904418 78.02517076888147,73.34647871997082 72.67283942228512,89.81926079089745" fill="#0c6f45" fill-opacity="1" stroke-width="0.25"></polygon><polygon points="58.66025403784439,100 41.33974596215562,100 28.071466998776852,88.86659201547162 25.06379233516814,71.80922137642276 33.72404637301253,56.809221376422755 49.99999999999999,50.885258721902275 66.27595362698744,56.80922137642274 74.93620766483185,71.80922137642276 71.92853300122316,88.8665920154716" fill="#0d7a4c" fill-opacity="1" stroke-width="0.25"></polygon><polygon points="58.66025403784439,100 41.33974596215562,100 29.092297248239728,87.75255128608411 29.092297248239724,70.43204321039535 41.339745962155604,58.18459449647946 58.66025403784439,58.18459449647946 70.90770275176027,70.43204321039534 70.90770275176027,87.75255128608413" fill="#0e8454" fill-opacity="1" stroke-width="0.25"></polygon><polygon points="58.66025403784438,100 41.33974596215562,100 30.54058581395183,86.45828149408477 34.39476144755198,69.5720347179251 49.99999999999999,62.0569479106294 65.60523855244801,69.5720347179251 69.45941418604818,86.45828149408476" fill="#0f8e5b" fill-opacity="1" stroke-width="0.25"></polygon><polygon points="58.66025403784438,100 41.33974596215561,100 32.67949192431122,85 41.33974596215562,70 58.660254037844375,69.99999999999999 67.32050807568878,85" fill="#119963" fill-opacity="1" stroke-width="0.25"></polygon><polygon points="58.66025403784438,100 41.33974596215562,100 35.98741461555927,83.52721792907337 50,73.34647871997082 64.01258538444074,83.52721792907336" fill="#12a36a" fill-opacity="1" stroke-width="0.25"></polygon><polygon points="58.66025403784439,100 41.33974596215562,100 41.33974596215561,82.67949192431124 58.66025403784438,82.67949192431124" fill="#13ae72" fill-opacity="1" stroke-width="0.25"></polygon><polygon points="58.66025403784438,100 41.33974596215562,100 50,85" fill="#14b879" fill-opacity="1" stroke-width="0.25"></polygon></g></svg>