<svg xmlns="http://www.w3.org/2000/svg" viewBox="0 0 100 100" id="svg" style="--frame-c: #f6c6a4; --frame-bdw: 1em; stroke: rgba(255, 255, 255, 0.25); background-color: rgb(8, 38, 28); --frame-asr: 100 / 100.;"><g transform="translate(-30 -30) scale(1.6)"><polygon points="58.660254037844396,100 41.339745962155625,100.00000000000001 24.609419887399458,95.51712263915974 9.609419887399447,86.85686860131534 -2.6380288265164324,74.60941988739947 -11.298282864360814,59.60941988739949 -15.781160225201091,42.87909381264329 -15.781160225201106,25.55858573695454 -11.298282864360843,8.828259662198398 -2.6380288265164396,-6.171740337801644 9.609419887399433,-18.419189051717517 24.609419887399415,-27.079443089561906 41.33974596215561,-31.562320450402183 58.66025403784437,-31.562320450402197 75.3905801126005,-27.079443089561934 90.3905801126005,-18.419189051717566 102.63802882651643,-6.171740337801658 111.29828286436081,8.82825966219832 115.78116022520109,25.558585736954516 115.7811602252011,42.87909381264327 111.29828286436086,59.60941988739941 102.63802882651645,74.60941988739944 90.39058011260057,86.85686860131534 75.39058011260059,95.51712263915972" fill="#f5d714" stroke-width="0"></polygon><polygon points="58.66025403784438,100 41.339745962155625,100 24.661529310427735,95.32698284638 9.862551113955085,86.32752484379301 -1.9596161152503626,73.66907462250998 -9.928176316614838,58.290451526886955 -13.452137833740423,41.33221767940692 -12.270144561953153,24.052087705779684 -6.469859534962069,7.7316497948147145 3.5185366413192867,-6.4186838346672275 16.95425031636816,-17.34944767083647 32.84081607120636,-24.24995696488149 49.999999999999986,-26.608432510192515 67.15918392879362,-24.2499569648815 83.04574968363181,-17.349447670836483 96.48146335868071,-6.41868383466722 106.46985953496204,7.731649794814668 112.27014456195315,24.05208770577969 113.45213783374044,41.33221767940684 109.92817631661484,58.290451526886926 101.95961611525041,73.66907462250991 90.13744888604492,86.32752484379299 75.33847068957225,95.32698284638002" fill="#efcd13" stroke-width="0"></polygon><polygon points="58.66025403784438,100 41.33974596215561,100 24.720840164099073,95.12024897404356 10.149901554994905,85.7560753292569 -1.1926190757558928,72.66610872345562 -8.387818163217418,56.9108204020128 -10.852783468820192,39.76661012442421 -8.387818163217418,22.622399846835624 -1.1926190757558857,6.8671115253927795 10.14990155499489,-6.222855080408493 24.720840164099084,-15.587028725195161 41.33974596215561,-20.466779751151584 58.66025403784437,-20.46677975115159 75.27915983590094,-15.587028725195147 89.85009844500512,-6.222855080408493 101.19261907575589,6.867111525392787 108.38781816321742,22.622399846835602 110.85278346882019,39.76661012442419 108.38781816321742,56.910820402012774 101.19261907575587,72.66610872345564 89.8500984450051,85.75607532925692 75.27915983590093,95.12024897404356" fill="#e9c312" stroke-width="0"></polygon><polygon points="58.66025403784438,100 41.33974596215561,100 24.788739462628186,94.89469062126489 10.47786409964079,85.13770100637645 -0.321296048562985,71.59598250046122 -6.649188211481537,55.4727762196226 -7.943551400942177,38.200699797438446 -4.08937576734202,21.314453021278762 4.570878270502355,6.314453021278794 17.267709136429644,-5.466484376145765 32.87294768887769,-12.981571183441481 49.999999999999986,-15.563058958364856 67.12705231112234,-12.981571183441467 82.73229086357038,-5.4664843761457504 95.42912172949767,6.3144530212788155 104.08937576734203,21.31445302127879 107.94355140094217,38.200699797438475 106.64918821148153,55.47277621962263 100.32129604856297,71.59598250046122 89.52213590035919,85.13770100637646 75.21126053737179,94.8946906212649" fill="#e3b811" stroke-width="0"></polygon><polygon points="58.66025403784439,100 41.33974596215562,100 24.866963891228984,94.64766865340366 10.854378506788251,84.46692944430112 0.6736392976857104,70.45434405986038 -4.678692048910641,53.98156198893374 -4.678692048910648,36.66105391324498 0.6736392976857033,20.188271842318336 10.854378506788237,6.175686457877603 24.866963891228973,-4.005052751224937 41.339745962155604,-9.357384097821289 58.660254037844375,-9.357384097821296 75.13303610877101,-4.0050527512249445 89.14562149321173,6.175686457877589 99.32636070231429,20.188271842318322 104.67869204891065,36.661053913244956 104.67869204891065,53.98156198893372 99.3263607023143,70.45434405986036 89.14562149321176,84.46692944430109 75.13303610877104,94.64766865340363" fill="#ddae10" stroke-width="0"></polygon><polygon points="58.66025403784439,100 41.33974596215562,100 24.957710789154092,94.37604022146843 11.28939622330072,83.73756397113634 1.8159762335581178,69.23741522369428 -2.435957128928493,52.44691008891727 -1.0056409087898714,35.18556032968904 5.951927937879113,19.323901029859744 17.682788868737944,6.580789093568434 32.915721078866234,-1.6628615711332202 49.99999999999999,-4.513723501305357 67.08427892113374,-1.6628615711332273 82.31721113126204,6.580789093568427 94.04807206212085,19.323901029859687 101.00564090878987,35.185560329689025 102.4359571289285,52.4469100889172 98.1840237664419,69.23741522369427 88.71060377669932,83.7375639711363 75.04228921084591,94.37604022146843" fill="#d7a40f" stroke-width="0"></polygon><polygon points="58.66025403784439,100 41.33974596215562,100 25.063792335168152,94.07603734547953 11.795513371789383,82.94262936095114 3.135259333944994,67.94262936095114 0.12758467033628307,50.88525872190228 3.1352593339449797,33.827888082853434 11.795513371789376,18.82788808285342 25.06379233516812,7.694480098325037 41.33974596215562,1.7705174438045503 58.66025403784437,1.7705174438045503 74.93620766483187,7.69448009832503 88.20448662821062,18.8278880828534 96.86474066605501,33.82788808285342 99.87241532966371,50.88525872190226 96.86474066605501,67.94262936095114 88.20448662821063,82.94262936095113 74.93620766483188,94.0760373454795" fill="#d09a0e" stroke-width="0"></polygon><polygon points="58.66025403784438,100 41.33974596215561,100 25.18885318240195,93.74311080353016 12.388843263675518,82.07435996719362 4.668428472803754,66.56967695021812 3.070293607589079,49.323055108460665 7.810275637149722,32.663746288481306 18.248213723246405,18.84168245883515 32.97440648874016,9.723609930415606 49.99999999999999,6.5409749231697845 67.02559351125987,9.72360993041562 81.75178627675359,18.841682458835145 92.18972436285028,32.66374628848131 96.92970639241092,49.32305510846062 95.33157152719625,66.56967695021811 87.61115673632446,82.07435996719363 74.81114681759806,93.74311080353013" fill="#ca8f0d" stroke-width="0"></polygon><polygon points="58.66025403784439,100 41.33974596215562,100 25.337683058330313,93.37172851928818 13.090234344414405,81.12427980537227 6.461962863702574,65.12221690154698 6.461962863702574,47.801708825858185 13.090234344414398,31.799645922032887 25.337683058330303,19.552197208116986 41.3397459621556,12.923925727405155 58.66025403784439,12.923925727405148 74.66231694166967,19.552197208116972 86.90976565558557,31.799645922032845 93.53803713629742,47.80170882585817 93.53803713629742,65.12221690154696 86.9097656555856,81.12427980537225 74.66231694166973,93.37172851928814" fill="#c4850c" stroke-width="0"></polygon><polygon points="58.66025403784439,100 41.339745962155625,100 25.516674485548155,92.95511468892705 13.926992414419026,80.08346873783954 8.574661067822674,63.6106866669129 10.385147159989394,46.38506214673741 19.045401197833772,31.385062146737415 33.057986582274495,21.204322937634878 49.99999999999999,17.603186817795752 66.94201341772546,21.20432293763485 80.95459880216619,31.38506214673738 89.61485284001058,46.385062146737354 91.42533893217734,63.61068666691286 86.073007585581,80.0834687378395 74.48332551445189,92.95511468892703" fill="#be7b0b" stroke-width="0"></polygon><polygon points="58.66025403784439,100 41.33974596215562,100 25.734507409707597,92.4849131927043 14.935347261503814,78.94319468678907 11.081171627903657,62.0569479106294 14.935347261503807,45.170701134469724 25.73450740970759,31.628982628554493 41.339745962155604,24.11389582125878 58.66025403784438,24.11389582125878 74.2654925902924,31.628982628554482 85.06465273849619,45.17070113446971 88.91882837209634,62.05694791062938 85.06465273849619,78.94319468678904 74.26549259029241,92.48491319270428" fill="#b8710a" stroke-width="0"></polygon><polygon points="58.66025403784439,100 41.33974596215562,100 26.003197719161914,91.95075854565621 16.16402768589083,77.69625985028357 14.076271142111786,60.50203777966031 20.218207951810726,44.30708139732741 33.18279441024811,32.821460040095516 49.99999999999999,28.676391144164036 66.81720558975185,32.821460040095495 79.78179204818927,44.307081397327394 85.92372885788822,60.502037779660284 83.83597231410917,77.69625985028355 73.99680228083811,91.95075854565619" fill="#b2660a" stroke-width="0"></polygon><polygon points="58.66025403784438,100 41.33974596215561,100 26.339745962155618,91.33974596215562 17.67949192431123,76.33974596215562 17.679491924311222,59.01923788646687 26.33974596215561,44.019237886466854 41.33974596215562,35.358983848622465 58.66025403784437,35.35898384862246 73.66025403784438,44.01923788646685 82.32050807568876,59.019237886466854 82.32050807568878,76.3397459621556 73.6602540378444,91.33974596215562" fill="#ac5c09" stroke-width="0"></polygon><polygon points="58.66025403784439,100 41.33974596215562,100 26.768807353051436,90.63582635521335 19.5736082655899,74.88053803377052 22.03857357119267,57.73632775618193 33.38109420194347,44.646361150380635 49.99999999999999,39.766610124424204 66.61890579805652,44.64636115038063 77.96142642880733,57.73632775618192 80.4263917344101,74.8805380337705 73.23119264694856,90.63582635521335" fill="#a65208" stroke-width="0"></polygon><polygon points="58.66025403784439,100 41.33974596215562,100 27.32716057771488,89.81926079089746 21.97482923111853,73.34647871997082 27.327160577714874,56.873696649044184 41.33974596215561,46.69295743994164 58.66025403784438,46.69295743994164 72.67283942228512,56.87369664904418 78.02517076888147,73.34647871997082 72.67283942228512,89.81926079089745" fill="#a04807" stroke-width="0"></polygon><polygon points="58.66025403784439,100 41.33974596215562,100 28.071466998776852,88.86659201547162 25.06379233516814,71.80922137642276 33.72404637301253,56.809221376422755 49.99999999999999,50.885258721902275 66.27595362698744,56.80922137642274 74.93620766483185,71.80922137642276 71.92853300122316,88.8665920154716" fill="#9a3d06" stroke-width="0"></polygon><polygon points="58.66025403784439,100 41.33974596215562,100 29.092297248239728,87.75255128608411 29.092297248239724,70.43204321039535 41.339745962155604,58.18459449647946 58.66025403784439,58.18459449647946 70.90770275176027,70.43204321039534 70.90770275176027,87.75255128608413" fill="#933305" stroke-width="0"></polygon><polygon points="58.66025403784438,100 41.33974596215562,100 30.54058581395183,86.45828149408477 34.39476144755198,69.5720347179251 49.99999999999999,62.0569479106294 65.60523855244801,69.5720347179251 69.45941418604818,86.45828149408476" fill="#8d2904" stroke-width="0"></polygon><polygon points="58.66025403784438,100 41.33974596215561,100 32.67949192431122,85 41.33974596215562,70 58.660254037844375,69.99999999999999 67.32050807568878,85" fill="#871f03" stroke-width="0"></polygon><polygon points="58.66025403784438,100 41.33974596215562,100 35.98741461555927,83.52721792907337 50,73.34647871997082 64.01258538444074,83.52721792907336" fill="#811402" stroke-width="0"></polygon><polygon points="58.66025403784439,100 41.33974596215562,100 41.33974596215561,82.67949192431124 58.66025403784438,82.67949192431124" fill="#7b0a01" stroke-width="0"></polygon><polygon points="58.66025403784438,100 41.33974596215562,100 50,85" fill="#750000" stroke-width="0"></polygon></g></svg>