<svg xmlns="http://www.w3.org/2000/svg" viewBox="0 0 100 100" id="svg" fill="none" style="--frame-c: #f6c6a4; --frame-bdw: 1em; stroke: rgba(240, 117, 240, 0.75); background-color: rgb(8, 8, 40); --frame-asr: 100 / 100.;"><g transform="translate(50 50) scale(1)"><circle cx="-18" cy="-31.17691453623979" r="9" stroke-width="0.15" fill="none"></circle><circle cx="0" cy="-31.17691453623979" r="9" stroke-width="0.15" fill="none"></circle><circle cx="18" cy="-31.17691453623979" r="9" stroke-width="0.15" fill="none"></circle><circle cx="-27" cy="-15.588457268119894" r="9" stroke-width="0.15" fill="none"></circle><circle cx="-9" cy="-15.588457268119894" r="9" stroke-width="0.15" fill="none"></circle><circle cx="9" cy="-15.588457268119894" r="9" stroke-width="0.15" fill="none"></circle><circle cx="27" cy="-15.588457268119894" r="9" stroke-width="0.15" fill="none"></circle><circle cx="-36" cy="0" r="9" stroke-width="0.15" fill="none"></circle><circle cx="-18" cy="0" r="9" stroke-width="0.15" fill="none"></circle><circle cx="0" cy="0" r="9" stroke-width="0.15" fill="none"></circle><circle cx="18" cy="0" r="9" stroke-width="0.15" fill="none"></circle><circle cx="36" cy="0" r="9" stroke-width="0.15" fill="none"></circle><circle cx="-27" cy="15.588457268119894" r="9" stroke-width="0.15" fill="none"></circle><circle cx="-9" cy="15.588457268119894" r="9" stroke-width="0.15" fill="none"></circle><circle cx="9" cy="15.588457268119894" r="9" stroke-width="0.15" fill="none"></circle><circle cx="27" cy="15.588457268119894" r="9" stroke-width="0.15" fill="none"></circle><circle cx="-18" cy="31.17691453623979" r="9" stroke-width="0.15" fill="none"></circle><circle cx="0" cy="31.17691453623979" r="9" stroke-width="0.15" fill="none"></circle><circle cx="18" cy="31.17691453623979" r="9" stroke-width="0.15" fill="none"></circle><line x1="-18" y1="-31.17691453623979" x2="18" y2="-31.17691453623979" stroke-width="0.15"></line><line x1="-18" y1="-31.17691453623979" x2="-36" y2="0" stroke-width="0.15"></line><line x1="-18" y1="-31.17691453623979" x2="0" y2="0" stroke-width="0.15"></line><line x1="-18" y1="-31.17691453623979" x2="36" y2="0" stroke-width="0.15"></line><line x1="-18" y1="-31.17691453623979" x2="-18" y2="31.17691453623979" stroke-width="0.15"></line><line x1="-18" y1="-31.17691453623979" x2="18" y2="31.17691453623979" stroke-width="0.15"></line><line x1="18" y1="-31.17691453623979" x2="-36" y2="0" stroke-width="0.15"></line><line x1="18" y1="-31.17691453623979" x2="0" y2="0" stroke-width="0.15"></line><line x1="18" y1="-31.17691453623979" x2="36" y2="0" stroke-width="0.15"></line><line x1="18" y1="-31.17691453623979" x2="-18" y2="31.17691453623979" stroke-width="0.15"></line><line x1="18" y1="-31.17691453623979" x2="18" y2="31.17691453623979" stroke-width="0.15"></line><line x1="-36" y1="0" x2="0" y2="0" stroke-width="0.15"></line><line x1="-36" y1="0" x2="36" y2="0" stroke-width="0.15"></line><line x1="-36" y1="0" x2="-18" y2="31.17691453623979" stroke-width="0.15"></line><line x1="-36" y1="0" x2="18" y2="31.17691453623979" stroke-width="0.15"></line><line x1="0" y1="0" x2="36" y2="0" stroke-width="0.15"></line><line x1="0" y1="0" x2="-18" y2="31.17691453623979" stroke-width="0.15"></line><line x1="0" y1="0" x2="18" y2="31.17691453623979" stroke-width="0.15"></line><line x1="36" y1="0" x2="-18" y2="31.17691453623979" stroke-width="0.15"></line><line x1="36" y1="0" x2="18" y2="31.17691453623979" stroke-width="0.15"></line><line x1="-18" y1="31.17691453623979" x2="18" y2="31.17691453623979" stroke-width="0.15"></line><line x1="0" y1="0" x2="9" y2="0" stroke-width="0.15"></line><line x1="-18" y1="-31.17691453623979" x2="9" y2="0" stroke-width="0.15"></line><line x1="18" y1="-31.17691453623979" x2="9" y2="0" stroke-width="0.15"></line><line x1="-36" y1="0" x2="9" y2="0" stroke-width="0.15"></line><line x1="0" y1="0" x2="9" y2="0" stroke-width="0.15"></line><line x1="36" y1="0" x2="9" y2="0" stroke-width="0.15"></line><line x1="-18" y1="31.17691453623979" x2="9" y2="0" stroke-width="0.15"></line><line x1="18" y1="31.17691453623979" x2="9" y2="0" stroke-width="0.15"></line><line x1="0" y1="0" x2="7.794228634059948" y2="4.499999999999999" stroke-width="0.15"></line><line x1="-18" y1="-31.17691453623979" x2="7.794228634059948" y2="4.499999999999999" stroke-width="0.15"></line><line x1="18" y1="-31.17691453623979" x2="7.794228634059948" y2="4.499999999999999" stroke-width="0.15"></line><line x1="-36" y1="0" x2="7.794228634059948" y2="4.499999999999999" stroke-width="0.15"></line><line x1="0" y1="0" x2="7.794228634059948" y2="4.499999999999999" stroke-width="0.15"></line><line x1="36" y1="0" x2="7.794228634059948" y2="4.499999999999999" stroke-width="0.15"></line><line x1="-18" y1="31.17691453623979" x2="7.794228634059948" y2="4.499999999999999" stroke-width="0.15"></line><line x1="18" y1="31.17691453623979" x2="7.794228634059948" y2="4.499999999999999" stroke-width="0.15"></line><line x1="0" y1="0" x2="4.500000000000001" y2="7.794228634059947" stroke-width="0.15"></line><line x1="-18" y1="-31.17691453623979" x2="4.500000000000001" y2="7.794228634059947" stroke-width="0.15"></line><line x1="18" y1="-31.17691453623979" x2="4.500000000000001" y2="7.794228634059947" stroke-width="0.15"></line><line x1="-36" y1="0" x2="4.500000000000001" y2="7.794228634059947" stroke-width="0.15"></line><line x1="0" y1="0" x2="4.500000000000001" y2="7.794228634059947" stroke-width="0.15"></line><line x1="36" y1="0" x2="4.500000000000001" y2="7.794228634059947" stroke-width="0.15"></line><line x1="-18" y1="31.17691453623979" x2="4.500000000000001" y2="7.794228634059947" stroke-width="0.15"></line><line x1="18" y1="31.17691453623979" x2="4.500000000000001" y2="7.794228634059947" stroke-width="0.15"></line><line x1="0" y1="0" x2="5.51091059616309e-16" y2="9" stroke-width="0.15"></line><line x1="-18" y1="-31.17691453623979" x2="5.51091059616309e-16" y2="9" stroke-width="0.15"></line><line x1="18" y1="-31.17691453623979" x2="5.51091059616309e-16" y2="9" stroke-width="0.15"></line><line x1="-36" y1="0" x2="5.51091059616309e-16" y2="9" stroke-width="0.15"></line><line x1="0" y1="0" x2="5.51091059616309e-16" y2="9" stroke-width="0.15"></line><line x1="36" y1="0" x2="5.51091059616309e-16" y2="9" stroke-width="0.15"></line><line x1="-18" y1="31.17691453623979" x2="5.51091059616309e-16" y2="9" stroke-width="0.15"></line><line x1="18" y1="31.17691453623979" x2="5.51091059616309e-16" y2="9" stroke-width="0.15"></line><line x1="0" y1="0" x2="-4.499999999999998" y2="7.794228634059948" stroke-width="0.15"></line><line x1="-18" y1="-31.17691453623979" x2="-4.499999999999998" y2="7.794228634059948" stroke-width="0.15"></line><line x1="18" y1="-31.17691453623979" x2="-4.499999999999998" y2="7.794228634059948" stroke-width="0.15"></line><line x1="-36" y1="0" x2="-4.499999999999998" y2="7.794228634059948" stroke-width="0.15"></line><line x1="0" y1="0" x2="-4.499999999999998" y2="7.794228634059948" stroke-width="0.15"></line><line x1="36" y1="0" x2="-4.499999999999998" y2="7.794228634059948" stroke-width="0.15"></line><line x1="-18" y1="31.17691453623979" x2="-4.499999999999998" y2="7.794228634059948" stroke-width="0.15"></line><line x1="18" y1="31.17691453623979" x2="-4.499999999999998" y2="7.794228634059948" stroke-width="0.15"></line><line x1="0" y1="0" x2="-7.794228634059948" y2="4.499999999999999" stroke-width="0.15"></line><line x1="-18" y1="-31.17691453623979" x2="-7.794228634059948" y2="4.499999999999999" stroke-width="0.15"></line><line x1="18" y1="-31.17691453623979" x2="-7.794228634059948" y2="4.499999999999999" stroke-width="0.15"></line><line x1="-36" y1="0" x2="-7.794228634059948" y2="4.499999999999999" stroke-width="0.15"></line><line x1="0" y1="0" x2="-7.794228634059948" y2="4.499999999999999" stroke-width="0.15"></line><line x1="36" y1="0" x2="-7.794228634059948" y2="4.499999999999999" stroke-width="0.15"></line><line x1="-18" y1="31.17691453623979" x2="-7.794228634059948" y2="4.499999999999999" stroke-width="0.15"></line><line x1="18" y1="31.17691453623979" x2="-7.794228634059948" y2="4.499999999999999" stroke-width="0.15"></line><line x1="0" y1="0" x2="-9" y2="1.102182119232618e-15" stroke-width="0.15"></line><line x1="-18" y1="-31.17691453623979" x2="-9" y2="1.102182119232618e-15" stroke-width="0.15"></line><line x1="18" y1="-31.17691453623979" x2="-9" y2="1.102182119232618e-15" stroke-width="0.15"></line><line x1="-36" y1="0" x2="-9" y2="1.102182119232618e-15" stroke-width="0.15"></line><line x1="0" y1="0" x2="-9" y2="1.102182119232618e-15" stroke-width="0.15"></line><line x1="36" y1="0" x2="-9" y2="1.102182119232618e-15" stroke-width="0.15"></line><line x1="-18" y1="31.17691453623979" x2="-9" y2="1.102182119232618e-15" stroke-width="0.15"></line><line x1="18" y1="31.17691453623979" x2="-9" y2="1.102182119232618e-15" stroke-width="0.15"></line><line x1="0" y1="0" x2="-7.794228634059947" y2="-4.500000000000001" stroke-width="0.15"></line><line x1="-18" y1="-31.17691453623979" x2="-7.794228634059947" y2="-4.500000000000001" stroke-width="0.15"></line><line x1="18" y1="-31.17691453623979" x2="-7.794228634059947" y2="-4.500000000000001" stroke-width="0.15"></line><line x1="-36" y1="0" x2="-7.794228634059947" y2="-4.500000000000001" stroke-width="0.15"></line><line x1="0" y1="0" x2="-7.794228634059947" y2="-4.500000000000001" stroke-width="0.15"></line><line x1="36" y1="0" x2="-7.794228634059947" y2="-4.500000000000001" stroke-width="0.15"></line><line x1="-18" y1="31.17691453623979" x2="-7.794228634059947" y2="-4.500000000000001" stroke-width="0.15"></line><line x1="18" y1="31.17691453623979" x2="-7.794228634059947" y2="-4.500000000000001" stroke-width="0.15"></line><line x1="0" y1="0" x2="-4.5000000000000036" y2="-7.794228634059945" stroke-width="0.15"></line><line x1="-18" y1="-31.17691453623979" x2="-4.5000000000000036" y2="-7.794228634059945" stroke-width="0.15"></line><line x1="18" y1="-31.17691453623979" x2="-4.5000000000000036" y2="-7.794228634059945" stroke-width="0.15"></line><line x1="-36" y1="0" x2="-4.5000000000000036" y2="-7.794228634059945" stroke-width="0.15"></line><line x1="0" y1="0" x2="-4.5000000000000036" y2="-7.794228634059945" stroke-width="0.15"></line><line x1="36" y1="0" x2="-4.5000000000000036" y2="-7.794228634059945" stroke-width="0.15"></line><line x1="-18" y1="31.17691453623979" x2="-4.5000000000000036" y2="-7.794228634059945" stroke-width="0.15"></line><line x1="18" y1="31.17691453623979" x2="-4.5000000000000036" y2="-7.794228634059945" stroke-width="0.15"></line><line x1="0" y1="0" x2="-1.6532731788489267e-15" y2="-9" stroke-width="0.15"></line><line x1="-18" y1="-31.17691453623979" x2="-1.6532731788489267e-15" y2="-9" stroke-width="0.15"></line><line x1="18" y1="-31.17691453623979" x2="-1.6532731788489267e-15" y2="-9" stroke-width="0.15"></line><line x1="-36" y1="0" x2="-1.6532731788489267e-15" y2="-9" stroke-width="0.15"></line><line x1="0" y1="0" x2="-1.6532731788489267e-15" y2="-9" stroke-width="0.15"></line><line x1="36" y1="0" x2="-1.6532731788489267e-15" y2="-9" stroke-width="0.15"></line><line x1="-18" y1="31.17691453623979" x2="-1.6532731788489267e-15" y2="-9" stroke-width="0.15"></line><line x1="18" y1="31.17691453623979" x2="-1.6532731788489267e-15" y2="-9" stroke-width="0.15"></line><line x1="0" y1="0" x2="4.500000000000001" y2="-7.794228634059947" stroke-width="0.15"></line><line x1="-18" y1="-31.17691453623979" x2="4.500000000000001" y2="-7.794228634059947" stroke-width="0.15"></line><line x1="18" y1="-31.17691453623979" x2="4.500000000000001" y2="-7.794228634059947" stroke-width="0.15"></line><line x1="-36" y1="0" x2="4.500000000000001" y2="-7.794228634059947" stroke-width="0.15"></line><line x1="0" y1="0" x2="4.500000000000001" y2="-7.794228634059947" stroke-width="0.15"></line><line x1="36" y1="0" x2="4.500000000000001" y2="-7.794228634059947" stroke-width="0.15"></line><line x1="-18" y1="31.17691453623979" x2="4.500000000000001" y2="-7.794228634059947" stroke-width="0.15"></line><line x1="18" y1="31.17691453623979" x2="4.500000000000001" y2="-7.794228634059947" stroke-width="0.15"></line><line x1="0" y1="0" x2="7.794228634059945" y2="-4.5000000000000036" stroke-width="0.15"></line><line x1="-18" y1="-31.17691453623979" x2="7.794228634059945" y2="-4.5000000000000036" stroke-width="0.15"></line><line x1="18" y1="-31.17691453623979" x2="7.794228634059945" y2="-4.5000000000000036" stroke-width="0.15"></line><line x1="-36" y1="0" x2="7.794228634059945" y2="-4.5000000000000036" stroke-width="0.15"></line><line x1="0" y1="0" x2="7.794228634059945" y2="-4.5000000000000036" stroke-width="0.15"></line><line x1="36" y1="0" x2="7.794228634059945" y2="-4.5000000000000036" stroke-width="0.15"></line><line x1="-18" y1="31.17691453623979" x2="7.794228634059945" y2="-4.5000000000000036" stroke-width="0.15"></line><line x1="18" y1="31.17691453623979" x2="7.794228634059945" y2="-4.5000000000000036" stroke-width="0.15"></line></g></svg>