<svg xmlns="http://www.w3.org/2000/svg" viewBox="0 0 100 100" id="svg" style="--frame-c: #f6c6a4; --frame-bdw: 1em; background-color: rgb(231, 231, 231); --frame-asr: 100 / 100.;"><g><path d="M 90.72806341533254 44.391741699188415 C 100.78548565536411 44.391741699188415, 80.25950994853619 24.281099253669538, 90.31693218856776 24.281099253669538 C 120.74353984611072 24.281099253669538, 63.17631786308435 85.04553014877351, 93.60292552062731 85.04553014877351 C 122.87236504526675 85.04553014877351, 51.58856820037493 27.910887148845973, 80.85800772501436 27.910887148845973 C 98.19566883333492 27.910887148845973, 41.796162441928516 54.937499825405396, 59.133823550249076 54.937499825405396" fill="none" stroke="#BB3331" stroke-width="1" stroke-linecap="round" stroke-linejoin="round"></path><path d="M 28.201563004044942 12.27631756681313 C 48.01788527238868 12.27631756681313, -1.0987173716178518 50.75749545406134, 18.717604896725884 50.75749545406134 C 62.78469133599009 50.75749545406134, 50.541658212518264 5.944915349130961, 94.60874465178247 5.944915349130961 C 96.05701388053143 5.944915349130961, 90.43441428954597 6.92395862307391, 91.88268351829493 6.92395862307391" fill="none" stroke="#8A8D95" stroke-width="1" stroke-linecap="round" stroke-linejoin="round"></path><path d="M 14.223066275668444 69.57206413271736 C 18.626297008864817 69.57206413271736, 18.39205257382702 67.55442721632025, 22.795283307023393 67.55442721632025 C 46.626402852670324 67.55442721632025, 18.968864897542385 24.293579239791367, 42.79998444318932 24.293579239791367" fill="none" stroke="#F3D654" stroke-width="1" stroke-linecap="round" stroke-linejoin="round"></path><path d="M 70.6270798709904 85.0084913608195 C 88.9670085286204 85.0084913608195, 31.55937210305185 54.746781134494064, 49.899300760681854 54.746781134494064 C 69.22018690915274 54.746781134494064, 69.01502738834698 50.770178998741116, 88.33591353681787 50.770178998741116 C 92.3996881197656 50.770178998741116, 78.46574201733019 45.083105053434316, 82.52951660027792 45.083105053434316 C 86.54675777755381 45.083105053434316, 77.33187563403645 53.03040415714334, 81.34911681131234 53.03040415714334" fill="none" stroke="#882D2F" stroke-width="1" stroke-linecap="round" stroke-linejoin="round"></path><path d="M 68.64842828568956 61.348837723245815 C 103.80048855373397 61.348837723245815, -29.751154994601624 30.649974598233804, 5.400905273442791 30.649974598233804 C 44.47216402324263 30.649974598233804, 34.22658626434912 69.33147683149971, 73.29784501414896 69.33147683149971" fill="none" stroke="#463781" stroke-width="1" stroke-linecap="round" stroke-linejoin="round"></path><path d="M 49.02143457000932 22.37172971863153 C 81.49474507284302 22.37172971863153, -3.6291154390113434 84.10456203631936, 28.844195063822347 84.10456203631936 C 58.77999742902547 84.10456203631936, 6.320558400280795 24.693545780029687, 36.25636076548392 24.693545780029687 C 63.36105112126175 24.693545780029687, 63.32386600955442 26.701076856291394, 90.42855636533226 26.701076856291394 C 94.65205412378204 26.701076856291394, 78.75873678315324 22.7130918312474, 82.98223454160302 22.7130918312474" fill="none" stroke="#A16834" stroke-width="1" stroke-linecap="round" stroke-linejoin="round"></path><path d="M 6.27210200404485 86.98591734799304 C 45.56074224014337 86.98591734799304, 7.308383392248047 19.54490829266941, 46.59702362834657 19.54490829266941 C 60.5095770456428 19.54490829266941, 58.537481087258385 9.256157202709435, 72.45003450455462 9.256157202709435 C 107.82268424715386 9.256157202709435, 3.6197664406536987 71.58981725501599, 38.99241618325293 71.58981725501599 C 62.61402654591133 71.58981725501599, -10.1823103554001 31.85368560890421, 13.439300007258305 31.85368560890421" fill="none" stroke="#47A2CD" stroke-width="1" stroke-linecap="round" stroke-linejoin="round" stroke-dasharray="2"></path><path d="M 15.897689025259254 45.845562458484146 C 54.67598204047135 45.845562458484146, 48.38361110459655 76.4467990944828, 87.16190411980864 76.4467990944828 C 123.31061846984434 76.4467990944828, 24.26142964204913 9.280873754987663, 60.410143992084826 9.280873754987663" fill="none" stroke="#C75C91" stroke-width="1" stroke-linecap="round" stroke-linejoin="round" stroke-dasharray="2"></path><path d="M 33.86118009621423 39.683714968923745 C 44.23969207074488 39.683714968923745, 6.710194117363054 51.912294567401126, 17.08870609189371 51.912294567401126 C 41.46974303496738 51.912294567401126, 26.423444936788435 16.684658928693615, 50.8044818798621 16.684658928693615 C 74.98658823021321 16.684658928693615, 64.08332076355507 47.27509292905912, 88.26542711390618 47.27509292905912 C 116.22604196393988 47.27509292905912, 20.929963414236813 86.9840995803976, 48.89057826427051 86.9840995803976" fill="none" stroke="#E2713C" stroke-width="1" stroke-linecap="round" stroke-linejoin="round"></path><path d="M 74.72165749612331 62.67464244997362 C 90.34451227284312 62.67464244997362, 53.48392367080057 93.4117128823923, 69.10677844752037 93.4117128823923 C 100.67751868474627 93.4117128823923, -17.716239043437724 62.849768985082875, 13.854501193788183 62.849768985082875" fill="none" stroke="#273D78" stroke-width="1" stroke-linecap="round" stroke-linejoin="round"></path><path d="M 52.73071552967341 93.64586357487876 C 82.11617601040163 93.64586357487876, 39.86376443432111 37.24409056779141, 69.24922491504933 37.24409056779141 C 93.68329220745746 37.24409056779141, 4.21906457862147 64.44798380682997, 28.653131871029597 64.44798380682997" fill="none" stroke="#999DA1" stroke-width="1" stroke-linecap="round" stroke-linejoin="round" stroke-dasharray="2"></path><path d="M 27.12390549429983 6.692402825322192 C 69.62010658383996 6.692402825322192, 14.701288800315261 86.1863519646996, 57.19748988985539 86.1863519646996 C 68.25944712956593 86.1863519646996, 31.524933053854237 69.57316529477951, 42.58689029356478 69.57316529477951 C 70.7173933732403 69.57316529477951, 12.045366998247601 13.3638440430307, 40.175870077923115 13.3638440430307" fill="none" stroke="#DF6738" stroke-width="1" stroke-linecap="round" stroke-linejoin="round"></path><path d="M 79.12069530935537 15.714829208877667 C 118.72008117729857 15.714829208877667, -26.41509864033649 59.587776838939554, 13.184287227606717 59.587776838939554 C 37.16773239763769 59.587776838939554, 31.065352059790005 83.00113565757192, 55.04879722982098 83.00113565757192 C 94.66813424690554 83.00113565757192, -8.057688355150283 7.323389160709828, 31.56164866193427 7.323389160709828 C 68.37556733051983 7.323389160709828, 3.751133858613038 80.39867328460407, 40.56505252719859 80.39867328460407" fill="none" stroke="#885F54" stroke-width="1" stroke-linecap="round" stroke-linejoin="round"></path><path d="M 57.862146389681826 17.597938703757595 C 66.9143108655378 17.597938703757595, 66.40512644240937 13.334417176891233, 75.45729091826533 13.334417176891233 C 109.02803819198387 13.334417176891233, -25.249079903525097 12.446531556387166, 8.321667370193442 12.446531556387166" fill="none" stroke="#204E3E" stroke-width="1" stroke-linecap="round" stroke-linejoin="round"></path><path d="M 86.56410219540307 87.70218176776679 C 139.52129846919337 87.70218176776679, -32.672358293542956 5.089121760159198, 20.28483798024734 5.089121760159198 C 60.7736139530902 5.089121760159198, 30.2170468863644 68.45384540787917, 70.70582285920726 68.45384540787917" fill="none" stroke="#D1C74C" stroke-width="1" stroke-linecap="round" stroke-linejoin="round" stroke-dasharray="2"></path><path d="M 29.772068357160407 78.1671398715492 C 48.64794876547326 78.1671398715492, -4.980639347418045 43.91627419255839, 13.895241060894804 43.91627419255839 C 23.730155347338112 43.91627419255839, 15.628745160666995 59.824569265513816, 25.463659447110302 59.824569265513816" fill="none" stroke="#2B6767" stroke-width="1" stroke-linecap="round" stroke-linejoin="round"></path><path d="M 59.332915193213594 5.876879767462524 C 77.92760355555625 5.876879767462524, 10.907600668720598 28.084614544890783, 29.50228903106325 28.084614544890783 C 55.1249248175099 28.084614544890783, 30.560527448441654 71.83628663064367, 56.183163234888305 71.83628663064367 C 88.71844507535033 71.83628663064367, -18.078325599106922 21.905315203221882, 14.456956241355098 21.905315203221882" fill="none" stroke="#BB3331" stroke-width="1" stroke-linecap="round" stroke-linejoin="round" stroke-dasharray="2"></path><path d="M 75.31304726752082 84.91393715382583 C 108.85811225136328 84.91393715382583, -25.31711082422751 84.09185334760144, 8.227954159614956 84.09185334760144 C 23.008077100044332 84.09185334760144, 18.31574450777171 68.1107699923283, 33.09586744820109 68.1107699923283 C 50.50858556692472 68.1107699923283, 50.34592285524538 64.74875562147446, 67.75864097396901 64.74875562147446 C 92.07966259828258 64.74875562147446, 54.0637534956972 17.281570698502257, 78.38477512001077 17.281570698502257" fill="none" stroke="#8A8D95" stroke-width="1" stroke-linecap="round" stroke-linejoin="round"></path><path d="M 75.99461366958764 15.794307572519923 C 107.38452047177194 15.794307572519923, -14.269015443433723 37.59315656657716, 17.120891358750576 37.59315656657716 C 49.04038757577217 37.59315656657716, 45.09479776502045 59.688343309352746, 77.01429398204205 59.688343309352746 C 110.91301153572839 59.688343309352746, -11.830916018035587 19.972160524786545, 22.06780153565075 19.972160524786545 C 35.42855152210663 19.972160524786545, 35.11745454351512 15.906551778248897, 48.478204529971 15.906551778248897" fill="none" stroke="#F3D654" stroke-width="1" stroke-linecap="round" stroke-linejoin="round"></path><path d="M 53.892531833254935 17.387155826939086 C 67.4095438865877 17.387155826939086, 19.078089657143558 34.0382197438525, 32.59510171047633 34.0382197438525 C 46.275991963774345 34.0382197438525, 36.39473315547286 55.08812220554083, 50.07562340877088 55.08812220554083" fill="none" stroke="#882D2F" stroke-width="1" stroke-linecap="round" stroke-linejoin="round" stroke-dasharray="2"></path><circle cx="90.72806341533254" cy="44.391741699188415" r="1" fill="white" stroke="black" stroke-width=".5"></circle><circle cx="59.133823550249076" cy="54.937499825405396" r="1" fill="white" stroke="black" stroke-width=".5"></circle><circle cx="28.201563004044942" cy="12.27631756681313" r="1" fill="white" stroke="black" stroke-width=".5"></circle><circle cx="91.88268351829493" cy="6.92395862307391" r="1" fill="white" stroke="black" stroke-width=".5"></circle><circle cx="14.223066275668444" cy="69.57206413271736" r="1" fill="white" stroke="black" stroke-width=".5"></circle><circle cx="42.79998444318932" cy="24.293579239791367" r="1" fill="white" stroke="black" stroke-width=".5"></circle><circle cx="70.6270798709904" cy="85.0084913608195" r="1" fill="white" stroke="black" stroke-width=".5"></circle><circle cx="81.34911681131234" cy="53.03040415714334" r="1" fill="white" stroke="black" stroke-width=".5"></circle><circle cx="68.64842828568956" cy="61.348837723245815" r="1" fill="white" stroke="black" stroke-width=".5"></circle><circle cx="73.29784501414896" cy="69.33147683149971" r="1" fill="white" stroke="black" stroke-width=".5"></circle><circle cx="49.02143457000932" cy="22.37172971863153" r="1" fill="white" stroke="black" stroke-width=".5"></circle><circle cx="82.98223454160302" cy="22.7130918312474" r="1" fill="white" stroke="black" stroke-width=".5"></circle><circle cx="6.27210200404485" cy="86.98591734799304" r="1" fill="white" stroke="black" stroke-width=".5"></circle><circle cx="13.439300007258305" cy="31.85368560890421" r="1" fill="white" stroke="black" stroke-width=".5"></circle><circle cx="15.897689025259254" cy="45.845562458484146" r="1" fill="white" stroke="black" stroke-width=".5"></circle><circle cx="60.410143992084826" cy="9.280873754987663" r="1" fill="white" stroke="black" stroke-width=".5"></circle><circle cx="33.86118009621423" cy="39.683714968923745" r="1" fill="white" stroke="black" stroke-width=".5"></circle><circle cx="48.89057826427051" cy="86.9840995803976" r="1" fill="white" stroke="black" stroke-width=".5"></circle><circle cx="74.72165749612331" cy="62.67464244997362" r="1" fill="white" stroke="black" stroke-width=".5"></circle><circle cx="13.854501193788183" cy="62.849768985082875" r="1" fill="white" stroke="black" stroke-width=".5"></circle><circle cx="52.73071552967341" cy="93.64586357487876" r="1" fill="white" stroke="black" stroke-width=".5"></circle><circle cx="28.653131871029597" cy="64.44798380682997" r="1" fill="white" stroke="black" stroke-width=".5"></circle><circle cx="27.12390549429983" cy="6.692402825322192" r="1" fill="white" stroke="black" stroke-width=".5"></circle><circle cx="40.175870077923115" cy="13.3638440430307" r="1" fill="white" stroke="black" stroke-width=".5"></circle><circle cx="79.12069530935537" cy="15.714829208877667" r="1" fill="white" stroke="black" stroke-width=".5"></circle><circle cx="40.56505252719859" cy="80.39867328460407" r="1" fill="white" stroke="black" stroke-width=".5"></circle><circle cx="57.862146389681826" cy="17.597938703757595" r="1" fill="white" stroke="black" stroke-width=".5"></circle><circle cx="8.321667370193442" cy="12.446531556387166" r="1" fill="white" stroke="black" stroke-width=".5"></circle><circle cx="86.56410219540307" cy="87.70218176776679" r="1" fill="white" stroke="black" stroke-width=".5"></circle><circle cx="70.70582285920726" cy="68.45384540787917" r="1" fill="white" stroke="black" stroke-width=".5"></circle><circle cx="29.772068357160407" cy="78.1671398715492" r="1" fill="white" stroke="black" stroke-width=".5"></circle><circle cx="25.463659447110302" cy="59.824569265513816" r="1" fill="white" stroke="black" stroke-width=".5"></circle><circle cx="59.332915193213594" cy="5.876879767462524" r="1" fill="white" stroke="black" stroke-width=".5"></circle><circle cx="14.456956241355098" cy="21.905315203221882" r="1" fill="white" stroke="black" stroke-width=".5"></circle><circle cx="75.31304726752082" cy="84.91393715382583" r="1" fill="white" stroke="black" stroke-width=".5"></circle><circle cx="78.38477512001077" cy="17.281570698502257" r="1" fill="white" stroke="black" stroke-width=".5"></circle><circle cx="75.99461366958764" cy="15.794307572519923" r="1" fill="white" stroke="black" stroke-width=".5"></circle><circle cx="48.478204529971" cy="15.906551778248897" r="1" fill="white" stroke="black" stroke-width=".5"></circle><circle cx="53.892531833254935" cy="17.387155826939086" r="1" fill="white" stroke="black" stroke-width=".5"></circle><circle cx="50.07562340877088" cy="55.08812220554083" r="1" fill="white" stroke="black" stroke-width=".5"></circle></g></svg>