<svg xmlns="http://www.w3.org/2000/svg" viewBox="0 0 100 100" id="svg" style="--frame-c: #f6c6a4; --frame-bdw: 1em; background-color: rgb(231, 231, 231); --frame-asr: 100 / 100.;"><g><path d="M 19.04556486957496 85.01046790645529 C 23.89546251734548 85.01046790645529, 8.666522177159079 77.04086416155846, 13.516419824929596 77.04086416155846 C 37.18225837197684 77.04086416155846, 3.4697019760623746 31.71088282527251, 27.13554052310962 31.71088282527251 C 59.897313383327486 31.71088282527251, 23.886338665157353 90.21167937210821, 56.64811152537522 90.21167937210821 C 97.79780784585857 90.21167937210821, 6.500153223908669 8.405681362221449, 47.64984954439202 8.405681362221449" fill="none" stroke="#FF0A0A" stroke-width="1" stroke-linecap="round" stroke-linejoin="round"></path><path d="M 44.598946218779574 93.37186417969181 C 71.25839296764354 93.37186417969181, 27.834809334457894 40.97923830059745, 54.49425608332187 40.97923830059745 C 77.14060382041038 40.97923830059745, 64.5549902158347 9.647544141300386, 87.20133795292321 9.647544141300386" fill="none" stroke="#008D41" stroke-width="1" stroke-linecap="round" stroke-linejoin="round"></path><path d="M 91.89914261047967 66.72184075329126 C 119.52827503241986 66.72184075329126, 58.611553444488784 11.754052905933497, 86.24068586642896 11.754052905933497 C 125.28431432439149 11.754052905933497, 25.662165761453714 86.81315051844886, 64.70579421941625 86.81315051844886 C 76.40453552085948 86.81315051844886, 41.877252649850675 66.2323405697593, 53.57599395129391 66.2323405697593 C 78.87084286384349 66.2323405697593, 57.70749043103447 25.08130506773957, 83.00233934358405 25.08130506773957" fill="none" stroke="#009CD3" stroke-width="1" stroke-linecap="round" stroke-linejoin="round"></path><path d="M 82.4378074401355 6.852107807083662 C 94.0860870845041 6.852107807083662, 81.83119897591577 27.36579036880616, 93.47947862028437 27.36579036880616 C 109.633258813075 27.36579036880616, 55.41510140069052 51.10824592835229, 71.56888159348115 51.10824592835229" fill="none" stroke="#FFC600" stroke-width="1" stroke-linecap="round" stroke-linejoin="round"></path><path d="M 83.16721832805675 11.537792381624115 C 104.09088436839828 11.537792381624115, 38.69460245499957 46.130366209646894, 59.6182684953411 46.130366209646894 C 67.3221623251771 46.130366209646894, 36.85606724435837 49.39338600360746, 44.559961074194376 49.39338600360746 C 59.866870583428806 49.39338600360746, 41.90076120673407 77.27243469098092, 57.2076707159685 77.27243469098092" fill="none" stroke="#FF6319" stroke-width="1" stroke-linecap="round" stroke-linejoin="round"></path><path d="M 66.94942166549271 47.984826099939376 C 103.2520334805669 47.984826099939376, -27.86798132488056 90.96781938908802, 8.434630490193628 90.96781938908802 C 36.9513277645737 90.96781938908802, 25.283075230019904 56.40176691291664, 53.799772504399975 56.40176691291664 C 59.699803400629605 56.40176691291664, 36.66467592113268 52.79416974668457, 42.56470681736231 52.79416974668457 C 68.19538979606631 52.79416974668457, -18.335088423077117 89.993865445553, 7.295594555626879 89.993865445553" fill="none" stroke="#6CBE45" stroke-width="1" stroke-linecap="round" stroke-linejoin="round"></path><path d="M 7.755701656845108 64.9187506813808 C 16.79657721361255 64.9187506813808, 5.798826581947457 81.55505617583144, 14.839702138714898 81.55505617583144 C 30.73554739708935 81.55505617583144, 30.272787772183896 76.15045858795874, 46.16863303055835 76.15045858795874 C 71.12519436229066 76.15045858795874, 29.040736948817436 26.855105719542813, 53.99729828054974 26.855105719542813 C 75.03368187742804 26.855105719542813, 68.01320386540466 50.12428624787663, 89.04958746228296 50.12428624787663" fill="none" stroke="#FF8080" stroke-width="1" stroke-linecap="round" stroke-linejoin="round"></path><path d="M 56.46342185059631 21.219501757132683 C 78.69983956696656 21.219501757132683, 8.70934066535634 57.64314713368896, 30.945758381726584 57.64314713368896 C 38.70095378358823 57.64314713368896, 7.992091694185631 54.548200694313046, 15.747287096047277 54.548200694313046 C 32.85195267907008 54.548200694313046, 12.666820287176375 23.34563369140035, 29.771485870199182 23.34563369140035" fill="none" stroke="#80C6A0" stroke-width="1" stroke-linecap="round" stroke-linejoin="round" stroke-dasharray="2"></path><circle cx="19.04556486957496" cy="85.01046790645529" r="1" fill="white" stroke="black" stroke-width=".5"></circle><circle cx="47.64984954439202" cy="8.405681362221449" r="1" fill="white" stroke="black" stroke-width=".5"></circle><circle cx="44.598946218779574" cy="93.37186417969181" r="1" fill="white" stroke="black" stroke-width=".5"></circle><circle cx="87.20133795292321" cy="9.647544141300386" r="1" fill="white" stroke="black" stroke-width=".5"></circle><circle cx="91.89914261047967" cy="66.72184075329126" r="1" fill="white" stroke="black" stroke-width=".5"></circle><circle cx="83.00233934358405" cy="25.08130506773957" r="1" fill="white" stroke="black" stroke-width=".5"></circle><circle cx="82.4378074401355" cy="6.852107807083662" r="1" fill="white" stroke="black" stroke-width=".5"></circle><circle cx="71.56888159348115" cy="51.10824592835229" r="1" fill="white" stroke="black" stroke-width=".5"></circle><circle cx="83.16721832805675" cy="11.537792381624115" r="1" fill="white" stroke="black" stroke-width=".5"></circle><circle cx="57.2076707159685" cy="77.27243469098092" r="1" fill="white" stroke="black" stroke-width=".5"></circle><circle cx="66.94942166549271" cy="47.984826099939376" r="1" fill="white" stroke="black" stroke-width=".5"></circle><circle cx="7.295594555626879" cy="89.993865445553" r="1" fill="white" stroke="black" stroke-width=".5"></circle><circle cx="7.755701656845108" cy="64.9187506813808" r="1" fill="white" stroke="black" stroke-width=".5"></circle><circle cx="89.04958746228296" cy="50.12428624787663" r="1" fill="white" stroke="black" stroke-width=".5"></circle><circle cx="56.46342185059631" cy="21.219501757132683" r="1" fill="white" stroke="black" stroke-width=".5"></circle><circle cx="29.771485870199182" cy="23.34563369140035" r="1" fill="white" stroke="black" stroke-width=".5"></circle></g></svg>