<svg xmlns="http://www.w3.org/2000/svg" viewBox="0 0 100 100" id="svg" style="--frame-c: #f6c6a4; --frame-bdw: 1em; background-color: rgb(50, 63, 103); --frame-asr: 100 / 100.;"><g transform="translate(50 48.25) scale(1)"><circle cx="1" cy="0" r="0.2" fill="#ffd500"></circle><circle cx="1.2648624577750547" cy="0.22302937819096366" r="0.22062500000000002" fill="#ffd400"></circle><circle cx="1.474142798857894" cy="0.5365440998421428" r="0.24125000000000002" fill="#ffd300"></circle><circle cx="1.6048533263880378" cy="0.9265624999999998" r="0.261875" fill="#ffd200"></circle><circle cx="1.6374199971668157" cy="1.3739585157049778" r="0.28250000000000003" fill="#ffd100"></circle><circle cx="1.5567512422095875" cy="1.8552638856787749" r="0.303125" fill="#ffd000"></circle><circle cx="1.3531250000000001" cy="2.3436812489916368" r="0.32375" fill="#ffd000"></circle><circle cx="1.0228539911333283" cy="2.810268244037857" r="0.344375" fill="#ffcf00"></circle><circle cx="0.5686977818591971" cy="3.225245391114981" r="0.365" fill="#ffce00"></circle><circle cx="2.179488600357555e-16" cy="3.5593749999999997" r="0.385625" fill="#ffcd00"></circle><circle cx="-0.6674601829072634" cy="3.7853548006406745" r="0.40625" fill="#ffcc00"></circle><circle cx="-1.4119019041662761" cy="3.879168600181828" r="0.426875" fill="#ffcb00"></circle><circle cx="-2.206249999999999" cy="3.8213370941988356" r="0.4475" fill="#ffca00"></circle><circle cx="-3.019093054246465" cy="3.5980149937744503" r="0.468125" fill="#ffc900"></circle><circle cx="-3.8158588822864083" cy="3.2018857807510743" r="0.48874999999999996" fill="#fec801"></circle><circle cx="-4.5601650168024355" cy="2.6328124999999996" r="0.5093749999999999" fill="#fec701"></circle><circle cx="-5.215294045361791" cy="1.8982117954574622" r="0.53" fill="#fec601"></circle><circle cx="-5.745737733980601" cy="1.0131285865754986" r="0.5506249999999999" fill="#fec501"></circle><circle cx="-6.1187499999999995" cy="7.493307602282866e-16" r="0.57125" fill="#fec501"></circle><circle cx="-6.305847143506296" cy="-1.1118909876235614" r="0.5918749999999999" fill="#fec401"></circle><circle cx="-6.284194401505762" cy="-2.287259708490409" r="0.6125" fill="#fec301"></circle><circle cx="-6.037820862009634" cy="-3.485937499999998" r="0.6331249999999999" fill="#fec201"></circle><circle cx="-5.558609990382084" cy="-4.664227592787951" r="0.65375" fill="#fec101"></circle><circle cx="-4.847020319292561" cy="-5.776453878894042" r="0.674375" fill="#fec001"></circle><circle cx="-3.912500000000003" cy="-6.776648784613229" r="0.695" fill="#febf01"></circle><circle cx="-2.7735695997816" cy="-7.6203198466857245" r="0.715625" fill="#febe01"></circle><circle cx="-1.4575593912917966" cy="-8.266230076846222" r="0.7362500000000001" fill="#febd01"></circle><circle cx="-1.5941457005775936e-15" cy="-8.678125" r="0.756875" fill="#febc01"></circle><circle cx="1.5563217923398596" cy="-8.826339486371914" r="0.7774999999999999" fill="#febb01"></circle><circle cx="3.1626175128145375" cy="-8.689220202829697" r="0.798125" fill="#febb01"></circle><circle cx="4.765625000000001" cy="-8.25430462982043" r="0.8187499999999999" fill="#feba01"></circle><circle cx="6.309362131329436" cy="-7.519204986989719" r="0.839375" fill="#feb901"></circle><circle cx="7.737048875501675" cy="-6.492154857834049" r="0.8600000000000001" fill="#feb801"></circle><circle cx="8.993132552424028" cy="-5.192187500000005" r="0.880625" fill="#feb701"></circle><circle cx="10.025345648009656" cy="-3.6489274041057356" r="0.9012499999999999" fill="#feb601"></circle><circle cx="10.786722419711841" cy="-1.901990196008097" r="0.921875" fill="#feb501"></circle><circle cx="11.237499999999999" cy="-2.7523936810836762e-15" r="0.9424999999999999" fill="#feb401"></circle><circle cx="11.346831829237535" cy="2.000752597056158" r="0.963125" fill="#feb301"></circle><circle cx="11.094246004153634" cy="4.037975317138669" r="0.9837499999999999" fill="#feb201"></circle><circle cx="10.470788397631228" cy="6.0453125" r="1.004375" fill="#feb101"></circle><circle cx="9.479799983597355" cy="7.954496669870922" r="1.025" fill="#feb102"></circle><circle cx="8.137289396375536" cy="9.697643872109309" r="1.0456249999999998" fill="#fdb002"></circle><circle cx="6.471875000000007" cy="11.209616320234824" r="1.06625" fill="#fdaf02"></circle><circle cx="4.5242852084298715" cy="12.430371449333592" r="1.086875" fill="#fdae02"></circle><circle cx="2.3464210007243973" cy="13.30721476257746" r="1.1075" fill="#fdad02"></circle><circle cx="4.224074701746535e-15" cy="13.796875" r="1.128125" fill="#fdac02"></circle><circle cx="-2.445183401772456" cy="13.867324172103155" r="1.14875" fill="#fdab02"></circle><circle cx="-4.9133331214627995" cy="13.49927180547757" r="1.169375" fill="#fdaa02"></circle><circle cx="-7.324999999999988" cy="12.687272165442032" r="1.19" fill="#fda902"></circle><circle cx="-9.599631208412397" cy="11.440394980204998" r="1.210625" fill="#fda802"></circle><circle cx="-11.658238868716936" cy="9.782423934917036" r="1.23125" fill="#fda702"></circle><circle cx="-13.426100088045628" cy="7.751562499999996" r="1.2518749999999998" fill="#fda602"></circle><circle cx="-14.835397250657529" cy="5.3996430127539945" r="1.2725" fill="#fda602"></circle><circle cx="-15.82770710544308" cy="2.7908518054406986" r="1.2931249999999999" fill="#fda502"></circle><circle cx="-16.35625" cy="6.009188762566168e-15" r="1.31375" fill="#fda402"></circle><circle cx="-16.387816514968776" cy="-2.889614206488753" r="1.3343749999999999" fill="#fda302"></circle><circle cx="-15.904297606801501" cy="-5.78869092578693" r="1.3549999999999998" fill="#fda202"></circle><circle cx="-14.90375593325283" cy="-8.604687499999985" r="1.3756249999999999" fill="#fda102"></circle><circle cx="-13.400989976812633" cy="-11.24476574695388" r="1.3962499999999998" fill="#fda002"></circle><circle cx="-11.427558473458525" cy="-13.618833865324564" r="1.4168749999999999" fill="#fd9f02"></circle><circle cx="-9.031249999999996" cy="-15.642583855856424" r="1.4374999999999998" fill="#fd9e02"></circle><circle cx="-6.275000817078129" cy="-17.240423051981466" r="1.458125" fill="#fd9d02"></circle><circle cx="-3.235282610157" cy="-18.348199448308698" r="1.47875" fill="#fd9c02"></circle><circle cx="-8.107735863542577e-15" cy="-18.915625" r="1.499375" fill="#fd9c02"></circle><circle cx="3.3340450112050504" cy="-18.908308857834395" r="1.52" fill="#fd9b02"></circle><circle cx="6.664048730111062" cy="-18.30932340812544" r="1.540625" fill="#fd9a02"></circle><circle cx="9.884374999999983" cy="-17.120239701063632" r="1.5612499999999998" fill="#fd9902"></circle><circle cx="12.889900285495363" cy="-15.36158497342027" r="1.581875" fill="#fc9803"></circle><circle cx="15.579428861932197" cy="-13.072693012000016" r="1.6024999999999998" fill="#fc9703"></circle><circle cx="17.859067623667222" cy="-10.310937499999998" r="1.623125" fill="#fc9603"></circle><circle cx="19.645448853305396" cy="-7.150358621402264" r="1.6437499999999998" fill="#fc9503"></circle><circle cx="20.86869179117432" cy="-3.679713414873302" r="1.6643749999999997" fill="#fc9403"></circle><circle cx="21.474999999999998" cy="-1.0519716004675763e-14" r="1.6849999999999998" fill="#fc9303"></circle><circle cx="21.428801200700015" cy="3.7784758159213476" r="1.705625" fill="#fc9203"></circle><circle cx="20.714349209449374" cy="7.539406534435191" r="1.7262499999999998" fill="#fc9103"></circle><circle cx="19.336723468874432" cy="11.164062499999979" r="1.746875" fill="#fc9103"></circle><circle cx="17.32217997002791" cy="14.535034824036849" r="1.7674999999999998" fill="#fc9003"></circle><circle cx="14.717827550541505" cy="17.540023858539826" r="1.788125" fill="#fc8f03"></circle><circle cx="11.590624999999998" cy="20.07555139147802" r="1.8087499999999999" fill="#fc8e03"></circle><circle cx="8.025716425726399" cy="22.05047465462933" r="1.829375" fill="#fc8d03"></circle><circle cx="4.124144219589604" cy="23.38918413403994" r="1.8499999999999999" fill="#fc8c03"></circle><circle cx="1.3245129185965726e-14" cy="24.034375" r="1.8706249999999998" fill="#fc8b03"></circle><circle cx="-4.222906620637644" cy="23.949293543565638" r="1.8912499999999997" fill="#fc8a03"></circle><circle cx="-8.414764338759321" cy="23.11937501077331" r="1.911875" fill="#fc8903"></circle><circle cx="-12.443749999999975" cy="21.553207236685232" r="1.9324999999999999" fill="#fc8803"></circle><circle cx="-16.18016936257833" cy="19.282774966635547" r="1.9531249999999998" fill="#fc8703"></circle><circle cx="-19.500618855147458" cy="16.362962089083" r="1.97375" fill="#fc8703"></circle><circle cx="-22.29203515928881" cy="12.870312499999999" r="1.9943749999999998" fill="#fc8603"></circle><circle cx="-24.455500455953263" cy="8.901074230050533" r="2.015" fill="#fc8503"></circle><circle cx="-25.90967647690556" cy="4.568575024305906" r="2.035625" fill="#fc8403"></circle><circle cx="-26.59375" cy="1.6283975407412464e-14" r="2.05625" fill="#fc8303"></circle><circle cx="-26.46978588643126" cy="-4.667337425353941" r="2.076875" fill="#fc8203"></circle><circle cx="-25.524400812097245" cy="-9.29012214308345" r="2.0974999999999997" fill="#fc8103"></circle><circle cx="-23.769691004496032" cy="-13.72343749999997" r="2.118125" fill="#fc8003"></circle><circle cx="-21.243369963243182" cy="-17.825303901119813" r="2.13875" fill="#fb7f04"></circle><circle cx="-18.00809662762449" cy="-21.46121385175509" r="2.159375" fill="#fb7e04"></circle><circle cx="-14.150000000000043" cy="-24.508518927099583" r="2.1799999999999997" fill="#fb7d04"></circle><circle cx="-9.776432034374716" cy="-26.860526257277176" r="2.200625" fill="#fb7c04"></circle><circle cx="-5.0130058290222586" cy="-28.43016881977117" r="2.2212500000000004" fill="#fb7c04"></circle><circle cx="-7.14226076526564e-14" cy="-29.153125" r="2.2418750000000003" fill="#fb7b04"></circle><circle cx="5.111768230070185" cy="-28.99027822929689" r="2.2625" fill="#fb7a04"></circle><circle cx="10.16547994740763" cy="-27.92942661342116" r="2.283125" fill="#fb7904"></circle><circle cx="15.003125000000013" cy="-25.986174772306804" r="2.30375" fill="#fb7804"></circle><circle cx="19.470438439661336" cy="-23.20396495985079" r="2.3243750000000003" fill="#fb7704"></circle><circle cx="23.421808848362755" cy="-19.653231166165938" r="2.345" fill="#fb7604"></circle><circle cx="26.72500269491041" cy="-15.429687500000004" r="2.365625" fill="#fb7504"></circle><circle cx="29.26555205860113" cy="-10.651789838698804" r="2.38625" fill="#fb7404"></circle><circle cx="30.9506611626368" cy="-5.457436633738511" r="2.406875" fill="#fb7304"></circle><circle cx="31.7125" cy="-2.330196697077626e-14" r="2.4275" fill="#fb7204"></circle><circle cx="31.5107705721625" cy="5.556199034786532" r="2.448125" fill="#fb7204"></circle><circle cx="30.33445241474512" cy="11.04083775173171" r="2.46875" fill="#fb7104"></circle><circle cx="28.202658540117632" cy="16.28281249999996" r="2.489375" fill="#fb7004"></circle><circle cx="25.164559956458458" cy="21.115572978202774" r="2.51" fill="#fb6f04"></circle><circle cx="21.29836570470747" cy="25.382403844970348" r="2.530625" fill="#fb6e04"></circle><circle cx="16.709375000000055" cy="28.941486462721173" r="2.55125" fill="#fb6d04"></circle><circle cx="11.527147643022998" cy="31.670577859925043" r="2.571875" fill="#fb6c04"></circle><circle cx="5.901867438454874" cy="33.47115350550241" r="2.5925" fill="#fb6b04"></circle><circle cx="8.816019186801379e-14" cy="34.271875" r="2.6131249999999997" fill="#fb6a04"></circle><circle cx="-6.000629839502767" cy="34.03126291502813" r="2.63375" fill="#fb6904"></circle><circle cx="-11.916195556055895" cy="32.73947821606903" r="2.654375" fill="#fb6804"></circle><circle cx="-17.56250000000001" cy="30.419142307928404" r="2.675" fill="#fb6805"></circle><circle cx="-22.760707516744308" cy="27.125154953066055" r="2.695625" fill="#fa6705"></circle><circle cx="-27.342998841578023" cy="22.943500243248916" r="2.71625" fill="#fa6605"></circle><circle cx="-31.157970230532" cy="17.989062500000006" r="2.7368750000000004" fill="#fa6505"></circle><circle cx="-34.07560366124899" cy="12.402505447347076" r="2.7575000000000003" fill="#fa6405"></circle><circle cx="-35.99164584836804" cy="6.346298243171119" r="2.778125" fill="#fa6305"></circle><circle cx="-36.83125" cy="3.1573690694767163e-14" r="2.79875" fill="#fa6205"></circle><circle cx="-36.551755257893745" cy="-6.445060644219123" r="2.819375" fill="#fa6105"></circle><circle cx="-35.14450401739299" cy="-12.791553360379966" r="2.8400000000000003" fill="#fa6005"></circle><circle cx="-32.63562607573923" cy="-18.842187499999948" r="2.860625" fill="#fa5f05"></circle><circle cx="-29.085749949673737" cy="-24.405842055285742" r="2.88125" fill="#fa5e05"></circle><circle cx="-24.588634781790454" cy="-29.303593838185606" r="2.901875" fill="#fa5d05"></circle><circle cx="-19.268750000000068" cy="-33.374453998342766" r="2.9225" fill="#fa5d05"></circle><circle cx="-13.27786325167128" cy="-36.48062946257291" r="2.943125" fill="#fa5c05"></circle><circle cx="-6.79072904788749" cy="-38.51213819123364" r="2.96375" fill="#fa5b05"></circle><circle cx="-1.0615150824399826e-13" cy="-39.390625" r="2.984375" fill="#fa5a05"></circle><circle cx="6.889491448935348" cy="-39.072247600759376" r="3.005" fill="#fa5905"></circle><circle cx="13.666911164704029" cy="-37.54952981871695" r="3.025625" fill="#fa5805"></circle><circle cx="20.12187500000001" cy="-34.85210984355" r="3.04625" fill="#fa5705"></circle><circle cx="26.050976593827276" cy="-31.046344946281327" r="3.066875" fill="#fa5605"></circle><circle cx="31.264188834793284" cy="-26.23376932033189" r="3.0875" fill="#fa5505"></circle><circle cx="35.590937766153594" cy="-20.548437500000013" r="3.108125" fill="#fa5405"></circle><circle cx="38.885655263896865" cy="-14.153221055995353" r="3.1287499999999997" fill="#fa5305"></circle><circle cx="41.032630534099276" cy="-7.235159852603727" r="3.149375" fill="#fa5305"></circle><circle cx="41.949999999999996" cy="-4.109914657938517e-14" r="3.17" fill="#fa5205"></circle><circle cx="41.592739943624984" cy="7.333922253651712" r="3.190625" fill="#fa5105"></circle><circle cx="39.95455562004086" cy="14.542268969028221" r="3.21125" fill="#fa5005"></circle><circle cx="37.06859361136084" cy="21.40156249999994" r="3.231875" fill="#f94f06"></circle><circle cx="33.00693994288902" cy="27.696111132368703" r="3.2525" fill="#f94e06"></circle><circle cx="27.878903858873436" cy="33.22478383140087" r="3.2731250000000003" fill="#f94d06"></circle><circle cx="21.82812500000008" cy="37.80742153396435" r="3.29375" fill="#f94c06"></circle><circle cx="15.028578860319561" cy="41.29068106522077" r="3.314375" fill="#f94b06"></circle><circle cx="7.679590657320109" cy="43.553122876964885" r="3.335" fill="#f94a06"></circle><circle cx="1.2539655678060986e-13" cy="44.509375" r="3.3556250000000003" fill="#f94906"></circle><circle cx="-7.778353058367927" cy="44.113232286490614" r="3.37625" fill="#f94806"></circle><circle cx="-15.417626773352275" cy="42.35958142136483" r="3.396875" fill="#f94806"></circle><circle cx="-22.681250000000002" cy="39.2850773791716" r="3.4175" fill="#f94706"></circle><circle cx="-29.341245670910247" cy="34.96753493949661" r="3.438125" fill="#f94606"></circle><circle cx="-35.18537882800855" cy="29.52403839741487" r="3.45875" fill="#f94506"></circle><circle cx="-40.02390530177518" cy="23.10781250000002" r="3.479375" fill="#f94406"></circle></g></svg>