<svg xmlns="http://www.w3.org/2000/svg" viewBox="0 0 100 100" id="svg" style="--frame-c: #f6c6a4; --frame-bdw: 1em; background-color: rgb(89, 36, 14); --frame-asr: 100 / 100.;"><defs><clipPath id="cp86401000"><rect x="0" y="0" width="61.76470588235294" height="61.76470588235294" fill="#D4AD61"></rect></clipPath><clipPath id="cp59251000"><rect x="61.76470588235294" y="0" width="38.23529411764706" height="38.23529411764706" fill="#59240E"></rect></clipPath><clipPath id="cp83961000"><rect x="76.47058823529412" y="38.23529411764706" width="23.529411764705884" height="23.529411764705884" fill="#F6DAB2"></rect></clipPath><clipPath id="cp54771000"><rect x="61.76470588235294" y="47.05882352941177" width="14.705882352941178" height="14.705882352941178" fill="#5A250E"></rect></clipPath><clipPath id="cp72991000"><rect x="61.76470588235294" y="38.23529411764706" width="8.823529411764707" height="8.823529411764707" fill="#F0E2C3"></rect></clipPath><clipPath id="cp58901000"><rect x="70.58823529411765" y="38.23529411764706" width="5.882352941176471" height="5.882352941176471" fill="#F4F2ED"></rect></clipPath><clipPath id="cp50651000"><rect x="70.58823529411765" y="44.117647058823536" width="2.9411764705882355" height="2.9411764705882355" fill="#441215"></rect></clipPath><clipPath id="cp4371000"><rect x="73.52941176470588" y="44.117647058823536" width="2.9411764705882355" height="2.9411764705882355" fill="#F5F3EF"></rect></clipPath></defs>
	<g transform="translate(0 19.11764705882353) scale(1)"><rect x="0" y="0" width="61.76470588235294" height="61.76470588235294" fill="#D4AD61"></rect><rect x="61.76470588235294" y="0" width="38.23529411764706" height="38.23529411764706" fill="#59240E"></rect><rect x="76.47058823529412" y="38.23529411764706" width="23.529411764705884" height="23.529411764705884" fill="#F6DAB2"></rect><rect x="61.76470588235294" y="47.05882352941177" width="14.705882352941178" height="14.705882352941178" fill="#5A250E"></rect><rect x="61.76470588235294" y="38.23529411764706" width="8.823529411764707" height="8.823529411764707" fill="#F0E2C3"></rect><rect x="70.58823529411765" y="38.23529411764706" width="5.882352941176471" height="5.882352941176471" fill="#F4F2ED"></rect><rect x="70.58823529411765" y="44.117647058823536" width="2.9411764705882355" height="2.9411764705882355" fill="#441215"></rect><rect x="73.52941176470588" y="44.117647058823536" width="2.9411764705882355" height="2.9411764705882355" fill="#F5F3EF"></rect><circle cx="61.76470588235294" cy="61.76470588235294" r="61.76470588235294" clip-path="url(#cp86401000)" fill="rgba(255, 255, 255, 0.25)"></circle><circle cx="61.76470588235294" cy="38.23529411764706" r="38.23529411764706" clip-path="url(#cp59251000)" fill="rgba(255, 255, 255, 0.25)"></circle><circle cx="76.47058823529412" cy="38.23529411764706" r="23.529411764705884" clip-path="url(#cp83961000)" fill="rgba(255, 255, 255, 0.25)"></circle><circle cx="76.47058823529412" cy="47.05882352941177" r="14.705882352941178" clip-path="url(#cp54771000)" fill="rgba(255, 255, 255, 0.25)"></circle><circle cx="70.58823529411765" cy="47.05882352941177" r="8.823529411764707" clip-path="url(#cp72991000)" fill="rgba(255, 255, 255, 0.25)"></circle><circle cx="70.58823529411765" cy="44.117647058823536" r="5.882352941176471" clip-path="url(#cp58901000)" fill="rgba(255, 255, 255, 0.25)"></circle><circle cx="73.52941176470588" cy="44.117647058823536" r="2.9411764705882355" clip-path="url(#cp50651000)" fill="rgba(255, 255, 255, 0.25)"></circle><circle cx="73.52941176470588" cy="44.117647058823536" r="2.9411764705882355" clip-path="url(#cp4371000)" fill="rgba(255, 255, 255, 0.25)"></circle></g></svg>