<svg xmlns="http://www.w3.org/2000/svg" viewBox="0 0 100 100" id="svg" style="--frame-c: #f6c6a4; --frame-bdw: 1em; background-color: rgb(247, 230, 212); --frame-asr: 100 / 100.;"><defs><clipPath id="cp33031000"><rect x="0" y="0" width="61.76470588235294" height="61.76470588235294" fill="#e47a2c"></rect></clipPath><clipPath id="cp45991000"><rect x="61.76470588235294" y="0" width="38.23529411764706" height="38.23529411764706" fill="#baccc0"></rect></clipPath><clipPath id="cp52871000"><rect x="76.47058823529412" y="38.23529411764706" width="23.529411764705884" height="23.529411764705884" fill="#6c958f"></rect></clipPath><clipPath id="cp65111000"><rect x="61.76470588235294" y="47.05882352941177" width="14.705882352941178" height="14.705882352941178" fill="#40363f"></rect></clipPath><clipPath id="cp17971000"><rect x="61.76470588235294" y="38.23529411764706" width="8.823529411764707" height="8.823529411764707" fill="#d7a26c"></rect></clipPath><clipPath id="cp45941000"><rect x="70.58823529411765" y="38.23529411764706" width="5.882352941176471" height="5.882352941176471" fill="#ae4935"></rect></clipPath><clipPath id="cp73001000"><rect x="70.58823529411765" y="44.117647058823536" width="2.9411764705882355" height="2.9411764705882355" fill="#f7e6d4"></rect></clipPath><clipPath id="cp31011000"><rect x="73.52941176470588" y="44.117647058823536" width="2.9411764705882355" height="2.9411764705882355" fill="#e47a2c"></rect></clipPath></defs>
	<g transform="translate(5 22.205882352941174) scale(0.9)"><rect x="0" y="0" width="61.76470588235294" height="61.76470588235294" fill="#e47a2c"></rect><rect x="61.76470588235294" y="0" width="38.23529411764706" height="38.23529411764706" fill="#baccc0"></rect><rect x="76.47058823529412" y="38.23529411764706" width="23.529411764705884" height="23.529411764705884" fill="#6c958f"></rect><rect x="61.76470588235294" y="47.05882352941177" width="14.705882352941178" height="14.705882352941178" fill="#40363f"></rect><rect x="61.76470588235294" y="38.23529411764706" width="8.823529411764707" height="8.823529411764707" fill="#d7a26c"></rect><rect x="70.58823529411765" y="38.23529411764706" width="5.882352941176471" height="5.882352941176471" fill="#ae4935"></rect><rect x="70.58823529411765" y="44.117647058823536" width="2.9411764705882355" height="2.9411764705882355" fill="#f7e6d4"></rect><rect x="73.52941176470588" y="44.117647058823536" width="2.9411764705882355" height="2.9411764705882355" fill="#e47a2c"></rect><circle cx="61.76470588235294" cy="61.76470588235294" r="61.76470588235294" clip-path="url(#cp33031000)" fill="rgba(255, 255, 255, 0.25)"></circle><circle cx="61.76470588235294" cy="38.23529411764706" r="38.23529411764706" clip-path="url(#cp45991000)" fill="rgba(255, 255, 255, 0.25)"></circle><circle cx="76.47058823529412" cy="38.23529411764706" r="23.529411764705884" clip-path="url(#cp52871000)" fill="rgba(255, 255, 255, 0.25)"></circle><circle cx="76.47058823529412" cy="47.05882352941177" r="14.705882352941178" clip-path="url(#cp65111000)" fill="rgba(255, 255, 255, 0.25)"></circle><circle cx="70.58823529411765" cy="47.05882352941177" r="8.823529411764707" clip-path="url(#cp17971000)" fill="rgba(255, 255, 255, 0.25)"></circle><circle cx="70.58823529411765" cy="44.117647058823536" r="5.882352941176471" clip-path="url(#cp45941000)" fill="rgba(255, 255, 255, 0.25)"></circle><circle cx="73.52941176470588" cy="44.117647058823536" r="2.9411764705882355" clip-path="url(#cp73001000)" fill="rgba(255, 255, 255, 0.25)"></circle><circle cx="73.52941176470588" cy="44.117647058823536" r="2.9411764705882355" clip-path="url(#cp31011000)" fill="rgba(255, 255, 255, 0.25)"></circle></g></svg>