<svg xmlns="http://www.w3.org/2000/svg" viewBox="0 0 100 100" id="svg" style="--frame-c: #f6c6a4; --frame-bdw: 1em; stroke: rgb(255, 255, 255); stroke-width: 0; background-color: rgb(9, 1, 1); --frame-asr: 100 / 100.;"><path d="M31.411489285552253 6.01426442948656 L43.66367309691913 5.8001277652995125 L56.535324585796566 4.248731686511592Z" fill="hsl(0, 81.73243747303657%, 39.36380257940469%)"></path><path d="M56.535324585796566 4.248731686511592 L59.50251114015062 7.684384945184375 L72.23912734365454 14.398022692137097Z" fill="hsl(0, 66.5277344525444%, 30.730998067979407%)"></path><path d="M68.5340906169023 85.03369562772345 L67.3384510387938 94.16675784371958 L83.40148920478896 76.36826732451475Z" fill="hsl(0, 93.90884375984155%, 46.27722502402635%)"></path><path d="M56.535324585796566 4.248731686511592 L72.23912734365454 14.398022692137097 L84.31365776306833 17.06654581128581Z" fill="hsl(0, 77.60807284582137%, 37.022103862067056%)"></path><path d="M83.40148920478896 76.36826732451475 L67.3384510387938 94.16675784371958 L87.76023889605665 72.15871703030874Z" fill="hsl(0, 91.84351488999285%, 45.104589138854706%)"></path><path d="M84.31365776306833 17.06654581128581 L84.81738673773705 25.49186715491465 L92.34119225279771 30.886184660151173Z" fill="hsl(0, 83.827535928471%, 40.55334080146521%)"></path><path d="M91.0420986829887 56.859130723148255 L91.2719667974855 61.0524069334333 L95.72885974199514 55.285411487329874Z" fill="hsl(0, 77.22732462620026%, 36.80592568721995%)"></path><path d="M89.32052737440321 47.65265180840422 L89.90018801881196 51.687961687930574 L96.74767247956963 53.66744695936908Z" fill="hsl(0, 83.56278661831638%, 40.40302355843723%)"></path><path d="M89.2181820623043 44.894755445103144 L89.32052737440321 47.65265180840422 L96.74767247956963 53.66744695936908Z" fill="hsl(0, 69.24305415046311%, 32.27268053994628%)"></path><path d="M92.34119225279771 30.886184660151173 L89.2181820623043 44.894755445103144 L96.74767247956963 53.66744695936908Z" fill="hsl(0, 86.2970377074352%, 41.95545474408432%)"></path><path d="M91.28058981785834 62.08708728126435 L91.38829727404175 63.86208303582996 L97.07549402574833 55.50160623000207Z" fill="hsl(0, 98.06412315305802%, 48.63647627961783%)"></path><path d="M95.72885974199514 55.285411487329874 L91.2719667974855 61.0524069334333 L97.07549402574833 55.50160623000207Z" fill="hsl(0, 97.62539384895481%, 48.38737806897524%)"></path><path d="M91.2719667974855 61.0524069334333 L91.28058981785834 62.08708728126435 L97.07549402574833 55.50160623000207Z" fill="hsl(0, 89.32130653679081%, 43.67254987962475%)"></path><path d="M96.74767247956963 53.66744695936908 L95.72885974199514 55.285411487329874 L97.07549402574833 55.50160623000207Z" fill="hsl(0, 97.36734716830314%, 48.240866391247245%)"></path><path d="M91.38829727404175 63.86208303582996 L87.76023889605665 72.15871703030874 L97.07549402574833 55.50160623000207Z" fill="hsl(0, 74.66022028821133%, 35.34839574530512%)"></path><path d="M89.90018801881196 51.687961687930574 L95.72885974199514 55.285411487329874 L96.74767247956963 53.66744695936908Z" fill="hsl(0, 75.51522238994711%, 35.8338419911933%)"></path><path d="M89.90018801881196 51.687961687930574 L91.0420986829887 56.859130723148255 L95.72885974199514 55.285411487329874Z" fill="hsl(0, 76.60426573626987%, 36.45217030057245%)"></path><path d="M77.78923779446498 29.609530003718 L79.98079514190295 46.59531492415469 L89.2181820623043 44.894755445103144Z" fill="hsl(0, 64.9241375553504%, 29.8205206643796%)"></path><path d="M85.65529298642262 68.83763150478217 L87.76023889605665 72.15871703030874 L91.38829727404175 63.86208303582996Z" fill="hsl(0, 94.43733415752557%, 46.57728706951468%)"></path><path d="M77.78923779446498 29.609530003718 L89.2181820623043 44.894755445103144 L92.34119225279771 30.886184660151173Z" fill="hsl(0, 71.0246399672624%, 33.284215066863894%)"></path><path d="M84.81738673773705 25.49186715491465 L77.78923779446498 29.609530003718 L92.34119225279771 30.886184660151173Z" fill="hsl(0, 95.23955776106786%, 47.0327671623845%)"></path><path d="M77.78923779446498 29.609530003718 L76.0694533142513 44.23401041203825 L79.98079514190295 46.59531492415469Z" fill="hsl(0, 94.72863596733644%, 46.7426800781471%)"></path><path d="M89.32052737440321 47.65265180840422 L88.9594258349944 51.7136917378712 L89.90018801881196 51.687961687930574Z" fill="hsl(0, 65.8764917667294%, 30.36124071141944%)"></path><path d="M88.9594258349944 51.7136917378712 L86.58319302882902 51.72242153710403 L91.0420986829887 56.859130723148255Z" fill="hsl(0, 72.22040512526766%, 33.96313703177964%)"></path><path d="M89.90018801881196 51.687961687930574 L88.9594258349944 51.7136917378712 L91.0420986829887 56.859130723148255Z" fill="hsl(0, 79.96351069493728%, 38.359455500098036%)"></path><path d="M91.0420986829887 56.859130723148255 L86.13263391373643 59.18201914267362 L91.2719667974855 61.0524069334333Z" fill="hsl(0, 67.02646596527156%, 31.01416385209622%)"></path><path d="M91.28058981785834 62.08708728126435 L86.13263391373643 59.18201914267362 L91.38829727404175 63.86208303582996Z" fill="hsl(0, 89.18494459246898%, 43.59512738695643%)"></path><path d="M86.13263391373643 59.18201914267362 L85.65529298642262 68.83763150478217 L91.38829727404175 63.86208303582996Z" fill="hsl(0, 69.8466902737136%, 32.61540822367894%)"></path><path d="M86.58319302882902 51.72242153710403 L84.43390323327475 53.28914172829678 L91.0420986829887 56.859130723148255Z" fill="hsl(0, 86.31175749984914%, 41.963812229935044%)"></path><path d="M91.2719667974855 61.0524069334333 L86.13263391373643 59.18201914267362 L91.28058981785834 62.08708728126435Z" fill="hsl(0, 78.34139175212847%, 37.438461797776114%)"></path><path d="M84.43390323327475 53.28914172829678 L86.13263391373643 59.18201914267362 L91.0420986829887 56.859130723148255Z" fill="hsl(0, 76.01530258907032%, 36.11777352167087%)"></path><path d="M60.997009756028774 95.20305314438548 L56.8262315365746 96.99008796215497 L67.3384510387938 94.16675784371958Z" fill="hsl(0, 93.88757384608306%, 46.265148562736414%)"></path><path d="M79.98079514190295 46.59531492415469 L87.9178543905478 46.39084591384364 L89.2181820623043 44.894755445103144Z" fill="hsl(0, 96.2905291791721%, 47.62947929726549%)"></path><path d="M86.58319302882902 51.72242153710403 L88.9594258349944 51.7136917378712 L89.32052737440321 47.65265180840422Z" fill="hsl(0, 66.38801693929989%, 30.65167037726182%)"></path><path d="M89.2181820623043 44.894755445103144 L87.9178543905478 46.39084591384364 L89.32052737440321 47.65265180840422Z" fill="hsl(0, 82.08570166830918%, 39.56437609501788%)"></path><path d="M87.9178543905478 46.39084591384364 L86.58319302882902 51.72242153710403 L89.32052737440321 47.65265180840422Z" fill="hsl(0, 92.43362136496938%, 45.43963506724495%)"></path><path d="M85.65529298642262 68.83763150478217 L85.04324780903276 70.01250632874007 L87.76023889605665 72.15871703030874Z" fill="hsl(0, 64.90373469819669%, 29.808936493544746%)"></path><path d="M74.52382484725698 31.687928599086305 L72.29732235551388 38.616029715655095 L76.0694533142513 44.23401041203825Z" fill="hsl(0, 64.59445444799951%, 29.6333358300133%)"></path><path d="M74.52382484725698 31.687928599086305 L76.0694533142513 44.23401041203825 L77.78923779446498 29.609530003718Z" fill="hsl(0, 90.75373886678824%, 44.485844836063364%)"></path><path d="M84.31365776306833 17.06654581128581 L80.86202489053144 24.17679992548744 L84.81738673773705 25.49186715491465Z" fill="hsl(0, 67.71642614506094%, 31.40590391730907%)"></path><path d="M78.25283502798304 63.403368339783704 L85.65529298642262 68.83763150478217 L86.13263391373643 59.18201914267362Z" fill="hsl(0, 72.34299543606944%, 34.03274037666052%)"></path><path d="M79.98079514190295 46.59531492415469 L79.77474359682242 49.68993265602635 L86.58319302882902 51.72242153710403Z" fill="hsl(0, 69.27531041741649%, 32.290994744867064%)"></path><path d="M83.24993158677975 70.74406090311251 L83.40148920478896 76.36826732451475 L87.76023889605665 72.15871703030874Z" fill="hsl(0, 97.21916801004193%, 48.15673441548866%)"></path><path d="M79.98079514190295 46.59531492415469 L86.58319302882902 51.72242153710403 L87.9178543905478 46.39084591384364Z" fill="hsl(0, 95.2984189684848%, 47.066186907331314%)"></path><path d="M85.04324780903276 70.01250632874007 L83.24993158677975 70.74406090311251 L87.76023889605665 72.15871703030874Z" fill="hsl(0, 97.36542679495503%, 48.23977605704731%)"></path><path d="M79.77474359682242 49.68993265602635 L80.9741726875504 52.3793595118364 L84.01690236697848 53.269764538507324Z" fill="hsl(0, 89.33089055603571%, 43.677991417316306%)"></path><path d="M84.01690236697848 53.269764538507324 L81.31955619313533 58.23975554052804 L84.43390323327475 53.28914172829678Z" fill="hsl(0, 78.90459784471064%, 37.758234442486945%)"></path><path d="M81.31955619313533 58.23975554052804 L78.25283502798304 63.403368339783704 L86.13263391373643 59.18201914267362Z" fill="hsl(0, 64.43456975096058%, 29.54255777719338%)"></path><path d="M84.43390323327475 53.28914172829678 L81.31955619313533 58.23975554052804 L86.13263391373643 59.18201914267362Z" fill="hsl(0, 71.51851974877934%, 33.56462617389011%)"></path><path d="M84.01690236697848 53.269764538507324 L84.43390323327475 53.28914172829678 L86.58319302882902 51.72242153710403Z" fill="hsl(0, 78.3449111788408%, 37.44046002968889%)"></path><path d="M79.77474359682242 49.68993265602635 L84.01690236697848 53.269764538507324 L86.58319302882902 51.72242153710403Z" fill="hsl(0, 77.71704044192495%, 37.083972611096506%)"></path><path d="M78.25283502798304 63.403368339783704 L83.24993158677975 70.74406090311251 L85.65529298642262 68.83763150478217Z" fill="hsl(0, 76.03775097894776%, 36.13051908869359%)"></path><path d="M73.39682465061092 74.6827299801267 L68.5340906169023 85.03369562772345 L83.40148920478896 76.36826732451475Z" fill="hsl(0, 95.55688430237377%, 47.21293628464152%)"></path><path d="M80.86202489053144 24.17679992548744 L77.78923779446498 29.609530003718 L84.81738673773705 25.49186715491465Z" fill="hsl(0, 71.45170125071286%, 33.526688502185664%)"></path><path d="M83.24993158677975 70.74406090311251 L85.04324780903276 70.01250632874007 L85.65529298642262 68.83763150478217Z" fill="hsl(0, 87.65685923044242%, 42.72752331804651%)"></path><path d="M78.25283502798304 63.403368339783704 L80.2094830427539 71.46901086184614 L83.24993158677975 70.74406090311251Z" fill="hsl(0, 78.51410372129452%, 37.536522816434896%)"></path><path d="M83.24993158677975 70.74406090311251 L80.2094830427539 71.46901086184614 L83.40148920478896 76.36826732451475Z" fill="hsl(0, 96.80690090444884%, 47.92266069998895%)"></path><path d="M72.23912734365454 14.398022692137097 L72.77060224829007 16.584221637829767 L84.31365776306833 17.06654581128581Z" fill="hsl(0, 79.8481694806773%, 38.293967989195984%)"></path><path d="M72.77060224829007 16.584221637829767 L72.66003558425062 20.419565457376788 L80.86202489053144 24.17679992548744Z" fill="hsl(0, 91.67967129268817%, 45.01156333334745%)"></path><path d="M80.9741726875504 52.3793595118364 L81.31955619313533 58.23975554052804 L84.01690236697848 53.269764538507324Z" fill="hsl(0, 94.6046940516099%, 46.67230932984662%)"></path><path d="M72.77060224829007 16.584221637829767 L80.86202489053144 24.17679992548744 L84.31365776306833 17.06654581128581Z" fill="hsl(0, 77.83880420214946%, 37.1531066637102%)"></path><path d="M80.9741726875504 52.3793595118364 L78.42015119641046 54.8054118400765 L81.31955619313533 58.23975554052804Z" fill="hsl(0, 67.12286243480872%, 31.068895067561886%)"></path><path d="M80.2094830427539 71.46901086184614 L73.39682465061092 74.6827299801267 L83.40148920478896 76.36826732451475Z" fill="hsl(0, 91.76211014474619%, 45.05836980454284%)"></path><path d="M78.42015119641046 54.8054118400765 L78.25283502798304 63.403368339783704 L81.31955619313533 58.23975554052804Z" fill="hsl(0, 88.71695265831094%, 43.32941467457624%)"></path><path d="M79.77474359682242 49.68993265602635 L78.42015119641046 54.8054118400765 L80.9741726875504 52.3793595118364Z" fill="hsl(0, 77.26784390349758%, 36.82893139797803%)"></path><path d="M78.25283502798304 63.403368339783704 L73.39682465061092 74.6827299801267 L80.2094830427539 71.46901086184614Z" fill="hsl(0, 68.2428287567021%, 31.704780576358395%)"></path><path d="M72.66003558425062 20.419565457376788 L77.78923779446498 29.609530003718 L80.86202489053144 24.17679992548744Z" fill="hsl(0, 74.41055136105523%, 35.20664072136213%)"></path><path d="M59.50251114015062 7.684384945184375 L68.41597615477177 14.651362170719844 L72.23912734365454 14.398022692137097Z" fill="hsl(0, 97.68354786441411%, 48.42039629013601%)"></path><path d="M69.28656991075566 64.19987851610169 L73.39682465061092 74.6827299801267 L78.25283502798304 63.403368339783704Z" fill="hsl(0, 72.87288753656534%, 34.33359826974559%)"></path><path d="M73.04862227041751 51.956712825562676 L78.42015119641046 54.8054118400765 L79.77474359682242 49.68993265602635Z" fill="hsl(0, 67.50049882072045%, 31.283306430387142%)"></path><path d="M76.85039051789934 47.57182588875457 L79.77474359682242 49.68993265602635 L79.98079514190295 46.59531492415469Z" fill="hsl(0, 83.07925150895778%, 40.12848586652194%)"></path><path d="M76.0694533142513 44.23401041203825 L76.85039051789934 47.57182588875457 L79.98079514190295 46.59531492415469Z" fill="hsl(0, 70.53209152125261%, 33.00455985484968%)"></path><path d="M76.85039051789934 47.57182588875457 L73.04862227041751 51.956712825562676 L79.77474359682242 49.68993265602635Z" fill="hsl(0, 83.0570907341067%, 40.115903599255475%)"></path><path d="M68.7024892475089 76.82701826347474 L68.5340906169023 85.03369562772345 L73.39682465061092 74.6827299801267Z" fill="hsl(0, 84.18103447771357%, 40.754047376698594%)"></path><path d="M69.28656991075566 64.19987851610169 L78.25283502798304 63.403368339783704 L78.42015119641046 54.8054118400765Z" fill="hsl(0, 72.90120543430675%, 34.34967637893632%)"></path><path d="M67.56389043204645 78.3724615632073 L68.5340906169023 85.03369562772345 L68.7024892475089 76.82701826347474Z" fill="hsl(0, 67.73067958296946%, 31.41399662013359%)"></path><path d="M72.66003558425062 20.419565457376788 L74.52382484725698 31.687928599086305 L77.78923779446498 29.609530003718Z" fill="hsl(0, 89.42639303544368%, 43.732215050226095%)"></path><path d="M73.04862227041751 51.956712825562676 L69.28656991075566 64.19987851610169 L78.42015119641046 54.8054118400765Z" fill="hsl(0, 65.97503113656788%, 30.417188605656392%)"></path><path d="M72.66003558425062 20.419565457376788 L70.31661517033008 20.835676958458755 L74.52382484725698 31.687928599086305Z" fill="hsl(0, 79.68961111664443%, 38.20394299110807%)"></path><path d="M70.31661517033008 20.835676958458755 L66.57046028170089 25.084542455927473 L74.52382484725698 31.687928599086305Z" fill="hsl(0, 96.34105802249603%, 47.658168159258786%)"></path><path d="M69.28656991075566 64.19987851610169 L68.15394198194942 73.5874979369732 L73.39682465061092 74.6827299801267Z" fill="hsl(0, 70.06912878965068%, 32.74170258281954%)"></path><path d="M66.57046028170089 25.084542455927473 L70.42288630083708 32.4693130667957 L74.52382484725698 31.687928599086305Z" fill="hsl(0, 87.09019102147651%, 42.405784980622286%)"></path><path d="M72.29732235551388 38.616029715655095 L70.69737213344737 40.20407995978347 L76.0694533142513 44.23401041203825Z" fill="hsl(0, 95.33394588223923%, 47.08635809389924%)"></path><path d="M76.0694533142513 44.23401041203825 L73.04862227041751 51.956712825562676 L76.85039051789934 47.57182588875457Z" fill="hsl(0, 77.51877693348725%, 36.97140414410407%)"></path><path d="M64.26941679331735 61.60595724662845 L69.28656991075566 64.19987851610169 L73.04862227041751 51.956712825562676Z" fill="hsl(0, 78.38540441256409%, 37.46345095363508%)"></path><path d="M70.69737213344737 40.20407995978347 L64.5354099437107 43.365296157292086 L73.04862227041751 51.956712825562676Z" fill="hsl(0, 85.37253590575287%, 41.43054851516111%)"></path><path d="M70.42288630083708 32.4693130667957 L72.29732235551388 38.616029715655095 L74.52382484725698 31.687928599086305Z" fill="hsl(0, 66.81680768737189%, 30.8951257541557%)"></path><path d="M70.69737213344737 40.20407995978347 L73.04862227041751 51.956712825562676 L76.0694533142513 44.23401041203825Z" fill="hsl(0, 87.52158054238566%, 42.65071586794491%)"></path><path d="M66.57046028170089 25.084542455927473 L65.63080683613414 27.77800419799644 L70.42288630083708 32.4693130667957Z" fill="hsl(0, 93.19138507409126%, 45.86987207732567%)"></path><path d="M70.42288630083708 32.4693130667957 L69.213049137932 36.43559465022766 L72.29732235551388 38.616029715655095Z" fill="hsl(0, 88.48306961515203%, 43.196622433425134%)"></path><path d="M71.88258196476028 17.319040401981518 L72.66003558425062 20.419565457376788 L72.77060224829007 16.584221637829767Z" fill="hsl(0, 88.89643142053876%, 43.43131768880658%)"></path><path d="M65.82329099220026 51.79174543553155 L63.57793276616559 54.38006422186705 L73.04862227041751 51.956712825562676Z" fill="hsl(0, 90.6768236803686%, 44.44217454750688%)"></path><path d="M63.57793276616559 54.38006422186705 L64.26941679331735 61.60595724662845 L73.04862227041751 51.956712825562676Z" fill="hsl(0, 65.26373298873527%, 30.01333343983685%)"></path><path d="M64.5354099437107 43.365296157292086 L65.82329099220026 51.79174543553155 L73.04862227041751 51.956712825562676Z" fill="hsl(0, 86.42312685539623%, 42.02704463070643%)"></path><path d="M68.15394198194942 73.5874979369732 L68.7024892475089 76.82701826347474 L73.39682465061092 74.6827299801267Z" fill="hsl(0, 65.45368923131599%, 30.12118527395121%)"></path><path d="M71.88258196476028 17.319040401981518 L70.31661517033008 20.835676958458755 L72.66003558425062 20.419565457376788Z" fill="hsl(0, 68.07370737506109%, 31.608758192728722%)"></path><path d="M72.23912734365454 14.398022692137097 L71.88258196476028 17.319040401981518 L72.77060224829007 16.584221637829767Z" fill="hsl(0, 73.70804998839075%, 34.80778011809702%)"></path><path d="M68.85598393097867 20.28700822774978 L70.31661517033008 20.835676958458755 L71.88258196476028 17.319040401981518Z" fill="hsl(0, 67.76659101838345%, 31.434386127329876%)"></path><path d="M68.41597615477177 14.651362170719844 L71.88258196476028 17.319040401981518 L72.23912734365454 14.398022692137097Z" fill="hsl(0, 88.48951046460964%, 43.20027936734749%)"></path><path d="M69.213049137932 36.43559465022766 L70.69737213344737 40.20407995978347 L72.29732235551388 38.616029715655095Z" fill="hsl(0, 68.07567830650666%, 31.60987723240033%)"></path><path d="M64.57873545730601 42.4054312467223 L64.5354099437107 43.365296157292086 L70.69737213344737 40.20407995978347Z" fill="hsl(0, 97.24929093834322%, 48.17383737047478%)"></path><path d="M68.41597615477177 14.651362170719844 L68.85598393097867 20.28700822774978 L71.88258196476028 17.319040401981518Z" fill="hsl(0, 73.93658850228421%, 34.93753788522439%)"></path><path d="M60.39493743102683 71.54733908164216 L68.15394198194942 73.5874979369732 L69.28656991075566 64.19987851610169Z" fill="hsl(0, 63.927730877443814%, 29.25478886069667%)"></path><path d="M68.85598393097867 20.28700822774978 L66.57046028170089 25.084542455927473 L70.31661517033008 20.835676958458755Z" fill="hsl(0, 89.5968598721266%, 43.82900134554415%)"></path><path d="M69.213049137932 36.43559465022766 L64.57873545730601 42.4054312467223 L70.69737213344737 40.20407995978347Z" fill="hsl(0, 63.755917109117505%, 29.157237815317266%)"></path><path d="M65.63080683613414 27.77800419799644 L69.213049137932 36.43559465022766 L70.42288630083708 32.4693130667957Z" fill="hsl(0, 84.0870505399779%, 40.700685929218%)"></path><path d="M57.76685396913025 88.86074405479697 L60.62939195711907 94.58359110588874 L67.3384510387938 94.16675784371958Z" fill="hsl(0, 71.45515179637127%, 33.5286476253653%)"></path><path d="M59.50251114015062 7.684384945184375 L59.631704176146414 14.644473473293862 L68.41597615477177 14.651362170719844Z" fill="hsl(0, 78.61254818511884%, 37.5924168256952%)"></path><path d="M57.76685396913025 88.86074405479697 L67.3384510387938 94.16675784371958 L68.5340906169023 85.03369562772345Z" fill="hsl(0, 95.19805855396547%, 47.00920507492964%)"></path><path d="M68.41597615477177 14.651362170719844 L59.631704176146414 14.644473473293862 L68.85598393097867 20.28700822774978Z" fill="hsl(0, 84.71266299310989%, 41.055891157529445%)"></path><path d="M57.625158693337106 35.469734914192195 L62.02352198956314 40.66605680599357 L69.213049137932 36.43559465022766Z" fill="hsl(0, 85.86722959088094%, 41.711421733861364%)"></path><path d="M65.63080683613414 27.77800419799644 L62.01283249181929 27.88194163175032 L69.213049137932 36.43559465022766Z" fill="hsl(0, 94.0942442706433%, 46.38249024123663%)"></path><path d="M62.01283249181929 27.88194163175032 L57.625158693337106 35.469734914192195 L69.213049137932 36.43559465022766Z" fill="hsl(0, 95.39937337976697%, 47.12350599445787%)"></path><path d="M62.02352198956314 40.66605680599357 L64.57873545730601 42.4054312467223 L69.213049137932 36.43559465022766Z" fill="hsl(0, 80.32416594503648%, 38.56422544962808%)"></path><path d="M64.26941679331735 61.60595724662845 L60.39493743102683 71.54733908164216 L69.28656991075566 64.19987851610169Z" fill="hsl(0, 90.17036570118721%, 44.15462189214545%)"></path><path d="M67.56389043204645 78.3724615632073 L60.311087035982226 77.81683038425493 L68.5340906169023 85.03369562772345Z" fill="hsl(0, 82.94381364534375%, 40.051588040997224%)"></path><path d="M59.50251114015062 7.684384945184375 L58.328757631095264 10.570027129440406 L59.631704176146414 14.644473473293862Z" fill="hsl(0, 95.14583751616405%, 46.97955543230815%)"></path><path d="M68.15394198194942 73.5874979369732 L67.56389043204645 78.3724615632073 L68.7024892475089 76.82701826347474Z" fill="hsl(0, 90.60873530334241%, 44.40351587409674%)"></path><path d="M60.83697046602789 25.448015517287725 L66.57046028170089 25.084542455927473 L68.85598393097867 20.28700822774978Z" fill="hsl(0, 89.99468323327493%, 44.05487430749829%)"></path><path d="M59.631704176146414 14.644473473293862 L60.83697046602789 25.448015517287725 L68.85598393097867 20.28700822774978Z" fill="hsl(0, 85.91065099012877%, 41.73607518817835%)"></path><path d="M59.631704176146414 14.644473473293862 L57.75228039678441 23.202803724470737 L60.83697046602789 25.448015517287725Z" fill="hsl(0, 77.16884515051657%, 36.77272267885948%)"></path><path d="M60.311087035982226 77.81683038425493 L67.56389043204645 78.3724615632073 L68.15394198194942 73.5874979369732Z" fill="hsl(0, 88.32537473566198%, 43.10708769767557%)"></path><path d="M60.311087035982226 77.81683038425493 L57.76685396913025 88.86074405479697 L68.5340906169023 85.03369562772345Z" fill="hsl(0, 69.45554643367862%, 32.39332770672841%)"></path><path d="M56.542390053044635 87.41017423332941 L57.76685396913025 88.86074405479697 L60.311087035982226 77.81683038425493Z" fill="hsl(0, 93.22269849010142%, 45.887650957888894%)"></path><path d="M64.5354099437107 43.365296157292086 L59.43412778918802 46.58895968374226 L65.82329099220026 51.79174543553155Z" fill="hsl(0, 76.30957911079129%, 36.284855488408105%)"></path><path d="M60.39493743102683 71.54733908164216 L60.311087035982226 77.81683038425493 L68.15394198194942 73.5874979369732Z" fill="hsl(0, 76.27668154322288%, 36.2661771709601%)"></path><path d="M63.57793276616559 54.38006422186705 L60.4256241862222 58.47476998866594 L64.26941679331735 61.60595724662845Z" fill="hsl(0, 88.29927167057113%, 43.09226710842929%)"></path><path d="M59.43412778918802 46.58895968374226 L59.168596597853764 48.3424426611787 L65.82329099220026 51.79174543553155Z" fill="hsl(0, 91.13420811952474%, 44.70186462132689%)"></path><path d="M60.62939195711907 94.58359110588874 L60.997009756028774 95.20305314438548 L67.3384510387938 94.16675784371958Z" fill="hsl(0, 73.80068588563809%, 34.860376185945164%)"></path><path d="M60.46090974883879 60.97870361743356 L60.39493743102683 71.54733908164216 L64.26941679331735 61.60595724662845Z" fill="hsl(0, 69.97847534918513%, 32.690232098406106%)"></path><path d="M60.83697046602789 25.448015517287725 L61.93763623962491 26.26751756293575 L66.57046028170089 25.084542455927473Z" fill="hsl(0, 84.56447870820364%, 40.97175627100539%)"></path><path d="M61.93763623962491 26.26751756293575 L65.63080683613414 27.77800419799644 L66.57046028170089 25.084542455927473Z" fill="hsl(0, 69.80829946621773%, 32.59361099845849%)"></path><path d="M47.871667229889574 92.85668660855293 L34.570027990516614 93.56695007577642 L56.8262315365746 96.99008796215497Z" fill="hsl(0, 70.16697883490185%, 32.79725909786289%)"></path><path d="M57.76685396913025 88.86074405479697 L58.72084739845905 93.43414853665853 L60.62939195711907 94.58359110588874Z" fill="hsl(0, 82.64827088110333%, 39.88378713722323%)"></path><path d="M60.773449183649845 43.41492623018496 L59.43412778918802 46.58895968374226 L64.5354099437107 43.365296157292086Z" fill="hsl(0, 78.91055460288415%, 37.761616522936954%)"></path><path d="M59.168596597853764 48.3424426611787 L63.57793276616559 54.38006422186705 L65.82329099220026 51.79174543553155Z" fill="hsl(0, 78.54389049222192%, 37.55343491067944%)"></path><path d="M61.93763623962491 26.26751756293575 L62.01283249181929 27.88194163175032 L65.63080683613414 27.77800419799644Z" fill="hsl(0, 97.59734490901167%, 48.371452666489205%)"></path><path d="M56.337730229464626 32.29394474042788 L57.625158693337106 35.469734914192195 L62.01283249181929 27.88194163175032Z" fill="hsl(0, 88.44771502710842%, 43.17654908856919%)"></path><path d="M57.625158693337106 35.469734914192195 L59.85872854683868 40.673129643965524 L62.02352198956314 40.66605680599357Z" fill="hsl(0, 65.23919568607874%, 29.999401846645842%)"></path><path d="M60.4256241862222 58.47476998866594 L60.46090974883879 60.97870361743356 L64.26941679331735 61.60595724662845Z" fill="hsl(0, 68.03222720562694%, 31.58520691432866%)"></path><path d="M64.18811712332189 43.00581817028471 L60.773449183649845 43.41492623018496 L64.5354099437107 43.365296157292086Z" fill="hsl(0, 77.18706263493414%, 36.78306605626413%)"></path><path d="M62.02352198956314 40.66605680599357 L64.18811712332189 43.00581817028471 L64.57873545730601 42.4054312467223Z" fill="hsl(0, 95.89235316010407%, 47.40340610602202%)"></path><path d="M64.18811712332189 43.00581817028471 L64.5354099437107 43.365296157292086 L64.57873545730601 42.4054312467223Z" fill="hsl(0, 84.96027752521329%, 41.196479753502395%)"></path><path d="M54.31730798757145 63.128591065035565 L60.39493743102683 71.54733908164216 L60.46090974883879 60.97870361743356Z" fill="hsl(0, 74.26364079321593%, 35.123229015713555%)"></path><path d="M62.02352198956314 40.66605680599357 L60.773449183649845 43.41492623018496 L64.18811712332189 43.00581817028471Z" fill="hsl(0, 66.96294969964677%, 30.978101095481012%)"></path><path d="M58.30014200839668 76.54689164368375 L60.311087035982226 77.81683038425493 L60.39493743102683 71.54733908164216Z" fill="hsl(0, 85.11527508364365%, 41.28448302590267%)"></path><path d="M59.168596597853764 48.3424426611787 L60.4256241862222 58.47476998866594 L63.57793276616559 54.38006422186705Z" fill="hsl(0, 87.03706698525446%, 42.37562264078936%)"></path><path d="M58.328757631095264 10.570027129440406 L58.03864172054492 13.379975568478104 L59.631704176146414 14.644473473293862Z" fill="hsl(0, 79.06487332714039%, 37.8492343723064%)"></path><path d="M51.0755327832438 81.36876413702385 L56.542390053044635 87.41017423332941 L60.311087035982226 77.81683038425493Z" fill="hsl(0, 71.43178576306451%, 33.51538104610539%)"></path><path d="M54.31730798757145 63.128591065035565 L53.79663186177094 71.2387179892354 L60.39493743102683 71.54733908164216Z" fill="hsl(0, 89.1621880812645%, 43.58220687727429%)"></path><path d="M57.210455964740504 74.34137736719902 L58.30014200839668 76.54689164368375 L60.39493743102683 71.54733908164216Z" fill="hsl(0, 81.95729171154701%, 39.49146851816128%)"></path><path d="M59.168596597853764 48.3424426611787 L55.91666644350415 47.646305338398854 L60.4256241862222 58.47476998866594Z" fill="hsl(0, 80.08593102049993%, 38.42896233212119%)"></path><path d="M57.66077980447586 60.384470091598466 L54.31730798757145 63.128591065035565 L60.46090974883879 60.97870361743356Z" fill="hsl(0, 79.24564066307272%, 37.95186900259492%)"></path><path d="M61.93763623962491 26.26751756293575 L60.83697046602789 25.448015517287725 L62.01283249181929 27.88194163175032Z" fill="hsl(0, 91.03607292384014%, 44.64614620585413%)"></path><path d="M58.20541445684578 25.078328358962715 L56.337730229464626 32.29394474042788 L62.01283249181929 27.88194163175032Z" fill="hsl(0, 87.55681151735732%, 42.670719028760836%)"></path><path d="M59.85872854683868 40.673129643965524 L60.773449183649845 43.41492623018496 L62.02352198956314 40.66605680599357Z" fill="hsl(0, 75.22307624085553%, 35.66796959036613%)"></path><path d="M60.83697046602789 25.448015517287725 L58.20541445684578 25.078328358962715 L62.01283249181929 27.88194163175032Z" fill="hsl(0, 83.79126213989504%, 40.5327455602926%)"></path><path d="M55.91666644350415 47.646305338398854 L57.66077980447586 60.384470091598466 L60.4256241862222 58.47476998866594Z" fill="hsl(0, 68.19223343773777%, 31.67605397135837%)"></path><path d="M51.44752515511656 19.204069427155556 L57.75228039678441 23.202803724470737 L59.631704176146414 14.644473473293862Z" fill="hsl(0, 73.40328985649685%, 34.63474585113565%)"></path><path d="M58.30014200839668 76.54689164368375 L51.0755327832438 81.36876413702385 L60.311087035982226 77.81683038425493Z" fill="hsl(0, 83.30623882009428%, 40.25736290417105%)"></path><path d="M53.79663186177094 71.2387179892354 L56.99316646838827 73.13725559787999 L60.39493743102683 71.54733908164216Z" fill="hsl(0, 72.31984768986382%, 34.0195977347027%)"></path><path d="M56.99316646838827 73.13725559787999 L57.210455964740504 74.34137736719902 L60.39493743102683 71.54733908164216Z" fill="hsl(0, 87.37425108834542%, 42.56706633044389%)"></path><path d="M57.75228039678441 23.202803724470737 L58.20541445684578 25.078328358962715 L60.83697046602789 25.448015517287725Z" fill="hsl(0, 86.52170074884472%, 42.083012126482174%)"></path><path d="M60.62939195711907 94.58359110588874 L56.8262315365746 96.99008796215497 L60.997009756028774 95.20305314438548Z" fill="hsl(0, 90.5995756988192%, 44.39831530719686%)"></path><path d="M55.91666644350415 47.646305338398854 L49.957131522362744 60.537663903335236 L57.66077980447586 60.384470091598466Z" fill="hsl(0, 68.53344699103343%, 31.86978546997958%)"></path><path d="M60.4256241862222 58.47476998866594 L57.66077980447586 60.384470091598466 L60.46090974883879 60.97870361743356Z" fill="hsl(0, 89.20388235147722%, 43.605879716099736%)"></path><path d="M58.72084739845905 93.43414853665853 L56.8262315365746 96.99008796215497 L60.62939195711907 94.58359110588874Z" fill="hsl(0, 74.92762599078878%, 35.50022121354874%)"></path><path d="M59.85872854683868 40.673129643965524 L55.91666644350415 47.646305338398854 L60.773449183649845 43.41492623018496Z" fill="hsl(0, 74.29909372889878%, 35.14335819960447%)"></path><path d="M55.91666644350415 47.646305338398854 L59.43412778918802 46.58895968374226 L60.773449183649845 43.41492623018496Z" fill="hsl(0, 79.52267280340237%, 38.10916009257046%)"></path><path d="M53.13616373193809 28.697665220923145 L56.337730229464626 32.29394474042788 L58.20541445684578 25.078328358962715Z" fill="hsl(0, 75.7189842110637%, 35.94953224612435%)"></path><path d="M58.03864172054492 13.379975568478104 L51.44752515511656 19.204069427155556 L59.631704176146414 14.644473473293862Z" fill="hsl(0, 69.42524947201545%, 32.376125940473855%)"></path><path d="M52.626196953584916 40.89253777400375 L55.91666644350415 47.646305338398854 L59.85872854683868 40.673129643965524Z" fill="hsl(0, 64.3572023171334%, 29.498630715225737%)"></path><path d="M57.625158693337106 35.469734914192195 L52.626196953584916 40.89253777400375 L59.85872854683868 40.673129643965524Z" fill="hsl(0, 68.4626305606498%, 31.82957788428225%)"></path><path d="M55.91666644350415 47.646305338398854 L59.168596597853764 48.3424426611787 L59.43412778918802 46.58895968374226Z" fill="hsl(0, 98.28395981912549%, 48.76129338127684%)"></path><path d="M52.976250103649 7.544057576635299 L58.328757631095264 10.570027129440406 L59.50251114015062 7.684384945184375Z" fill="hsl(0, 97.75464403425195%, 48.4607627040603%)"></path><path d="M56.535324585796566 4.248731686511592 L52.976250103649 7.544057576635299 L59.50251114015062 7.684384945184375Z" fill="hsl(0, 80.4231811671309%, 38.62044351944796%)"></path><path d="M51.44752515511656 19.204069427155556 L54.52206647380289 23.919004531875395 L57.75228039678441 23.202803724470737Z" fill="hsl(0, 95.50063276479615%, 47.18099823713607%)"></path><path d="M46.948705117014576 58.870097875056125 L49.957131522362744 60.537663903335236 L55.91666644350415 47.646305338398854Z" fill="hsl(0, 67.60800418669524%, 31.344344966104593%)"></path><path d="M50.717855360816664 14.143286096025376 L51.44752515511656 19.204069427155556 L58.03864172054492 13.379975568478104Z" fill="hsl(0, 92.97391497064396%, 45.74639864363809%)"></path><path d="M52.61527915242181 27.10371715284017 L53.13616373193809 28.697665220923145 L58.20541445684578 25.078328358962715Z" fill="hsl(0, 70.18431134993222%, 32.807100014436315%)"></path><path d="M57.76685396913025 88.86074405479697 L51.33269179572195 89.56519848801906 L58.72084739845905 93.43414853665853Z" fill="hsl(0, 85.65528018105945%, 41.59108279538721%)"></path><path d="M51.33269179572195 89.56519848801906 L56.8262315365746 96.99008796215497 L58.72084739845905 93.43414853665853Z" fill="hsl(0, 73.10381557684443%, 34.46471274302725%)"></path><path d="M52.626196953584916 40.89253777400375 L51.329218795484145 42.57969547803736 L55.91666644350415 47.646305338398854Z" fill="hsl(0, 81.70952058294978%, 39.35079101108518%)"></path><path d="M56.337730229464626 32.29394474042788 L55.269066973975434 33.15566011115908 L57.625158693337106 35.469734914192195Z" fill="hsl(0, 89.66151946875263%, 43.86571325347868%)"></path><path d="M54.52206647380289 23.919004531875395 L52.61527915242181 27.10371715284017 L58.20541445684578 25.078328358962715Z" fill="hsl(0, 76.55684752936062%, 36.4252475708106%)"></path><path d="M57.210455964740504 74.34137736719902 L51.0755327832438 81.36876413702385 L58.30014200839668 76.54689164368375Z" fill="hsl(0, 79.5267400729553%, 38.11146937430377%)"></path><path d="M50.558765010592246 10.195153251876427 L58.03864172054492 13.379975568478104 L58.328757631095264 10.570027129440406Z" fill="hsl(0, 72.24995464103242%, 33.97991441918804%)"></path><path d="M52.976250103649 7.544057576635299 L50.558765010592246 10.195153251876427 L58.328757631095264 10.570027129440406Z" fill="hsl(0, 76.88901546535546%, 36.61384322128416%)"></path><path d="M50.558765010592246 10.195153251876427 L50.717855360816664 14.143286096025376 L58.03864172054492 13.379975568478104Z" fill="hsl(0, 72.57436793319107%, 34.16410720008873%)"></path><path d="M57.75228039678441 23.202803724470737 L54.52206647380289 23.919004531875395 L58.20541445684578 25.078328358962715Z" fill="hsl(0, 90.13916206163327%, 44.13690533957937%)"></path><path d="M56.542390053044635 87.41017423332941 L51.33269179572195 89.56519848801906 L57.76685396913025 88.86074405479697Z" fill="hsl(0, 93.93397100996415%, 46.29149157286494%)"></path><path d="M55.269066973975434 33.15566011115908 L52.626196953584916 40.89253777400375 L57.625158693337106 35.469734914192195Z" fill="hsl(0, 87.82480321661342%, 42.822877209505606%)"></path><path d="M49.957131522362744 60.537663903335236 L54.31730798757145 63.128591065035565 L57.66077980447586 60.384470091598466Z" fill="hsl(0, 82.15948365598373%, 39.60626744108365%)"></path><path d="M47.51881630445466 92.71918565622325 L34.570027990516614 93.56695007577642 L47.871667229889574 92.85668660855293Z" fill="hsl(0, 95.58480118131196%, 47.22878670658778%)"></path><path d="M51.329218795484145 42.57969547803736 L50.808156462002565 43.58172509936929 L55.91666644350415 47.646305338398854Z" fill="hsl(0, 79.32156432761793%, 37.994976332802324%)"></path><path d="M43.66367309691913 5.8001277652995125 L52.976250103649 7.544057576635299 L56.535324585796566 4.248731686511592Z" fill="hsl(0, 71.06551247370386%, 33.30742133123654%)"></path><path d="M51.33269179572195 89.56519848801906 L47.871667229889574 92.85668660855293 L56.8262315365746 96.99008796215497Z" fill="hsl(0, 90.22386373464735%, 44.184996577135%)"></path><path d="M56.99316646838827 73.13725559787999 L53.79663186177094 71.2387179892354 L57.210455964740504 74.34137736719902Z" fill="hsl(0, 77.2344071996023%, 36.80994697402412%)"></path><path d="M53.79663186177094 71.2387179892354 L51.0755327832438 81.36876413702385 L57.210455964740504 74.34137736719902Z" fill="hsl(0, 69.73991631113839%, 32.554784958326124%)"></path><path d="M43.383670874495515 47.46894286202485 L46.948705117014576 58.870097875056125 L55.91666644350415 47.646305338398854Z" fill="hsl(0, 88.47032577371807%, 43.18938683719706%)"></path><path d="M51.0755327832438 81.36876413702385 L51.33269179572195 89.56519848801906 L56.542390053044635 87.41017423332941Z" fill="hsl(0, 87.8548136808904%, 42.83991631056868%)"></path><path d="M49.46547405564654 63.93618092199142 L53.79663186177094 71.2387179892354 L54.31730798757145 63.128591065035565Z" fill="hsl(0, 81.88278613025477%, 39.44916633590627%)"></path><path d="M48.58419207915528 34.8605508282265 L52.626196953584916 40.89253777400375 L55.269066973975434 33.15566011115908Z" fill="hsl(0, 66.38817452256043%, 30.651759848623467%)"></path><path d="M53.13616373193809 28.697665220923145 L55.269066973975434 33.15566011115908 L56.337730229464626 32.29394474042788Z" fill="hsl(0, 69.88912789845045%, 32.639503118382805%)"></path><path d="M50.808156462002565 43.58172509936929 L43.383670874495515 47.46894286202485 L55.91666644350415 47.646305338398854Z" fill="hsl(0, 73.29938280064428%, 34.57575033512168%)"></path><path d="M44.41758725959452 73.30117366116237 L51.0755327832438 81.36876413702385 L53.79663186177094 71.2387179892354Z" fill="hsl(0, 65.87025621592059%, 30.357700340319724%)"></path><path d="M53.13616373193809 28.697665220923145 L48.58419207915528 34.8605508282265 L55.269066973975434 33.15566011115908Z" fill="hsl(0, 86.41077171498095%, 42.02002972802976%)"></path><path d="M43.383670874495515 47.46894286202485 L41.85607680915281 54.59848155881086 L46.948705117014576 58.870097875056125Z" fill="hsl(0, 67.93689609357584%, 31.53108057900434%)"></path><path d="M50.558765010592246 10.195153251876427 L49.699710600889965 12.108172001495554 L50.717855360816664 14.143286096025376Z" fill="hsl(0, 77.24741072977974%, 36.817330014247204%)"></path><path d="M51.0755327832438 81.36876413702385 L48.69738643874461 88.95737760500322 L51.33269179572195 89.56519848801906Z" fill="hsl(0, 71.19305510138284%, 33.379836462932445%)"></path><path d="M50.717855360816664 14.143286096025376 L50.86994909339909 19.01070784320292 L51.44752515511656 19.204069427155556Z" fill="hsl(0, 84.03766827909939%, 40.67264806462296%)"></path><path d="M49.46547405564654 63.93618092199142 L47.374636333135236 65.43543086282968 L53.79663186177094 71.2387179892354Z" fill="hsl(0, 63.55559974485429%, 29.043503226512893%)"></path><path d="M51.44752515511656 19.204069427155556 L49.18363760383014 20.607374742606154 L54.52206647380289 23.919004531875395Z" fill="hsl(0, 87.0138862285844%, 42.36246125641441%)"></path><path d="M49.136351445419926 25.65698189168585 L52.61527915242181 27.10371715284017 L54.52206647380289 23.919004531875395Z" fill="hsl(0, 86.12361437598895%, 41.85698983384715%)"></path><path d="M49.18363760383014 20.607374742606154 L49.136351445419926 25.65698189168585 L54.52206647380289 23.919004531875395Z" fill="hsl(0, 93.29618973103663%, 45.9293772260995%)"></path><path d="M49.957131522362744 60.537663903335236 L49.46547405564654 63.93618092199142 L54.31730798757145 63.128591065035565Z" fill="hsl(0, 64.54000351057755%, 29.602420112843813%)"></path><path d="M47.0041220628778 82.51938998138976 L48.69738643874461 88.95737760500322 L51.0755327832438 81.36876413702385Z" fill="hsl(0, 86.97819876696438%, 42.34219891526514%)"></path><path d="M47.374636333135236 65.43543086282968 L44.41758725959452 73.30117366116237 L53.79663186177094 71.2387179892354Z" fill="hsl(0, 83.11739851717506%, 40.1501446693405%)"></path><path d="M43.66367309691913 5.8001277652995125 L50.558765010592246 10.195153251876427 L52.976250103649 7.544057576635299Z" fill="hsl(0, 98.1708074268083%, 48.69704862216791%)"></path><path d="M52.61527915242181 27.10371715284017 L49.136351445419926 25.65698189168585 L53.13616373193809 28.697665220923145Z" fill="hsl(0, 96.48253457531615%, 47.73849458337904%)"></path><path d="M49.136351445419926 25.65698189168585 L44.96182974122252 31.163672201028458 L53.13616373193809 28.697665220923145Z" fill="hsl(0, 69.79545333831766%, 32.586317326839875%)"></path><path d="M44.96182974122252 31.163672201028458 L48.58419207915528 34.8605508282265 L53.13616373193809 28.697665220923145Z" fill="hsl(0, 64.83457215302215%, 29.769667937546004%)"></path><path d="M48.58419207915528 34.8605508282265 L51.329218795484145 42.57969547803736 L52.626196953584916 40.89253777400375Z" fill="hsl(0, 94.70248419094793%, 46.72783183199036%)"></path><path d="M44.41758725959452 73.30117366116237 L44.859169574938605 81.80800008863844 L47.0041220628778 82.51938998138976Z" fill="hsl(0, 96.80755757364236%, 47.92303353836459%)"></path><path d="M44.41758725959452 73.30117366116237 L47.0041220628778 82.51938998138976 L51.0755327832438 81.36876413702385Z" fill="hsl(0, 76.28196825913429%, 36.26917882018068%)"></path><path d="M39.8601796957785 90.85203681220013 L34.570027990516614 93.56695007577642 L47.51881630445466 92.71918565622325Z" fill="hsl(0, 73.25264427687716%, 34.549213510410915%)"></path><path d="M50.717855360816664 14.143286096025376 L45.70299004884142 17.91379325988474 L50.86994909339909 19.01070784320292Z" fill="hsl(0, 78.08909737683595%, 37.295216117916596%)"></path><path d="M43.812019792915095 35.001018225222474 L50.808156462002565 43.58172509936929 L51.329218795484145 42.57969547803736Z" fill="hsl(0, 76.64382475392352%, 36.47463080280046%)"></path><path d="M48.58419207915528 34.8605508282265 L43.812019792915095 35.001018225222474 L51.329218795484145 42.57969547803736Z" fill="hsl(0, 74.81485426080422%, 35.43619258385043%)"></path><path d="M48.69738643874461 88.95737760500322 L47.871667229889574 92.85668660855293 L51.33269179572195 89.56519848801906Z" fill="hsl(0, 81.02256173593564%, 38.96075501855876%)"></path><path d="M50.86994909339909 19.01070784320292 L49.18363760383014 20.607374742606154 L51.44752515511656 19.204069427155556Z" fill="hsl(0, 94.43165286089003%, 46.57406138841062%)"></path><path d="M43.812019792915095 35.001018225222474 L43.383670874495515 47.46894286202485 L50.808156462002565 43.58172509936929Z" fill="hsl(0, 87.00477838535518%, 42.3572900781275%)"></path><path d="M45.70299004884142 17.91379325988474 L49.18363760383014 20.607374742606154 L50.86994909339909 19.01070784320292Z" fill="hsl(0, 85.60434282544131%, 41.56216199155514%)"></path><path d="M41.85607680915281 54.59848155881086 L43.02580970212935 57.476274144353056 L46.948705117014576 58.870097875056125Z" fill="hsl(0, 97.96861121999353%, 48.58224727918666%)"></path><path d="M49.699710600889965 12.108172001495554 L45.70299004884142 17.91379325988474 L50.717855360816664 14.143286096025376Z" fill="hsl(0, 66.92684244798781%, 30.95760040930539%)"></path><path d="M43.66367309691913 5.8001277652995125 L49.699710600889965 12.108172001495554 L50.558765010592246 10.195153251876427Z" fill="hsl(0, 85.55521959425803%, 41.53427119676598%)"></path><path d="M47.51881630445466 92.71918565622325 L47.871667229889574 92.85668660855293 L48.69738643874461 88.95737760500322Z" fill="hsl(0, 74.77464850998199%, 35.413364884643435%)"></path><path d="M44.13315796356716 20.625887562145994 L43.38505481559113 25.117644025846232 L49.136351445419926 25.65698189168585Z" fill="hsl(0, 81.31552697505956%, 39.12709247576467%)"></path><path d="M44.13315796356716 20.625887562145994 L49.136351445419926 25.65698189168585 L49.18363760383014 20.607374742606154Z" fill="hsl(0, 68.9285122863733%, 32.094092479417455%)"></path><path d="M46.948705117014576 58.870097875056125 L46.63039299533276 64.91375261596274 L49.46547405564654 63.93618092199142Z" fill="hsl(0, 92.83584048324167%, 45.66800381697474%)"></path><path d="M43.93103064909531 16.67459047461477 L45.70299004884142 17.91379325988474 L49.699710600889965 12.108172001495554Z" fill="hsl(0, 82.25652192847443%, 39.66136305429027%)"></path><path d="M46.948705117014576 58.870097875056125 L49.46547405564654 63.93618092199142 L49.957131522362744 60.537663903335236Z" fill="hsl(0, 68.98983277551234%, 32.12890853564484%)"></path><path d="M43.269658516193374 65.89698514808451 L44.41758725959452 73.30117366116237 L47.374636333135236 65.43543086282968Z" fill="hsl(0, 80.95037494211772%, 38.919769378885505%)"></path><path d="M42.38746558689843 27.527022300257485 L44.96182974122252 31.163672201028458 L49.136351445419926 25.65698189168585Z" fill="hsl(0, 75.54585921949656%, 35.85123672491443%)"></path><path d="M43.38505481559113 25.117644025846232 L42.38746558689843 27.527022300257485 L49.136351445419926 25.65698189168585Z" fill="hsl(0, 84.68801679104509%, 41.041897734304555%)"></path><path d="M43.66367309691913 5.8001277652995125 L43.93103064909531 16.67459047461477 L49.699710600889965 12.108172001495554Z" fill="hsl(0, 66.49644833982134%, 30.713234689457867%)"></path><path d="M46.63039299533276 64.91375261596274 L47.374636333135236 65.43543086282968 L49.46547405564654 63.93618092199142Z" fill="hsl(0, 81.53575105828313%, 39.25212954203388%)"></path><path d="M40.75285691789967 35.403788758204556 L43.383670874495515 47.46894286202485 L43.812019792915095 35.001018225222474Z" fill="hsl(0, 66.94323541518654%, 30.966907876935508%)"></path><path d="M47.0041220628778 82.51938998138976 L42.96838178264243 82.51369240075914 L48.69738643874461 88.95737760500322Z" fill="hsl(0, 97.45187838847073%, 48.288860850450796%)"></path><path d="M45.70299004884142 17.91379325988474 L44.13315796356716 20.625887562145994 L49.18363760383014 20.607374742606154Z" fill="hsl(0, 75.87894493659854%, 36.0403534657948%)"></path><path d="M40.47206608433151 51.76939483073444 L41.85607680915281 54.59848155881086 L43.383670874495515 47.46894286202485Z" fill="hsl(0, 68.10787796281421%, 31.628159295382%)"></path><path d="M44.96182974122252 31.163672201028458 L43.812019792915095 35.001018225222474 L48.58419207915528 34.8605508282265Z" fill="hsl(0, 79.86241954183558%, 38.3020587747963%)"></path><path d="M39.8601796957785 90.85203681220013 L47.51881630445466 92.71918565622325 L48.69738643874461 88.95737760500322Z" fill="hsl(0, 97.04028455736898%, 48.05516940134974%)"></path><path d="M42.96838178264243 82.51369240075914 L39.8601796957785 90.85203681220013 L48.69738643874461 88.95737760500322Z" fill="hsl(0, 73.55514014017221%, 34.72096218908103%)"></path><path d="M40.75285691789967 35.403788758204556 L36.03971038773165 40.855818568713666 L43.383670874495515 47.46894286202485Z" fill="hsl(0, 87.9902568027012%, 42.91681712155025%)"></path><path d="M43.66367309691913 5.8001277652995125 L37.07338530629137 8.948751724895116 L43.93103064909531 16.67459047461477Z" fill="hsl(0, 68.22339767463231%, 31.69374815219806%)"></path><path d="M43.269658516193374 65.89698514808451 L46.63039299533276 64.91375261596274 L46.948705117014576 58.870097875056125Z" fill="hsl(0, 83.05612572968188%, 40.11535569677156%)"></path><path d="M43.02580970212935 57.476274144353056 L43.269658516193374 65.89698514808451 L46.948705117014576 58.870097875056125Z" fill="hsl(0, 76.2785322229856%, 36.267227935094276%)"></path><path d="M44.859169574938605 81.80800008863844 L42.96838178264243 82.51369240075914 L47.0041220628778 82.51938998138976Z" fill="hsl(0, 63.67617066639709%, 29.111960018732944%)"></path><path d="M46.63039299533276 64.91375261596274 L43.269658516193374 65.89698514808451 L47.374636333135236 65.43543086282968Z" fill="hsl(0, 72.8879984376487%, 34.34217781614439%)"></path><path d="M43.269658516193374 65.89698514808451 L39.60329241201095 68.82701201491098 L44.41758725959452 73.30117366116237Z" fill="hsl(0, 78.66713688326016%, 37.623410759542644%)"></path><path d="M44.41758725959452 73.30117366116237 L42.96838178264243 82.51369240075914 L44.859169574938605 81.80800008863844Z" fill="hsl(0, 72.3402254309144%, 34.031167645317666%)"></path><path d="M38.25406912034418 73.38505723546011 L37.73824568928486 81.69637798153417 L42.96838178264243 82.51369240075914Z" fill="hsl(0, 88.46883555403262%, 43.188540732198746%)"></path><path d="M39.842515637978224 67.71933224300743 L39.60329241201095 68.82701201491098 L43.269658516193374 65.89698514808451Z" fill="hsl(0, 97.68498013670266%, 48.421209494225394%)"></path><path d="M43.02580970212935 57.476274144353056 L38.68370423076381 58.949246870757996 L43.269658516193374 65.89698514808451Z" fill="hsl(0, 81.87845463231915%, 39.446707032697944%)"></path><path d="M38.68370423076381 58.949246870757996 L37.47684187220812 61.41430369249894 L43.269658516193374 65.89698514808451Z" fill="hsl(0, 80.04058673470388%, 38.40321711667963%)"></path><path d="M36.03971038773165 40.855818568713666 L36.65021030751636 45.76925470577308 L43.383670874495515 47.46894286202485Z" fill="hsl(0, 88.50535420913685%, 43.20927500172773%)"></path><path d="M37.07338530629137 8.948751724895116 L37.19176900988579 16.165433160731634 L43.93103064909531 16.67459047461477Z" fill="hsl(0, 80.97703802718574%, 38.9349079317894%)"></path><path d="M38.25406912034418 73.38505723546011 L42.96838178264243 82.51369240075914 L44.41758725959452 73.30117366116237Z" fill="hsl(0, 64.48054669998452%, 29.56866220109567%)"></path><path d="M43.93103064909531 16.67459047461477 L44.13315796356716 20.625887562145994 L45.70299004884142 17.91379325988474Z" fill="hsl(0, 67.54271929018599%, 31.3072780304102%)"></path><path d="M36.082994839886226 86.18691104244286 L39.8601796957785 90.85203681220013 L42.96838178264243 82.51369240075914Z" fill="hsl(0, 81.82703987337197%, 39.4175151726271%)"></path><path d="M31.411489285552253 6.01426442948656 L37.07338530629137 8.948751724895116 L43.66367309691913 5.8001277652995125Z" fill="hsl(0, 78.34140450552336%, 37.438469038796526%)"></path><path d="M40.23501715208076 32.966435022522376 L43.812019792915095 35.001018225222474 L44.96182974122252 31.163672201028458Z" fill="hsl(0, 96.79309605169638%, 47.91482269125176%)"></path><path d="M42.38746558689843 27.527022300257485 L40.23501715208076 32.966435022522376 L44.96182974122252 31.163672201028458Z" fill="hsl(0, 67.7123623135775%, 31.403596587615315%)"></path><path d="M40.23501715208076 32.966435022522376 L41.00884670099674 34.81781241111349 L43.812019792915095 35.001018225222474Z" fill="hsl(0, 73.2720736743392%, 34.56024497809814%)"></path><path d="M39.72984962773105 26.192254298135765 L43.38505481559113 25.117644025846232 L44.13315796356716 20.625887562145994Z" fill="hsl(0, 65.72369746762249%, 30.27448838795265%)"></path><path d="M43.93103064909531 16.67459047461477 L37.19176900988579 16.165433160731634 L44.13315796356716 20.625887562145994Z" fill="hsl(0, 88.78468070234804%, 43.36786876100762%)"></path><path d="M39.60329241201095 68.82701201491098 L38.25406912034418 73.38505723546011 L44.41758725959452 73.30117366116237Z" fill="hsl(0, 80.62547485305578%, 38.73530020833766%)"></path><path d="M39.22116834685262 57.931915515117815 L38.68370423076381 58.949246870757996 L43.02580970212935 57.476274144353056Z" fill="hsl(0, 65.00845240363924%, 29.868392273690674%)"></path><path d="M37.19176900988579 16.165433160731634 L39.72984962773105 26.192254298135765 L44.13315796356716 20.625887562145994Z" fill="hsl(0, 95.47941929564261%, 47.16895382351189%)"></path><path d="M37.19176900988579 16.165433160731634 L35.70119364131352 16.983895360085228 L39.72984962773105 26.192254298135765Z" fill="hsl(0, 84.18797546914344%, 40.757988277224484%)"></path><path d="M41.00884670099674 34.81781241111349 L40.75285691789967 35.403788758204556 L43.812019792915095 35.001018225222474Z" fill="hsl(0, 96.3795154836827%, 47.68000322857798%)"></path><path d="M37.73824568928486 81.69637798153417 L36.082994839886226 86.18691104244286 L42.96838178264243 82.51369240075914Z" fill="hsl(0, 89.1267405326335%, 43.56208075200053%)"></path><path d="M37.47684187220812 61.41430369249894 L39.842515637978224 67.71933224300743 L43.269658516193374 65.89698514808451Z" fill="hsl(0, 83.60955804372979%, 40.42957906378125%)"></path><path d="M36.65021030751636 45.76925470577308 L40.47206608433151 51.76939483073444 L43.383670874495515 47.46894286202485Z" fill="hsl(0, 70.63225624419819%, 33.06143057905684%)"></path><path d="M39.72984962773105 26.192254298135765 L42.38746558689843 27.527022300257485 L43.38505481559113 25.117644025846232Z" fill="hsl(0, 86.10356840914538%, 41.84560829533438%)"></path><path d="M34.75985820309592 78.09844299446593 L37.73824568928486 81.69637798153417 L38.25406912034418 73.38505723546011Z" fill="hsl(0, 77.8225949984037%, 37.1439035318217%)"></path><path d="M39.72984962773105 26.192254298135765 L40.23501715208076 32.966435022522376 L42.38746558689843 27.527022300257485Z" fill="hsl(0, 77.71426454935863%, 37.08239653704643%)"></path><path d="M41.85607680915281 54.59848155881086 L39.22116834685262 57.931915515117815 L43.02580970212935 57.476274144353056Z" fill="hsl(0, 69.42056574059744%, 32.37346664895983%)"></path><path d="M37.524010606013746 35.209534671394664 L36.03971038773165 40.855818568713666 L40.75285691789967 35.403788758204556Z" fill="hsl(0, 87.17571957659466%, 42.45434569867673%)"></path><path d="M39.72984962773105 26.192254298135765 L34.82042905546168 29.252894952830964 L40.23501715208076 32.966435022522376Z" fill="hsl(0, 93.45901200578894%, 46.02182315326742%)"></path><path d="M40.47206608433151 51.76939483073444 L39.22116834685262 57.931915515117815 L41.85607680915281 54.59848155881086Z" fill="hsl(0, 86.83967168729149%, 42.263547119387056%)"></path><path d="M35.64379675144039 91.207096172697 L34.570027990516614 93.56695007577642 L39.8601796957785 90.85203681220013Z" fill="hsl(0, 87.02037953879172%, 42.3661479760811%)"></path><path d="M33.49705443471399 55.65563346738163 L39.22116834685262 57.931915515117815 L40.47206608433151 51.76939483073444Z" fill="hsl(0, 90.98821008698634%, 44.618971027663264%)"></path><path d="M40.23501715208076 32.966435022522376 L37.524010606013746 35.209534671394664 L40.75285691789967 35.403788758204556Z" fill="hsl(0, 68.4456292978668%, 31.819925043456934%)"></path><path d="M40.23501715208076 32.966435022522376 L40.75285691789967 35.403788758204556 L41.00884670099674 34.81781241111349Z" fill="hsl(0, 84.173584575193%, 40.74981753070932%)"></path><path d="M36.83075933319401 69.34151112693256 L38.25406912034418 73.38505723546011 L39.60329241201095 68.82701201491098Z" fill="hsl(0, 84.41284449267786%, 40.885662610503566%)"></path><path d="M35.70119364131352 16.983895360085228 L29.666945046957327 20.640519643894983 L39.72984962773105 26.192254298135765Z" fill="hsl(0, 69.34120968655158%, 32.328410504130645%)"></path><path d="M37.47684187220812 61.41430369249894 L36.83075933319401 69.34151112693256 L39.842515637978224 67.71933224300743Z" fill="hsl(0, 67.90752706451198%, 31.514405666889513%)"></path><path d="M36.082994839886226 86.18691104244286 L35.64379675144039 91.207096172697 L39.8601796957785 90.85203681220013Z" fill="hsl(0, 68.28363519069222%, 31.72794932664377%)"></path><path d="M36.65021030751636 45.76925470577308 L33.49705443471399 55.65563346738163 L40.47206608433151 51.76939483073444Z" fill="hsl(0, 76.31478369905076%, 36.28781050784821%)"></path><path d="M29.666945046957327 20.640519643894983 L34.82042905546168 29.252894952830964 L39.72984962773105 26.192254298135765Z" fill="hsl(0, 72.47286162758527%, 34.10647476282305%)"></path><path d="M34.82042905546168 29.252894952830964 L37.524010606013746 35.209534671394664 L40.23501715208076 32.966435022522376Z" fill="hsl(0, 78.78890161587421%, 37.692545364251885%)"></path><path d="M36.83075933319401 69.34151112693256 L39.60329241201095 68.82701201491098 L39.842515637978224 67.71933224300743Z" fill="hsl(0, 84.75300229682018%, 41.078794684325636%)"></path><path d="M34.382903763205945 74.33777764611906 L34.75985820309592 78.09844299446593 L38.25406912034418 73.38505723546011Z" fill="hsl(0, 80.96418189209743%, 38.92760857836959%)"></path><path d="M29.666945046957327 20.640519643894983 L29.255441622228656 21.34044839868513 L34.82042905546168 29.252894952830964Z" fill="hsl(0, 89.38569325499324%, 43.70910685483333%)"></path><path d="M37.07338530629137 8.948751724895116 L33.64235291492074 9.485973274927073 L37.19176900988579 16.165433160731634Z" fill="hsl(0, 71.29573979407223%, 33.438137955379126%)"></path><path d="M36.913045574776795 60.0808350268061 L37.47684187220812 61.41430369249894 L38.68370423076381 58.949246870757996Z" fill="hsl(0, 86.6743331854372%, 42.16967254894683%)"></path><path d="M29.795743573057816 64.58800710645505 L36.83075933319401 69.34151112693256 L37.47684187220812 61.41430369249894Z" fill="hsl(0, 64.49627819808575%, 29.577594105099106%)"></path><path d="M34.274196174636316 58.93424874497668 L38.68370423076381 58.949246870757996 L39.22116834685262 57.931915515117815Z" fill="hsl(0, 80.60939990117627%, 38.72617330089861%)"></path><path d="M33.49705443471399 55.65563346738163 L34.274196174636316 58.93424874497668 L39.22116834685262 57.931915515117815Z" fill="hsl(0, 72.15346285955602%, 33.92512908827284%)"></path><path d="M29.795743573057816 64.58800710645505 L31.2470378484754 69.12284967459388 L36.83075933319401 69.34151112693256Z" fill="hsl(0, 86.78056135863393%, 42.229985930377374%)"></path><path d="M33.64235291492074 9.485973274927073 L32.64893580423237 15.409495998133337 L37.19176900988579 16.165433160731634Z" fill="hsl(0, 82.24254945828315%, 39.65342987706607%)"></path><path d="M34.274196174636316 58.93424874497668 L36.913045574776795 60.0808350268061 L38.68370423076381 58.949246870757996Z" fill="hsl(0, 69.15070925993022%, 32.220249697559886%)"></path><path d="M31.411489285552253 6.01426442948656 L33.64235291492074 9.485973274927073 L37.07338530629137 8.948751724895116Z" fill="hsl(0, 88.03710542278247%, 42.94341645586455%)"></path><path d="M31.670217559573143 38.067127151383204 L36.03971038773165 40.855818568713666 L37.524010606013746 35.209534671394664Z" fill="hsl(0, 73.94854795654517%, 34.94432812838527%)"></path><path d="M36.83075933319401 69.34151112693256 L34.382903763205945 74.33777764611906 L38.25406912034418 73.38505723546011Z" fill="hsl(0, 85.60734675062088%, 41.56386753613614%)"></path><path d="M31.53330699281175 11.569517095131621 L32.64893580423237 15.409495998133337 L33.64235291492074 9.485973274927073Z" fill="hsl(0, 63.665168976180226%, 29.10571356717059%)"></path><path d="M32.64893580423237 15.409495998133337 L35.70119364131352 16.983895360085228 L37.19176900988579 16.165433160731634Z" fill="hsl(0, 74.34511600774977%, 35.169488360512936%)"></path><path d="M34.274196174636316 58.93424874497668 L29.795743573057816 64.58800710645505 L37.47684187220812 61.41430369249894Z" fill="hsl(0, 97.0770086420314%, 48.07602030802805%)"></path><path d="M34.82042905546168 29.252894952830964 L29.821897317745904 30.378785375729024 L37.524010606013746 35.209534671394664Z" fill="hsl(0, 69.58056837226655%, 32.46431166175959%)"></path><path d="M29.821897317745904 30.378785375729024 L31.670217559573143 38.067127151383204 L37.524010606013746 35.209534671394664Z" fill="hsl(0, 93.84170291659008%, 46.239104333754334%)"></path><path d="M34.75985820309592 78.09844299446593 L34.384778033441066 78.15359383599025 L37.73824568928486 81.69637798153417Z" fill="hsl(0, 88.20307807244578%, 43.037651077669096%)"></path><path d="M30.624021468878116 81.67273104229113 L36.082994839886226 86.18691104244286 L37.73824568928486 81.69637798153417Z" fill="hsl(0, 75.07794887070841%, 35.58557033442217%)"></path><path d="M34.384778033441066 78.15359383599025 L30.624021468878116 81.67273104229113 L37.73824568928486 81.69637798153417Z" fill="hsl(0, 90.66322011353063%, 44.43445082327418%)"></path><path d="M29.439591198412213 42.80888582987085 L25.022606552488426 52.93659903934955 L33.49705443471399 55.65563346738163Z" fill="hsl(0, 90.26114799479188%, 44.20616553576228%)"></path><path d="M29.439591198412213 42.80888582987085 L33.49705443471399 55.65563346738163 L36.65021030751636 45.76925470577308Z" fill="hsl(0, 92.93852457062417%, 45.72630496574512%)"></path><path d="M36.913045574776795 60.0808350268061 L34.274196174636316 58.93424874497668 L37.47684187220812 61.41430369249894Z" fill="hsl(0, 69.51530257921445%, 32.42725557247309%)"></path><path d="M36.03971038773165 40.855818568713666 L29.439591198412213 42.80888582987085 L36.65021030751636 45.76925470577308Z" fill="hsl(0, 95.88284553152114%, 47.39800794080873%)"></path><path d="M31.2470378484754 69.12284967459388 L34.382903763205945 74.33777764611906 L36.83075933319401 69.34151112693256Z" fill="hsl(0, 76.74806784339003%, 36.53381710928855%)"></path><path d="M34.382903763205945 74.33777764611906 L33.486105398974566 77.32568051673157 L34.75985820309592 78.09844299446593Z" fill="hsl(0, 69.97677038879272%, 32.68926406964898%)"></path><path d="M32.007579266810446 16.22342269308019 L29.666945046957327 20.640519643894983 L35.70119364131352 16.983895360085228Z" fill="hsl(0, 65.87944920379024%, 30.362919861348697%)"></path><path d="M29.77268509968789 86.159959378344 L35.64379675144039 91.207096172697 L36.082994839886226 86.18691104244286Z" fill="hsl(0, 73.53093495338493%, 34.70721916197846%)"></path><path d="M29.255441622228656 21.34044839868513 L29.821897317745904 30.378785375729024 L34.82042905546168 29.252894952830964Z" fill="hsl(0, 81.91775664091342%, 39.46902161238052%)"></path><path d="M29.77268509968789 86.159959378344 L28.80213832519344 90.93864850098892 L35.64379675144039 91.207096172697Z" fill="hsl(0, 90.42005824599761%, 44.29639032553106%)"></path><path d="M31.670217559573143 38.067127151383204 L29.439591198412213 42.80888582987085 L36.03971038773165 40.855818568713666Z" fill="hsl(0, 66.85544208651623%, 30.917061283891464%)"></path><path d="M30.624021468878116 81.67273104229113 L29.77268509968789 86.159959378344 L36.082994839886226 86.18691104244286Z" fill="hsl(0, 79.96732073433974%, 38.361618733756586%)"></path><path d="M29.821897317745904 30.378785375729024 L27.614418460683844 33.5557141210254 L31.670217559573143 38.067127151383204Z" fill="hsl(0, 76.25536079491478%, 36.2540718472367%)"></path><path d="M28.764079872866095 61.96548159298726 L29.795743573057816 64.58800710645505 L34.274196174636316 58.93424874497668Z" fill="hsl(0, 72.36037514033298%, 34.04260808595883%)"></path><path d="M32.64893580423237 15.409495998133337 L32.007579266810446 16.22342269308019 L35.70119364131352 16.983895360085228Z" fill="hsl(0, 78.93857396859714%, 37.77752513400343%)"></path><path d="M28.80213832519344 90.93864850098892 L34.570027990516614 93.56695007577642 L35.64379675144039 91.207096172697Z" fill="hsl(0, 76.24657564534493%, 36.249083885371356%)"></path><path d="M31.53330699281175 11.569517095131621 L31.080644720338384 14.59428554694745 L32.64893580423237 15.409495998133337Z" fill="hsl(0, 92.9235064046644%, 45.717778071752114%)"></path><path d="M31.2470378484754 69.12284967459388 L28.970835204022617 71.66624111413424 L34.382903763205945 74.33777764611906Z" fill="hsl(0, 93.53025138388654%, 46.06227087683053%)"></path><path d="M33.486105398974566 77.32568051673157 L30.624021468878116 81.67273104229113 L34.384778033441066 78.15359383599025Z" fill="hsl(0, 98.34827239921901%, 48.79780826294369%)"></path><path d="M33.486105398974566 77.32568051673157 L34.384778033441066 78.15359383599025 L34.75985820309592 78.09844299446593Z" fill="hsl(0, 74.25209055748543%, 35.116671115372604%)"></path><path d="M28.970835204022617 71.66624111413424 L33.486105398974566 77.32568051673157 L34.382903763205945 74.33777764611906Z" fill="hsl(0, 69.16250787558485%, 32.22694862106498%)"></path><path d="M33.49705443471399 55.65563346738163 L28.764079872866095 61.96548159298726 L34.274196174636316 58.93424874497668Z" fill="hsl(0, 72.73806848202165%, 34.25705178667899%)"></path><path d="M25.022606552488426 52.93659903934955 L26.2343351177768 56.26509804391807 L33.49705443471399 55.65563346738163Z" fill="hsl(0, 71.4707523912395%, 33.53750520617946%)"></path><path d="M26.2343351177768 56.26509804391807 L28.764079872866095 61.96548159298726 L33.49705443471399 55.65563346738163Z" fill="hsl(0, 79.12120958240827%, 37.88122052014354%)"></path><path d="M29.42311069631972 8.841164328901574 L31.53330699281175 11.569517095131621 L33.64235291492074 9.485973274927073Z" fill="hsl(0, 82.11712522203977%, 39.582217508693944%)"></path><path d="M31.411489285552253 6.01426442948656 L29.42311069631972 8.841164328901574 L33.64235291492074 9.485973274927073Z" fill="hsl(0, 94.9786826082021%, 46.884649557355125%)"></path><path d="M24.43931658899804 26.127119274702 L27.563735871115792 30.184963867509694 L29.255441622228656 21.34044839868513Z" fill="hsl(0, 66.40874990200605%, 30.663441972783534%)"></path><path d="M29.255441622228656 21.34044839868513 L27.563735871115792 30.184963867509694 L29.821897317745904 30.378785375729024Z" fill="hsl(0, 69.50091828129328%, 32.419088570998596%)"></path><path d="M27.449587607928926 80.49099828710393 L30.624021468878116 81.67273104229113 L33.486105398974566 77.32568051673157Z" fill="hsl(0, 84.9551072615515%, 41.193544222607485%)"></path><path d="M28.970835204022617 71.66624111413424 L27.449587607928926 80.49099828710393 L33.486105398974566 77.32568051673157Z" fill="hsl(0, 91.61482756499147%, 44.97474688094827%)"></path><path d="M22.254634172868027 49.12032097059453 L25.022606552488426 52.93659903934955 L29.439591198412213 42.80888582987085Z" fill="hsl(0, 64.54942085858873%, 29.60776701927711%)"></path><path d="M29.64524579020581 81.9632605647459 L29.77268509968789 86.159959378344 L30.624021468878116 81.67273104229113Z" fill="hsl(0, 68.05459035031072%, 31.597904081518017%)"></path><path d="M27.614418460683844 33.5557141210254 L27.60369423916962 36.835732114607524 L31.670217559573143 38.067127151383204Z" fill="hsl(0, 84.85519439565992%, 41.13681649578139%)"></path><path d="M27.856502385471266 17.385536263386488 L29.666945046957327 20.640519643894983 L32.007579266810446 16.22342269308019Z" fill="hsl(0, 94.38398183841434%, 46.54699511705119%)"></path><path d="M31.080644720338384 14.59428554694745 L32.007579266810446 16.22342269308019 L32.64893580423237 15.409495998133337Z" fill="hsl(0, 69.67357404351075%, 32.51711767692627%)"></path><path d="M23.344678904014877 77.04794345546911 L27.449587607928926 80.49099828710393 L28.970835204022617 71.66624111413424Z" fill="hsl(0, 78.8285830279641%, 37.71507535861268%)"></path><path d="M27.856502385471266 17.385536263386488 L27.656378468635502 18.2402586216191 L29.666945046957327 20.640519643894983Z" fill="hsl(0, 76.95044577219987%, 36.64872162892882%)"></path><path d="M29.795743573057816 64.58800710645505 L27.866351370113318 65.39874064489844 L31.2470378484754 69.12284967459388Z" fill="hsl(0, 78.49857262526302%, 37.52770469511366%)"></path><path d="M29.807519995680032 14.129492708690567 L31.080644720338384 14.59428554694745 L31.53330699281175 11.569517095131621Z" fill="hsl(0, 90.40788213360901%, 44.2894770699536%)"></path><path d="M27.60369423916962 36.835732114607524 L29.439591198412213 42.80888582987085 L31.670217559573143 38.067127151383204Z" fill="hsl(0, 81.77965736024535%, 39.390612708795295%)"></path><path d="M31.080644720338384 14.59428554694745 L27.856502385471266 17.385536263386488 L32.007579266810446 16.22342269308019Z" fill="hsl(0, 72.54607516472757%, 34.14804335859816%)"></path><path d="M27.449587607928926 80.49099828710393 L29.64524579020581 81.9632605647459 L30.624021468878116 81.67273104229113Z" fill="hsl(0, 98.32708841323837%, 48.78578058903929%)"></path><path d="M29.807519995680032 14.129492708690567 L27.856502385471266 17.385536263386488 L31.080644720338384 14.59428554694745Z" fill="hsl(0, 92.19569134931398%, 45.30454506846068%)"></path><path d="M29.42311069631972 8.841164328901574 L28.754212354473086 9.292642708056459 L31.53330699281175 11.569517095131621Z" fill="hsl(0, 78.94385855966127%, 37.78052557679524%)"></path><path d="M28.218108697747642 13.19233059383249 L29.807519995680032 14.129492708690567 L31.53330699281175 11.569517095131621Z" fill="hsl(0, 87.4587528168602%, 42.615044045112995%)"></path><path d="M28.764079872866095 61.96548159298726 L28.585002945410036 63.762574558866056 L29.795743573057816 64.58800710645505Z" fill="hsl(0, 65.09150080120182%, 29.915544827750992%)"></path><path d="M28.754212354473086 9.292642708056459 L28.218108697747642 13.19233059383249 L31.53330699281175 11.569517095131621Z" fill="hsl(0, 71.51362291902677%, 33.56184589111032%)"></path><path d="M25.649195662921464 8.30151363484965 L29.42311069631972 8.841164328901574 L31.411489285552253 6.01426442948656Z" fill="hsl(0, 74.98826915289084%, 35.534652702455574%)"></path><path d="M27.866351370113318 65.39874064489844 L28.970835204022617 71.66624111413424 L31.2470378484754 69.12284967459388Z" fill="hsl(0, 75.3306320734689%, 35.729036779627464%)"></path><path d="M25.649195662921464 8.30151363484965 L28.754212354473086 9.292642708056459 L29.42311069631972 8.841164328901574Z" fill="hsl(0, 64.73483855831017%, 29.713041995874555%)"></path><path d="M21.09117389047728 47.77279919388471 L22.254634172868027 49.12032097059453 L29.439591198412213 42.80888582987085Z" fill="hsl(0, 77.19105408654279%, 36.78533229069225%)"></path><path d="M24.20727042058187 80.52459275465363 L28.80213832519344 90.93864850098892 L29.77268509968789 86.159959378344Z" fill="hsl(0, 72.59234642288371%, 34.1743148829825%)"></path><path d="M29.64524579020581 81.9632605647459 L27.449587607928926 80.49099828710393 L29.77268509968789 86.159959378344Z" fill="hsl(0, 71.25840527598027%, 33.41694046169695%)"></path><path d="M27.449587607928926 80.49099828710393 L24.20727042058187 80.52459275465363 L29.77268509968789 86.159959378344Z" fill="hsl(0, 85.89190344229712%, 41.725430855613546%)"></path><path d="M28.218108697747642 13.19233059383249 L27.009479307980612 13.513506025054006 L29.807519995680032 14.129492708690567Z" fill="hsl(0, 78.06340294341736%, 37.28062753828859%)"></path><path d="M27.009479307980612 13.513506025054006 L27.856502385471266 17.385536263386488 L29.807519995680032 14.129492708690567Z" fill="hsl(0, 80.91038230487646%, 38.89706267960076%)"></path><path d="M27.563735871115792 30.184963867509694 L27.614418460683844 33.5557141210254 L29.821897317745904 30.378785375729024Z" fill="hsl(0, 96.94849713983278%, 48.00305507651678%)"></path><path d="M27.60369423916962 36.835732114607524 L20.26809757302499 42.22976535104502 L29.439591198412213 42.80888582987085Z" fill="hsl(0, 82.2241289874301%, 39.64297124964872%)"></path><path d="M28.585002945410036 63.762574558866056 L27.866351370113318 65.39874064489844 L29.795743573057816 64.58800710645505Z" fill="hsl(0, 80.1686581447491%, 38.4759324761926%)"></path><path d="M24.20727042058187 80.52459275465363 L16.58599156316876 83.79173666460385 L28.80213832519344 90.93864850098892Z" fill="hsl(0, 66.7170734965552%, 30.83849947403268%)"></path><path d="M27.866351370113318 65.39874064489844 L21.220539792113446 65.97148442679011 L28.970835204022617 71.66624111413424Z" fill="hsl(0, 74.7124042245926%, 35.37802432277941%)"></path><path d="M20.26809757302499 42.22976535104502 L21.09117389047728 47.77279919388471 L29.439591198412213 42.80888582987085Z" fill="hsl(0, 71.66638831743168%, 33.648581805567986%)"></path><path d="M27.656378468635502 18.2402586216191 L29.255441622228656 21.34044839868513 L29.666945046957327 20.640519643894983Z" fill="hsl(0, 79.21261158995797%, 37.93311601998099%)"></path><path d="M26.140572591049448 13.279233610807884 L28.218108697747642 13.19233059383249 L28.754212354473086 9.292642708056459Z" fill="hsl(0, 89.67358211550253%, 43.872562086444496%)"></path><path d="M26.2343351177768 56.26509804391807 L25.719247416016856 63.11597214032609 L28.764079872866095 61.96548159298726Z" fill="hsl(0, 76.16193697422334%, 36.20102841852568%)"></path><path d="M21.220539792113446 65.97148442679011 L19.96663400615781 72.07039350548648 L28.970835204022617 71.66624111413424Z" fill="hsl(0, 71.37178440437283%, 33.48131395519891%)"></path><path d="M27.656378468635502 18.2402586216191 L24.43931658899804 26.127119274702 L29.255441622228656 21.34044839868513Z" fill="hsl(0, 90.06558063405974%, 44.09512786592154%)"></path><path d="M26.140572591049448 13.279233610807884 L27.009479307980612 13.513506025054006 L28.218108697747642 13.19233059383249Z" fill="hsl(0, 94.43921594081043%, 46.57835549335757%)"></path><path d="M25.649195662921464 8.30151363484965 L26.140572591049448 13.279233610807884 L28.754212354473086 9.292642708056459Z" fill="hsl(0, 96.95245125241644%, 48.00530011089232%)"></path><path d="M19.96663400615781 72.07039350548648 L23.344678904014877 77.04794345546911 L28.970835204022617 71.66624111413424Z" fill="hsl(0, 94.88302233055988%, 46.83033633102765%)"></path><path d="M25.964635430150228 34.079475730762496 L27.60369423916962 36.835732114607524 L27.614418460683844 33.5557141210254Z" fill="hsl(0, 70.61754531771818%, 33.05307812703508%)"></path><path d="M25.719247416016856 63.11597214032609 L28.585002945410036 63.762574558866056 L28.764079872866095 61.96548159298726Z" fill="hsl(0, 73.1601973991097%, 34.496724762529254%)"></path><path d="M25.719247416016856 63.11597214032609 L27.866351370113318 65.39874064489844 L28.585002945410036 63.762574558866056Z" fill="hsl(0, 80.82517335496624%, 38.84868342443166%)"></path><path d="M23.344678904014877 77.04794345546911 L24.20727042058187 80.52459275465363 L27.449587607928926 80.49099828710393Z" fill="hsl(0, 84.2518850322852%, 40.79427433715409%)"></path><path d="M27.563735871115792 30.184963867509694 L25.964635430150228 34.079475730762496 L27.614418460683844 33.5557141210254Z" fill="hsl(0, 83.68757344386275%, 40.47387402286862%)"></path><path d="M27.009479307980612 13.513506025054006 L26.140572591049448 13.279233610807884 L27.856502385471266 17.385536263386488Z" fill="hsl(0, 77.34144238272353%, 36.87071855308652%)"></path><path d="M26.140572591049448 13.279233610807884 L27.656378468635502 18.2402586216191 L27.856502385471266 17.385536263386488Z" fill="hsl(0, 76.50583802592706%, 36.39628580346971%)"></path><path d="M25.719247416016856 63.11597214032609 L21.220539792113446 65.97148442679011 L27.866351370113318 65.39874064489844Z" fill="hsl(0, 64.8578711012309%, 29.782896427766225%)"></path><path d="M19.91206855189802 61.56475802027763 L25.719247416016856 63.11597214032609 L26.2343351177768 56.26509804391807Z" fill="hsl(0, 91.15258441333393%, 44.71229816625607%)"></path><path d="M25.964635430150228 34.079475730762496 L20.26809757302499 42.22976535104502 L27.60369423916962 36.835732114607524Z" fill="hsl(0, 88.72322316122765%, 43.332974890503856%)"></path><path d="M26.140572591049448 13.279233610807884 L9.76559195628096 25.443793217848366 L27.656378468635502 18.2402586216191Z" fill="hsl(0, 63.82441105696289%, 29.19612676047904%)"></path><path d="M9.76559195628096 25.443793217848366 L24.43931658899804 26.127119274702 L27.656378468635502 18.2402586216191Z" fill="hsl(0, 85.56602735059073%, 41.54040753810073%)"></path><path d="M20.53137058338758 32.41851357155177 L25.964635430150228 34.079475730762496 L27.563735871115792 30.184963867509694Z" fill="hsl(0, 81.19913418605174%, 39.06100791017403%)"></path><path d="M24.43931658899804 26.127119274702 L20.53137058338758 32.41851357155177 L27.563735871115792 30.184963867509694Z" fill="hsl(0, 93.88647646825592%, 46.264525502342266%)"></path><path d="M20.53137058338758 32.41851357155177 L20.26809757302499 42.22976535104502 L25.964635430150228 34.079475730762496Z" fill="hsl(0, 79.36632165391468%, 38.02038828908013%)"></path><path d="M19.104370656616315 59.33291437203736 L19.91206855189802 61.56475802027763 L26.2343351177768 56.26509804391807Z" fill="hsl(0, 74.30104912634502%, 35.14446841950635%)"></path><path d="M25.022606552488426 52.93659903934955 L19.104370656616315 59.33291437203736 L26.2343351177768 56.26509804391807Z" fill="hsl(0, 84.90042510904883%, 41.16249722799119%)"></path><path d="M25.649195662921464 8.30151363484965 L9.76559195628096 25.443793217848366 L26.140572591049448 13.279233610807884Z" fill="hsl(0, 67.81085880114014%, 31.45952013449711%)"></path><path d="M18.745831826550795 69.67684118884563 L19.96663400615781 72.07039350548648 L21.220539792113446 65.97148442679011Z" fill="hsl(0, 96.15777154137902%, 47.55410322889233%)"></path><path d="M19.91206855189802 61.56475802027763 L21.220539792113446 65.97148442679011 L25.719247416016856 63.11597214032609Z" fill="hsl(0, 66.27312091619866%, 30.586435633430504%)"></path><path d="M19.96663400615781 72.07039350548648 L20.849283121507245 77.03051202212343 L23.344678904014877 77.04794345546911Z" fill="hsl(0, 71.11238234234125%, 33.33403272988585%)"></path><path d="M22.254634172868027 49.12032097059453 L19.104370656616315 59.33291437203736 L25.022606552488426 52.93659903934955Z" fill="hsl(0, 87.93454555061501%, 42.88518583301416%)"></path><path d="M17.169723784663514 48.834079465963995 L13.775236048067663 52.79856671505758 L19.104370656616315 59.33291437203736Z" fill="hsl(0, 95.0347422804283%, 46.91647866908793%)"></path><path d="M17.169723784663514 48.834079465963995 L19.104370656616315 59.33291437203736 L22.254634172868027 49.12032097059453Z" fill="hsl(0, 63.580704442201686%, 29.057756970517396%)"></path><path d="M23.344678904014877 77.04794345546911 L20.849283121507245 77.03051202212343 L24.20727042058187 80.52459275465363Z" fill="hsl(0, 71.96411701756415%, 33.81762382251631%)"></path><path d="M9.76559195628096 25.443793217848366 L20.53137058338758 32.41851357155177 L24.43931658899804 26.127119274702Z" fill="hsl(0, 83.70427713476236%, 40.483357910713146%)"></path><path d="M20.26809757302499 42.22976535104502 L19.06278619709222 46.64923717568886 L21.09117389047728 47.77279919388471Z" fill="hsl(0, 78.48313841325641%, 37.51894158182816%)"></path><path d="M20.849283121507245 77.03051202212343 L16.58599156316876 83.79173666460385 L24.20727042058187 80.52459275465363Z" fill="hsl(0, 87.24824559483216%, 42.49552394047419%)"></path><path d="M14.95455038441566 41.09299278441904 L20.26809757302499 42.22976535104502 L20.53137058338758 32.41851357155177Z" fill="hsl(0, 98.12575260835487%, 48.6714677581759%)"></path><path d="M9.76559195628096 25.443793217848366 L9.501869004758307 26.545016057646563 L20.53137058338758 32.41851357155177Z" fill="hsl(0, 85.67859281513975%, 41.604319056061975%)"></path><path d="M15.25452883210297 78.72347087811168 L16.58599156316876 83.79173666460385 L20.849283121507245 77.03051202212343Z" fill="hsl(0, 94.09516678230281%, 46.38301401751857%)"></path><path d="M21.09117389047728 47.77279919388471 L17.169723784663514 48.834079465963995 L22.254634172868027 49.12032097059453Z" fill="hsl(0, 92.47997052261594%, 45.4659508207781%)"></path><path d="M14.95455038441566 41.09299278441904 L16.804462632993143 42.769296705522706 L20.26809757302499 42.22976535104502Z" fill="hsl(0, 75.7621338250449%, 35.97403138837929%)"></path><path d="M16.804462632993143 42.769296705522706 L19.06278619709222 46.64923717568886 L20.26809757302499 42.22976535104502Z" fill="hsl(0, 94.21663808055025%, 46.451982018413155%)"></path><path d="M19.96663400615781 72.07039350548648 L15.25452883210297 78.72347087811168 L20.849283121507245 77.03051202212343Z" fill="hsl(0, 67.97305427954453%, 31.551610184254415%)"></path><path d="M19.06278619709222 46.64923717568886 L17.169723784663514 48.834079465963995 L21.09117389047728 47.77279919388471Z" fill="hsl(0, 83.62644991157353%, 40.43916979322406%)"></path><path d="M19.91206855189802 61.56475802027763 L17.295728581734743 64.30491026056266 L21.220539792113446 65.97148442679011Z" fill="hsl(0, 66.20672444078262%, 30.548737574366687%)"></path><path d="M17.295728581734743 64.30491026056266 L18.745831826550795 69.67684118884563 L21.220539792113446 65.97148442679011Z" fill="hsl(0, 72.48003634207059%, 34.11054836475355%)"></path><path d="M16.804462632993143 42.769296705522706 L16.70984353719527 45.7333826338258 L19.06278619709222 46.64923717568886Z" fill="hsl(0, 87.58652831520544%, 42.687591394250816%)"></path><path d="M8.754611628845044 33.300309528466215 L14.95455038441566 41.09299278441904 L20.53137058338758 32.41851357155177Z" fill="hsl(0, 97.30531892159418%, 48.205648490095%)"></path><path d="M13.775236048067663 52.79856671505758 L13.729493900192224 59.26104933464913 L19.104370656616315 59.33291437203736Z" fill="hsl(0, 79.69446099923806%, 38.20669661860594%)"></path><path d="M9.501869004758307 26.545016057646563 L8.754611628845044 33.300309528466215 L20.53137058338758 32.41851357155177Z" fill="hsl(0, 64.30093386893347%, 29.466683066342593%)"></path><path d="M11.848051534444071 76.13510164267942 L15.25452883210297 78.72347087811168 L19.96663400615781 72.07039350548648Z" fill="hsl(0, 83.2483753276353%, 40.224509633832696%)"></path><path d="M12.808265348628966 70.51759810064078 L11.848051534444071 76.13510164267942 L19.96663400615781 72.07039350548648Z" fill="hsl(0, 84.39352995638333%, 40.87469635777014%)"></path><path d="M18.745831826550795 69.67684118884563 L12.808265348628966 70.51759810064078 L19.96663400615781 72.07039350548648Z" fill="hsl(0, 78.78896005227934%, 37.69257854280598%)"></path><path d="M19.104370656616315 59.33291437203736 L17.295728581734743 64.30491026056266 L19.91206855189802 61.56475802027763Z" fill="hsl(0, 87.52198102367021%, 42.650943250001326%)"></path><path d="M17.295728581734743 64.30491026056266 L12.808265348628966 70.51759810064078 L18.745831826550795 69.67684118884563Z" fill="hsl(0, 68.51667600730154%, 31.860263375149668%)"></path><path d="M16.70984353719527 45.7333826338258 L17.169723784663514 48.834079465963995 L19.06278619709222 46.64923717568886Z" fill="hsl(0, 78.90412250547828%, 37.75796455818444%)"></path><path d="M13.729493900192224 59.26104933464913 L17.295728581734743 64.30491026056266 L19.104370656616315 59.33291437203736Z" fill="hsl(0, 98.26196720003091%, 48.7488065881391%)"></path><path d="M14.451300845396148 43.51384460802351 L16.70984353719527 45.7333826338258 L16.804462632993143 42.769296705522706Z" fill="hsl(0, 78.86779841508016%, 37.737340757046084%)"></path><path d="M12.006112469103858 51.4228934170327 L13.775236048067663 52.79856671505758 L17.169723784663514 48.834079465963995Z" fill="hsl(0, 89.06126132841112%, 43.524903493828916%)"></path><path d="M16.70984353719527 45.7333826338258 L14.271828314688195 46.33186229687662 L17.169723784663514 48.834079465963995Z" fill="hsl(0, 63.94811792981487%, 29.2663640580186%)"></path><path d="M13.729493900192224 59.26104933464913 L6.943478492041322 66.13175698101887 L17.295728581734743 64.30491026056266Z" fill="hsl(0, 95.43385025691238%, 47.143080999649335%)"></path><path d="M6.943478492041322 66.13175698101887 L12.808265348628966 70.51759810064078 L17.295728581734743 64.30491026056266Z" fill="hsl(0, 91.53461370164197%, 44.92920369602258%)"></path><path d="M12.985698954667086 46.89845301131563 L12.006112469103858 51.4228934170327 L17.169723784663514 48.834079465963995Z" fill="hsl(0, 82.20633125460144%, 39.63286619543954%)"></path><path d="M14.271828314688195 46.33186229687662 L12.985698954667086 46.89845301131563 L17.169723784663514 48.834079465963995Z" fill="hsl(0, 70.8654522627874%, 33.19383274689992%)"></path><path d="M14.451300845396148 43.51384460802351 L14.271828314688195 46.33186229687662 L16.70984353719527 45.7333826338258Z" fill="hsl(0, 69.97329817297414%, 32.68729264275936%)"></path><path d="M14.95455038441566 41.09299278441904 L14.451300845396148 43.51384460802351 L16.804462632993143 42.769296705522706Z" fill="hsl(0, 71.26915384710766%, 33.42304319932984%)"></path><path d="M10.717647523669532 54.12302126097786 L13.729493900192224 59.26104933464913 L13.775236048067663 52.79856671505758Z" fill="hsl(0, 97.53996011705118%, 48.338871188886124%)"></path><path d="M15.25452883210297 78.72347087811168 L11.848051534444071 76.13510164267942 L16.58599156316876 83.79173666460385Z" fill="hsl(0, 97.74978372110269%, 48.45800315438509%)"></path><path d="M6.431143957649555 62.58644270949018 L6.943478492041322 66.13175698101887 L13.729493900192224 59.26104933464913Z" fill="hsl(0, 89.83560060388312%, 43.96455164622355%)"></path><path d="M8.754611628845044 33.300309528466215 L5.473845892605639 35.76839052365397 L14.95455038441566 41.09299278441904Z" fill="hsl(0, 95.56234782552457%, 47.216038320060484%)"></path><path d="M5.473845892605639 35.76839052365397 L14.451300845396148 43.51384460802351 L14.95455038441566 41.09299278441904Z" fill="hsl(0, 85.11722070407143%, 41.2855876946873%)"></path><path d="M10.984898186516896 50.98118114122398 L12.006112469103858 51.4228934170327 L12.985698954667086 46.89845301131563Z" fill="hsl(0, 72.00885093945014%, 33.84302249042523%)"></path><path d="M11.609242852767926 52.704628358820074 L10.717647523669532 54.12302126097786 L13.775236048067663 52.79856671505758Z" fill="hsl(0, 65.17992890945978%, 29.965751830865575%)"></path><path d="M9.3370266502871 47.47179695147296 L12.985698954667086 46.89845301131563 L14.451300845396148 43.51384460802351Z" fill="hsl(0, 72.97456178862147%, 34.39132606230182%)"></path><path d="M5.473845892605639 35.76839052365397 L9.3370266502871 47.47179695147296 L14.451300845396148 43.51384460802351Z" fill="hsl(0, 65.3665644303999%, 30.071718252241425%)"></path><path d="M12.985698954667086 46.89845301131563 L14.271828314688195 46.33186229687662 L14.451300845396148 43.51384460802351Z" fill="hsl(0, 77.23416428858637%, 36.80980905595289%)"></path><path d="M10.717647523669532 54.12302126097786 L6.758056798178991 55.85576434537229 L13.729493900192224 59.26104933464913Z" fill="hsl(0, 68.69271198090388%, 31.960211670426418%)"></path><path d="M12.006112469103858 51.4228934170327 L11.609242852767926 52.704628358820074 L13.775236048067663 52.79856671505758Z" fill="hsl(0, 64.05199573653024%, 29.325342967191688%)"></path><path d="M10.752757794155693 53.758650910710415 L10.717647523669532 54.12302126097786 L11.609242852767926 52.704628358820074Z" fill="hsl(0, 93.82710809914431%, 46.23081780519015%)"></path><path d="M9.3370266502871 47.47179695147296 L10.984898186516896 50.98118114122398 L12.985698954667086 46.89845301131563Z" fill="hsl(0, 66.89747731264148%, 30.940927707934332%)"></path><path d="M6.758056798178991 55.85576434537229 L6.431143957649555 62.58644270949018 L13.729493900192224 59.26104933464913Z" fill="hsl(0, 70.338071007384%, 32.89440044133291%)"></path><path d="M6.943478492041322 66.13175698101887 L11.848051534444071 76.13510164267942 L12.808265348628966 70.51759810064078Z" fill="hsl(0, 92.53115083658658%, 45.49500956955776%)"></path><path d="M10.984898186516896 50.98118114122398 L11.609242852767926 52.704628358820074 L12.006112469103858 51.4228934170327Z" fill="hsl(0, 83.54085330843287%, 40.39057043940837%)"></path><path d="M10.984898186516896 50.98118114122398 L10.752757794155693 53.758650910710415 L11.609242852767926 52.704628358820074Z" fill="hsl(0, 91.56732241730454%, 44.94777478864794%)"></path><path d="M6.663805270539502 52.55087392154425 L10.752757794155693 53.758650910710415 L10.984898186516896 50.98118114122398Z" fill="hsl(0, 64.06293176746985%, 29.331552139255443%)"></path><path d="M9.3370266502871 47.47179695147296 L6.663805270539502 52.55087392154425 L10.984898186516896 50.98118114122398Z" fill="hsl(0, 76.06132788522869%, 36.143905395721966%)"></path><path d="M6.663805270539502 52.55087392154425 L10.717647523669532 54.12302126097786 L10.752757794155693 53.758650910710415Z" fill="hsl(0, 96.38457627762644%, 47.68287660563309%)"></path><path d="M6.663805270539502 52.55087392154425 L6.758056798178991 55.85576434537229 L10.717647523669532 54.12302126097786Z" fill="hsl(0, 82.11161331461436%, 39.57908800203903%)"></path><path d="M5.473845892605639 35.76839052365397 L8.754611628845044 33.300309528466215 L9.501869004758307 26.545016057646563Z" fill="hsl(0, 81.20322085356861%, 39.063328205527945%)"></path><path d="M5.473845892605639 35.76839052365397 L9.501869004758307 26.545016057646563 L9.76559195628096 25.443793217848366Z" fill="hsl(0, 71.14618043825024%, 33.35322234210303%)"></path><path d="M5.473845892605639 35.76839052365397 L6.663805270539502 52.55087392154425 L9.3370266502871 47.47179695147296Z" fill="hsl(0, 66.1786288047083%, 30.53278565912527%)"></path><path d="M6.663805270539502 52.55087392154425 L6.431143957649555 62.58644270949018 L6.758056798178991 55.85576434537229Z" fill="hsl(0, 80.19633520762471%, 38.49164673729547%)"></path><path d="M5.473845892605639 35.76839052365397 L6.431143957649555 62.58644270949018 L6.663805270539502 52.55087392154425Z" fill="hsl(0, 77.7680168692155%, 37.112915598729806%)"></path></svg>