<svg xmlns="http://www.w3.org/2000/svg" viewBox="0 0 100 100" id="svg" style="--frame-c: #f6c6a4; --frame-bdw: 1em; stroke: rgb(255, 255, 255); stroke-width: 0.05; background-color: rgb(191, 64, 64); --frame-asr: 100 / 100.;"><path d="M28.438444624916038 8.476961846160119 L32.336261734363944 7.714012288796818 L37.21677343231789 6.745783810588191Z" fill="hsl(103.56070691046243, 63.90049659448757%, 46.8827701584356%)"></path><path d="M31.388579015744618 91.11834041232962 L26.71513572319155 90.74178117243116 L54.30987468433894 94.25844219357874Z" fill="hsl(184.71572587146832, 58.91860917865391%, 44.416010370013105%)"></path><path d="M74.52988955365997 90.72255026708497 L72.96287709692407 92.29061214133945 L75.51781819208752 89.91571003057062Z" fill="hsl(105.55816558228115, 63.77787800172299%, 46.82205609794051%)"></path><path d="M75.51781819208752 89.91571003057062 L72.96287709692407 92.29061214133945 L79.35615582352578 87.67155259329724Z" fill="hsl(79.16766360287687, 65.39791963798827%, 47.624212636285456%)"></path><path d="M85.88399681259915 17.88931477733823 L81.36708189763333 23.06903756160228 L89.71441486342677 35.01772672222993Z" fill="hsl(5.995029677440963, 69.88978999676038%, 49.84834261975515%)"></path><path d="M85.83470093773016 67.19372533709517 L85.6677654161211 80.2220016187914 L93.12321248174645 64.92108518525771Z" fill="hsl(208.64051484592548, 57.449931003917804%, 43.688800788347656%)"></path><path d="M93.12321248174645 64.92108518525771 L85.6677654161211 80.2220016187914 L95.23314885097545 61.6111186483912Z" fill="hsl(158.66158784273475, 60.518002340500225%, 45.207942906461284%)"></path><path d="M89.71441486342677 35.01772672222993 L91.53353296758921 39.288182374152605 L96.1337765085663 40.25139347099699Z" fill="hsl(72.84953192368981, 65.78577267661852%, 47.81625637385966%)"></path><path d="M85.88399681259915 17.88931477733823 L89.71441486342677 35.01772672222993 L96.1337765085663 40.25139347099699Z" fill="hsl(292.90981095727045, 52.27686652542894%, 41.12738051259103%)"></path><path d="M94.59414029698424 56.059802631862446 L95.23314885097545 61.6111186483912 L96.50514397519906 49.131442159280105Z" fill="hsl(153.39989369780182, 60.84100353232056%, 45.367875535420865%)"></path><path d="M91.78262154691816 45.11400462202692 L96.50514397519906 49.131442159280105 L97.83528880521098 46.22058146489864Z" fill="hsl(119.1850003842506, 62.94136341905504%, 46.40785955700784%)"></path><path d="M95.30473849657554 41.18662415457547 L91.78262154691816 45.11400462202692 L97.83528880521098 46.22058146489864Z" fill="hsl(200.69937755944377, 57.937415973072206%, 43.93017684103575%)"></path><path d="M96.50514397519906 49.131442159280105 L95.23314885097545 61.6111186483912 L97.83528880521098 46.22058146489864Z" fill="hsl(33.87738027416816, 68.17816780333277%, 49.000840368640496%)"></path><path d="M96.1337765085663 40.25139347099699 L95.30473849657554 41.18662415457547 L97.83528880521098 46.22058146489864Z" fill="hsl(99.23545334907325, 64.16601222819259%, 47.01423906444488%)"></path><path d="M89.91230169580913 50.548362909683945 L94.59414029698424 56.059802631862446 L96.50514397519906 49.131442159280105Z" fill="hsl(69.95952670619727, 65.96318229107055%, 47.904099969365035%)"></path><path d="M91.78262154691816 45.11400462202692 L89.91230169580913 50.548362909683945 L96.50514397519906 49.131442159280105Z" fill="hsl(46.11719960130183, 67.42679835436222%, 48.628803068664794%)"></path><path d="M91.53353296758921 39.288182374152605 L95.30473849657554 41.18662415457547 L96.1337765085663 40.25139347099699Z" fill="hsl(12.421081741340378, 69.49531201720357%, 49.653018571625076%)"></path><path d="M89.2315913583141 49.41661786919585 L89.91230169580913 50.548362909683945 L91.78262154691816 45.11400462202692Z" fill="hsl(291.6718221985071, 52.35286331154503%, 41.16500998921162%)"></path><path d="M94.59414029698424 56.059802631862446 L88.71059167893489 62.684040747092304 L95.23314885097545 61.6111186483912Z" fill="hsl(189.39831920939503, 58.63115742123527%, 44.27367988818446%)"></path><path d="M91.53353296758921 39.288182374152605 L91.78262154691816 45.11400462202692 L95.30473849657554 41.18662415457547Z" fill="hsl(35.77898441176377, 68.06143346152284%, 48.94303986929772%)"></path><path d="M88.71059167893489 62.684040747092304 L93.12321248174645 64.92108518525771 L95.23314885097545 61.6111186483912Z" fill="hsl(39.355506241023356, 67.8418804465429%, 48.834329153142605%)"></path><path d="M91.53353296758921 39.288182374152605 L89.53118006344081 43.44792862449046 L91.78262154691816 45.11400462202692Z" fill="hsl(228.5140982266586, 56.229945398350175%, 43.08473024578504%)"></path><path d="M89.91230169580913 50.548362909683945 L88.71059167893489 62.684040747092304 L94.59414029698424 56.059802631862446Z" fill="hsl(91.5208468358343, 64.63959108503298%, 47.24872956637556%)"></path><path d="M81.36708189763333 23.06903756160228 L79.2364741449882 26.554941945416044 L89.71441486342677 35.01772672222993Z" fill="hsl(14.939772364248471, 69.34069640279934%, 49.576461325657924%)"></path><path d="M80.31609348432792 53.18671216762725 L88.71059167893489 62.684040747092304 L89.91230169580913 50.548362909683945Z" fill="hsl(276.29322527666415, 53.29691383927542%, 41.63245248352473%)"></path><path d="M88.71059167893489 62.684040747092304 L85.83470093773016 67.19372533709517 L93.12321248174645 64.92108518525771Z" fill="hsl(291.59646086330207, 52.357489540363716%, 41.16730064619951%)"></path><path d="M80.6060843722322 77.88320367131551 L85.6677654161211 80.2220016187914 L85.83470093773016 67.19372533709517Z" fill="hsl(147.53857159348573, 61.20081426498357%, 45.54603424771032%)"></path><path d="M89.71441486342677 35.01772672222993 L87.29684804712844 40.714047987164605 L91.53353296758921 39.288182374152605Z" fill="hsl(124.90681094894283, 62.590116922991484%, 46.23394138905404%)"></path><path d="M87.29684804712844 40.714047987164605 L89.53118006344081 43.44792862449046 L91.53353296758921 39.288182374152605Z" fill="hsl(256.5986510339655, 54.505910557359435%, 42.23108192645953%)"></path><path d="M89.53118006344081 43.44792862449046 L88.29217809544375 45.324316677560454 L91.78262154691816 45.11400462202692Z" fill="hsl(309.36550101289464, 51.26669615942405%, 40.62719906922939%)"></path><path d="M88.29217809544375 45.324316677560454 L89.2315913583141 49.41661786919585 L91.78262154691816 45.11400462202692Z" fill="hsl(198.92627751579184, 58.04626179564207%, 43.98407137454122%)"></path><path d="M80.31609348432792 53.18671216762725 L77.88436928381294 60.380013487336136 L88.71059167893489 62.684040747092304Z" fill="hsl(281.04510349846856, 53.005208869972705%, 41.488016042413676%)"></path><path d="M89.2315913583141 49.41661786919585 L80.31609348432792 53.18671216762725 L89.91230169580913 50.548362909683945Z" fill="hsl(109.93908744214464, 63.50894504153366%, 46.68889511765259%)"></path><path d="M80.15120413283621 52.525237825142604 L80.31609348432792 53.18671216762725 L89.2315913583141 49.41661786919585Z" fill="hsl(312.78436379352365, 51.05682140760541%, 40.52328050279492%)"></path><path d="M77.30088937791648 39.57133096611159 L87.29684804712844 40.714047987164605 L89.71441486342677 35.01772672222993Z" fill="hsl(5.0054202526005245, 69.95053944643487%, 49.87842244435125%)"></path><path d="M79.2364741449882 26.554941945416044 L77.30088937791648 39.57133096611159 L89.71441486342677 35.01772672222993Z" fill="hsl(35.70633067762924, 68.06589347802499%, 48.94524822698325%)"></path><path d="M87.29684804712844 40.714047987164605 L88.29217809544375 45.324316677560454 L89.53118006344081 43.44792862449046Z" fill="hsl(32.302539703950686, 68.2748430123236%, 49.04870867600489%)"></path><path d="M87.29684804712844 40.714047987164605 L83.95709485539183 43.47414132175883 L88.29217809544375 45.324316677560454Z" fill="hsl(273.74363425586535, 53.453426345644786%, 41.70994896726101%)"></path><path d="M88.29217809544375 45.324316677560454 L83.95709485539183 43.47414132175883 L89.2315913583141 49.41661786919585Z" fill="hsl(65.4961325132101, 66.23717800503412%, 48.039767750065444%)"></path><path d="M83.95709485539183 43.47414132175883 L80.15120413283621 52.525237825142604 L89.2315913583141 49.41661786919585Z" fill="hsl(39.959144132446184, 67.80482474680306%, 48.815981185310264%)"></path><path d="M79.31686351160852 66.16704206070841 L85.83470093773016 67.19372533709517 L88.71059167893489 62.684040747092304Z" fill="hsl(146.3076416510478, 61.276377729431175%, 45.583449166999905%)"></path><path d="M77.88436928381294 60.380013487336136 L79.31686351160852 66.16704206070841 L88.71059167893489 62.684040747092304Z" fill="hsl(276.2081635918375, 53.302135546356915%, 41.63503798897285%)"></path><path d="M76.4248548457413 73.25887317215603 L80.6060843722322 77.88320367131551 L85.83470093773016 67.19372533709517Z" fill="hsl(79.7132697286103, 65.3644263516014%, 47.60762858186089%)"></path><path d="M79.31686351160852 66.16704206070841 L76.4248548457413 73.25887317215603 L85.83470093773016 67.19372533709517Z" fill="hsl(215.69324997167934, 57.016982643852934%, 43.47442829938349%)"></path><path d="M77.30088937791648 39.57133096611159 L83.95709485539183 43.47414132175883 L87.29684804712844 40.714047987164605Z" fill="hsl(191.83346170998203, 58.48167060039842%, 44.19966214194485%)"></path><path d="M77.19954202844272 56.89057598455671 L77.88436928381294 60.380013487336136 L80.31609348432792 53.18671216762725Z" fill="hsl(301.90348381025166, 51.72476924072594%, 40.85401195414586%)"></path><path d="M77.99798650709644 45.54973154550189 L80.15120413283621 52.525237825142604 L83.95709485539183 43.47414132175883Z" fill="hsl(35.90181795778634, 68.05389304190362%, 48.93930626346685%)"></path><path d="M80.6060843722322 77.88320367131551 L79.35615582352578 87.67155259329724 L85.6677654161211 80.2220016187914Z" fill="hsl(80.01789290970187, 65.34572635729567%, 47.59836936137941%)"></path><path d="M75.85043689952005 20.686732032071852 L81.36708189763333 23.06903756160228 L85.88399681259915 17.88931477733823Z" fill="hsl(92.82317741312143, 64.55964452846376%, 47.20914437817138%)"></path><path d="M78.85582860958635 12.355035294722223 L75.85043689952005 20.686732032071852 L85.88399681259915 17.88931477733823Z" fill="hsl(324.08015744393623, 50.36340314513315%, 40.17993747962904%)"></path><path d="M75.06152989594639 15.582979126549784 L75.85043689952005 20.686732032071852 L78.85582860958635 12.355035294722223Z" fill="hsl(299.4132666215348, 51.8776369479114%, 40.929703731490115%)"></path><path d="M78.12654495440718 26.43455380801453 L77.30088937791648 39.57133096611159 L79.2364741449882 26.554941945416044Z" fill="hsl(102.41626926977968, 63.9707505301445%, 46.91755608774146%)"></path><path d="M76.48283784175005 85.92184914690566 L79.35615582352578 87.67155259329724 L80.6060843722322 77.88320367131551Z" fill="hsl(320.8975541174296, 50.55877456719556%, 40.27667478569878%)"></path><path d="M77.30088937791648 39.57133096611159 L77.99798650709644 45.54973154550189 L83.95709485539183 43.47414132175883Z" fill="hsl(26.816505717245438, 68.61161582109264%, 49.21546026092937%)"></path><path d="M69.94859430274538 37.740592497578206 L77.30088937791648 39.57133096611159 L78.12654495440718 26.43455380801453Z" fill="hsl(323.01051622126795, 50.429065530711895%, 40.21244992297386%)"></path><path d="M67.81676345893118 30.888638404225137 L69.94859430274538 37.740592497578206 L78.12654495440718 26.43455380801453Z" fill="hsl(126.7253506991957, 62.47848167956518%, 46.1786656859983%)"></path><path d="M77.88436928381294 60.380013487336136 L75.96506533762835 63.683569613628265 L79.31686351160852 66.16704206070841Z" fill="hsl(316.8097012512196, 50.80971681343836%, 40.40092774257627%)"></path><path d="M78.12654495440718 26.43455380801453 L79.2364741449882 26.554941945416044 L81.36708189763333 23.06903756160228Z" fill="hsl(83.56413251382439, 65.12803228632518%, 47.49057909322897%)"></path><path d="M75.85043689952005 20.686732032071852 L78.12654495440718 26.43455380801453 L81.36708189763333 23.06903756160228Z" fill="hsl(28.238318809316393, 68.52433455566087%, 49.172243323676746%)"></path><path d="M77.99798650709644 45.54973154550189 L76.35382646807996 55.74203855961678 L80.15120413283621 52.525237825142604Z" fill="hsl(312.6355330562084, 51.06595772458017%, 40.52780431022902%)"></path><path d="M76.35382646807996 55.74203855961678 L77.19954202844272 56.89057598455671 L80.31609348432792 53.18671216762725Z" fill="hsl(287.5882588044157, 52.60354223868024%, 41.28913256478342%)"></path><path d="M68.85334851787673 80.61645248326234 L76.48283784175005 85.92184914690566 L80.6060843722322 77.88320367131551Z" fill="hsl(80.91190510429142, 65.29084536337997%, 47.57119527701339%)"></path><path d="M76.4248548457413 73.25887317215603 L68.85334851787673 80.61645248326234 L80.6060843722322 77.88320367131551Z" fill="hsl(3.1163587354660187, 70.06650383065207%, 49.935841702555884%)"></path><path d="M71.17299634313514 74.02561920157584 L68.85334851787673 80.61645248326234 L76.4248548457413 73.25887317215603Z" fill="hsl(154.34286620273093, 60.783116997194%, 45.33921327045528%)"></path><path d="M80.15120413283621 52.525237825142604 L76.35382646807996 55.74203855961678 L80.31609348432792 53.18671216762725Z" fill="hsl(245.96162038697005, 55.158889138358425%, 42.55440141802214%)"></path><path d="M65.53198045649332 4.793154361409724 L75.06152989594639 15.582979126549784 L78.85582860958635 12.355035294722223Z" fill="hsl(114.4304878614274, 63.23323010098209%, 46.55237606941832%)"></path><path d="M73.50455929582269 63.9534915317934 L76.4248548457413 73.25887317215603 L79.31686351160852 66.16704206070841Z" fill="hsl(33.06798031812226, 68.22785468046034%, 49.02544260877163%)"></path><path d="M75.96506533762835 63.683569613628265 L73.50455929582269 63.9534915317934 L79.31686351160852 66.16704206070841Z" fill="hsl(315.0112767887163, 50.92011723368073%, 40.45559202832735%)"></path><path d="M76.48283784175005 85.92184914690566 L75.51781819208752 89.91571003057062 L79.35615582352578 87.67155259329724Z" fill="hsl(187.52701556002106, 58.74603169791432%, 44.33055938440418%)"></path><path d="M69.96981102832403 42.117720660066105 L66.65729277734653 43.42041504130614 L76.35382646807996 55.74203855961678Z" fill="hsl(158.4327153991191, 60.53205220163362%, 45.21489963381859%)"></path><path d="M69.96981102832403 42.117720660066105 L76.35382646807996 55.74203855961678 L77.99798650709644 45.54973154550189Z" fill="hsl(110.92469138425383, 63.448441477625316%, 46.65893704231934%)"></path><path d="M69.25828503291035 91.04534748655996 L59.61240567228236 95.02433626594113 L72.96287709692407 92.29061214133945Z" fill="hsl(140.62771842187178, 61.62505287510429%, 45.75609414204193%)"></path><path d="M66.65729277734653 43.42041504130614 L63.17618690273225 46.997914345408596 L76.35382646807996 55.74203855961678Z" fill="hsl(140.49025796400954, 61.63349120133434%, 45.76027234240827%)"></path><path d="M73.50455929582269 63.9534915317934 L71.17299634313514 74.02561920157584 L76.4248548457413 73.25887317215603Z" fill="hsl(86.23772159472374, 64.96390787396268%, 47.40931360749609%)"></path><path d="M77.19954202844272 56.89057598455671 L73.5823810086242 60.99059065840736 L77.88436928381294 60.380013487336136Z" fill="hsl(89.39910814840272, 64.76983889227805%, 47.313221199089135%)"></path><path d="M77.30088937791648 39.57133096611159 L69.96981102832403 42.117720660066105 L77.99798650709644 45.54973154550189Z" fill="hsl(214.06484333610356, 57.11694612891518%, 43.52392478227839%)"></path><path d="M75.85043689952005 20.686732032071852 L67.81676345893118 30.888638404225137 L78.12654495440718 26.43455380801453Z" fill="hsl(103.15340631930806, 63.92549967766729%, 46.89515032583526%)"></path><path d="M74.43737985535562 89.28493498703232 L75.51781819208752 89.91571003057062 L76.48283784175005 85.92184914690566Z" fill="hsl(105.95436438664684, 63.75355642724851%, 46.81001337659878%)"></path><path d="M73.5823810086242 60.99059065840736 L75.96506533762835 63.683569613628265 L77.88436928381294 60.380013487336136Z" fill="hsl(70.73668563266277, 65.91547460366651%, 47.880477716378564%)"></path><path d="M68.85334851787673 80.61645248326234 L73.65314628907755 87.18129683528079 L76.48283784175005 85.92184914690566Z" fill="hsl(156.29758349080927, 60.663122182533556%, 45.27979836222536%)"></path><path d="M65.53198045649332 4.793154361409724 L66.37930747814711 16.000200179338925 L75.06152989594639 15.582979126549784Z" fill="hsl(85.45638901657955, 65.01187177057032%, 47.43306272135036%)"></path><path d="M71.81943516260225 18.8179272219897 L67.81676345893118 30.888638404225137 L75.85043689952005 20.686732032071852Z" fill="hsl(164.03835972081694, 60.18793683746465%, 45.04451241466697%)"></path><path d="M73.65314628907755 87.18129683528079 L74.43737985535562 89.28493498703232 L76.48283784175005 85.92184914690566Z" fill="hsl(249.9102952273229, 54.91649065520577%, 42.434378868111594%)"></path><path d="M76.35382646807996 55.74203855961678 L73.5823810086242 60.99059065840736 L77.19954202844272 56.89057598455671Z" fill="hsl(15.44192362310862, 69.30987069331903%, 49.56119811028418%)"></path><path d="M69.94859430274538 37.740592497578206 L69.96981102832403 42.117720660066105 L77.30088937791648 39.57133096611159Z" fill="hsl(206.03485902056732, 57.60988517720908%, 43.76800139842392%)"></path><path d="M75.06152989594639 15.582979126549784 L71.81943516260225 18.8179272219897 L75.85043689952005 20.686732032071852Z" fill="hsl(294.6471332091912, 52.17021700485831%, 41.07457346842499%)"></path><path d="M73.5823810086242 60.99059065840736 L73.42526517205172 62.38606352910872 L75.96506533762835 63.683569613628265Z" fill="hsl(97.01946655522688, 64.30204567212809%, 47.08159542988867%)"></path><path d="M40.75520989919217 6.493039416650237 L48.970601489700115 8.779086319462154 L65.53198045649332 4.793154361409724Z" fill="hsl(125.28609453791805, 62.56683372790215%, 46.22241281672825%)"></path><path d="M63.17618690273225 46.997914345408596 L64.91946170180243 60.3899196694354 L76.35382646807996 55.74203855961678Z" fill="hsl(256.6762695482999, 54.501145766410595%, 42.22872266103826%)"></path><path d="M69.75427646580789 62.20319249633659 L73.5823810086242 60.99059065840736 L76.35382646807996 55.74203855961678Z" fill="hsl(36.472784470829254, 68.01884294983775%, 48.921951363511894%)"></path><path d="M64.91946170180243 60.3899196694354 L69.75427646580789 62.20319249633659 L76.35382646807996 55.74203855961678Z" fill="hsl(276.06620266954184, 53.31085014394286%, 41.63935298389404%)"></path><path d="M73.42526517205172 62.38606352910872 L73.50455929582269 63.9534915317934 L75.96506533762835 63.683569613628265Z" fill="hsl(161.56909646558654, 60.33951823926955%, 45.119567283521825%)"></path><path d="M74.43737985535562 89.28493498703232 L74.52988955365997 90.72255026708497 L75.51781819208752 89.91571003057062Z" fill="hsl(99.62251116506042, 64.14225179430503%, 47.00247418941318%)"></path><path d="M69.75427646580789 62.20319249633659 L63.22840223774433 70.56757760207273 L71.17299634313514 74.02561920157584Z" fill="hsl(278.24764704578837, 53.17693716572539%, 41.57304655778636%)"></path><path d="M69.75427646580789 62.20319249633659 L71.17299634313514 74.02561920157584 L73.50455929582269 63.9534915317934Z" fill="hsl(217.5366658022685, 56.90382032504461%, 43.418396471624035%)"></path><path d="M66.37930747814711 16.000200179338925 L71.81943516260225 18.8179272219897 L75.06152989594639 15.582979126549784Z" fill="hsl(68.39895274225734, 66.05898171163585%, 47.951534633916786%)"></path><path d="M68.85334851787673 80.61645248326234 L67.98556473959235 87.057991249651 L73.65314628907755 87.18129683528079Z" fill="hsl(21.934183814511528, 68.91132837564169%, 49.363861622890546%)"></path><path d="M74.43737985535562 89.28493498703232 L72.96287709692407 92.29061214133945 L74.52988955365997 90.72255026708497Z" fill="hsl(136.92444800573205, 61.85238664348725%, 45.86865746425097%)"></path><path d="M73.65314628907755 87.18129683528079 L69.25828503291035 91.04534748655996 L74.43737985535562 89.28493498703232Z" fill="hsl(194.04745875792443, 58.34575930158969%, 44.132366256126936%)"></path><path d="M69.25828503291035 91.04534748655996 L72.96287709692407 92.29061214133945 L74.43737985535562 89.28493498703232Z" fill="hsl(325.8222939162849, 50.25645809257357%, 40.12698410408983%)"></path><path d="M67.98556473959235 87.057991249651 L69.25828503291035 91.04534748655996 L73.65314628907755 87.18129683528079Z" fill="hsl(230.92557356088926, 56.08191144093136%, 43.01143187851941%)"></path><path d="M73.42526517205172 62.38606352910872 L69.75427646580789 62.20319249633659 L73.50455929582269 63.9534915317934Z" fill="hsl(182.72628358747968, 59.040735667021714%, 44.476480767166095%)"></path><path d="M69.75427646580789 62.20319249633659 L73.42526517205172 62.38606352910872 L73.5823810086242 60.99059065840736Z" fill="hsl(134.81763379161464, 61.98171827762628%, 45.93269545785379%)"></path><path d="M66.37930747814711 16.000200179338925 L67.81676345893118 30.888638404225137 L71.81943516260225 18.8179272219897Z" fill="hsl(78.10184212871445, 65.4633475395233%, 47.656608975880474%)"></path><path d="M65.53198045649332 4.793154361409724 L61.63733054986695 9.509025712935426 L66.37930747814711 16.000200179338925Z" fill="hsl(141.0610898217686, 61.59844937539264%, 45.74292153538859%)"></path><path d="M63.0978074936449 64.33307574136218 L63.22840223774433 70.56757760207273 L69.75427646580789 62.20319249633659Z" fill="hsl(91.6341177972585, 64.6326376866539%, 47.24528662154707%)"></path><path d="M66.37930747814711 16.000200179338925 L57.15359340888775 19.873527302571866 L67.81676345893118 30.888638404225137Z" fill="hsl(62.925122785106865, 66.39500534799338%, 48.117915269394786%)"></path><path d="M69.94859430274538 37.740592497578206 L66.74499707059154 41.70044221603735 L69.96981102832403 42.117720660066105Z" fill="hsl(136.1352331276294, 61.9008344131994%, 45.89264616575893%)"></path><path d="M63.22840223774433 70.56757760207273 L68.85334851787673 80.61645248326234 L71.17299634313514 74.02561920157584Z" fill="hsl(265.8212302980925, 53.93976132634812%, 41.95075560819179%)"></path><path d="M63.17618690273225 46.997914345408596 L57.97067951372079 57.93967483111434 L64.91946170180243 60.3899196694354Z" fill="hsl(36.04886402408855, 68.04486628106199%, 48.934836702273415%)"></path><path d="M57.15359340888775 19.873527302571866 L55.339671659817334 24.038377510035037 L67.81676345893118 30.888638404225137Z" fill="hsl(112.24793781250342, 63.36721095345883%, 46.61871610316894%)"></path><path d="M63.22840223774433 70.56757760207273 L57.97891262636771 77.50160048380019 L68.85334851787673 80.61645248326234Z" fill="hsl(220.8771093784461, 56.698759516378445%, 43.316861508109724%)"></path><path d="M65.83192420164417 89.46087798743037 L59.61240567228236 95.02433626594113 L69.25828503291035 91.04534748655996Z" fill="hsl(297.31049528296177, 52.00672040084049%, 40.99361883925112%)"></path><path d="M67.98556473959235 87.057991249651 L65.83192420164417 89.46087798743037 L69.25828503291035 91.04534748655996Z" fill="hsl(140.1111991179083, 61.65676060006567%, 45.771794083527666%)"></path><path d="M64.91946170180243 60.3899196694354 L63.0978074936449 64.33307574136218 L69.75427646580789 62.20319249633659Z" fill="hsl(123.00423855744135, 62.70691070329345%, 46.291771319106466%)"></path><path d="M67.81676345893118 30.888638404225137 L58.6987729000774 38.498667270165086 L69.94859430274538 37.740592497578206Z" fill="hsl(11.130224811249631, 69.57455423756151%, 49.69225501083143%)"></path><path d="M58.6987729000774 38.498667270165086 L66.74499707059154 41.70044221603735 L69.94859430274538 37.740592497578206Z" fill="hsl(117.68056044295017, 63.033716923587434%, 46.45358799129087%)"></path><path d="M66.74499707059154 41.70044221603735 L66.65729277734653 43.42041504130614 L69.96981102832403 42.117720660066105Z" fill="hsl(123.13834193062105, 62.69867845942464%, 46.28769515952094%)"></path><path d="M57.732174836143436 86.65207033706224 L67.98556473959235 87.057991249651 L68.85334851787673 80.61645248326234Z" fill="hsl(43.138140886422306, 67.60967472248703%, 48.719353503367365%)"></path><path d="M63.64966824900971 61.23308353480271 L63.0978074936449 64.33307574136218 L64.91946170180243 60.3899196694354Z" fill="hsl(267.67853735931186, 53.82574626241136%, 41.894301547407565%)"></path><path d="M61.63733054986695 9.509025712935426 L60.74163701501324 11.345228942768781 L66.37930747814711 16.000200179338925Z" fill="hsl(51.757288895073266, 67.08056850639288%, 48.45736887209745%)"></path><path d="M55.339671659817334 24.038377510035037 L54.85986993503792 28.20536140330242 L67.81676345893118 30.888638404225137Z" fill="hsl(45.540145522424076, 67.46222214565229%, 48.646343004157934%)"></path><path d="M57.09136963568264 33.01925599438002 L58.6987729000774 38.498667270165086 L67.81676345893118 30.888638404225137Z" fill="hsl(150.50041148623419, 61.01899491384169%, 45.4560071903488%)"></path><path d="M57.97891262636771 77.50160048380019 L57.732174836143436 86.65207033706224 L68.85334851787673 80.61645248326234Z" fill="hsl(291.2551154421629, 52.378443813799876%, 41.17767606314363%)"></path><path d="M54.85986993503792 28.20536140330242 L57.09136963568264 33.01925599438002 L67.81676345893118 30.888638404225137Z" fill="hsl(44.52718890302992, 67.5244048165401%, 48.677132481976166%)"></path><path d="M57.732174836143436 86.65207033706224 L65.83192420164417 89.46087798743037 L67.98556473959235 87.057991249651Z" fill="hsl(107.06359452590793, 63.68546378500905%, 46.776297602286036%)"></path><path d="M63.17618690273225 46.997914345408596 L66.65729277734653 43.42041504130614 L66.74499707059154 41.70044221603735Z" fill="hsl(68.00444625729479, 66.08319939919309%, 47.96352591610532%)"></path><path d="M58.6987729000774 38.498667270165086 L63.17618690273225 46.997914345408596 L66.74499707059154 41.70044221603735Z" fill="hsl(144.10449085173897, 61.4116232063318%, 45.65041537400895%)"></path><path d="M55.59799701747294 80.96872783551434 L57.732174836143436 86.65207033706224 L57.97891262636771 77.50160048380019Z" fill="hsl(130.1964329876141, 62.26540131320726%, 46.07315987352982%)"></path><path d="M60.74163701501324 11.345228942768781 L57.15359340888775 19.873527302571866 L66.37930747814711 16.000200179338925Z" fill="hsl(99.71763253025286, 64.1364125506169%, 46.99958291341225%)"></path><path d="M57.32548212060408 46.78021804396875 L57.97067951372079 57.93967483111434 L63.17618690273225 46.997914345408596Z" fill="hsl(42.73574757517283, 67.63437656100785%, 48.7315845107903%)"></path><path d="M57.97067951372079 57.93967483111434 L63.64966824900971 61.23308353480271 L64.91946170180243 60.3899196694354Z" fill="hsl(105.73640414683447, 63.76693641766408%, 46.81663842039678%)"></path><path d="M48.970601489700115 8.779086319462154 L61.63733054986695 9.509025712935426 L65.53198045649332 4.793154361409724Z" fill="hsl(3.699688066822931, 70.03069481856164%, 49.918111026666445%)"></path><path d="M57.732174836143436 86.65207033706224 L59.61240567228236 95.02433626594113 L65.83192420164417 89.46087798743037Z" fill="hsl(318.2846649303685, 50.71917277702461%, 40.35609525852675%)"></path><path d="M58.6987729000774 38.498667270165086 L56.37474773989424 44.63864485907833 L63.17618690273225 46.997914345408596Z" fill="hsl(64.49430883217711, 66.29867725490578%, 48.07021883495335%)"></path><path d="M63.0978074936449 64.33307574136218 L58.5293817872744 69.087426530091 L63.22840223774433 70.56757760207273Z" fill="hsl(214.78411325734803, 57.07279209118454%, 43.502062103402054%)"></path><path d="M58.67861593589807 70.25771656448092 L57.97891262636771 77.50160048380019 L63.22840223774433 70.56757760207273Z" fill="hsl(260.313317847832, 54.27787719490149%, 42.118172203300745%)"></path><path d="M56.454477263079816 19.451436422828085 L57.15359340888775 19.873527302571866 L60.74163701501324 11.345228942768781Z" fill="hsl(182.37453150339095, 59.062328777388146%, 44.487172501425206%)"></path><path d="M56.37474773989424 44.63864485907833 L57.32548212060408 46.78021804396875 L63.17618690273225 46.997914345408596Z" fill="hsl(38.264850561601534, 67.9088328528621%, 48.86748034462104%)"></path><path d="M57.97067951372079 57.93967483111434 L63.0978074936449 64.33307574136218 L63.64966824900971 61.23308353480271Z" fill="hsl(120.87589629885169, 62.83756388593579%, 46.35646367167695%)"></path><path d="M58.5293817872744 69.087426530091 L58.67861593589807 70.25771656448092 L63.22840223774433 70.56757760207273Z" fill="hsl(96.57346019961469, 64.32942479764434%, 47.0951520842705%)"></path><path d="M57.97067951372079 57.93967483111434 L58.5293817872744 69.087426530091 L63.0978074936449 64.33307574136218Z" fill="hsl(243.21129178502576, 55.32772438264587%, 42.63799945160136%)"></path><path d="M57.32548212060408 46.78021804396875 L51.77452044977744 50.327118086209346 L57.97067951372079 57.93967483111434Z" fill="hsl(97.48415696418492, 64.27351958304223%, 47.06747086150635%)"></path><path d="M56.56059664415034 70.50078939977699 L57.97891262636771 77.50160048380019 L58.67861593589807 70.25771656448092Z" fill="hsl(165.3604877704241, 60.10677496754231%, 45.00432546936561%)"></path><path d="M57.732174836143436 86.65207033706224 L55.30527472353944 93.39016503487606 L59.61240567228236 95.02433626594113Z" fill="hsl(20.399406928150405, 69.00554418329185%, 49.41051216842606%)"></path><path d="M52.276944146849246 16.599988827246975 L56.454477263079816 19.451436422828085 L60.74163701501324 11.345228942768781Z" fill="hsl(49.97644576870425, 67.18988965589683%, 48.511498761657656%)"></path><path d="M48.970601489700115 8.779086319462154 L60.74163701501324 11.345228942768781 L61.63733054986695 9.509025712935426Z" fill="hsl(323.14436108534693, 50.420849156018555%, 40.208381620941225%)"></path><path d="M57.97067951372079 57.93967483111434 L48.65614019534302 67.38101349543355 L58.5293817872744 69.087426530091Z" fill="hsl(88.75490091196531, 64.80938503453129%, 47.33280229865142%)"></path><path d="M48.970601489700115 8.779086319462154 L52.276944146849246 16.599988827246975 L60.74163701501324 11.345228942768781Z" fill="hsl(102.65647029732101, 63.956005237842206%, 46.91025502067915%)"></path><path d="M48.65614019534302 67.38101349543355 L56.56059664415034 70.50078939977699 L58.5293817872744 69.087426530091Z" fill="hsl(136.05523620217724, 61.90574520838271%, 45.89507772453902%)"></path><path d="M53.16994692725241 41.65314592623505 L56.37474773989424 44.63864485907833 L58.6987729000774 38.498667270165086Z" fill="hsl(292.3040347492622, 52.314053490648405%, 41.145793475952125%)"></path><path d="M55.30527472353944 93.39016503487606 L54.30987468433894 94.25844219357874 L59.61240567228236 95.02433626594113Z" fill="hsl(143.0926301060964, 61.473738604489924%, 45.68117154202899%)"></path><path d="M56.56059664415034 70.50078939977699 L52.32036546023645 77.50707045098473 L57.97891262636771 77.50160048380019Z" fill="hsl(158.2734400531803, 60.54182968492108%, 45.21974091195122%)"></path><path d="M58.5293817872744 69.087426530091 L56.56059664415034 70.50078939977699 L58.67861593589807 70.25771656448092Z" fill="hsl(45.27609930235521, 67.47843122991844%, 48.65436886141593%)"></path><path d="M57.09136963568264 33.01925599438002 L49.822967021494335 36.579844999270506 L58.6987729000774 38.498667270165086Z" fill="hsl(19.584083233422263, 69.05559470273721%, 49.43529446446212%)"></path><path d="M49.822967021494335 36.579844999270506 L53.16994692725241 41.65314592623505 L58.6987729000774 38.498667270165086Z" fill="hsl(97.83743027799515, 64.251833088492%, 47.05673288847663%)"></path><path d="M47.047490666755756 55.3098413718149 L48.65614019534302 67.38101349543355 L57.97067951372079 57.93967483111434Z" fill="hsl(206.21552304539, 57.59879470069536%, 43.762509997431685%)"></path><path d="M47.047490666755756 55.3098413718149 L45.560865165247996 64.84743582003622 L48.65614019534302 67.38101349543355Z" fill="hsl(64.06917775444147, 66.32477490349692%, 48.0831409716344%)"></path><path d="M51.77452044977744 50.327118086209346 L47.047490666755756 55.3098413718149 L57.97067951372079 57.93967483111434Z" fill="hsl(96.83861506068139, 64.31314765690175%, 47.08709252914553%)"></path><path d="M52.32036546023645 77.50707045098473 L55.59799701747294 80.96872783551434 L57.97891262636771 77.50160048380019Z" fill="hsl(262.17075122294244, 54.16385437689613%, 42.06171430312333%)"></path><path d="M56.454477263079816 19.451436422828085 L55.339671659817334 24.038377510035037 L57.15359340888775 19.873527302571866Z" fill="hsl(256.98937007918727, 54.48192537049808%, 42.21920576597478%)"></path><path d="M55.59799701747294 80.96872783551434 L41.361104192638486 85.41646862879479 L57.732174836143436 86.65207033706224Z" fill="hsl(173.58008515512927, 59.602196085073466%, 44.75448544018201%)"></path><path d="M41.361104192638486 85.41646862879479 L55.30527472353944 93.39016503487606 L57.732174836143436 86.65207033706224Z" fill="hsl(84.52657836708507, 65.06895033494169%, 47.46132492312647%)"></path><path d="M41.361104192638486 85.41646862879479 L54.30987468433894 94.25844219357874 L55.30527472353944 93.39016503487606Z" fill="hsl(282.42940123049647, 52.920230571165696%, 41.445939409023794%)"></path><path d="M56.37474773989424 44.63864485907833 L51.36401834709765 46.193693837794775 L57.32548212060408 46.78021804396875Z" fill="hsl(51.307521524890056, 67.10817851043521%, 48.47103984497278%)"></path><path d="M51.36401834709765 46.193693837794775 L51.77452044977744 50.327118086209346 L57.32548212060408 46.78021804396875Z" fill="hsl(217.33665315010813, 56.91609856153032%, 43.42447598677715%)"></path><path d="M52.66463677262361 23.660051890699762 L55.339671659817334 24.038377510035037 L56.454477263079816 19.451436422828085Z" fill="hsl(252.45284807651498, 54.76041020318138%, 42.35709631419661%)"></path><path d="M54.85986993503792 28.20536140330242 L49.822967021494335 36.579844999270506 L57.09136963568264 33.01925599438002Z" fill="hsl(125.73445758315587, 62.53930993157516%, 46.20878452922654%)"></path><path d="M47.558881637776565 29.414314599974656 L49.822967021494335 36.579844999270506 L54.85986993503792 28.20536140330242Z" fill="hsl(318.94286838267374, 50.67876744488276%, 40.336088734844864%)"></path><path d="M48.65614019534302 67.38101349543355 L52.32036546023645 77.50707045098473 L56.56059664415034 70.50078939977699Z" fill="hsl(85.58807857022357, 65.00378770456312%, 47.42905993138563%)"></path><path d="M47.1462247107009 77.10702207937217 L41.361104192638486 85.41646862879479 L55.59799701747294 80.96872783551434Z" fill="hsl(161.138787309909, 60.36593375607965%, 45.132646811262745%)"></path><path d="M52.276944146849246 16.599988827246975 L52.66463677262361 23.660051890699762 L56.454477263079816 19.451436422828085Z" fill="hsl(84.98389290149731, 65.04087703087208%, 47.44742454926676%)"></path><path d="M52.276944146849246 16.599988827246975 L50.08592837881255 17.896119171023084 L52.66463677262361 23.660051890699762Z" fill="hsl(138.6199733973921, 61.74830291927548%, 45.81712086294223%)"></path><path d="M53.16994692725241 41.65314592623505 L51.36401834709765 46.193693837794775 L56.37474773989424 44.63864485907833Z" fill="hsl(245.5925597906809, 55.181544771538874%, 42.56561925581052%)"></path><path d="M33.361640465282356 89.31418199677583 L31.388579015744618 91.11834041232962 L54.30987468433894 94.25844219357874Z" fill="hsl(222.6578791373291, 56.58944287070631%, 43.26273384860215%)"></path><path d="M52.66463677262361 23.660051890699762 L54.85986993503792 28.20536140330242 L55.339671659817334 24.038377510035037Z" fill="hsl(190.7291846227415, 58.549459188152426%, 44.233227365007515%)"></path><path d="M52.32036546023645 77.50707045098473 L47.1462247107009 77.10702207937217 L55.59799701747294 80.96872783551434Z" fill="hsl(300.1112841763898, 51.83478753555116%, 40.90848703216611%)"></path><path d="M48.65614019534302 67.38101349543355 L47.1462247107009 77.10702207937217 L52.32036546023645 77.50707045098473Z" fill="hsl(210.49000378353267, 57.336395873472995%, 43.63258436453518%)"></path><path d="M52.66463677262361 23.660051890699762 L47.654578745011584 28.714718752474905 L54.85986993503792 28.20536140330242Z" fill="hsl(91.25375637020171, 64.65598704731184%, 47.25684795546508%)"></path><path d="M47.654578745011584 28.714718752474905 L47.558881637776565 29.414314599974656 L54.85986993503792 28.20536140330242Z" fill="hsl(276.8918904414368, 53.2601634017934%, 41.61425566496567%)"></path><path d="M41.361104192638486 85.41646862879479 L33.361640465282356 89.31418199677583 L54.30987468433894 94.25844219357874Z" fill="hsl(34.221673334884976, 68.15703258226445%, 48.99037535626687%)"></path><path d="M43.44670747192117 71.65204313951045 L47.1462247107009 77.10702207937217 L48.65614019534302 67.38101349543355Z" fill="hsl(304.4960012825178, 51.56562159544454%, 40.77521069289002%)"></path><path d="M48.970601489700115 8.779086319462154 L50.08592837881255 17.896119171023084 L52.276944146849246 16.599988827246975Z" fill="hsl(40.04114951071438, 67.79979065812617%, 48.81348857829549%)"></path><path d="M50.08592837881255 17.896119171023084 L47.71656407781176 18.624906013735238 L52.66463677262361 23.660051890699762Z" fill="hsl(62.95542573547108, 66.39314513171821%, 48.11699419143329%)"></path><path d="M49.822967021494335 36.579844999270506 L46.93063507798477 37.92648387665635 L53.16994692725241 41.65314592623505Z" fill="hsl(28.747799882920685, 68.49305888865112%, 49.15675731379813%)"></path><path d="M46.51615703046146 45.98340047944562 L51.36401834709765 46.193693837794775 L53.16994692725241 41.65314592623505Z" fill="hsl(55.26796643299916, 66.86505749461372%, 48.35065953616797%)"></path><path d="M46.93063507798477 37.92648387665635 L46.51615703046146 45.98340047944562 L53.16994692725241 41.65314592623505Z" fill="hsl(219.8322193085891, 56.76290249553851%, 43.34862162400451%)"></path><path d="M47.71656407781176 18.624906013735238 L47.654578745011584 28.714718752474905 L52.66463677262361 23.660051890699762Z" fill="hsl(142.33844635215925, 61.520035908107964%, 45.70409544964569%)"></path><path d="M48.970601489700115 8.779086319462154 L47.71656407781176 18.624906013735238 L50.08592837881255 17.896119171023084Z" fill="hsl(286.2149548297056, 52.68784566041944%, 41.33087503574167%)"></path><path d="M51.36401834709765 46.193693837794775 L46.51615703046146 45.98340047944562 L51.77452044977744 50.327118086209346Z" fill="hsl(121.07180119110492, 62.8255378137358%, 46.35050901456822%)"></path><path d="M47.558881637776565 29.414314599974656 L44.88886907522598 34.23815305700143 L49.822967021494335 36.579844999270506Z" fill="hsl(56.560027355786815, 66.78574136439609%, 48.311386500817484%)"></path><path d="M46.51615703046146 45.98340047944562 L47.047490666755756 55.3098413718149 L51.77452044977744 50.327118086209346Z" fill="hsl(247.6668709771628, 55.05420841047632%, 42.5025692129543%)"></path><path d="M40.69613513558421 59.67668838254726 L45.560865165247996 64.84743582003622 L47.047490666755756 55.3098413718149Z" fill="hsl(15.936199862041738, 69.27952841004176%, 49.54617426128282%)"></path><path d="M46.51615703046146 45.98340047944562 L41.84023310184747 51.53615188718342 L47.047490666755756 55.3098413718149Z" fill="hsl(279.22928439695744, 53.11667710012117%, 41.543209049574564%)"></path><path d="M42.06149497857785 27.699759608797926 L47.654578745011584 28.714718752474905 L47.71656407781176 18.624906013735238Z" fill="hsl(298.8088683265386, 51.91473932677277%, 40.94807481228555%)"></path><path d="M40.75520989919217 6.493039416650237 L47.71656407781176 18.624906013735238 L48.970601489700115 8.779086319462154Z" fill="hsl(262.80728905805074, 54.12477903847558%, 42.04236632002189%)"></path><path d="M44.88886907522598 34.23815305700143 L46.93063507798477 37.92648387665635 L49.822967021494335 36.579844999270506Z" fill="hsl(86.76781494405502, 64.9313668750194%, 47.39320107403874%)"></path><path d="M40.75520989919217 6.493039416650237 L34.57394469765343 12.239116751512357 L47.71656407781176 18.624906013735238Z" fill="hsl(139.82053381549312, 61.674603757899405%, 45.7806290451735%)"></path><path d="M45.560865165247996 64.84743582003622 L43.44670747192117 71.65204313951045 L48.65614019534302 67.38101349543355Z" fill="hsl(302.62711383046286, 51.680347548296275%, 40.83201674721467%)"></path><path d="M38.867988511858734 46.09907074827847 L46.51615703046146 45.98340047944562 L46.93063507798477 37.92648387665635Z" fill="hsl(26.491259027162126, 68.63158183691165%, 49.22534634643199%)"></path><path d="M43.44670747192117 71.65204313951045 L40.82947517659915 75.41298668286258 L47.1462247107009 77.10702207937217Z" fill="hsl(312.35615081731464, 51.08310824561968%, 40.53629631579227%)"></path><path d="M40.82947517659915 75.41298668286258 L41.361104192638486 85.41646862879479 L47.1462247107009 77.10702207937217Z" fill="hsl(121.5698381483212, 62.79496467012076%, 46.335370856079216%)"></path><path d="M42.06149497857785 27.699759608797926 L44.88886907522598 34.23815305700143 L47.558881637776565 29.414314599974656Z" fill="hsl(317.3166844805481, 50.77859448234206%, 40.385517656305296%)"></path><path d="M34.57394469765343 12.239116751512357 L42.06149497857785 27.699759608797926 L47.71656407781176 18.624906013735238Z" fill="hsl(218.42093343750162, 56.84953752330793%, 43.39151857950199%)"></path><path d="M42.06149497857785 27.699759608797926 L47.558881637776565 29.414314599974656 L47.654578745011584 28.714718752474905Z" fill="hsl(6.200966675018686, 69.87714808071105%, 49.84208303025499%)"></path><path d="M40.82947517659915 75.41298668286258 L39.316570003612966 84.65077428459088 L41.361104192638486 85.41646862879479Z" fill="hsl(183.30709494613353, 59.00508122647453%, 44.45882662670098%)"></path><path d="M44.88886907522598 34.23815305700143 L38.867988511858734 46.09907074827847 L46.93063507798477 37.92648387665635Z" fill="hsl(254.20692635997122, 54.65273207509251%, 42.30377995951183%)"></path><path d="M41.84023310184747 51.53615188718342 L40.69613513558421 59.67668838254726 L47.047490666755756 55.3098413718149Z" fill="hsl(193.21389126376982, 58.39692975860569%, 44.15770308435816%)"></path><path d="M34.62354823153211 43.867763408704654 L38.867988511858734 46.09907074827847 L44.88886907522598 34.23815305700143Z" fill="hsl(195.50530838051375, 58.25626585088339%, 44.08805396500051%)"></path><path d="M38.867988511858734 46.09907074827847 L41.84023310184747 51.53615188718342 L46.51615703046146 45.98340047944562Z" fill="hsl(223.22185919709528, 56.55482165813681%, 43.24559130645609%)"></path><path d="M38.867988511858734 46.09907074827847 L38.46661589820181 47.0852016290199 L41.84023310184747 51.53615188718342Z" fill="hsl(254.58620320585445, 54.629449293943374%, 42.29225159214673%)"></path><path d="M38.168023785739216 53.80334041511481 L40.69613513558421 59.67668838254726 L41.84023310184747 51.53615188718342Z" fill="hsl(124.32182820860197, 62.62602743339361%, 46.251722321389074%)"></path><path d="M31.815661929346906 38.549106895325316 L34.62354823153211 43.867763408704654 L44.88886907522598 34.23815305700143Z" fill="hsl(130.09759064684837, 62.27146897753556%, 46.076164251012756%)"></path><path d="M37.07829791196588 65.03059141749456 L43.44670747192117 71.65204313951045 L45.560865165247996 64.84743582003622Z" fill="hsl(33.37911175349697, 68.20875516200284%, 49.0159855656519%)"></path><path d="M40.69613513558421 59.67668838254726 L37.07829791196588 65.03059141749456 L45.560865165247996 64.84743582003622Z" fill="hsl(301.1545044357003, 51.77074706155042%, 40.87677767125312%)"></path><path d="M34.57394469765343 12.239116751512357 L31.122156768248498 27.775714329236003 L42.06149497857785 27.699759608797926Z" fill="hsl(121.68412058561427, 62.787949179970056%, 46.331897166781296%)"></path><path d="M42.06149497857785 27.699759608797926 L31.629033286514208 36.434290843378115 L44.88886907522598 34.23815305700143Z" fill="hsl(329.6582555909028, 50.020978766229234%, 40.0103875444436%)"></path><path d="M31.629033286514208 36.434290843378115 L31.815661929346906 38.549106895325316 L44.88886907522598 34.23815305700143Z" fill="hsl(288.67193464480283, 52.537018305826976%, 41.25619353006967%)"></path><path d="M29.2381128361902 26.309686130294075 L31.122156768248498 27.775714329236003 L34.57394469765343 12.239116751512357Z" fill="hsl(94.22902969096855, 64.47334305430734%, 47.1664125802881%)"></path><path d="M37.21677343231789 6.745783810588191 L34.57394469765343 12.239116751512357 L40.75520989919217 6.493039416650237Z" fill="hsl(313.08505331962505, 51.03836288975481%, 40.5141408483252%)"></path><path d="M36.587565075247255 83.94798390729494 L39.316570003612966 84.65077428459088 L40.82947517659915 75.41298668286258Z" fill="hsl(208.35670462200582, 57.467353346998145%, 43.697427385406854%)"></path><path d="M39.316570003612966 84.65077428459088 L33.361640465282356 89.31418199677583 L41.361104192638486 85.41646862879479Z" fill="hsl(4.946421621977333, 69.95416121301463%, 49.88021574624997%)"></path><path d="M34.7039412095256 69.33767900282972 L40.82947517659915 75.41298668286258 L43.44670747192117 71.65204313951045Z" fill="hsl(27.733963366409426, 68.55529557404635%, 49.187573536663734%)"></path><path d="M37.07829791196588 65.03059141749456 L34.7039412095256 69.33767900282972 L43.44670747192117 71.65204313951045Z" fill="hsl(105.4827357724585, 63.7825084340135%, 46.82434883625911%)"></path><path d="M34.7039412095256 69.33767900282972 L33.522615827900154 72.06927775187853 L40.82947517659915 75.41298668286258Z" fill="hsl(75.87504042759615, 65.60004488140537%, 47.72429406749198%)"></path><path d="M31.122156768248498 27.775714329236003 L31.629033286514208 36.434290843378115 L42.06149497857785 27.699759608797926Z" fill="hsl(65.7547185942475, 66.22130410395539%, 48.0319078572983%)"></path><path d="M38.46661589820181 47.0852016290199 L38.168023785739216 53.80334041511481 L41.84023310184747 51.53615188718342Z" fill="hsl(65.68659011676516, 66.22548632717428%, 48.033978666853294%)"></path><path d="M35.078434848659676 60.327050413988914 L37.07829791196588 65.03059141749456 L40.69613513558421 59.67668838254726Z" fill="hsl(212.10368789840163, 57.23733616419169%, 43.58353538226967%)"></path><path d="M38.168023785739216 53.80334041511481 L34.18693933044688 56.747221908351385 L40.69613513558421 59.67668838254726Z" fill="hsl(188.9741066762166, 58.657198682857015%, 44.28657410510396%)"></path><path d="M33.522615827900154 72.06927775187853 L36.587565075247255 83.94798390729494 L40.82947517659915 75.41298668286258Z" fill="hsl(144.30997237239086, 61.39900925078071%, 45.644169629027346%)"></path><path d="M33.522615827900154 72.06927775187853 L28.62972383082767 78.12465837370218 L36.587565075247255 83.94798390729494Z" fill="hsl(90.69366712454391, 64.69036941331223%, 47.27387223377596%)"></path><path d="M36.587565075247255 83.94798390729494 L33.361640465282356 89.31418199677583 L39.316570003612966 84.65077428459088Z" fill="hsl(127.55800243765525, 62.42736743831786%, 46.15335669275933%)"></path><path d="M34.18693933044688 56.747221908351385 L35.078434848659676 60.327050413988914 L40.69613513558421 59.67668838254726Z" fill="hsl(88.24119989262373, 64.84091975261187%, 47.348416576535975%)"></path><path d="M33.59380341457211 45.709341406978936 L31.550941544448303 54.58202334413047 L38.168023785739216 53.80334041511481Z" fill="hsl(18.108141085896122, 69.14619880468182%, 49.48015668969683%)"></path><path d="M33.59380341457211 45.709341406978936 L38.168023785739216 53.80334041511481 L38.46661589820181 47.0852016290199Z" fill="hsl(167.85891793852818, 59.95340308773537%, 44.92838405315052%)"></path><path d="M34.62354823153211 43.867763408704654 L38.46661589820181 47.0852016290199 L38.867988511858734 46.09907074827847Z" fill="hsl(76.01757139120299, 65.59129529052301%, 47.71996174579294%)"></path><path d="M32.556636162048946 86.0195747091356 L33.361640465282356 89.31418199677583 L36.587565075247255 83.94798390729494Z" fill="hsl(70.0364033469308, 65.95846304173828%, 47.90176325367624%)"></path><path d="M34.62354823153211 43.867763408704654 L33.59380341457211 45.709341406978936 L38.46661589820181 47.0852016290199Z" fill="hsl(226.5238384077981, 56.35212207297562%, 43.14522549244424%)"></path><path d="M33.8199788435281 65.66048172579534 L34.7039412095256 69.33767900282972 L37.07829791196588 65.03059141749456Z" fill="hsl(88.01029525182403, 64.85509436484145%, 47.35543507385354%)"></path><path d="M32.336261734363944 7.714012288796818 L34.57394469765343 12.239116751512357 L37.21677343231789 6.745783810588191Z" fill="hsl(250.24868551783365, 54.895717789257134%, 42.424093274292375%)"></path><path d="M31.550941544448303 54.58202334413047 L34.18693933044688 56.747221908351385 L38.168023785739216 53.80334041511481Z" fill="hsl(205.76866979181162, 57.626225814990285%, 43.77609239383014%)"></path><path d="M31.122156768248498 27.775714329236003 L28.64988262132212 30.762373220988053 L31.629033286514208 36.434290843378115Z" fill="hsl(190.43311567926992, 58.567634060915495%, 44.24222657385136%)"></path><path d="M28.62972383082767 78.12465837370218 L32.556636162048946 86.0195747091356 L36.587565075247255 83.94798390729494Z" fill="hsl(223.68362511811497, 56.526475095466495%, 43.231555629794094%)"></path><path d="M35.078434848659676 60.327050413988914 L33.8199788435281 65.66048172579534 L37.07829791196588 65.03059141749456Z" fill="hsl(240.0801040525305, 55.519939540264474%, 42.73317394712125%)"></path><path d="M22.114278486701984 12.426664685331524 L29.2381128361902 26.309686130294075 L34.57394469765343 12.239116751512357Z" fill="hsl(314.81024634652766, 50.93245794954724%, 40.46170247987291%)"></path><path d="M27.074655985872287 53.54221101426955 L31.550941544448303 54.58202334413047 L33.59380341457211 45.709341406978936Z" fill="hsl(158.017661922237, 60.55753121352776%, 45.22751545524191%)"></path><path d="M28.438444624916038 8.476961846160119 L22.114278486701984 12.426664685331524 L34.57394469765343 12.239116751512357Z" fill="hsl(162.2013983694798, 60.30070293322512%, 45.100348054315354%)"></path><path d="M34.18693933044688 56.747221908351385 L26.575467405480584 59.867705448122564 L35.078434848659676 60.327050413988914Z" fill="hsl(277.08263756703434, 53.24845395095737%, 41.608457781542%)"></path><path d="M26.575467405480584 59.867705448122564 L33.8199788435281 65.66048172579534 L35.078434848659676 60.327050413988914Z" fill="hsl(43.603727453367206, 67.58109362068285%, 48.70520169567792%)"></path><path d="M25.225771343627844 64.82277521566611 L33.522615827900154 72.06927775187853 L33.8199788435281 65.66048172579534Z" fill="hsl(13.076115788240681, 69.45510124629902%, 49.633108384089816%)"></path><path d="M32.336261734363944 7.714012288796818 L28.438444624916038 8.476961846160119 L34.57394469765343 12.239116751512357Z" fill="hsl(90.95642431924372, 64.67423945883186%, 47.26588555728568%)"></path><path d="M31.815661929346906 38.549106895325316 L33.59380341457211 45.709341406978936 L34.62354823153211 43.867763408704654Z" fill="hsl(101.1928124868823, 64.04585523751277%, 46.95474385546749%)"></path><path d="M33.8199788435281 65.66048172579534 L33.522615827900154 72.06927775187853 L34.7039412095256 69.33767900282972Z" fill="hsl(147.7278121447607, 61.18919729867598%, 45.54028215759685%)"></path><path d="M31.815661929346906 38.549106895325316 L26.341391156267523 39.75740066945443 L33.59380341457211 45.709341406978936Z" fill="hsl(316.56781129436854, 50.82456578454921%, 40.40828014574767%)"></path><path d="M31.550941544448303 54.58202334413047 L26.575467405480584 59.867705448122564 L34.18693933044688 56.747221908351385Z" fill="hsl(308.8093383739474, 51.30083748164418%, 40.64410399576556%)"></path><path d="M28.62972383082767 78.12465837370218 L25.91037884186888 80.08435622265732 L32.556636162048946 86.0195747091356Z" fill="hsl(172.57843029936143, 59.663684971218096%, 44.78493139351576%)"></path><path d="M26.575467405480584 59.867705448122564 L25.225771343627844 64.82277521566611 L33.8199788435281 65.66048172579534Z" fill="hsl(304.3581609547964, 51.574083240859224%, 40.77940043964874%)"></path><path d="M25.225771343627844 64.82277521566611 L23.05776500029728 71.36801613621223 L33.522615827900154 72.06927775187853Z" fill="hsl(136.03282708093107, 61.9071208438094%, 45.89575886441048%)"></path><path d="M32.556636162048946 86.0195747091356 L28.6848063866016 88.02227622240174 L33.361640465282356 89.31418199677583Z" fill="hsl(40.29645417297724, 67.78411819448296%, 48.805728426394474%)"></path><path d="M26.341391156267523 39.75740066945443 L27.074655985872287 53.54221101426955 L33.59380341457211 45.709341406978936Z" fill="hsl(97.58955844989887, 64.26704927052168%, 47.06426711453016%)"></path><path d="M23.05776500029728 71.36801613621223 L28.62972383082767 78.12465837370218 L33.522615827900154 72.06927775187853Z" fill="hsl(214.6383578468901, 57.081739622149925%, 43.50649243426841%)"></path><path d="M28.6848063866016 88.02227622240174 L31.388579015744618 91.11834041232962 L33.361640465282356 89.31418199677583Z" fill="hsl(211.71120835574308, 57.26142942323562%, 43.59546505422347%)"></path><path d="M22.114278486701984 12.426664685331524 L17.662421286357088 17.537542411617647 L29.2381128361902 26.309686130294075Z" fill="hsl(211.70467212931555, 57.26183066452178%, 43.59566372709331%)"></path><path d="M25.91037884186888 80.08435622265732 L28.6848063866016 88.02227622240174 L32.556636162048946 86.0195747091356Z" fill="hsl(112.40927865010818, 63.35730667521685%, 46.61381204306854%)"></path><path d="M18.534085603593308 43.205244402150754 L17.616808011001194 47.26691610155477 L26.341391156267523 39.75740066945443Z" fill="hsl(123.05675276434994, 62.70368699797122%, 46.29017511550032%)"></path><path d="M26.341391156267523 39.75740066945443 L17.616808011001194 47.26691610155477 L27.074655985872287 53.54221101426955Z" fill="hsl(277.70677383413937, 53.21013991130013%, 41.58948675219715%)"></path><path d="M27.074655985872287 53.54221101426955 L26.575467405480584 59.867705448122564 L31.550941544448303 54.58202334413047Z" fill="hsl(128.75535001041894, 62.35386550483921%, 46.11696253152233%)"></path><path d="M31.629033286514208 36.434290843378115 L26.341391156267523 39.75740066945443 L31.815661929346906 38.549106895325316Z" fill="hsl(99.75331003302897, 64.13422240508572%, 46.99849847242109%)"></path><path d="M28.64988262132212 30.762373220988053 L26.341391156267523 39.75740066945443 L31.629033286514208 36.434290843378115Z" fill="hsl(81.70448553657512, 65.24219099138693%, 47.54710427728868%)"></path><path d="M28.6848063866016 88.02227622240174 L26.71513572319155 90.74178117243116 L31.388579015744618 91.11834041232962Z" fill="hsl(246.15959953900585, 55.14673573295292%, 42.548383712433%)"></path><path d="M29.2381128361902 26.309686130294075 L28.64988262132212 30.762373220988053 L31.122156768248498 27.775714329236003Z" fill="hsl(191.19301319811, 58.520986004702834%, 44.21912899261985%)"></path><path d="M23.05776500029728 71.36801613621223 L25.91037884186888 80.08435622265732 L28.62972383082767 78.12465837370218Z" fill="hsl(64.33650411691363, 66.30836446014824%, 48.07501541230641%)"></path><path d="M25.96548671519906 30.075128254771943 L26.341391156267523 39.75740066945443 L28.64988262132212 30.762373220988053Z" fill="hsl(265.78435777589556, 53.9420248308938%, 41.95187637257848%)"></path><path d="M25.91037884186888 80.08435622265732 L22.665303162552142 81.6529732881804 L28.6848063866016 88.02227622240174Z" fill="hsl(88.24344892327531, 64.84078169069475%, 47.3483482157809%)"></path><path d="M18.25490327623219 26.92102884718876 L25.96548671519906 30.075128254771943 L29.2381128361902 26.309686130294075Z" fill="hsl(236.04792868231183, 55.767463895412234%, 42.855734550155574%)"></path><path d="M17.662421286357088 17.537542411617647 L18.25490327623219 26.92102884718876 L29.2381128361902 26.309686130294075Z" fill="hsl(65.3537583941442, 66.24591796765375%, 48.04409530437225%)"></path><path d="M25.96548671519906 30.075128254771943 L28.64988262132212 30.762373220988053 L29.2381128361902 26.309686130294075Z" fill="hsl(101.32822799617084, 64.0375424451523%, 46.95062781264823%)"></path><path d="M22.665303162552142 81.6529732881804 L26.71513572319155 90.74178117243116 L28.6848063866016 88.02227622240174Z" fill="hsl(189.2308321441233, 58.64143899979289%, 44.278770766887746%)"></path><path d="M23.05776500029728 71.36801613621223 L21.3032407070017 79.81638125124549 L25.91037884186888 80.08435622265732Z" fill="hsl(195.4142615399126, 58.26185497051209%, 44.09082139316618%)"></path><path d="M22.665303162552142 81.6529732881804 L18.554184581563675 84.88794264524475 L26.71513572319155 90.74178117243116Z" fill="hsl(281.6465376466552, 52.96828845207787%, 41.46973505879584%)"></path><path d="M25.96548671519906 30.075128254771943 L14.543926633246185 35.696183642438044 L26.341391156267523 39.75740066945443Z" fill="hsl(172.013366406334, 59.69837271738408%, 44.80210687948144%)"></path><path d="M15.506674997931501 49.869558985112654 L20.353437301877676 59.63834840492122 L27.074655985872287 53.54221101426955Z" fill="hsl(69.93552618046105, 65.96465561852052%, 47.90482948101502%)"></path><path d="M17.616808011001194 47.26691610155477 L15.506674997931501 49.869558985112654 L27.074655985872287 53.54221101426955Z" fill="hsl(76.88634829976777, 65.53796342265633%, 47.69355470442207%)"></path><path d="M20.353437301877676 59.63834840492122 L26.575467405480584 59.867705448122564 L27.074655985872287 53.54221101426955Z" fill="hsl(234.73940007104855, 55.847790932546474%, 42.89550813164923%)"></path><path d="M14.543926633246185 35.696183642438044 L18.534085603593308 43.205244402150754 L26.341391156267523 39.75740066945443Z" fill="hsl(248.19697790288865, 55.02166657811486%, 42.48645626683358%)"></path><path d="M20.353437301877676 59.63834840492122 L25.225771343627844 64.82277521566611 L26.575467405480584 59.867705448122564Z" fill="hsl(317.9792206088103, 50.73792317892568%, 40.36537943810884%)"></path><path d="M18.25490327623219 26.92102884718876 L14.543926633246185 35.696183642438044 L25.96548671519906 30.075128254771943Z" fill="hsl(242.9746773980708, 55.342249500770016%, 42.64519150038127%)"></path><path d="M21.3032407070017 79.81638125124549 L22.665303162552142 81.6529732881804 L25.91037884186888 80.08435622265732Z" fill="hsl(250.36098410727678, 54.8888240821676%, 42.42067988534512%)"></path><path d="M15.98281533064812 62.31153752708964 L23.05776500029728 71.36801613621223 L25.225771343627844 64.82277521566611Z" fill="hsl(26.01936757616862, 68.66054997851819%, 49.239689795188625%)"></path><path d="M20.353437301877676 59.63834840492122 L15.98281533064812 62.31153752708964 L25.225771343627844 64.82277521566611Z" fill="hsl(29.93400573527252, 68.42024091529498%, 49.12070181242761%)"></path><path d="M15.506674997931501 49.869558985112654 L16.54025124441783 59.85787408123936 L20.353437301877676 59.63834840492122Z" fill="hsl(25.535154225418065, 68.69027452826961%, 49.2544077761335%)"></path><path d="M13.856360547396635 75.41716309367982 L14.796708566699401 78.97128018657932 L21.3032407070017 79.81638125124549Z" fill="hsl(204.10320704078282, 57.72846407489232%, 43.826715221548625%)"></path><path d="M13.856360547396635 75.41716309367982 L21.3032407070017 79.81638125124549 L23.05776500029728 71.36801613621223Z" fill="hsl(68.02885801947033, 66.08170082704885%, 47.962783904655254%)"></path><path d="M15.98281533064812 62.31153752708964 L13.856360547396635 75.41716309367982 L23.05776500029728 71.36801613621223Z" fill="hsl(63.29462639027935, 66.37232251969414%, 48.10668396606215%)"></path><path d="M21.3032407070017 79.81638125124549 L18.554184581563675 84.88794264524475 L22.665303162552142 81.6529732881804Z" fill="hsl(115.88206051985223, 63.14412197615189%, 46.50825457071599%)"></path><path d="M13.856360547396635 75.41716309367982 L13.949558722760091 77.36387689594228 L14.796708566699401 78.97128018657932Z" fill="hsl(31.931072809899057, 68.29764636162433%, 49.05999965478487%)"></path><path d="M17.662421286357088 17.537542411617647 L13.256099710701253 22.659126196704943 L18.25490327623219 26.92102884718876Z" fill="hsl(157.56221017207045, 60.585490166303856%, 45.24135920855822%)"></path><path d="M14.796708566699401 78.97128018657932 L18.554184581563675 84.88794264524475 L21.3032407070017 79.81638125124549Z" fill="hsl(250.9884559708104, 54.850305279255%, 42.40160746836898%)"></path><path d="M16.54025124441783 59.85787408123936 L15.98281533064812 62.31153752708964 L20.353437301877676 59.63834840492122Z" fill="hsl(167.67534936562893, 59.96467186661039%, 44.933963739777965%)"></path><path d="M10.413531244993512 28.167364271053792 L10.455923532297968 33.402693168965065 L14.543926633246185 35.696183642438044Z" fill="hsl(247.4277593605862, 55.06888682678197%, 42.50983716665904%)"></path><path d="M10.413531244993512 28.167364271053792 L14.543926633246185 35.696183642438044 L18.25490327623219 26.92102884718876Z" fill="hsl(109.40505246976578, 63.54172800606956%, 46.705127459316%)"></path><path d="M14.540350005739528 43.73544842044066 L17.616808011001194 47.26691610155477 L18.534085603593308 43.205244402150754Z" fill="hsl(39.15938609654311, 67.85391973249573%, 48.840290352983324%)"></path><path d="M14.543926633246185 35.696183642438044 L14.540350005739528 43.73544842044066 L18.534085603593308 43.205244402150754Z" fill="hsl(50.71898642790164, 67.14430709041707%, 48.48892875350749%)"></path><path d="M15.506674997931501 49.869558985112654 L5.970740313574463 56.62338265362668 L16.54025124441783 59.85787408123936Z" fill="hsl(225.22383819626177, 56.43192557468567%, 43.1847398476599%)"></path><path d="M13.256099710701253 22.659126196704943 L10.413531244993512 28.167364271053792 L18.25490327623219 26.92102884718876Z" fill="hsl(107.42414750894272, 63.663330411227385%, 46.76533835895725%)"></path><path d="M14.540350005739528 43.73544842044066 L15.506674997931501 49.869558985112654 L17.616808011001194 47.26691610155477Z" fill="hsl(43.22584844806036, 67.60429059217454%, 48.71668757476604%)"></path><path d="M7.214773351904985 40.28593971198639 L14.540350005739528 43.73544842044066 L14.543926633246185 35.696183642438044Z" fill="hsl(321.9720818146084, 50.49281221414489%, 40.244013814770774%)"></path><path d="M5.970740313574463 56.62338265362668 L13.856360547396635 75.41716309367982 L15.98281533064812 62.31153752708964Z" fill="hsl(253.18792604867, 54.71528575190258%, 42.33475313929157%)"></path><path d="M5.970740313574463 56.62338265362668 L15.98281533064812 62.31153752708964 L16.54025124441783 59.85787408123936Z" fill="hsl(71.4025053334299, 65.87460173060292%, 47.86023969185194%)"></path><path d="M14.540350005739528 43.73544842044066 L7.214773351904985 40.28593971198639 L15.506674997931501 49.869558985112654Z" fill="hsl(288.8336230329447, 52.52709269239625%, 41.25127890594378%)"></path><path d="M7.214773351904985 40.28593971198639 L5.970740313574463 56.62338265362668 L15.506674997931501 49.869558985112654Z" fill="hsl(187.8730849011457, 58.72478743578947%, 44.3200403808278%)"></path><path d="M10.455923532297968 33.402693168965065 L7.214773351904985 40.28593971198639 L14.543926633246185 35.696183642438044Z" fill="hsl(304.945982477418, 51.537998465280374%, 40.76153322067281%)"></path><path d="M13.856360547396635 75.41716309367982 L5.970740313574463 56.62338265362668 L13.949558722760091 77.36387689594228Z" fill="hsl(197.61785455080505, 58.126582347436745%, 44.023841744847324%)"></path><path d="M10.413531244993512 28.167364271053792 L7.214773351904985 40.28593971198639 L10.455923532297968 33.402693168965065Z" fill="hsl(157.4996489900812, 60.5893306282896%, 45.24326079653175%)"></path></svg>