<svg xmlns="http://www.w3.org/2000/svg" viewBox="0 0 100 100" id="svg" style="--frame-c: #f6c6a4; --frame-bdw: 1em; stroke: rgb(255, 255, 255); stroke-width: 0; background-color: rgb(98, 191, 64); --frame-asr: 100 / 100.;"><path d="M3.0909466078653414 9.449526409994762 L8.348749976761699 7.1799356932711556 L20.184599065266045 1.858757700618291Z" fill="hsl(170.95184932395605, 41.042499020180244%, 44.347030050140475%)"></path><path d="M38.73286840247824 90.60613169456381 L22.713172957894344 94.66717433583494 L45.35447269436052 90.21398294851444Z" fill="hsl(86.58264014099714, 55.51568836978616%, 47.15342659301366%)"></path><path d="M20.184599065266045 1.858757700618291 L41.722399156419876 3.224373002978603 L72.38912121165511 2.758584448319618Z" fill="hsl(280.02134654783066, 22.33207728131797%, 40.71902093513001%)"></path><path d="M80.89512561433772 92.77213132519859 L64.09660296616282 90.16048334244958 L83.80928635403602 94.29403183903447Z" fill="hsl(44.46931062371629, 62.740056100010946%, 48.55425402177245%)"></path><path d="M83.80928635403602 94.29403183903447 L64.09660296616282 90.16048334244958 L90.55725218337113 97.55671423368173Z" fill="hsl(155.03991016087755, 43.77212645958454%, 44.876313321728745%)"></path><path d="M64.09660296616282 90.16048334244958 L45.35447269436052 90.21398294851444 L90.55725218337113 97.55671423368173Z" fill="hsl(64.50447953225681, 59.30310562871018%, 47.88781860883788%)"></path><path d="M45.35447269436052 90.21398294851444 L22.713172957894344 94.66717433583494 L90.55725218337113 97.55671423368173Z" fill="hsl(193.98553558783064, 37.09116528190208%, 43.58085411787133%)"></path><path d="M22.713172957894344 94.66717433583494 L10.641102341246167 96.82693704788585 L90.55725218337113 97.55671423368173Z" fill="hsl(312.6139228007972, 16.74095544826028%, 39.63488497835811%)"></path><path d="M79.29206875808245 3.0211844429730683 L83.282852384145 3.766214911400667 L94.35783198514788 5.813262009625331Z" fill="hsl(221.41693695995463, 32.38542168149886%, 42.668395761055955%)"></path><path d="M84.84451637264601 79.24610355485227 L90.66480816745882 86.3928396451352 L94.43102871456604 73.05280523256388Z" fill="hsl(127.47548635303586, 48.500689509387996%, 45.79319644093479%)"></path><path d="M93.68590302434654 22.50704468417925 L88.8087509717564 29.355185049347053 L95.26968180222828 34.802268707137316Z" fill="hsl(131.0493416961657, 47.887609387029016%, 45.67431829360098%)"></path><path d="M92.98423148723968 65.79851208705799 L94.43102871456604 73.05280523256388 L95.82193628643275 64.52305007699755Z" fill="hsl(274.42061272105224, 23.292860035556224%, 40.905319706935956%)"></path><path d="M94.43102871456604 73.05280523256388 L90.66480816745882 86.3928396451352 L95.8449204564864 89.2652180669168Z" fill="hsl(81.95682191564315, 56.309228379474064%, 47.307296475181715%)"></path><path d="M95.82193628643275 64.52305007699755 L94.43102871456604 73.05280523256388 L95.8449204564864 89.2652180669168Z" fill="hsl(312.4183951132104, 16.77449741544165%, 39.64138887037977%)"></path><path d="M96.25632926409533 49.36733444503151 L84.79979564632478 47.738635099186716 L97.11101562167046 59.3116938866314Z" fill="hsl(87.12801185346741, 55.42213210516142%, 47.13528574159074%)"></path><path d="M95.71447965665831 63.48935299231195 L95.82193628643275 64.52305007699755 L97.11101562167046 59.3116938866314Z" fill="hsl(277.0107605166513, 22.84853087978714%, 40.81916289819621%)"></path><path d="M95.8449204564864 89.2652180669168 L89.77489473848695 93.59021897677111 L97.1239408087465 96.21359948740141Z" fill="hsl(240.5209552761785, 29.1082062482067%, 42.0329334700515%)"></path><path d="M94.35783198514788 5.813262009625331 L93.83318015158943 8.747631081246466 L97.2079796070667 17.89008780152994Z" fill="hsl(198.8662467830191, 36.25389943607059%, 43.418505659736134%)"></path><path d="M93.68590302434654 22.50704468417925 L95.26968180222828 34.802268707137316 L97.2079796070667 17.89008780152994Z" fill="hsl(225.2057425804305, 31.735467726910002%, 42.542367662678686%)"></path><path d="M97.11101562167046 59.3116938866314 L95.82193628643275 64.52305007699755 L97.91444826547094 96.77557753933374Z" fill="hsl(276.0804674492987, 23.00811881293017%, 40.85010749603421%)"></path><path d="M95.82193628643275 64.52305007699755 L95.8449204564864 89.2652180669168 L97.91444826547094 96.77557753933374Z" fill="hsl(148.73788124218433, 44.85321349015211%, 45.0859394678285%)"></path><path d="M97.1239408087465 96.21359948740141 L90.55725218337113 97.55671423368173 L97.91444826547094 96.77557753933374Z" fill="hsl(288.91837451257317, 20.805828883004594%, 40.423076611793356%)"></path><path d="M95.8449204564864 89.2652180669168 L97.1239408087465 96.21359948740141 L97.91444826547094 96.77557753933374Z" fill="hsl(319.61812295805737, 15.539413842024125%, 39.40190231445402%)"></path><path d="M94.46371495365005 44.301778954013024 L96.25632926409533 49.36733444503151 L98.05066454979382 42.291236282925546Z" fill="hsl(242.4333821909821, 28.780137310222322%, 41.96931988004423%)"></path><path d="M95.26968180222828 34.802268707137316 L94.46371495365005 44.301778954013024 L98.05066454979382 42.291236282925546Z" fill="hsl(103.78452851184795, 52.56477547190404%, 46.58123538104961%)"></path><path d="M97.2079796070667 17.89008780152994 L95.26968180222828 34.802268707137316 L98.05066454979382 42.291236282925546Z" fill="hsl(172.7411413847166, 40.73555335780032%, 44.28751232913612%)"></path><path d="M96.25632926409533 49.36733444503151 L97.11101562167046 59.3116938866314 L98.05066454979382 42.291236282925546Z" fill="hsl(283.67392561537747, 21.7054924292024%, 40.59752417858812%)"></path><path d="M97.11101562167046 59.3116938866314 L97.91444826547094 96.77557753933374 L98.05066454979382 42.291236282925546Z" fill="hsl(176.64487938197854, 40.065883228700244%, 44.15766120304531%)"></path><path d="M87.33159897067496 43.65888551851584 L94.46371495365005 44.301778954013024 L95.26968180222828 34.802268707137316Z" fill="hsl(286.7179126136983, 21.183309032782297%, 40.49627118983349%)"></path><path d="M84.79979564632478 47.738635099186716 L92.98423148723968 65.79851208705799 L97.11101562167046 59.3116938866314Z" fill="hsl(308.47308302466166, 17.45129940818083%, 39.77262288706765%)"></path><path d="M89.77489473848695 93.59021897677111 L90.55725218337113 97.55671423368173 L97.1239408087465 96.21359948740141Z" fill="hsl(142.60147733683263, 45.905888233792524%, 45.29005638290243%)"></path><path d="M93.83318015158943 8.747631081246466 L82.16399154668967 18.551868788987896 L97.2079796070667 17.89008780152994Z" fill="hsl(309.41806124513937, 17.289192297676003%, 39.741189812884286%)"></path><path d="M82.16399154668967 18.551868788987896 L93.68590302434654 22.50704468417925 L97.2079796070667 17.89008780152994Z" fill="hsl(97.67580609573704, 53.612701570403175%, 46.784431519024174%)"></path><path d="M92.98423148723968 65.79851208705799 L95.71447965665831 63.48935299231195 L97.11101562167046 59.3116938866314Z" fill="hsl(57.661509793039166, 60.476988822690906%, 48.115438220365604%)"></path><path d="M84.79979564632478 47.738635099186716 L78.67886349509816 63.63911848867957 L92.98423148723968 65.79851208705799Z" fill="hsl(302.9957594191037, 18.39091164871276%, 39.95481663025542%)"></path><path d="M92.98423148723968 65.79851208705799 L88.38135716740128 70.02471273324848 L94.43102871456604 73.05280523256388Z" fill="hsl(96.26102590326794, 53.855401268693264%, 46.831491747270015%)"></path><path d="M94.46371495365005 44.301778954013024 L84.79979564632478 47.738635099186716 L96.25632926409533 49.36733444503151Z" fill="hsl(281.3057597377219, 22.111741503841195%, 40.67629714086148%)"></path><path d="M76.54555904515992 56.5689810730216 L78.67886349509816 63.63911848867957 L84.79979564632478 47.738635099186716Z" fill="hsl(95.47439912042846, 53.99034384413946%, 46.85765753340539%)"></path><path d="M87.33159897067496 43.65888551851584 L84.79979564632478 47.738635099186716 L94.46371495365005 44.301778954013024Z" fill="hsl(289.9536363137942, 20.62823399713819%, 40.38864040967589%)"></path><path d="M95.71447965665831 63.48935299231195 L92.98423148723968 65.79851208705799 L95.82193628643275 64.52305007699755Z" fill="hsl(120.15890321201599, 49.75581912619497%, 46.036569987178126%)"></path><path d="M90.66480816745882 86.3928396451352 L89.77489473848695 93.59021897677111 L95.8449204564864 89.2652180669168Z" fill="hsl(175.33448513989663, 40.29067594836598%, 44.20124921230121%)"></path><path d="M78.67886349509816 63.63911848867957 L84.85550435473792 68.15185705177872 L92.98423148723968 65.79851208705799Z" fill="hsl(54.745174868389455, 60.977274033137675%, 48.21244508258057%)"></path><path d="M88.8087509717564 29.355185049347053 L87.33159897067496 43.65888551851584 L95.26968180222828 34.802268707137316Z" fill="hsl(160.2099795986688, 42.88522240242434%, 44.70433985964298%)"></path><path d="M87.22967172032318 90.3216336868415 L89.77489473848695 93.59021897677111 L90.66480816745882 86.3928396451352Z" fill="hsl(183.62617742578843, 38.86827038542966%, 43.92544033853029%)"></path><path d="M88.38135716740128 70.02471273324848 L84.84451637264601 79.24610355485227 L94.43102871456604 73.05280523256388Z" fill="hsl(9.182265814773812, 68.79340288438507%, 49.72801683784054%)"></path><path d="M80.09570691728234 7.076369193099974 L82.16399154668967 18.551868788987896 L93.83318015158943 8.747631081246466Z" fill="hsl(40.21299152534368, 63.470210060675704%, 48.695833151394666%)"></path><path d="M83.282852384145 3.766214911400667 L93.83318015158943 8.747631081246466 L94.35783198514788 5.813262009625331Z" fill="hsl(9.173221953688348, 68.79495432139876%, 49.728317666314936%)"></path><path d="M83.282852384145 3.766214911400667 L80.09570691728234 7.076369193099974 L93.83318015158943 8.747631081246466Z" fill="hsl(48.753071934458546, 62.00519454116382%, 48.411762074184196%)"></path><path d="M83.98991441170527 27.736697294307238 L88.8087509717564 29.355185049347053 L93.68590302434654 22.50704468417925Z" fill="hsl(178.35411142609897, 39.77267153148825%, 44.100806540710074%)"></path><path d="M82.16399154668967 18.551868788987896 L83.98991441170527 27.736697294307238 L93.68590302434654 22.50704468417925Z" fill="hsl(301.7652228007709, 18.602005122875028%, 39.9957483130934%)"></path><path d="M84.84451637264601 79.24610355485227 L85.88478463026156 85.99928581775013 L90.66480816745882 86.3928396451352Z" fill="hsl(311.2172239253722, 16.980553371296047%, 39.68134376271067%)"></path><path d="M84.85550435473792 68.15185705177872 L88.38135716740128 70.02471273324848 L92.98423148723968 65.79851208705799Z" fill="hsl(120.99635778168948, 49.6121572538608%, 46.00871350218905%)"></path><path d="M83.98991441170527 27.736697294307238 L82.8230723822776 45.256624277555154 L87.33159897067496 43.65888551851584Z" fill="hsl(207.39544389153545, 34.790750901823074%, 43.134796596789755%)"></path><path d="M83.98991441170527 27.736697294307238 L87.33159897067496 43.65888551851584 L88.8087509717564 29.355185049347053Z" fill="hsl(17.103240504810486, 67.43459239377434%, 49.464539246885536%)"></path><path d="M89.77489473848695 93.59021897677111 L83.80928635403602 94.29403183903447 L90.55725218337113 97.55671423368173Z" fill="hsl(290.27946238797074, 20.57233987993284%, 40.37780236606967%)"></path><path d="M85.88478463026156 85.99928581775013 L87.22967172032318 90.3216336868415 L90.66480816745882 86.3928396451352Z" fill="hsl(159.69761154592842, 42.97311702554353%, 44.72138290112475%)"></path><path d="M87.22967172032318 90.3216336868415 L83.80928635403602 94.29403183903447 L89.77489473848695 93.59021897677111Z" fill="hsl(144.53665687208192, 45.57391617775004%, 45.22568596613361%)"></path><path d="M71.23576426075184 36.824067663624895 L75.87488485109206 44.342424934825246 L82.8230723822776 45.256624277555154Z" fill="hsl(144.69278562184064, 45.54713293561635%, 45.22049261197267%)"></path><path d="M71.23576426075184 36.824067663624895 L82.8230723822776 45.256624277555154 L83.98991441170527 27.736697294307238Z" fill="hsl(108.56179111905868, 51.74525580404732%, 46.42232796215701%)"></path><path d="M84.85550435473792 68.15185705177872 L80.40222147315389 77.81194755384844 L88.38135716740128 70.02471273324848Z" fill="hsl(285.67152565630846, 21.362812393237164%, 40.53107745112436%)"></path><path d="M80.40222147315389 77.81194755384844 L84.84451637264601 79.24610355485227 L88.38135716740128 70.02471273324848Z" fill="hsl(276.6674157483263, 22.907430256612976%, 40.83058367101336%)"></path><path d="M76.54555904515992 56.5689810730216 L76.55505012032407 60.71855231990154 L78.67886349509816 63.63911848867957Z" fill="hsl(49.31599464072272, 61.90862747604785%, 48.393037419158226%)"></path><path d="M78.40074490321838 48.49805748616818 L76.54555904515992 56.5689810730216 L84.79979564632478 47.738635099186716Z" fill="hsl(228.72687660696752, 31.131431728647932%, 42.425243199207216%)"></path><path d="M80.09570691728234 7.076369193099974 L76.48328363933187 13.49026569818293 L82.16399154668967 18.551868788987896Z" fill="hsl(312.45167830719384, 16.768787820989523%, 39.64028176221276%)"></path><path d="M77.43536169681805 71.34605924833753 L80.40222147315389 77.81194755384844 L84.85550435473792 68.15185705177872Z" fill="hsl(233.27485276466845, 30.351245204140426%, 42.27396259945235%)"></path><path d="M85.88478463026156 85.99928581775013 L80.89512561433772 92.77213132519859 L87.22967172032318 90.3216336868415Z" fill="hsl(205.13393656961256, 35.178703141777476%, 43.21002174576755%)"></path><path d="M82.8230723822776 45.256624277555154 L84.79979564632478 47.738635099186716 L87.33159897067496 43.65888551851584Z" fill="hsl(247.32632669233462, 27.940772891247867%, 41.806564502033176%)"></path><path d="M84.84451637264601 79.24610355485227 L79.87913612582469 80.53479703841063 L85.88478463026156 85.99928581775013Z" fill="hsl(163.94466855828122, 42.24455193747857%, 44.580111858853805%)"></path><path d="M80.89512561433772 92.77213132519859 L83.80928635403602 94.29403183903447 L87.22967172032318 90.3216336868415Z" fill="hsl(25.057502042532008, 66.07007168193408%, 49.19995442622943%)"></path><path d="M69.92315647351464 88.85033455832885 L64.09660296616282 90.16048334244958 L80.89512561433772 92.77213132519859Z" fill="hsl(97.9066575693439, 53.573099953634404%, 46.77675264205328%)"></path><path d="M81.47325891508501 4.344532849631011 L80.09570691728234 7.076369193099974 L83.282852384145 3.766214911400667Z" fill="hsl(136.89870867582516, 46.88417464238945%, 45.47974916786561%)"></path><path d="M71.73006361888716 29.05500673004779 L71.23576426075184 36.824067663624895 L83.98991441170527 27.736697294307238Z" fill="hsl(211.57334709434815, 34.074048864145965%, 42.995825836978476%)"></path><path d="M79.87913612582469 80.53479703841063 L80.89512561433772 92.77213132519859 L85.88478463026156 85.99928581775013Z" fill="hsl(34.612080868786386, 64.43102314933213%, 48.88213780513888%)"></path><path d="M82.16399154668967 18.551868788987896 L72.99544606576414 23.01092100573974 L83.98991441170527 27.736697294307238Z" fill="hsl(152.5092940415414, 44.2062432021854%, 44.96048991171246%)"></path><path d="M80.40222147315389 77.81194755384844 L79.87913612582469 80.53479703841063 L84.84451637264601 79.24610355485227Z" fill="hsl(238.53305432118268, 29.44922244604168%, 42.099057574113885%)"></path><path d="M78.67886349509816 63.63911848867957 L77.43536169681805 71.34605924833753 L84.85550435473792 68.15185705177872Z" fill="hsl(2.041550241803801, 70.01836314631142%, 49.96554045210326%)"></path><path d="M82.8230723822776 45.256624277555154 L78.40074490321838 48.49805748616818 L84.79979564632478 47.738635099186716Z" fill="hsl(166.5604058400181, 41.79583301105953%, 44.493103859897545%)"></path><path d="M41.722399156419876 3.224373002978603 L63.970533618428234 6.626159963286627 L72.38912121165511 2.758584448319618Z" fill="hsl(313.0551882202219, 16.665258188198045%, 39.62020704360495%)"></path><path d="M76.48328363933187 13.49026569818293 L76.36619880325352 13.893410651100579 L82.16399154668967 18.551868788987896Z" fill="hsl(285.3279897110914, 21.42174456566918%, 40.54250458311181%)"></path><path d="M79.29206875808245 3.0211844429730683 L81.47325891508501 4.344532849631011 L83.282852384145 3.766214911400667Z" fill="hsl(32.41489740361684, 64.8079408973492%, 48.95522333172404%)"></path><path d="M72.99544606576414 23.01092100573974 L71.73006361888716 29.05500673004779 L83.98991441170527 27.736697294307238Z" fill="hsl(291.70642577779194, 20.327550204459506%, 40.330336884731366%)"></path><path d="M79.87913612582469 80.53479703841063 L69.92315647351464 88.85033455832885 L80.89512561433772 92.77213132519859Z" fill="hsl(101.47052160924507, 52.96173379807538%, 46.65820683822621%)"></path><path d="M76.09531144270363 65.280320996343 L77.43536169681805 71.34605924833753 L78.67886349509816 63.63911848867957Z" fill="hsl(5.979071192932061, 69.34289769101554%, 49.83456559419302%)"></path><path d="M77.43536169681805 71.34605924833753 L77.61127998969334 77.34657139900432 L80.40222147315389 77.81194755384844Z" fill="hsl(269.428022064376, 24.149318340889536%, 41.07138964281141%)"></path><path d="M75.87488485109206 44.342424934825246 L78.40074490321838 48.49805748616818 L82.8230723822776 45.256624277555154Z" fill="hsl(218.23502883150414, 32.931264878111584%, 42.77423645884013%)"></path><path d="M69.46083380971405 87.77460566899336 L69.92315647351464 88.85033455832885 L79.87913612582469 80.53479703841063Z" fill="hsl(114.48082163113682, 50.729870568165495%, 46.22544159890766%)"></path><path d="M76.36619880325352 13.893410651100579 L72.99544606576414 23.01092100573974 L82.16399154668967 18.551868788987896Z" fill="hsl(59.0636210859302, 60.23646242179474%, 48.068799401260875%)"></path><path d="M74.77608512401912 11.720662553966598 L76.48328363933187 13.49026569818293 L80.09570691728234 7.076369193099974Z" fill="hsl(84.70634715588173, 55.83755868138317%, 47.21583825003686%)"></path><path d="M79.29206875808245 3.0211844429730683 L80.09570691728234 7.076369193099974 L81.47325891508501 4.344532849631011Z" fill="hsl(116.81646285826518, 50.32920096298206%, 46.1477505131587%)"></path><path d="M72.79345383661466 52.23665038691136 L76.54555904515992 56.5689810730216 L78.40074490321838 48.49805748616818Z" fill="hsl(144.79057376277345, 45.53035778395176%, 45.2172398577593%)"></path><path d="M77.61127998969334 77.34657139900432 L79.87913612582469 80.53479703841063 L80.40222147315389 77.81194755384844Z" fill="hsl(132.92891950746062, 47.56517557706883%, 45.611797372488155%)"></path><path d="M77.61127998969334 77.34657139900432 L68.32014070621824 78.67323209645107 L79.87913612582469 80.53479703841063Z" fill="hsl(103.33471015366077, 52.64193995328319%, 46.59619781459097%)"></path><path d="M68.32014070621824 78.67323209645107 L69.46083380971405 87.77460566899336 L79.87913612582469 80.53479703841063Z" fill="hsl(100.61988408714917, 53.10765715144563%, 46.686501831439564%)"></path><path d="M79.29206875808245 3.0211844429730683 L72.38912121165511 2.758584448319618 L80.09570691728234 7.076369193099974Z" fill="hsl(135.90823663086294, 47.05408603057306%, 45.51269551582494%)"></path><path d="M72.38912121165511 2.758584448319618 L74.77608512401912 11.720662553966598 L80.09570691728234 7.076369193099974Z" fill="hsl(72.34477010426293, 57.95813616528306%, 47.62702483621066%)"></path><path d="M76.55505012032407 60.71855231990154 L76.47873078777785 63.53256425162016 L78.67886349509816 63.63911848867957Z" fill="hsl(41.293495969850355, 63.2848539862277%, 48.65989203061153%)"></path><path d="M76.47873078777785 63.53256425162016 L76.09531144270363 65.280320996343 L78.67886349509816 63.63911848867957Z" fill="hsl(145.4820168681723, 45.411743575215766%, 45.19424019284154%)"></path><path d="M75.87488485109206 44.342424934825246 L72.79345383661466 52.23665038691136 L78.40074490321838 48.49805748616818Z" fill="hsl(21.49407482764832, 66.68136290196566%, 49.31848569982408%)"></path><path d="M72.38912121165511 2.758584448319618 L68.77116506514093 9.377394393258342 L74.77608512401912 11.720662553966598Z" fill="hsl(247.34042126232995, 27.938355025982574%, 41.80609567041924%)"></path><path d="M76.09531144270363 65.280320996343 L75.18350172413373 64.65246564883896 L77.43536169681805 71.34605924833753Z" fill="hsl(242.21413334293132, 28.817748544501413%, 41.97661281564429%)"></path><path d="M77.43536169681805 71.34605924833753 L68.02168210395551 78.30351664620369 L77.61127998969334 77.34657139900432Z" fill="hsl(279.8703054501782, 22.35798775774731%, 40.72404505729956%)"></path><path d="M68.02168210395551 78.30351664620369 L68.32014070621824 78.67323209645107 L77.61127998969334 77.34657139900432Z" fill="hsl(53.439146788887996, 61.2013177556471%, 48.25588785895246%)"></path><path d="M75.18350172413373 64.65246564883896 L64.61000361747186 65.42423018915933 L77.43536169681805 71.34605924833753Z" fill="hsl(174.00673043049682, 40.51844678449296%, 44.24541468762483%)"></path><path d="M64.61000361747186 65.42423018915933 L68.02168210395551 78.30351664620369 L77.43536169681805 71.34605924833753Z" fill="hsl(83.26093592433988, 56.08551300790515%, 47.26391736708101%)"></path><path d="M68.77116506514093 9.377394393258342 L72.99544606576414 23.01092100573974 L74.77608512401912 11.720662553966598Z" fill="hsl(274.4643562523796, 23.285356013439%, 40.903864653649585%)"></path><path d="M74.77608512401912 11.720662553966598 L72.99544606576414 23.01092100573974 L76.36619880325352 13.893410651100579Z" fill="hsl(140.12945158439624, 46.329954040958356%, 45.37228406516607%)"></path><path d="M75.18350172413373 64.65246564883896 L76.09531144270363 65.280320996343 L76.47873078777785 63.53256425162016Z" fill="hsl(173.08199686455606, 40.67708100813222%, 44.276174358216345%)"></path><path d="M75.18350172413373 64.65246564883896 L76.47873078777785 63.53256425162016 L76.55505012032407 60.71855231990154Z" fill="hsl(63.771573318215985, 59.42883266247095%, 47.912197472706026%)"></path><path d="M68.33070837390316 59.0545401548892 L75.18350172413373 64.65246564883896 L76.55505012032407 60.71855231990154Z" fill="hsl(263.61853384263605, 25.145912049326604%, 41.264632270296495%)"></path><path d="M76.54555904515992 56.5689810730216 L68.33070837390316 59.0545401548892 L76.55505012032407 60.71855231990154Z" fill="hsl(35.11810633317421, 64.34421657104686%, 48.86530573894297%)"></path><path d="M72.79345383661466 52.23665038691136 L68.33070837390316 59.0545401548892 L76.54555904515992 56.5689810730216Z" fill="hsl(144.50473446936167, 45.5793923340817%, 45.22674780992119%)"></path><path d="M65.37265715936338 47.203260035277864 L72.79345383661466 52.23665038691136 L75.87488485109206 44.342424934825246Z" fill="hsl(281.28920035390837, 22.114582197736134%, 40.67684796026511%)"></path><path d="M74.77608512401912 11.720662553966598 L76.36619880325352 13.893410651100579 L76.48328363933187 13.49026569818293Z" fill="hsl(243.2230704586569, 28.644669549698044%, 41.94305225888466%)"></path><path d="M71.23576426075184 36.824067663624895 L65.37265715936338 47.203260035277864 L75.87488485109206 44.342424934825246Z" fill="hsl(175.94036917979386, 40.18673904391639%, 44.181095522449%)"></path><path d="M68.77116506514093 9.377394393258342 L59.18038510488339 15.028564435001263 L72.99544606576414 23.01092100573974Z" fill="hsl(111.08199188332894, 51.31292577258755%, 46.33849782103459%)"></path><path d="M68.33070837390316 59.0545401548892 L64.61000361747186 65.42423018915933 L75.18350172413373 64.65246564883896Z" fill="hsl(64.87424656716753, 59.23967362118833%, 47.87551894479585%)"></path><path d="M41.722399156419876 3.224373002978603 L49.860464205168626 8.261707089943988 L63.970533618428234 6.626159963286627Z" fill="hsl(262.28247413849766, 25.37510757299733%, 41.30907399697708%)"></path><path d="M65.58313839953297 37.20556207710226 L65.37265715936338 47.203260035277864 L71.23576426075184 36.824067663624895Z" fill="hsl(172.8280317423352, 40.720647675850145%, 44.28462207092947%)"></path><path d="M65.06189701569276 35.31939293710842 L71.23576426075184 36.824067663624895 L71.73006361888716 29.05500673004779Z" fill="hsl(137.95899766471015, 46.702286445853716%, 45.444480479422644%)"></path><path d="M65.37265715936338 47.203260035277864 L66.566217900128 52.57230720671717 L72.79345383661466 52.23665038691136Z" fill="hsl(101.07165053827107, 53.0301584827701%, 46.67147459793942%)"></path><path d="M66.566217900128 52.57230720671717 L68.33070837390316 59.0545401548892 L72.79345383661466 52.23665038691136Z" fill="hsl(235.40136111970352, 29.986451479344467%, 42.203227958772956%)"></path><path d="M59.18038510488339 15.028564435001263 L64.7241079315771 28.85175255108247 L72.99544606576414 23.01092100573974Z" fill="hsl(130.7968198598658, 47.93092846500867%, 45.682717997891864%)"></path><path d="M64.7241079315771 28.85175255108247 L71.73006361888716 29.05500673004779 L72.99544606576414 23.01092100573974Z" fill="hsl(153.4054827302875, 44.05250573432471%, 44.930679737334685%)"></path><path d="M64.61000361747186 65.42423018915933 L62.89800204627687 77.61572403374501 L68.02168210395551 78.30351664620369Z" fill="hsl(214.47660172234384, 33.57600752456223%, 42.89925406832033%)"></path><path d="M63.80963292109569 32.87173933922944 L65.06189701569276 35.31939293710842 L71.73006361888716 29.05500673004779Z" fill="hsl(305.0005949705481, 18.04699039080512%, 39.88812922598686%)"></path><path d="M63.970533618428234 6.626159963286627 L68.77116506514093 9.377394393258342 L72.38912121165511 2.758584448319618Z" fill="hsl(241.36897441575357, 28.96273206754271%, 42.00472557282643%)"></path><path d="M64.7241079315771 28.85175255108247 L63.80963292109569 32.87173933922944 L71.73006361888716 29.05500673004779Z" fill="hsl(99.39761116727867, 53.31733302226978%, 46.72715863657014%)"></path><path d="M68.32014070621824 78.67323209645107 L62.965318392435435 82.31454554162394 L69.46083380971405 87.77460566899336Z" fill="hsl(159.4873934527049, 43.0091790711334%, 44.72837544420753%)"></path><path d="M65.06189701569276 35.31939293710842 L65.58313839953297 37.20556207710226 L71.23576426075184 36.824067663624895Z" fill="hsl(21.354645890656304, 66.70528136019755%, 49.323123563453954%)"></path><path d="M60.87584265906011 66.22722550353343 L62.89800204627687 77.61572403374501 L64.61000361747186 65.42423018915933Z" fill="hsl(322.9315784758602, 14.971004234122482%, 39.29168591915795%)"></path><path d="M59.95605305999939 42.25473964665907 L65.37265715936338 47.203260035277864 L65.58313839953297 37.20556207710226Z" fill="hsl(51.69919494972027, 61.499799306811816%, 48.31376436240074%)"></path><path d="M69.46083380971405 87.77460566899336 L64.09660296616282 90.16048334244958 L69.92315647351464 88.85033455832885Z" fill="hsl(290.6321297194067, 20.51184125591203%, 40.3660714942349%)"></path><path d="M63.970533618428234 6.626159963286627 L59.18038510488339 15.028564435001263 L68.77116506514093 9.377394393258342Z" fill="hsl(194.40823102681162, 37.01865362528196%, 43.56679388155844%)"></path><path d="M62.965318392435435 82.31454554162394 L64.09660296616282 90.16048334244958 L69.46083380971405 87.77460566899336Z" fill="hsl(29.073122930890698, 65.38120850499692%, 49.06638170831832%)"></path><path d="M68.02168210395551 78.30351664620369 L62.965318392435435 82.31454554162394 L68.32014070621824 78.67323209645107Z" fill="hsl(11.511040734464299, 68.39391116588143%, 49.65055414799149%)"></path><path d="M66.566217900128 52.57230720671717 L60.345871439690626 57.44766656608594 L68.33070837390316 59.0545401548892Z" fill="hsl(161.85360119222494, 42.60326590700369%, 44.64966761602926%)"></path><path d="M62.89800204627687 77.61572403374501 L62.965318392435435 82.31454554162394 L68.02168210395551 78.30351664620369Z" fill="hsl(126.31389901285034, 48.69995501967804%, 45.83183464469788%)"></path><path d="M60.345871439690626 57.44766656608594 L64.61000361747186 65.42423018915933 L68.33070837390316 59.0545401548892Z" fill="hsl(122.23628860296282, 49.39945224298669%, 45.96746933735781%)"></path><path d="M59.18038510488339 15.028564435001263 L50.72871029213375 24.800907542011615 L64.7241079315771 28.85175255108247Z" fill="hsl(151.77583833098166, 44.332064499804304%, 44.98488705363662%)"></path><path d="M61.34662213879173 48.066328831495824 L57.442025809953904 54.21581324018491 L66.566217900128 52.57230720671717Z" fill="hsl(194.51280476113024, 37.0007144330998%, 43.5633154162592%)"></path><path d="M57.442025809953904 54.21581324018491 L60.345871439690626 57.44766656608594 L66.566217900128 52.57230720671717Z" fill="hsl(328.4795139701094, 14.019278815746915%, 39.10714339301691%)"></path><path d="M65.37265715936338 47.203260035277864 L61.34662213879173 48.066328831495824 L66.566217900128 52.57230720671717Z" fill="hsl(234.3412506436492, 30.168309052741442%, 42.238490709293835%)"></path><path d="M57.75260926461979 66.54037034253612 L54.82378006987597 75.50834084797482 L60.87584265906011 66.22722550353343Z" fill="hsl(315.10455816431073, 16.313697239180875%, 39.55203827940939%)"></path><path d="M60.87584265906011 66.22722550353343 L54.82378006987597 75.50834084797482 L62.89800204627687 77.61572403374501Z" fill="hsl(173.04667991707902, 40.68313948459579%, 44.277349115693205%)"></path><path d="M60.345871439690626 57.44766656608594 L60.87584265906011 66.22722550353343 L64.61000361747186 65.42423018915933Z" fill="hsl(237.95839886278569, 29.547802216324087%, 42.11817249894732%)"></path><path d="M59.95605305999939 42.25473964665907 L61.34662213879173 48.066328831495824 L65.37265715936338 47.203260035277864Z" fill="hsl(160.74580933082063, 42.79330302511023%, 44.68651640577347%)"></path><path d="M65.06189701569276 35.31939293710842 L59.95605305999939 42.25473964665907 L65.58313839953297 37.20556207710226Z" fill="hsl(83.297862933046, 56.07917833208806%, 47.2626890536883%)"></path><path d="M63.80963292109569 32.87173933922944 L59.95605305999939 42.25473964665907 L65.06189701569276 35.31939293710842Z" fill="hsl(165.10817316896092, 42.0449575273545%, 44.54140988038737%)"></path><path d="M50.72871029213375 24.800907542011615 L63.80963292109569 32.87173933922944 L64.7241079315771 28.85175255108247Z" fill="hsl(134.877409950018, 47.23092008985813%, 45.546984191296%)"></path><path d="M62.965318392435435 82.31454554162394 L48.49498560609867 84.84363850122074 L64.09660296616282 90.16048334244958Z" fill="hsl(118.3562951038375, 50.06504910150772%, 46.096530643582724%)"></path><path d="M49.223935273589916 36.2035803024395 L59.95605305999939 42.25473964665907 L63.80963292109569 32.87173933922944Z" fill="hsl(63.71034926195555, 59.4393353964374%, 47.914233985570064%)"></path><path d="M49.860464205168626 8.261707089943988 L59.18038510488339 15.028564435001263 L63.970533618428234 6.626159963286627Z" fill="hsl(128.65606767900118, 48.29816565929178%, 45.753926434923656%)"></path><path d="M48.49498560609867 84.84363850122074 L45.35447269436052 90.21398294851444 L64.09660296616282 90.16048334244958Z" fill="hsl(218.60668530297727, 32.86750874555175%, 42.761873945942604%)"></path><path d="M50.72871029213375 24.800907542011615 L49.223935273589916 36.2035803024395 L63.80963292109569 32.87173933922944Z" fill="hsl(62.28557765094789, 59.68374908130837%, 47.96162656115821%)"></path><path d="M58.49099990496273 57.03706248778192 L57.75260926461979 66.54037034253612 L60.345871439690626 57.44766656608594Z" fill="hsl(106.32529995750123, 52.1289166250199%, 46.496720991613415%)"></path><path d="M60.345871439690626 57.44766656608594 L57.75260926461979 66.54037034253612 L60.87584265906011 66.22722550353343Z" fill="hsl(65.46213745213475, 59.13882336814653%, 47.85596376627591%)"></path><path d="M56.64021621096398 49.8539655247408 L57.442025809953904 54.21581324018491 L61.34662213879173 48.066328831495824Z" fill="hsl(242.29101898947954, 28.804559129411054%, 41.97405534693314%)"></path><path d="M54.82378006987597 75.50834084797482 L52.634412650244855 76.35596281320865 L62.965318392435435 82.31454554162394Z" fill="hsl(286.3793226219531, 21.241392747325385%, 40.507533803190746%)"></path><path d="M52.634412650244855 76.35596281320865 L48.49498560609867 84.84363850122074 L62.965318392435435 82.31454554162394Z" fill="hsl(202.97715637612148, 35.54868987542321%, 43.281763327054925%)"></path><path d="M62.89800204627687 77.61572403374501 L54.82378006987597 75.50834084797482 L62.965318392435435 82.31454554162394Z" fill="hsl(104.86469393869753, 52.3794775545348%, 46.54530553710538%)"></path><path d="M54.44086752221069 65.62328116611079 L57.75260926461979 66.54037034253612 L58.49099990496273 57.03706248778192Z" fill="hsl(295.6953844892358, 19.643260813844385%, 40.19765103824935%)"></path><path d="M49.223935273589916 36.2035803024395 L50.707721424262076 40.91555731938628 L59.95605305999939 42.25473964665907Z" fill="hsl(184.7469262990059, 38.67601054546532%, 43.888160556087314%)"></path><path d="M57.442025809953904 54.21581324018491 L58.49099990496273 57.03706248778192 L60.345871439690626 57.44766656608594Z" fill="hsl(210.44687790324923, 34.26729000101519%, 43.033295895951035%)"></path><path d="M59.95605305999939 42.25473964665907 L56.64021621096398 49.8539655247408 L61.34662213879173 48.066328831495824Z" fill="hsl(236.41635934487343, 29.812332726251242%, 42.16946578963893%)"></path><path d="M50.71467154935967 59.85010077450823 L54.44086752221069 65.62328116611079 L58.49099990496273 57.03706248778192Z" fill="hsl(253.94815519329748, 26.80482556326924%, 41.58630077320881%)"></path><path d="M50.707721424262076 40.91555731938628 L56.64021621096398 49.8539655247408 L59.95605305999939 42.25473964665907Z" fill="hsl(247.3794600582121, 27.931658081798147%, 41.804797112060534%)"></path><path d="M54.44086752221069 65.62328116611079 L54.82378006987597 75.50834084797482 L57.75260926461979 66.54037034253612Z" fill="hsl(165.43529498327194, 41.988841131281106%, 44.53052873621557%)"></path><path d="M44.93140916525336 12.326911412395791 L50.72871029213375 24.800907542011615 L59.18038510488339 15.028564435001263Z" fill="hsl(251.28893606955845, 27.26100362008267%, 41.67475512080641%)"></path><path d="M49.860464205168626 8.261707089943988 L44.93140916525336 12.326911412395791 L59.18038510488339 15.028564435001263Z" fill="hsl(111.62919606051018, 51.2190551562106%, 46.320296015826756%)"></path><path d="M57.442025809953904 54.21581324018491 L50.71467154935967 59.85010077450823 L58.49099990496273 57.03706248778192Z" fill="hsl(245.48103288205672, 28.257325422443124%, 41.86794502485542%)"></path><path d="M50.707721424262076 40.91555731938628 L46.911041768086825 44.12812499979051 L56.64021621096398 49.8539655247408Z" fill="hsl(21.700536842091566, 66.64594519617611%, 49.311618096237666%)"></path><path d="M54.44086752221069 65.62328116611079 L52.634412650244855 76.35596281320865 L54.82378006987597 75.50834084797482Z" fill="hsl(192.2806412331711, 37.383632866403815%, 43.63756449443187%)"></path><path d="M56.64021621096398 49.8539655247408 L46.01246949917216 56.987179478823435 L57.442025809953904 54.21581324018491Z" fill="hsl(131.53239132284492, 47.804744218801304%, 45.658250479104716%)"></path><path d="M46.01246949917216 56.987179478823435 L50.71467154935967 59.85010077450823 L57.442025809953904 54.21581324018491Z" fill="hsl(221.20426295807232, 32.421905028075045%, 42.67546999571361%)"></path><path d="M44.42158871988739 72.37866015312544 L52.634412650244855 76.35596281320865 L54.44086752221069 65.62328116611079Z" fill="hsl(37.7488797193149, 63.89291826302374%, 48.777797589851076%)"></path><path d="M46.911041768086825 44.12812499979051 L46.01246949917216 56.987179478823435 L56.64021621096398 49.8539655247408Z" fill="hsl(34.990520220963326, 64.36610344160415%, 48.86954967138817%)"></path><path d="M43.57597398589255 54.96841606232118 L46.01246949917216 56.987179478823435 L46.911041768086825 44.12812499979051Z" fill="hsl(37.11225966342612, 64.00212780406204%, 48.798973660378124%)"></path><path d="M50.71467154935967 59.85010077450823 L44.6819981033093 61.780245984348014 L54.44086752221069 65.62328116611079Z" fill="hsl(256.2620299018778, 26.407889914436453%, 41.509333713238874%)"></path><path d="M44.6819981033093 61.780245984348014 L44.42158871988739 72.37866015312544 L54.44086752221069 65.62328116611079Z" fill="hsl(248.09788717240596, 27.80841487781042%, 41.780899870530064%)"></path><path d="M42.11317449780317 64.4823032999604 L44.42158871988739 72.37866015312544 L44.6819981033093 61.780245984348014Z" fill="hsl(286.40912404788577, 21.23628043580098%, 40.506542510045776%)"></path><path d="M41.41399522121091 48.27565881790381 L43.57597398589255 54.96841606232118 L46.911041768086825 44.12812499979051Z" fill="hsl(318.2951295701097, 15.766367893122556%, 39.44590941261384%)"></path><path d="M44.93140916525336 12.326911412395791 L38.9086647137146 20.740451124509203 L50.72871029213375 24.800907542011615Z" fill="hsl(145.974345731029, 45.32728659234956%, 45.177863720523526%)"></path><path d="M48.45736321126099 36.36599745528859 L49.223935273589916 36.2035803024395 L50.72871029213375 24.800907542011615Z" fill="hsl(210.96782913555484, 34.17792296889427%, 43.0159673497728%)"></path><path d="M39.176543932467204 30.885629234945032 L48.45736321126099 36.36599745528859 L50.72871029213375 24.800907542011615Z" fill="hsl(222.36514101068738, 32.22276119313801%, 42.636855385180866%)"></path><path d="M44.42158871988739 72.37866015312544 L48.49498560609867 84.84363850122074 L52.634412650244855 76.35596281320865Z" fill="hsl(232.765751542148, 30.438579416028986%, 42.290896975449115%)"></path><path d="M49.223935273589916 36.2035803024395 L48.45736321126099 36.36599745528859 L50.707721424262076 40.91555731938628Z" fill="hsl(199.34568923922464, 36.17165306303828%, 43.40255783155768%)"></path><path d="M48.45736321126099 36.36599745528859 L46.911041768086825 44.12812499979051 L50.707721424262076 40.91555731938628Z" fill="hsl(6.395195011851174, 69.27151336867306%, 49.82072395151164%)"></path><path d="M38.9086647137146 20.740451124509203 L39.176543932467204 30.885629234945032 L50.72871029213375 24.800907542011615Z" fill="hsl(218.2200250979953, 32.93383870662233%, 42.77473553221367%)"></path><path d="M46.01246949917216 56.987179478823435 L44.6819981033093 61.780245984348014 L50.71467154935967 59.85010077450823Z" fill="hsl(89.74653331052599, 54.97293556496593%, 47.04818513183402%)"></path><path d="M44.42158871988739 72.37866015312544 L34.93651003991139 79.20264057220291 L48.49498560609867 84.84363850122074Z" fill="hsl(82.89753360232118, 56.147853175219716%, 47.27600531990244%)"></path><path d="M41.722399156419876 3.224373002978603 L44.93140916525336 12.326911412395791 L49.860464205168626 8.261707089943988Z" fill="hsl(288.0355273157408, 20.957277673034312%, 40.45244300440352%)"></path><path d="M39.176543932467204 30.885629234945032 L46.911041768086825 44.12812499979051 L48.45736321126099 36.36599745528859Z" fill="hsl(235.9270112934699, 29.89627836322486%, 42.18574311039397%)"></path><path d="M38.73286840247824 90.60613169456381 L45.35447269436052 90.21398294851444 L48.49498560609867 84.84363850122074Z" fill="hsl(8.564031284158194, 68.8994584645039%, 49.748581345511134%)"></path><path d="M34.93651003991139 79.20264057220291 L38.73286840247824 90.60613169456381 L48.49498560609867 84.84363850122074Z" fill="hsl(131.46749884533833, 47.815876255280166%, 45.6604090156881%)"></path><path d="M38.97057185975987 13.235967320744447 L38.9086647137146 20.740451124509203 L44.93140916525336 12.326911412395791Z" fill="hsl(3.4659844212188196, 69.77400734643639%, 49.91815910059632%)"></path><path d="M42.64386893347575 58.73997188318141 L44.6819981033093 61.780245984348014 L46.01246949917216 56.987179478823435Z" fill="hsl(254.63514877737518, 26.68697465153722%, 41.56344911396011%)"></path><path d="M34.92791195378779 46.109872866511154 L41.41399522121091 48.27565881790381 L46.911041768086825 44.12812499979051Z" fill="hsl(164.65875774462882, 42.12205288709512%, 44.5563589110275%)"></path><path d="M39.176543932467204 30.885629234945032 L34.92791195378779 46.109872866511154 L46.911041768086825 44.12812499979051Z" fill="hsl(227.02538356038613, 31.423315832797904%, 42.48184043710823%)"></path><path d="M41.722399156419876 3.224373002978603 L38.97057185975987 13.235967320744447 L44.93140916525336 12.326911412395791Z" fill="hsl(218.40455536181648, 32.90218330206324%, 42.76859745056684%)"></path><path d="M43.57597398589255 54.96841606232118 L42.64386893347575 58.73997188318141 L46.01246949917216 56.987179478823435Z" fill="hsl(19.407558493894296, 67.03929616069729%, 49.387890074742394%)"></path><path d="M42.11317449780317 64.4823032999604 L32.63957572048325 66.5615662535049 L44.42158871988739 72.37866015312544Z" fill="hsl(129.93927498156876, 48.07803674680449%, 45.71124275242159%)"></path><path d="M42.64386893347575 58.73997188318141 L42.11317449780317 64.4823032999604 L44.6819981033093 61.780245984348014Z" fill="hsl(264.2804339104608, 25.0323658266594%, 41.24261530367965%)"></path><path d="M41.41399522121091 48.27565881790381 L39.89528419574292 56.46706754226791 L43.57597398589255 54.96841606232118Z" fill="hsl(87.08132578921968, 55.43014090664704%, 47.13683867317057%)"></path><path d="M32.63957572048325 66.5615662535049 L34.93651003991139 79.20264057220291 L44.42158871988739 72.37866015312544Z" fill="hsl(207.04458517461003, 34.85093926549506%, 43.14646730817549%)"></path><path d="M39.89528419574292 56.46706754226791 L42.64386893347575 58.73997188318141 L43.57597398589255 54.96841606232118Z" fill="hsl(279.2018068438747, 22.472665932435383%, 40.74628151294273%)"></path><path d="M32.63957572048325 66.5615662535049 L31.725070644681786 77.7622391365516 L34.93651003991139 79.20264057220291Z" fill="hsl(291.0026952571027, 20.448272268535582%, 40.353745269371956%)"></path><path d="M26.87313303221982 39.82480201806037 L34.92791195378779 46.109872866511154 L39.176543932467204 30.885629234945032Z" fill="hsl(122.33007557611374, 49.38336347512831%, 45.96434967510465%)"></path><path d="M30.924598835511315 11.6267200288729 L38.97057185975987 13.235967320744447 L41.722399156419876 3.224373002978603Z" fill="hsl(170.4564555791757, 41.12748177088102%, 44.36350847048097%)"></path><path d="M34.85676244237798 59.09502076985538 L42.11317449780317 64.4823032999604 L42.64386893347575 58.73997188318141Z" fill="hsl(146.6729287883624, 45.207447554350665%, 45.15462655739261%)"></path><path d="M39.89528419574292 56.46706754226791 L34.85676244237798 59.09502076985538 L42.64386893347575 58.73997188318141Z" fill="hsl(267.5714752525081, 24.46780127802721%, 41.13314447736497%)"></path><path d="M34.92791195378779 46.109872866511154 L39.89528419574292 56.46706754226791 L41.41399522121091 48.27565881790381Z" fill="hsl(66.85362108098764, 58.90012009911871%, 47.809678458125056%)"></path><path d="M20.184599065266045 1.858757700618291 L27.873463572102743 9.95984733221581 L41.722399156419876 3.224373002978603Z" fill="hsl(197.28133696679612, 36.525784168597845%, 43.47122495712067%)"></path><path d="M34.85676244237798 59.09502076985538 L32.63957572048325 66.5615662535049 L42.11317449780317 64.4823032999604Z" fill="hsl(95.25080433365898, 54.02870060625491%, 46.865095029177496%)"></path><path d="M27.873463572102743 9.95984733221581 L30.924598835511315 11.6267200288729 L41.722399156419876 3.224373002978603Z" fill="hsl(130.5119570405093, 47.97979550504775%, 45.69219346932483%)"></path><path d="M34.93651003991139 79.20264057220291 L29.73627790842506 82.72261848639872 L38.73286840247824 90.60613169456381Z" fill="hsl(217.50092621129866, 33.057197150408165%, 42.79865511910031%)"></path><path d="M25.1661720381314 89.23466680439354 L22.713172957894344 94.66717433583494 L38.73286840247824 90.60613169456381Z" fill="hsl(57.24707208438251, 60.54808389978233%, 48.12922377749093%)"></path><path d="M29.73627790842506 82.72261848639872 L28.637556801146058 85.92896765547488 L38.73286840247824 90.60613169456381Z" fill="hsl(135.95012558894294, 47.04690015283613%, 45.51130215172589%)"></path><path d="M30.924598835511315 11.6267200288729 L38.9086647137146 20.740451124509203 L38.97057185975987 13.235967320744447Z" fill="hsl(138.37057715825784, 46.63168168375843%, 45.43078999590389%)"></path><path d="M38.9086647137146 20.740451124509203 L24.97631174321478 22.946596611073648 L39.176543932467204 30.885629234945032Z" fill="hsl(6.0971388198983085, 69.32264367728601%, 49.83063827777804%)"></path><path d="M34.92791195378779 46.109872866511154 L34.85676244237798 59.09502076985538 L39.89528419574292 56.46706754226791Z" fill="hsl(222.04573493472824, 32.27755398616688%, 42.647479878595284%)"></path><path d="M31.498188458312427 61.72625497121004 L32.63957572048325 66.5615662535049 L34.85676244237798 59.09502076985538Z" fill="hsl(225.25302241791636, 31.72735706607795%, 42.54079498025399%)"></path><path d="M31.737737903656587 59.413615332956006 L34.85676244237798 59.09502076985538 L34.92791195378779 46.109872866511154Z" fill="hsl(143.16743431455689, 45.80880065194059%, 45.27123079805837%)"></path><path d="M31.725070644681786 77.7622391365516 L32.51322955357553 78.458307753696 L34.93651003991139 79.20264057220291Z" fill="hsl(156.89581930161853, 43.453752912294796%, 44.81457969820778%)"></path><path d="M23.294686305407687 33.06268483050784 L26.87313303221982 39.82480201806037 L39.176543932467204 30.885629234945032Z" fill="hsl(171.21005303862628, 40.998205239435066%, 44.3384413479442%)"></path><path d="M24.97631174321478 22.946596611073648 L23.294686305407687 33.06268483050784 L39.176543932467204 30.885629234945032Z" fill="hsl(246.5621448051431, 28.071865137553957%, 41.83198369734281%)"></path><path d="M28.637556801146058 85.92896765547488 L25.1661720381314 89.23466680439354 L38.73286840247824 90.60613169456381Z" fill="hsl(157.7071138528826, 43.31457868306521%, 44.78759338120934%)"></path><path d="M30.924598835511315 11.6267200288729 L24.97631174321478 22.946596611073648 L38.9086647137146 20.740451124509203Z" fill="hsl(27.55306524088949, 65.64196812314155%, 49.1169438113355%)"></path><path d="M28.88762902521147 45.864898153469454 L23.31917849638172 55.271270285195286 L31.737737903656587 59.413615332956006Z" fill="hsl(243.62798957898306, 28.575207347118337%, 41.92958332121853%)"></path><path d="M30.239306557345103 79.51518115242031 L29.73627790842506 82.72261848639872 L32.51322955357553 78.458307753696Z" fill="hsl(46.89745709355563, 62.323517602531936%, 48.47348590832754%)"></path><path d="M24.531945870606002 66.92782983849196 L31.725070644681786 77.7622391365516 L32.63957572048325 66.5615662535049Z" fill="hsl(293.40658779604036, 20.03589443272226%, 40.27378392119713%)"></path><path d="M31.737737903656587 59.413615332956006 L31.498188458312427 61.72625497121004 L34.85676244237798 59.09502076985538Z" fill="hsl(269.16910553947434, 24.19373440128566%, 41.08000205541328%)"></path><path d="M26.87313303221982 39.82480201806037 L28.88762902521147 45.864898153469454 L34.92791195378779 46.109872866511154Z" fill="hsl(245.54271263392906, 28.246744515776705%, 41.865893354061114%)"></path><path d="M28.88762902521147 45.864898153469454 L31.737737903656587 59.413615332956006 L34.92791195378779 46.109872866511154Z" fill="hsl(66.09534236385987, 59.030199680983316%, 47.83490129464195%)"></path><path d="M32.51322955357553 78.458307753696 L29.73627790842506 82.72261848639872 L34.93651003991139 79.20264057220291Z" fill="hsl(269.6715597765024, 24.107540452303056%, 41.06328877994936%)"></path><path d="M21.787349619289976 30.189846141556952 L23.294686305407687 33.06268483050784 L24.97631174321478 22.946596611073648Z" fill="hsl(57.36425659308594, 60.52798138134308%, 48.1253258364851%)"></path><path d="M26.492814591218362 11.425223936615335 L24.97631174321478 22.946596611073648 L30.924598835511315 11.6267200288729Z" fill="hsl(8.820901677523318, 68.85539340952135%, 49.74003699395341%)"></path><path d="M24.531945870606002 66.92782983849196 L30.239306557345103 79.51518115242031 L31.725070644681786 77.7622391365516Z" fill="hsl(4.498131027225387, 69.59694685944177%, 49.883826520086366%)"></path><path d="M31.498188458312427 61.72625497121004 L24.531945870606002 66.92782983849196 L32.63957572048325 66.5615662535049Z" fill="hsl(37.653777446459564, 63.909232665113585%, 48.780961003285256%)"></path><path d="M31.725070644681786 77.7622391365516 L30.239306557345103 79.51518115242031 L32.51322955357553 78.458307753696Z" fill="hsl(147.249735699064, 45.10849871131195%, 45.13544006820095%)"></path><path d="M23.079332541703106 64.58005385926451 L24.531945870606002 66.92782983849196 L31.498188458312427 61.72625497121004Z" fill="hsl(168.9168891190428, 41.39158803796106%, 44.41471949916172%)"></path><path d="M23.079332541703106 64.58005385926451 L31.498188458312427 61.72625497121004 L31.737737903656587 59.413615332956006Z" fill="hsl(87.95370305219465, 55.28048819052465%, 47.10782054489127%)"></path><path d="M23.31917849638172 55.271270285195286 L23.079332541703106 64.58005385926451 L31.737737903656587 59.413615332956006Z" fill="hsl(19.42273923134521, 67.03669196789139%, 49.38738511363736%)"></path><path d="M22.478474241628877 46.36424706128026 L23.31917849638172 55.271270285195286 L28.88762902521147 45.864898153469454Z" fill="hsl(159.35212879922202, 43.032383163729804%, 44.732874790113264%)"></path><path d="M24.531945870606002 66.92782983849196 L17.71415776187081 82.03507403082683 L30.239306557345103 79.51518115242031Z" fill="hsl(18.35102344773223, 67.22054038386452%, 49.42303389474127%)"></path><path d="M27.873463572102743 9.95984733221581 L26.492814591218362 11.425223936615335 L30.924598835511315 11.6267200288729Z" fill="hsl(300.1826315316313, 18.87349211822685%, 40.048390487999455%)"></path><path d="M28.049160277001178 82.66191840527858 L28.637556801146058 85.92896765547488 L29.73627790842506 82.72261848639872Z" fill="hsl(23.104799682434635, 66.40504970620148%, 49.26490770960979%)"></path><path d="M17.71415776187081 82.03507403082683 L28.049160277001178 82.66191840527858 L30.239306557345103 79.51518115242031Z" fill="hsl(29.962492043036697, 65.22864090733383%, 49.03679837541955%)"></path><path d="M28.049160277001178 82.66191840527858 L29.73627790842506 82.72261848639872 L30.239306557345103 79.51518115242031Z" fill="hsl(126.79211267797994, 48.6179194406793%, 45.8159276901398%)"></path><path d="M18.216299420059233 20.116088102091645 L24.97631174321478 22.946596611073648 L26.492814591218362 11.425223936615335Z" fill="hsl(252.0622627227231, 27.128342626946207%, 41.64903174059495%)"></path><path d="M26.87313303221982 39.82480201806037 L22.478474241628877 46.36424706128026 L28.88762902521147 45.864898153469454Z" fill="hsl(166.30544322024153, 41.83957079536299%, 44.50158475265015%)"></path><path d="M20.184599065266045 1.858757700618291 L26.492814591218362 11.425223936615335 L27.873463572102743 9.95984733221581Z" fill="hsl(266.28130483382927, 24.689124684322344%, 41.17605977594086%)"></path><path d="M28.049160277001178 82.66191840527858 L25.1661720381314 89.23466680439354 L28.637556801146058 85.92896765547488Z" fill="hsl(6.032181028965692, 69.33378691801335%, 49.832798986900144%)"></path><path d="M17.71415776187081 82.03507403082683 L25.1661720381314 89.23466680439354 L28.049160277001178 82.66191840527858Z" fill="hsl(258.17700968685847, 26.07938304211779%, 41.445635206398684%)"></path><path d="M17.71415776187081 82.03507403082683 L17.672369724558042 86.91373372522584 L25.1661720381314 89.23466680439354Z" fill="hsl(20.842388701273453, 66.79315696516566%, 49.34016291725693%)"></path><path d="M11.691088559527508 77.7405064083362 L17.71415776187081 82.03507403082683 L24.531945870606002 66.92782983849196Z" fill="hsl(111.68301764936022, 51.20982228495263%, 46.31850573330137%)"></path><path d="M14.436327628835816 14.66227795659587 L18.216299420059233 20.116088102091645 L26.492814591218362 11.425223936615335Z" fill="hsl(162.83124461168407, 42.4355552165367%, 44.61714799021905%)"></path><path d="M20.184599065266045 1.858757700618291 L13.942530738173753 9.6797813290177 L26.492814591218362 11.425223936615335Z" fill="hsl(267.51231633668635, 24.477949745681435%, 41.135112296886454%)"></path><path d="M23.294686305407687 33.06268483050784 L19.840969906933196 39.00848701698719 L26.87313303221982 39.82480201806037Z" fill="hsl(43.652206797039845, 62.88022688644241%, 48.58143357431965%)"></path><path d="M19.840969906933196 39.00848701698719 L22.478474241628877 46.36424706128026 L26.87313303221982 39.82480201806037Z" fill="hsl(14.89022019907954, 67.81422688637589%, 49.53815155871654%)"></path><path d="M13.942530738173753 9.6797813290177 L14.436327628835816 14.66227795659587 L26.492814591218362 11.425223936615335Z" fill="hsl(304.7505361503601, 18.08988694854422%, 39.896447002285655%)"></path><path d="M12.593854041537528 60.764498263461405 L23.079332541703106 64.58005385926451 L23.31917849638172 55.271270285195286Z" fill="hsl(322.014313332418, 15.12835728073032%, 39.322197165528316%)"></path><path d="M13.474362069206647 63.86080700099549 L11.691088559527508 77.7405064083362 L24.531945870606002 66.92782983849196Z" fill="hsl(144.40599100175984, 45.59633136809041%, 45.23003234143207%)"></path><path d="M18.216299420059233 20.116088102091645 L21.787349619289976 30.189846141556952 L24.97631174321478 22.946596611073648Z" fill="hsl(294.6007120749859, 19.83104734498125%, 40.23406343216271%)"></path><path d="M17.672369724558042 86.91373372522584 L22.713172957894344 94.66717433583494 L25.1661720381314 89.23466680439354Z" fill="hsl(213.9334092327825, 33.669189952498186%, 42.917322431643655%)"></path><path d="M23.079332541703106 64.58005385926451 L13.474362069206647 63.86080700099549 L24.531945870606002 66.92782983849196Z" fill="hsl(150.3384373321805, 44.57864470398576%, 45.03269972407436%)"></path><path d="M11.691088559527508 77.7405064083362 L15.729043922984193 81.70321890403726 L17.71415776187081 82.03507403082683Z" fill="hsl(1.8671057425625337, 70.04828837961591%, 49.97134304814908%)"></path><path d="M12.593854041537528 60.764498263461405 L13.474362069206647 63.86080700099549 L23.079332541703106 64.58005385926451Z" fill="hsl(318.20505147637306, 15.78182041803688%, 39.44890570537632%)"></path><path d="M21.787349619289976 30.189846141556952 L18.639219379476778 32.224959473615066 L23.294686305407687 33.06268483050784Z" fill="hsl(267.2606363042618, 24.52112441568333%, 41.14348400002018%)"></path><path d="M18.639219379476778 32.224959473615066 L19.840969906933196 39.00848701698719 L23.294686305407687 33.06268483050784Z" fill="hsl(121.63988036935227, 49.50176361200748%, 45.98730783082189%)"></path><path d="M22.478474241628877 46.36424706128026 L11.631769534037383 46.64936732257076 L23.31917849638172 55.271270285195286Z" fill="hsl(285.83892752702286, 21.334095293766985%, 40.52550911599603%)"></path><path d="M11.631769534037383 46.64936732257076 L12.593854041537528 60.764498263461405 L23.31917849638172 55.271270285195286Z" fill="hsl(252.2481265050841, 27.0964584627897%, 41.6428493017489%)"></path><path d="M18.216299420059233 20.116088102091645 L13.563106633550642 20.878560482555503 L18.639219379476778 32.224959473615066Z" fill="hsl(112.5283959027266, 51.0648011374096%, 46.29038568061103%)"></path><path d="M18.216299420059233 20.116088102091645 L18.639219379476778 32.224959473615066 L21.787349619289976 30.189846141556952Z" fill="hsl(214.5573700678505, 33.56215204850298%, 42.89656744831051%)"></path><path d="M19.840969906933196 39.00848701698719 L11.631769534037383 46.64936732257076 L22.478474241628877 46.36424706128026Z" fill="hsl(313.21516379657686, 16.63781503885103%, 39.614885731377726%)"></path><path d="M17.672369724558042 86.91373372522584 L10.641102341246167 96.82693704788585 L22.713172957894344 94.66717433583494Z" fill="hsl(271.3627026631513, 23.817431875338315%, 41.007035822305724%)"></path><path d="M12.574155236931562 39.674026214446314 L11.631769534037383 46.64936732257076 L19.840969906933196 39.00848701698719Z" fill="hsl(112.54028709013205, 51.06276125332656%, 46.289990140726886%)"></path><path d="M13.563106633550642 20.878560482555503 L7.904788075658748 25.99187571392315 L18.639219379476778 32.224959473615066Z" fill="hsl(112.3980056725119, 51.08716904282808%, 46.2947228872157%)"></path><path d="M18.639219379476778 32.224959473615066 L12.574155236931562 39.674026214446314 L19.840969906933196 39.00848701698719Z" fill="hsl(201.09475571992303, 35.87160793276687%, 43.34437814524531%)"></path><path d="M8.348749976761699 7.1799356932711556 L13.942530738173753 9.6797813290177 L20.184599065266045 1.858757700618291Z" fill="hsl(152.93094389858229, 44.133910910828334%, 44.94646445488334%)"></path><path d="M16.090239338544187 82.51872978649251 L17.672369724558042 86.91373372522584 L17.71415776187081 82.03507403082683Z" fill="hsl(302.29756227290653, 18.51068448525023%, 39.97804095671654%)"></path><path d="M16.090239338544187 82.51872978649251 L14.50004862442773 83.22577724402079 L17.672369724558042 86.91373372522584Z" fill="hsl(323.6988903120422, 14.839375057995298%, 39.26616261148184%)"></path><path d="M14.436327628835816 14.66227795659587 L13.563106633550642 20.878560482555503 L18.216299420059233 20.116088102091645Z" fill="hsl(1.1520564862980498, 70.17095212602804%, 49.99512793104888%)"></path><path d="M7.904788075658748 25.99187571392315 L12.574155236931562 39.674026214446314 L18.639219379476778 32.224959473615066Z" fill="hsl(235.3289832194883, 29.998867609170574%, 42.20563548506023%)"></path><path d="M5.824198535019775 85.77058806408961 L10.641102341246167 96.82693704788585 L17.672369724558042 86.91373372522584Z" fill="hsl(38.97589680433845, 63.68242855026329%, 48.73698297823146%)"></path><path d="M7.904788075658748 25.99187571392315 L4.3636215397237885 35.680452277113076 L12.574155236931562 39.674026214446314Z" fill="hsl(308.73022797790253, 17.40718725358567%, 39.76406940274818%)"></path><path d="M14.50004862442773 83.22577724402079 L5.824198535019775 85.77058806408961 L17.672369724558042 86.91373372522584Z" fill="hsl(69.34879967298158, 58.47208251795924%, 47.7266806364999%)"></path><path d="M15.729043922984193 81.70321890403726 L16.090239338544187 82.51872978649251 L17.71415776187081 82.03507403082683Z" fill="hsl(151.67428706517921, 44.349485199996764%, 44.988264981722374%)"></path><path d="M11.631769534037383 46.64936732257076 L4.669451492020793 58.24543744360615 L12.593854041537528 60.764498263461405Z" fill="hsl(59.60114722121258, 60.14425203353055%, 48.05091951946076%)"></path><path d="M11.459931130206147 20.79119226065383 L7.904788075658748 25.99187571392315 L13.563106633550642 20.878560482555503Z" fill="hsl(100.04175693497407, 53.20683247645589%, 46.70573223619169%)"></path><path d="M11.247026154241302 18.04818096371381 L13.563106633550642 20.878560482555503 L14.436327628835816 14.66227795659587Z" fill="hsl(90.63006562116819, 54.82136924649198%, 47.01879595009206%)"></path><path d="M15.729043922984193 81.70321890403726 L14.50004862442773 83.22577724402079 L16.090239338544187 82.51872978649251Z" fill="hsl(113.4375403676327, 50.90884115966229%, 46.26014455463636%)"></path><path d="M1.5649041229673477 62.534492742483216 L11.691088559527508 77.7405064083362 L13.474362069206647 63.86080700099549Z" fill="hsl(86.85778432291414, 55.46848852185714%, 47.14427439532921%)"></path><path d="M11.691088559527508 77.7405064083362 L14.50004862442773 83.22577724402079 L15.729043922984193 81.70321890403726Z" fill="hsl(161.47153737170478, 42.66880737730514%, 44.662376311481644%)"></path><path d="M7.92344060650475 42.710853101421904 L11.631769534037383 46.64936732257076 L12.574155236931562 39.674026214446314Z" fill="hsl(324.511398147287, 14.699992694910257%, 39.23913593667985%)"></path><path d="M8.046557507031437 9.021114283279335 L9.363429922391214 15.639552423215175 L13.942530738173753 9.6797813290177Z" fill="hsl(135.13834199584176, 47.1861582751729%, 45.5383047358594%)"></path><path d="M13.942530738173753 9.6797813290177 L9.363429922391214 15.639552423215175 L14.436327628835816 14.66227795659587Z" fill="hsl(300.8824554501129, 18.75344021562335%, 40.02511204975799%)"></path><path d="M9.363429922391214 15.639552423215175 L11.247026154241302 18.04818096371381 L14.436327628835816 14.66227795659587Z" fill="hsl(323.83150852331346, 14.816624951629208%, 39.26175129492171%)"></path><path d="M11.691088559527508 77.7405064083362 L5.74784177230176 80.60030992790551 L14.50004862442773 83.22577724402079Z" fill="hsl(116.55454187242329, 50.37413242624261%, 46.156462863983016%)"></path><path d="M5.74784177230176 80.60030992790551 L5.824198535019775 85.77058806408961 L14.50004862442773 83.22577724402079Z" fill="hsl(60.27819743155094, 60.028106866492564%, 48.02839860942681%)"></path><path d="M1.5649041229673477 62.534492742483216 L5.74784177230176 80.60030992790551 L11.691088559527508 77.7405064083362Z" fill="hsl(83.73310201828279, 56.00451486476409%, 47.24821157457049%)"></path><path d="M11.247026154241302 18.04818096371381 L11.459931130206147 20.79119226065383 L13.563106633550642 20.878560482555503Z" fill="hsl(149.60712292906572, 44.70409866915712%, 45.057025639091584%)"></path><path d="M8.348749976761699 7.1799356932711556 L8.046557507031437 9.021114283279335 L13.942530738173753 9.6797813290177Z" fill="hsl(192.38954408785952, 37.3649510315036%, 43.63394202839401%)"></path><path d="M4.669451492020793 58.24543744360615 L5.1178849135716575 59.84140535122127 L12.593854041537528 60.764498263461405Z" fill="hsl(28.901021326438485, 65.41073182437765%, 49.07210637200113%)"></path><path d="M5.1178849135716575 59.84140535122127 L1.5649041229673477 62.534492742483216 L13.474362069206647 63.86080700099549Z" fill="hsl(86.38857311593839, 55.548979766344104%, 47.15988189861016%)"></path><path d="M12.593854041537528 60.764498263461405 L5.1178849135716575 59.84140535122127 L13.474362069206647 63.86080700099549Z" fill="hsl(31.982820293403687, 64.88206194091836%, 48.96959563318448%)"></path><path d="M4.3636215397237885 35.680452277113076 L7.92344060650475 42.710853101421904 L12.574155236931562 39.674026214446314Z" fill="hsl(26.119778380952653, 65.88784256379421%, 49.16461963202441%)"></path><path d="M2.7005555879853427 41.38114858121449 L4.669451492020793 58.24543744360615 L7.92344060650475 42.710853101421904Z" fill="hsl(18.643467173643604, 67.17037287061876%, 49.413306257498604%)"></path><path d="M5.824198535019775 85.77058806408961 L3.136598506260191 81.83782417279104 L10.641102341246167 96.82693704788585Z" fill="hsl(80.39072807641568, 56.57788530886684%, 47.35938989147405%)"></path><path d="M7.92344060650475 42.710853101421904 L4.669451492020793 58.24543744360615 L11.631769534037383 46.64936732257076Z" fill="hsl(221.65583284127163, 32.34444007981472%, 42.66044930070712%)"></path><path d="M11.247026154241302 18.04818096371381 L9.363429922391214 15.639552423215175 L11.459931130206147 20.79119226065383Z" fill="hsl(281.6253671150814, 22.056914178388567%, 40.66566595150242%)"></path><path d="M9.363429922391214 15.639552423215175 L7.904788075658748 25.99187571392315 L11.459931130206147 20.79119226065383Z" fill="hsl(49.42535941220284, 61.88986640122995%, 48.389399588253255%)"></path><path d="M8.046557507031437 9.021114283279335 L5.127001840128736 9.830788386661299 L9.363429922391214 15.639552423215175Z" fill="hsl(101.90488467003219, 52.88722060912734%, 46.64375849855407%)"></path><path d="M2.7005555879853427 41.38114858121449 L3.47643259062963 58.598810314668995 L4.669451492020793 58.24543744360615Z" fill="hsl(208.18805451246197, 34.654781823669204%, 43.10843176857868%)"></path><path d="M1.5649041229673477 62.534492742483216 L3.136598506260191 81.83782417279104 L5.74784177230176 80.60030992790551Z" fill="hsl(94.54222937624088, 54.150253713441934%, 46.88866455566853%)"></path><path d="M4.3636215397237885 35.680452277113076 L2.7005555879853427 41.38114858121449 L7.92344060650475 42.710853101421904Z" fill="hsl(179.8103472895704, 39.522860284069736%, 44.05236736091415%)"></path><path d="M3.0909466078653414 9.449526409994762 L7.904788075658748 25.99187571392315 L9.363429922391214 15.639552423215175Z" fill="hsl(243.06040733117308, 28.67257373734033%, 41.94846296787488%)"></path><path d="M5.127001840128736 9.830788386661299 L3.0909466078653414 9.449526409994762 L9.363429922391214 15.639552423215175Z" fill="hsl(191.4900434478676, 37.51925665092055%, 43.663862369130065%)"></path><path d="M5.127001840128736 9.830788386661299 L8.046557507031437 9.021114283279335 L8.348749976761699 7.1799356932711556Z" fill="hsl(311.0967403030185, 17.001221839055056%, 39.68535144305425%)"></path><path d="M3.0909466078653414 9.449526409994762 L5.127001840128736 9.830788386661299 L8.348749976761699 7.1799356932711556Z" fill="hsl(172.19787061561857, 40.82874921426747%, 44.30558329629352%)"></path><path d="M3.0909466078653414 9.449526409994762 L4.3636215397237885 35.680452277113076 L7.904788075658748 25.99187571392315Z" fill="hsl(153.64735201012158, 44.01101405840653%, 44.92263437200144%)"></path><path d="M5.74784177230176 80.60030992790551 L3.136598506260191 81.83782417279104 L5.824198535019775 85.77058806408961Z" fill="hsl(183.0722096081957, 38.96330127638208%, 43.94386712459609%)"></path><path d="M3.0909466078653414 9.449526409994762 L2.7005555879853427 41.38114858121449 L4.3636215397237885 35.680452277113076Z" fill="hsl(25.961963335255817, 65.91491508303088%, 49.1698690779176%)"></path><path d="M4.669451492020793 58.24543744360615 L3.47643259062963 58.598810314668995 L5.1178849135716575 59.84140535122127Z" fill="hsl(224.2369700081392, 31.901656660186255%, 42.57459221502471%)"></path><path d="M3.47643259062963 58.598810314668995 L1.5649041229673477 62.534492742483216 L5.1178849135716575 59.84140535122127Z" fill="hsl(274.0233423735756, 23.36101012274674%, 40.9185342213369%)"></path><path d="M2.7005555879853427 41.38114858121449 L1.5649041229673477 62.534492742483216 L3.47643259062963 58.598810314668995Z" fill="hsl(179.77377262022176, 39.52913451752538%, 44.053583954344504%)"></path><path d="M1.5649041229673477 62.534492742483216 L2.7005555879853427 41.38114858121449 L3.0909466078653414 9.449526409994762Z" fill="hsl(249.27340737516715, 27.606759242494988%, 41.74179821407205%)"></path></svg>