<svg xmlns="http://www.w3.org/2000/svg" viewBox="0 0 100 100" id="svg" style="fill: rgba(0, 0, 0, 0); --frame-c: #f6c6a4; --frame-bdw: 1em; stroke: rgb(224, 172, 16); stroke-width: 0; background-color: rgb(50, 103, 72); --frame-asr: 100 / 100.;">
	<g transform="translate(50 50) scale(1.2)">
		<circle cx="0" cy="0" r="12" fill="#f9e8b4"></circle>
		
				<g transform="rotate(0)">
					<ellipse cx="6.429395695523604e-16" cy="-4.5" rx="2" ry="15" transform="rotate(180 6.429395695523604e-16 10.5)" fill="hsl(45.00000000000001, 81.54288135178965%, 47.367597289541926%)"></ellipse><ellipse cx="-5.249999999999997" cy="-5.906733260263394" rx="2" ry="15" transform="rotate(210 -5.249999999999997 9.093266739736606)" fill="hsl(45.00000000000001, 76.3327009831636%, 47.4514539567809%)"></ellipse><ellipse cx="-9.093266739736606" cy="-9.75" rx="2" ry="15" transform="rotate(240 -9.093266739736606 5.249999999999999)" fill="hsl(45.00000000000001, 68.20421954723746%, 53.86452970289364%)"></ellipse><ellipse cx="-10.5" cy="-14.999999999999998" rx="2" ry="15" transform="rotate(270 -10.5 1.2858791391047208e-15)" fill="hsl(45.00000000000001, 86.03053555177753%, 52.1289710840913%)"></ellipse><ellipse cx="-9.093266739736606" cy="-20.25" rx="2" ry="15" transform="rotate(300 -9.093266739736606 -5.250000000000001)" fill="hsl(45.00000000000001, 80.12205554127574%, 49.86202896057664%)"></ellipse><ellipse cx="-5.250000000000004" cy="-24.093266739736602" rx="2" ry="15" transform="rotate(330 -5.250000000000004 -9.093266739736602)" fill="hsl(45.00000000000001, 73.98401159859307%, 52.15572357669708%)"></ellipse><ellipse cx="-1.9288187086570813e-15" cy="-25.5" rx="2" ry="15" transform="rotate(360 -1.9288187086570813e-15 -10.5)" fill="hsl(45.00000000000001, 68.58920288406706%, 52.37630683515354%)"></ellipse><ellipse cx="5.250000000000001" cy="-24.093266739736606" rx="2" ry="15" transform="rotate(390 5.250000000000001 -9.093266739736606)" fill="hsl(45.00000000000001, 70.19269940795657%, 45.42756355129968%)"></ellipse><ellipse cx="9.093266739736602" cy="-20.250000000000004" rx="2" ry="15" transform="rotate(420 9.093266739736602 -5.250000000000004)" fill="hsl(45.00000000000001, 68.87697287471815%, 60.40263451531213%)"></ellipse><ellipse cx="10.5" cy="-15.000000000000002" rx="2" ry="15" transform="rotate(450 10.5 -2.5717582782094417e-15)" fill="hsl(45.00000000000001, 78.470274270932%, 59.92984168907637%)"></ellipse><ellipse cx="9.09326673973661" cy="-9.750000000000007" rx="2" ry="15" transform="rotate(480 9.09326673973661 5.249999999999992)" fill="hsl(45.00000000000001, 66.84076451884447%, 48.83829595382406%)"></ellipse><ellipse cx="5.249999999999997" cy="-5.906733260263392" rx="2" ry="15" transform="rotate(510 5.249999999999997 9.093266739736608)" fill="hsl(45.00000000000001, 67.7696492181947%, 44.99051816601101%)"></ellipse>
				</g>
				<g transform="rotate(15)">
					<ellipse cx="4.500000000000001" cy="-7.205771365940053" rx="2" ry="15" transform="rotate(150 4.500000000000001 7.794228634059947)" fill="hsl(45.00000000000001, 79.4004716989591%, 48.15042166397804%)"></ellipse><ellipse cx="5.51091059616309e-16" cy="-6" rx="2" ry="15" transform="rotate(180 5.51091059616309e-16 9)" fill="hsl(45.00000000000001, 76.99752250029358%, 49.00344199292035%)"></ellipse><ellipse cx="-4.499999999999998" cy="-7.205771365940052" rx="2" ry="15" transform="rotate(210 -4.499999999999998 7.794228634059948)" fill="hsl(45.00000000000001, 68.688554686204%, 47.07014031394169%)"></ellipse><ellipse cx="-7.794228634059948" cy="-10.5" rx="2" ry="15" transform="rotate(240 -7.794228634059948 4.499999999999999)" fill="hsl(45.00000000000001, 73.7859595470785%, 51.83844405029644%)"></ellipse><ellipse cx="-9" cy="-14.999999999999998" rx="2" ry="15" transform="rotate(270 -9 1.102182119232618e-15)" fill="hsl(45.00000000000001, 84.3218356475463%, 50.82571305637993%)"></ellipse><ellipse cx="-7.794228634059947" cy="-19.5" rx="2" ry="15" transform="rotate(300 -7.794228634059947 -4.500000000000001)" fill="hsl(45.00000000000001, 78.39082497326406%, 57.017725624144106%)"></ellipse><ellipse cx="-4.5000000000000036" cy="-22.794228634059944" rx="2" ry="15" transform="rotate(330 -4.5000000000000036 -7.794228634059945)" fill="hsl(45.00000000000001, 68.9636176426519%, 48.90488644466099%)"></ellipse><ellipse cx="-1.6532731788489267e-15" cy="-24" rx="2" ry="15" transform="rotate(360 -1.6532731788489267e-15 -9)" fill="hsl(45.00000000000001, 72.60539725564179%, 59.51004195485526%)"></ellipse><ellipse cx="4.500000000000001" cy="-22.794228634059948" rx="2" ry="15" transform="rotate(390 4.500000000000001 -7.794228634059947)" fill="hsl(45.00000000000001, 81.52792042991263%, 47.75499604145899%)"></ellipse><ellipse cx="7.794228634059945" cy="-19.500000000000004" rx="2" ry="15" transform="rotate(420 7.794228634059945 -4.5000000000000036)" fill="hsl(45.00000000000001, 74.98515204830494%, 50.99968703255672%)"></ellipse><ellipse cx="9" cy="-15.000000000000002" rx="2" ry="15" transform="rotate(450 9 -2.204364238465236e-15)" fill="hsl(45.00000000000001, 77.62762458251352%, 50.009315309643554%)"></ellipse><ellipse cx="7.794228634059952" cy="-10.500000000000007" rx="2" ry="15" transform="rotate(480 7.794228634059952 4.499999999999994)" fill="hsl(45.00000000000001, 83.75933137935559%, 50.44018237070429%)"></ellipse>
				</g>
				<g transform="rotate(7.5)">
					<ellipse cx="6.49519052838329" cy="-11.25" rx="2" ry="15" transform="rotate(120 6.49519052838329 3.7499999999999996)" fill="hsl(45.00000000000001, 75.38324274747411%, 45.164618492997%)"></ellipse><ellipse cx="3.750000000000001" cy="-8.50480947161671" rx="2" ry="15" transform="rotate(150 3.750000000000001 6.495190528383289)" fill="hsl(45.00000000000001, 78.37714543999749%, 55.95576525580084%)"></ellipse><ellipse cx="4.592425496802575e-16" cy="-7.5" rx="2" ry="15" transform="rotate(180 4.592425496802575e-16 7.5)" fill="hsl(45.00000000000001, 74.52752376875821%, 53.21630715271261%)"></ellipse><ellipse cx="-3.7499999999999982" cy="-8.50480947161671" rx="2" ry="15" transform="rotate(210 -3.7499999999999982 6.49519052838329)" fill="hsl(45.00000000000001, 86.42312814741761%, 55.10166502789432%)"></ellipse><ellipse cx="-6.49519052838329" cy="-11.25" rx="2" ry="15" transform="rotate(240 -6.49519052838329 3.7499999999999996)" fill="hsl(45.00000000000001, 84.53675557455159%, 57.08789536442766%)"></ellipse><ellipse cx="-7.5" cy="-14.999999999999998" rx="2" ry="15" transform="rotate(270 -7.5 9.18485099360515e-16)" fill="hsl(45.00000000000001, 69.44191574216127%, 55.99073844799585%)"></ellipse><ellipse cx="-6.495190528383289" cy="-18.75" rx="2" ry="15" transform="rotate(300 -6.495190528383289 -3.750000000000001)" fill="hsl(45.00000000000001, 75.12942413884709%, 54.189982433294105%)"></ellipse><ellipse cx="-3.7500000000000036" cy="-21.49519052838329" rx="2" ry="15" transform="rotate(330 -3.7500000000000036 -6.495190528383288)" fill="hsl(45.00000000000001, 76.1730201868435%, 61.11235600505779%)"></ellipse><ellipse cx="-1.3777276490407722e-15" cy="-22.5" rx="2" ry="15" transform="rotate(360 -1.3777276490407722e-15 -7.5)" fill="hsl(45.00000000000001, 66.85904356528913%, 52.82008004800836%)"></ellipse><ellipse cx="3.750000000000001" cy="-21.49519052838329" rx="2" ry="15" transform="rotate(390 3.750000000000001 -6.495190528383289)" fill="hsl(45.00000000000001, 76.25827692604422%, 52.91542687789618%)"></ellipse><ellipse cx="6.495190528383288" cy="-18.750000000000004" rx="2" ry="15" transform="rotate(420 6.495190528383288 -3.7500000000000036)" fill="hsl(45.00000000000001, 85.00013334734284%, 49.80310469268122%)"></ellipse><ellipse cx="7.5" cy="-15.000000000000002" rx="2" ry="15" transform="rotate(450 7.5 -1.83697019872103e-15)" fill="hsl(45.00000000000001, 74.34796679245018%, 57.24874755265136%)"></ellipse>
				</g>
				<g transform="rotate(22.5)">
					<ellipse cx="6" cy="-15" rx="2" ry="15" transform="rotate(90 6 0)" fill="hsl(45.00000000000001, 75.35789667537452%, 56.04643809594982%)"></ellipse><ellipse cx="5.196152422706632" cy="-12" rx="2" ry="15" transform="rotate(120 5.196152422706632 2.9999999999999996)" fill="hsl(45.00000000000001, 72.79644521655473%, 50.73828244401562%)"></ellipse><ellipse cx="3.000000000000001" cy="-9.803847577293368" rx="2" ry="15" transform="rotate(150 3.000000000000001 5.196152422706632)" fill="hsl(45.00000000000001, 76.40600817608336%, 54.329018073560555%)"></ellipse><ellipse cx="3.6739403974420594e-16" cy="-9" rx="2" ry="15" transform="rotate(180 3.6739403974420594e-16 6)" fill="hsl(45.00000000000001, 69.02030946600738%, 48.31375277879745%)"></ellipse><ellipse cx="-2.9999999999999987" cy="-9.803847577293368" rx="2" ry="15" transform="rotate(210 -2.9999999999999987 5.196152422706632)" fill="hsl(45.00000000000001, 77.48655611446692%, 49.77292264809686%)"></ellipse><ellipse cx="-5.196152422706632" cy="-12" rx="2" ry="15" transform="rotate(240 -5.196152422706632 2.9999999999999996)" fill="hsl(45.00000000000001, 68.2017411043049%, 56.98522928078559%)"></ellipse><ellipse cx="-6" cy="-15" rx="2" ry="15" transform="rotate(270 -6 7.347880794884119e-16)" fill="hsl(45.00000000000001, 70.58476450415615%, 54.112992001242304%)"></ellipse><ellipse cx="-5.196152422706632" cy="-18" rx="2" ry="15" transform="rotate(300 -5.196152422706632 -3.000000000000001)" fill="hsl(45.00000000000001, 68.40682084828863%, 59.59074232092335%)"></ellipse><ellipse cx="-3.0000000000000027" cy="-20.196152422706632" rx="2" ry="15" transform="rotate(330 -3.0000000000000027 -5.19615242270663)" fill="hsl(45.00000000000001, 78.53337906053818%, 54.774678526286486%)"></ellipse><ellipse cx="-1.102182119232618e-15" cy="-21" rx="2" ry="15" transform="rotate(360 -1.102182119232618e-15 -6)" fill="hsl(45.00000000000001, 85.55451457740641%, 46.09443899297101%)"></ellipse><ellipse cx="3.000000000000001" cy="-20.196152422706632" rx="2" ry="15" transform="rotate(390 3.000000000000001 -5.196152422706632)" fill="hsl(45.00000000000001, 67.49116832075812%, 59.00507053808552%)"></ellipse><ellipse cx="5.19615242270663" cy="-18.000000000000004" rx="2" ry="15" transform="rotate(420 5.19615242270663 -3.0000000000000027)" fill="hsl(45.00000000000001, 68.94978345660171%, 52.91754355658362%)"></ellipse>
				</g>
	</g></svg>