<svg xmlns="http://www.w3.org/2000/svg" viewBox="0 0 100 100" id="svg" style="fill: rgba(0, 0, 0, 0); --frame-c: #f6c6a4; --frame-bdw: 1em; stroke: rgb(224, 172, 16); stroke-width: 0.15; background-color: rgb(50, 103, 72); --frame-asr: 100 / 100.;">
	<g transform="translate(50 50) scale(1.2)">
		<circle cx="0" cy="0" r="8" fill="#e0ac10"></circle>
		
				<g transform="rotate(0)">
					<ellipse cx="5.204748896376251e-16" cy="-6.5" rx="5" ry="15" transform="rotate(180 5.204748896376251e-16 8.5)" fill="hsl(339.7350993377483, 68.15569680909294%, 38.13963564947259%)"></ellipse><ellipse cx="-4.249999999999998" cy="-7.638784067832271" rx="5" ry="15" transform="rotate(210 -4.249999999999998 7.361215932167729)" fill="hsl(339.7350993377483, 86.40573774592161%, 36.191425141399336%)"></ellipse><ellipse cx="-7.361215932167729" cy="-10.75" rx="5" ry="15" transform="rotate(240 -7.361215932167729 4.249999999999999)" fill="hsl(339.7350993377483, 76.38417671738729%, 40.17480777140307%)"></ellipse><ellipse cx="-8.5" cy="-14.999999999999998" rx="5" ry="15" transform="rotate(270 -8.5 1.0409497792752501e-15)" fill="hsl(339.7350993377483, 70.49677769289303%, 43.535656029595806%)"></ellipse><ellipse cx="-7.361215932167728" cy="-19.25" rx="5" ry="15" transform="rotate(300 -7.361215932167728 -4.250000000000001)" fill="hsl(339.7350993377483, 70.48102685915298%, 39.12820247488128%)"></ellipse><ellipse cx="-4.2500000000000036" cy="-22.361215932167724" rx="5" ry="15" transform="rotate(330 -4.2500000000000036 -7.361215932167726)" fill="hsl(339.7350993377483, 80.4464728358978%, 34.98459345664862%)"></ellipse><ellipse cx="-1.5614246689128753e-15" cy="-23.5" rx="5" ry="15" transform="rotate(360 -1.5614246689128753e-15 -8.5)" fill="hsl(339.7350993377483, 80.53933496473276%, 35.933419571408606%)"></ellipse><ellipse cx="4.250000000000001" cy="-22.361215932167728" rx="5" ry="15" transform="rotate(390 4.250000000000001 -7.361215932167728)" fill="hsl(339.7350993377483, 73.97467765320302%, 34.88734564797337%)"></ellipse><ellipse cx="7.361215932167726" cy="-19.250000000000004" rx="5" ry="15" transform="rotate(420 7.361215932167726 -4.2500000000000036)" fill="hsl(339.7350993377483, 82.64029256617822%, 37.01169501351734%)"></ellipse><ellipse cx="8.5" cy="-15.000000000000002" rx="5" ry="15" transform="rotate(450 8.5 -2.0818995585505003e-15)" fill="hsl(339.7350993377483, 73.56826288421311%, 40.59595698689423%)"></ellipse><ellipse cx="7.361215932167732" cy="-10.750000000000007" rx="5" ry="15" transform="rotate(480 7.361215932167732 4.249999999999994)" fill="hsl(339.7350993377483, 69.07208641107181%, 41.66358918082794%)"></ellipse><ellipse cx="4.249999999999997" cy="-7.63878406783227" rx="5" ry="15" transform="rotate(510 4.249999999999997 7.36121593216773)" fill="hsl(339.7350993377483, 85.14338420427303%, 34.43303408709397%)"></ellipse>
				</g>
				<g transform="rotate(15)">
					<ellipse cx="3.500000000000001" cy="-8.93782217350893" rx="5" ry="15" transform="rotate(150 3.500000000000001 6.06217782649107)" fill="hsl(339.7350993377483, 73.52894938367791%, 35.38495186523107%)"></ellipse><ellipse cx="4.286263797015736e-16" cy="-8" rx="5" ry="15" transform="rotate(180 4.286263797015736e-16 7)" fill="hsl(339.7350993377483, 68.71333461212085%, 40.974310192691924%)"></ellipse><ellipse cx="-3.4999999999999982" cy="-8.937822173508929" rx="5" ry="15" transform="rotate(210 -3.4999999999999982 6.062177826491071)" fill="hsl(339.7350993377483, 78.48556469566957%, 43.339535971491586%)"></ellipse><ellipse cx="-6.062177826491071" cy="-11.5" rx="5" ry="15" transform="rotate(240 -6.062177826491071 3.4999999999999996)" fill="hsl(339.7350993377483, 78.01540009168278%, 34.58656255187264%)"></ellipse><ellipse cx="-7" cy="-15" rx="5" ry="15" transform="rotate(270 -7 8.572527594031472e-16)" fill="hsl(339.7350993377483, 75.53593139283402%, 38.424177079863995%)"></ellipse><ellipse cx="-6.06217782649107" cy="-18.5" rx="5" ry="15" transform="rotate(300 -6.06217782649107 -3.500000000000001)" fill="hsl(339.7350993377483, 76.83478835259152%, 36.407536409841846%)"></ellipse><ellipse cx="-3.500000000000003" cy="-21.06217782649107" rx="5" ry="15" transform="rotate(330 -3.500000000000003 -6.062177826491069)" fill="hsl(339.7350993377483, 75.41680181289976%, 40.52934655136741%)"></ellipse><ellipse cx="-1.2858791391047208e-15" cy="-22" rx="5" ry="15" transform="rotate(360 -1.2858791391047208e-15 -7)" fill="hsl(339.7350993377483, 76.48060519229253%, 43.146036581129856%)"></ellipse><ellipse cx="3.500000000000001" cy="-21.06217782649107" rx="5" ry="15" transform="rotate(390 3.500000000000001 -6.06217782649107)" fill="hsl(339.7350993377483, 82.76326387304009%, 35.999051657274165%)"></ellipse><ellipse cx="6.062177826491069" cy="-18.500000000000004" rx="5" ry="15" transform="rotate(420 6.062177826491069 -3.500000000000003)" fill="hsl(339.7350993377483, 68.20974302886995%, 43.68243037361536%)"></ellipse><ellipse cx="7" cy="-15.000000000000002" rx="5" ry="15" transform="rotate(450 7 -1.7145055188062944e-15)" fill="hsl(339.7350993377483, 86.97647803018042%, 42.98576318142057%)"></ellipse><ellipse cx="6.062177826491073" cy="-11.500000000000005" rx="5" ry="15" transform="rotate(480 6.062177826491073 3.499999999999995)" fill="hsl(339.7350993377483, 77.33760126242913%, 42.765929758379286%)"></ellipse>
				</g>
				<g transform="rotate(7.5)">
					<ellipse cx="4.763139720814413" cy="-12.25" rx="5" ry="15" transform="rotate(120 4.763139720814413 2.7499999999999996)" fill="hsl(339.7350993377483, 72.37055240834398%, 34.20706097705268%)"></ellipse><ellipse cx="2.7500000000000004" cy="-10.236860279185588" rx="5" ry="15" transform="rotate(150 2.7500000000000004 4.763139720814412)" fill="hsl(339.7350993377483, 77.921040050984%, 37.165901322918515%)"></ellipse><ellipse cx="3.3677786976552215e-16" cy="-9.5" rx="5" ry="15" transform="rotate(180 3.3677786976552215e-16 5.5)" fill="hsl(339.7350993377483, 74.60472206947328%, 34.06013192159726%)"></ellipse><ellipse cx="-2.7499999999999987" cy="-10.236860279185587" rx="5" ry="15" transform="rotate(210 -2.7499999999999987 4.763139720814413)" fill="hsl(339.7350993377483, 76.50896791634983%, 42.80371982469842%)"></ellipse><ellipse cx="-4.763139720814413" cy="-12.25" rx="5" ry="15" transform="rotate(240 -4.763139720814413 2.7499999999999996)" fill="hsl(339.7350993377483, 73.98584066099784%, 41.190802075780475%)"></ellipse><ellipse cx="-5.5" cy="-15" rx="5" ry="15" transform="rotate(270 -5.5 6.735557395310443e-16)" fill="hsl(339.7350993377483, 69.12863427169754%, 35.0390674073452%)"></ellipse><ellipse cx="-4.763139720814412" cy="-17.75" rx="5" ry="15" transform="rotate(300 -4.763139720814412 -2.7500000000000004)" fill="hsl(339.7350993377483, 81.78247822515596%, 43.525375229577676%)"></ellipse><ellipse cx="-2.7500000000000027" cy="-19.76313972081441" rx="5" ry="15" transform="rotate(330 -2.7500000000000027 -4.7631397208144115)" fill="hsl(339.7350993377483, 72.15427929220223%, 41.362985707133944%)"></ellipse><ellipse cx="-1.0103336092965664e-15" cy="-20.5" rx="5" ry="15" transform="rotate(360 -1.0103336092965664e-15 -5.5)" fill="hsl(339.7350993377483, 79.35128907015503%, 37.135624467739845%)"></ellipse><ellipse cx="2.7500000000000004" cy="-19.76313972081441" rx="5" ry="15" transform="rotate(390 2.7500000000000004 -4.763139720814412)" fill="hsl(339.7350993377483, 71.64802666188993%, 34.6031497487188%)"></ellipse><ellipse cx="4.7631397208144115" cy="-17.750000000000004" rx="5" ry="15" transform="rotate(420 4.7631397208144115 -2.7500000000000027)" fill="hsl(339.7350993377483, 78.42016393012017%, 40.58041053022452%)"></ellipse><ellipse cx="5.5" cy="-15.000000000000002" rx="5" ry="15" transform="rotate(450 5.5 -1.3471114790620886e-15)" fill="hsl(339.7350993377483, 77.6525910400613%, 37.96436498166803%)"></ellipse>
				</g>
				<g transform="rotate(22.5)">
					<ellipse cx="4" cy="-15" rx="5" ry="15" transform="rotate(90 4 0)" fill="hsl(339.7350993377483, 75.24140740834694%, 34.82932625031124%)"></ellipse><ellipse cx="3.464101615137755" cy="-13" rx="5" ry="15" transform="rotate(120 3.464101615137755 1.9999999999999998)" fill="hsl(339.7350993377483, 71.21397938756627%, 33.849664484693925%)"></ellipse><ellipse cx="2.0000000000000004" cy="-11.535898384862247" rx="5" ry="15" transform="rotate(150 2.0000000000000004 3.4641016151377544)" fill="hsl(339.7350993377483, 65.67136579569853%, 37.64489948897955%)"></ellipse><ellipse cx="2.4492935982947064e-16" cy="-11" rx="5" ry="15" transform="rotate(180 2.4492935982947064e-16 4)" fill="hsl(339.7350993377483, 85.80507430486705%, 39.679639947269884%)"></ellipse><ellipse cx="-1.9999999999999991" cy="-11.535898384862245" rx="5" ry="15" transform="rotate(210 -1.9999999999999991 3.464101615137755)" fill="hsl(339.7350993377483, 72.45335228469362%, 36.96590662309762%)"></ellipse><ellipse cx="-3.464101615137755" cy="-13" rx="5" ry="15" transform="rotate(240 -3.464101615137755 1.9999999999999998)" fill="hsl(339.7350993377483, 69.14021392328712%, 40.140978002374666%)"></ellipse><ellipse cx="-4" cy="-15" rx="5" ry="15" transform="rotate(270 -4 4.898587196589413e-16)" fill="hsl(339.7350993377483, 78.84505936921718%, 34.437977910032025%)"></ellipse><ellipse cx="-3.4641016151377544" cy="-17" rx="5" ry="15" transform="rotate(300 -3.4641016151377544 -2.0000000000000004)" fill="hsl(339.7350993377483, 67.23586338447183%, 35.675709493168675%)"></ellipse><ellipse cx="-2.0000000000000018" cy="-18.464101615137753" rx="5" ry="15" transform="rotate(330 -2.0000000000000018 -3.4641016151377535)" fill="hsl(339.7350993377483, 68.20767442077405%, 44.07192742121662%)"></ellipse><ellipse cx="-7.347880794884119e-16" cy="-19" rx="5" ry="15" transform="rotate(360 -7.347880794884119e-16 -4)" fill="hsl(339.7350993377483, 77.06485758412987%, 35.71761535543112%)"></ellipse><ellipse cx="2.0000000000000004" cy="-18.464101615137753" rx="5" ry="15" transform="rotate(390 2.0000000000000004 -3.4641016151377544)" fill="hsl(339.7350993377483, 83.71573105473621%, 35.97039339439226%)"></ellipse><ellipse cx="3.4641016151377535" cy="-17" rx="5" ry="15" transform="rotate(420 3.4641016151377535 -2.0000000000000018)" fill="hsl(339.7350993377483, 77.16510356732678%, 42.99269442803536%)"></ellipse>
				</g>
	</g></svg>