<svg xmlns="http://www.w3.org/2000/svg" viewBox="0 0 100 100" id="svg" style="fill: rgba(0, 0, 0, 0); --frame-c: #f6c6a4; --frame-bdw: 1em; stroke: rgb(159, 18, 235); stroke-width: 0.15; background-color: rgb(52, 16, 71); --frame-asr: 100 / 100.;">
	<g transform="translate(50 50) scale(1)">
		<circle cx="0" cy="0" r="6" fill="#46165f"></circle>
		
				<g transform="rotate(0)">
					<ellipse cx="-2.5367386471019837" cy="-2.8858218011272108" rx="3.5" ry="14" transform="rotate(192.85714285714286 -2.5367386471019837 11.11417819887279)" fill="hsl(279.1304347826087, 76.5039847937271%, 52.351232690178406%)"></ellipse><ellipse cx="-5.6999999999999975" cy="-4.127310396857398" rx="3.5" ry="14" transform="rotate(210 -5.6999999999999975 9.872689603142602)" fill="hsl(279.1304347826087, 84.89329445173549%, 57.94772913999502%)"></ellipse><ellipse cx="-8.35679133886002" cy="-6.2460307894115195" rx="3.5" ry="14" transform="rotate(227.14285714285714 -8.35679133886002 7.7539692105884805)" fill="hsl(279.1304347826087, 73.2858586560503%, 58.11616704001151%)"></ellipse><ellipse cx="-10.271045094087578" cy="-9.053725374059836" rx="3.5" ry="14" transform="rotate(244.28571428571428 -10.271045094087578 4.946274625940164)" fill="hsl(279.1304347826087, 80.4844950218422%, 57.42310507429235%)"></ellipse><ellipse cx="-11.272671418966466" cy="-12.300918165591613" rx="3.5" ry="14" transform="rotate(261.42857142857144 -11.272671418966466 1.699081834408387)" fill="hsl(279.1304347826087, 83.55953531319085%, 57.27952933216592%)"></ellipse><ellipse cx="-11.272671418966468" cy="-15.699081834408384" rx="3.5" ry="14" transform="rotate(278.57142857142856 -11.272671418966468 -1.699081834408384)" fill="hsl(279.1304347826087, 73.32894620302041%, 48.71756099250631%)"></ellipse><ellipse cx="-10.271045094087578" cy="-18.946274625940163" rx="3.5" ry="14" transform="rotate(295.7142857142857 -10.271045094087578 -4.946274625940162)" fill="hsl(279.1304347826087, 88.3728754367265%, 52.1457928276092%)"></ellipse><ellipse cx="-8.356791338860019" cy="-21.753969210588483" rx="3.5" ry="14" transform="rotate(312.8571428571429 -8.356791338860019 -7.753969210588482)" fill="hsl(279.1304347826087, 78.3234329836838%, 55.74185404890474%)"></ellipse><ellipse cx="-5.7000000000000055" cy="-23.872689603142597" rx="3.5" ry="14" transform="rotate(330 -5.7000000000000055 -9.872689603142598)" fill="hsl(279.1304347826087, 78.93477498902409%, 42.954044703763%)"></ellipse><ellipse cx="-2.536738647101996" cy="-25.114178198872786" rx="3.5" ry="14" transform="rotate(347.1428571428571 -2.536738647101996 -11.114178198872787)" fill="hsl(279.1304347826087, 84.25337626329467%, 50.986573611021605%)"></ellipse><ellipse cx="0.8519230668852378" cy="-25.36812328786545" rx="3.5" ry="14" transform="rotate(364.2857142857143 0.8519230668852378 -11.368123287865453)" fill="hsl(279.1304347826087, 68.71649919661635%, 54.82794310585205%)"></ellipse><ellipse cx="4.164887677776908" cy="-24.611960734543928" rx="3.5" ry="14" transform="rotate(381.42857142857144 4.164887677776908 -10.611960734543928)" fill="hsl(279.1304347826087, 69.57440180733026%, 44.4790491964366%)"></ellipse><ellipse cx="7.107783741189561" cy="-22.912878900135542" rx="3.5" ry="14" transform="rotate(398.57142857142856 7.107783741189561 -8.912878900135542)" fill="hsl(279.1304347826087, 74.90472328980944%, 53.942522951665055%)"></ellipse><ellipse cx="9.419122027202338" cy="-20.4218486619253" rx="3.5" ry="14" transform="rotate(415.7142857142857 9.419122027202338 -6.421848661925299)" fill="hsl(279.1304347826087, 77.0668007672418%, 57.72821730558077%)"></ellipse><ellipse cx="10.893529985962005" cy="-17.360208988284306" rx="3.5" ry="14" transform="rotate(432.8571428571429 10.893529985962005 -3.3602089882843043)" fill="hsl(279.1304347826087, 74.12599001436175%, 43.096747744148004%)"></ellipse><ellipse cx="11.4" cy="-14.000000000000004" rx="3.5" ry="14" transform="rotate(450 11.4 -2.7921947020559652e-15)" fill="hsl(279.1304347826087, 85.33020620166565%, 49.586132561798834%)"></ellipse><ellipse cx="10.893529985962008" cy="-10.639791011715701" rx="3.5" ry="14" transform="rotate(467.1428571428571 10.893529985962008 3.3602089882842994)" fill="hsl(279.1304347826087, 85.95789523950754%, 43.73676514435015%)"></ellipse><ellipse cx="9.41912202720234" cy="-7.578151338074706" rx="3.5" ry="14" transform="rotate(484.28571428571433 9.41912202720234 6.421848661925294)" fill="hsl(279.1304347826087, 67.8291769925476%, 52.943434702521635%)"></ellipse><ellipse cx="7.107783741189564" cy="-5.087121099864463" rx="3.5" ry="14" transform="rotate(501.42857142857144 7.107783741189564 8.912878900135537)" fill="hsl(279.1304347826087, 82.41298123156112%, 45.36099044269865%)"></ellipse><ellipse cx="4.164887677776912" cy="-3.388039265456076" rx="3.5" ry="14" transform="rotate(518.5714285714286 4.164887677776912 10.611960734543924)" fill="hsl(279.1304347826087, 75.288760858772%, 58.11895727160124%)"></ellipse><ellipse cx="0.8519230668852534" cy="-2.631876712134547" rx="3.5" ry="14" transform="rotate(535.7142857142857 0.8519230668852534 11.368123287865453)" fill="hsl(279.1304347826087, 82.89387591030955%, 47.55236783304856%)"></ellipse>
				</g>
				<g transform="rotate(8.571428571428571)">
					<ellipse cx="0.747300935864244" cy="-4.027962028188199" rx="3.5" ry="14" transform="rotate(175.71428571428572 0.747300935864244 9.972037971811801)" fill="hsl(279.1304347826087, 87.34059566462653%, 44.95682521060795%)"></ellipse><ellipse cx="-2.225209339563141" cy="-4.250720878181763" rx="3.5" ry="14" transform="rotate(192.85714285714283 -2.225209339563141 9.749279121818237)" fill="hsl(279.1304347826087, 68.24893075249037%, 46.60784121163565%)"></ellipse><ellipse cx="-4.999999999999998" cy="-5.339745962155613" rx="3.5" ry="14" transform="rotate(210 -4.999999999999998 8.660254037844387)" fill="hsl(279.1304347826087, 86.07310634429801%, 52.15430771922425%)"></ellipse><ellipse cx="-7.330518718298263" cy="-7.198272622290807" rx="3.5" ry="14" transform="rotate(227.14285714285714 -7.330518718298263 6.801727377709193)" fill="hsl(279.1304347826087, 73.44926941240134%, 52.022864510392594%)"></ellipse><ellipse cx="-9.00968867902419" cy="-9.661162608824418" rx="3.5" ry="14" transform="rotate(244.28571428571428 -9.00968867902419 4.338837391175582)" fill="hsl(279.1304347826087, 83.53138817717418%, 55.66060742366842%)"></ellipse><ellipse cx="-9.888308262251286" cy="-12.509577338238252" rx="3.5" ry="14" transform="rotate(261.42857142857144 -9.888308262251286 1.4904226617617473)" fill="hsl(279.1304347826087, 70.86231303069144%, 53.81411683093749%)"></ellipse><ellipse cx="-9.888308262251286" cy="-15.490422661761741" rx="3.5" ry="14" transform="rotate(278.57142857142856 -9.888308262251286 -1.4904226617617402)" fill="hsl(279.1304347826087, 89.81345740991176%, 42.79725260378721%)"></ellipse><ellipse cx="-9.009688679024192" cy="-18.33883739117558" rx="3.5" ry="14" transform="rotate(295.7142857142857 -9.009688679024192 -4.33883739117558)" fill="hsl(279.1304347826087, 81.98772507898036%, 57.925440086918336%)"></ellipse><ellipse cx="-7.330518718298268" cy="-20.801727377709188" rx="3.5" ry="14" transform="rotate(312.85714285714283 -7.330518718298268 -6.801727377709188)" fill="hsl(279.1304347826087, 78.26328354281135%, 46.65313094567904%)"></ellipse><ellipse cx="-5.000000000000004" cy="-22.660254037844382" rx="3.5" ry="14" transform="rotate(330 -5.000000000000004 -8.660254037844384)" fill="hsl(279.1304347826087, 86.67725154237431%, 48.960132771414415%)"></ellipse><ellipse cx="-2.2252093395631545" cy="-23.749279121818233" rx="3.5" ry="14" transform="rotate(347.1428571428571 -2.2252093395631545 -9.749279121818233)" fill="hsl(279.1304347826087, 75.80012243315076%, 46.55452947627591%)"></ellipse><ellipse cx="0.7473009358642436" cy="-23.9720379718118" rx="3.5" ry="14" transform="rotate(364.2857142857143 0.7473009358642436 -9.972037971811801)" fill="hsl(279.1304347826087, 69.46567680148758%, 51.242006994028785%)"></ellipse><ellipse cx="3.653410243663954" cy="-23.30873748644204" rx="3.5" ry="14" transform="rotate(381.42857142857144 3.653410243663954 -9.308737486442041)" fill="hsl(279.1304347826087, 82.6710297965077%, 45.83642834525121%)"></ellipse><ellipse cx="6.234898018587334" cy="-21.8183148246803" rx="3.5" ry="14" transform="rotate(398.57142857142856 6.234898018587334 -7.818314824680299)" fill="hsl(279.1304347826087, 77.03757278625581%, 45.75140407511664%)"></ellipse><ellipse cx="8.262387743159945" cy="-19.633200580636228" rx="3.5" ry="14" transform="rotate(415.7142857142857 8.262387743159945 -5.6332005806362275)" fill="hsl(279.1304347826087, 68.56603586790375%, 50.784810893782385%)"></ellipse><ellipse cx="9.555728057861405" cy="-16.94755174410905" rx="3.5" ry="14" transform="rotate(432.85714285714283 9.555728057861405 -2.947551744109047)" fill="hsl(279.1304347826087, 76.63123767972026%, 57.81917343174107%)"></ellipse><ellipse cx="10" cy="-14.000000000000002" rx="3.5" ry="14" transform="rotate(450 10 -2.4492935982947065e-15)" fill="hsl(279.1304347826087, 70.44216171514005%, 55.85775728776795%)"></ellipse><ellipse cx="9.555728057861405" cy="-11.05244825589095" rx="3.5" ry="14" transform="rotate(467.14285714285717 9.555728057861405 2.947551744109051)" fill="hsl(279.1304347826087, 75.85965717435147%, 48.557517709234105%)"></ellipse><ellipse cx="8.262387743159946" cy="-8.366799419363776" rx="3.5" ry="14" transform="rotate(484.2857142857143 8.262387743159946 5.633200580636223)" fill="hsl(279.1304347826087, 71.38673557892133%, 47.842715993335936%)"></ellipse><ellipse cx="6.234898018587337" cy="-6.181685175319704" rx="3.5" ry="14" transform="rotate(501.42857142857144 6.234898018587337 7.818314824680296)" fill="hsl(279.1304347826087, 74.18021421180087%, 53.92304030460984%)"></ellipse><ellipse cx="3.6534102436639584" cy="-4.691262513557961" rx="3.5" ry="14" transform="rotate(518.5714285714286 3.6534102436639584 9.30873748644204)" fill="hsl(279.1304347826087, 86.42296227895406%, 55.659988702448366%)"></ellipse>
				</g>
				<g transform="rotate(4.285714285714286)">
					<ellipse cx="3.1419328095509975" cy="-5.994485761659842" rx="3.5" ry="14" transform="rotate(158.57142857142856 3.1419328095509975 8.005514238340158)" fill="hsl(279.1304347826087, 77.07742251823214%, 57.243286709212285%)"></ellipse><ellipse cx="0.6426788048432499" cy="-5.424047344241849" rx="3.5" ry="14" transform="rotate(175.71428571428572 0.6426788048432499 8.575952655758151)" fill="hsl(279.1304347826087, 73.99535071526621%, 45.78735229813422%)"></ellipse><ellipse cx="-1.9136800320243037" cy="-5.6156199552363155" rx="3.5" ry="14" transform="rotate(192.85714285714286 -1.9136800320243037 8.384380044763684)" fill="hsl(279.1304347826087, 68.91016860382757%, 51.993856653431266%)"></ellipse><ellipse cx="-4.299999999999999" cy="-6.5521815274538255" rx="3.5" ry="14" transform="rotate(210 -4.299999999999999 7.4478184725461745)" fill="hsl(279.1304347826087, 68.03609907487466%, 55.035197954269414%)"></ellipse><ellipse cx="-6.304246097736508" cy="-8.150514455170093" rx="3.5" ry="14" transform="rotate(227.14285714285714 -6.304246097736508 5.849485544829907)" fill="hsl(279.1304347826087, 79.00282574153923%, 46.60084496207801%)"></ellipse><ellipse cx="-7.748332263960805" cy="-10.268599843588998" rx="3.5" ry="14" transform="rotate(244.28571428571428 -7.748332263960805 3.7314001564110013)" fill="hsl(279.1304347826087, 74.79328139352981%, 44.45821123324129%)"></ellipse><ellipse cx="-8.503945105536106" cy="-12.718236510884902" rx="3.5" ry="14" transform="rotate(261.42857142857144 -8.503945105536106 1.281763489115099)" fill="hsl(279.1304347826087, 76.45413732211254%, 56.18974752423651%)"></ellipse><ellipse cx="-8.503945105536108" cy="-15.281763489115097" rx="3.5" ry="14" transform="rotate(278.57142857142856 -8.503945105536108 -1.2817634891150969)" fill="hsl(279.1304347826087, 76.95935179893223%, 56.283140723388534%)"></ellipse><ellipse cx="-7.748332263960806" cy="-17.731400156411" rx="3.5" ry="14" transform="rotate(295.7142857142857 -7.748332263960806 -3.7314001564109995)" fill="hsl(279.1304347826087, 80.27359038797591%, 48.66089925267449%)"></ellipse><ellipse cx="-6.304246097736511" cy="-19.849485544829903" rx="3.5" ry="14" transform="rotate(312.85714285714283 -6.304246097736511 -5.849485544829903)" fill="hsl(279.1304347826087, 80.36581731957803%, 43.637571081738265%)"></ellipse><ellipse cx="-4.300000000000004" cy="-21.44781847254617" rx="3.5" ry="14" transform="rotate(330 -4.300000000000004 -7.447818472546171)" fill="hsl(279.1304347826087, 70.37867959423954%, 47.563552817104686%)"></ellipse><ellipse cx="-1.9136800320243132" cy="-22.38438004476368" rx="3.5" ry="14" transform="rotate(347.1428571428571 -1.9136800320243132 -8.384380044763683)" fill="hsl(279.1304347826087, 70.18779281439475%, 53.120429966634646%)"></ellipse><ellipse cx="0.6426788048432497" cy="-22.57595265575815" rx="3.5" ry="14" transform="rotate(364.2857142857143 0.6426788048432497 -8.575952655758151)" fill="hsl(279.1304347826087, 83.20639267335685%, 57.81137959032659%)"></ellipse><ellipse cx="3.1419328095510006" cy="-22.005514238340155" rx="3.5" ry="14" transform="rotate(381.42857142857144 3.1419328095510006 -8.005514238340156)" fill="hsl(279.1304347826087, 81.97673283624569%, 47.00428823181856%)"></ellipse><ellipse cx="5.3620122959851075" cy="-20.723750749225058" rx="3.5" ry="14" transform="rotate(398.57142857142856 5.3620122959851075 -6.723750749225059)" fill="hsl(279.1304347826087, 88.07364352189511%, 48.67086335331922%)"></ellipse><ellipse cx="7.105653459117554" cy="-18.844552499347156" rx="3.5" ry="14" transform="rotate(415.71428571428567 7.105653459117554 -4.844552499347157)" fill="hsl(279.1304347826087, 73.50735490334318%, 47.85319675677536%)"></ellipse><ellipse cx="8.21792612976081" cy="-16.53489449993378" rx="3.5" ry="14" transform="rotate(432.85714285714283 8.21792612976081 -2.534894499933781)" fill="hsl(279.1304347826087, 79.96217411384829%, 45.64765306411677%)"></ellipse><ellipse cx="8.600000000000001" cy="-14.000000000000002" rx="3.5" ry="14" transform="rotate(450 8.600000000000001 -2.1063924945334478e-15)" fill="hsl(279.1304347826087, 73.38373556289497%, 53.94272479630352%)"></ellipse><ellipse cx="8.217926129760814" cy="-11.46510550006623" rx="3.5" ry="14" transform="rotate(467.1428571428571 8.217926129760814 2.53489449993377)" fill="hsl(279.1304347826087, 84.73048451903702%, 44.128301389208204%)"></ellipse><ellipse cx="7.105653459117556" cy="-9.155447500652848" rx="3.5" ry="14" transform="rotate(484.2857142857143 7.105653459117556 4.844552499347152)" fill="hsl(279.1304347826087, 73.92971645708606%, 45.01987775104124%)"></ellipse><ellipse cx="5.362012295985117" cy="-7.276249250774949" rx="3.5" ry="14" transform="rotate(501.4285714285714 5.362012295985117 6.723750749225051)" fill="hsl(279.1304347826087, 83.62577079246888%, 45.288204006071254%)"></ellipse>
				</g>
				<g transform="rotate(12.857142857142858)">
					<ellipse cx="4.489126573382882" cy="-8.370813326230184" rx="3.5" ry="14" transform="rotate(141.42857142857144 4.489126573382882 5.629186673769815)" fill="hsl(279.1304347826087, 69.49030483901211%, 49.97843161001244%)"></ellipse><ellipse cx="2.6304553754380438" cy="-7.297709009761729" rx="3.5" ry="14" transform="rotate(158.57142857142856 2.6304553754380438 6.702290990238271)" fill="hsl(279.1304347826087, 69.19257228336149%, 43.99465898648415%)"></ellipse><ellipse cx="0.5380566738222541" cy="-6.820132660295503" rx="3.5" ry="14" transform="rotate(175.71428571428572 0.5380566738222541 7.179867339704497)" fill="hsl(279.1304347826087, 73.96492452611845%, 57.013268274898806%)"></ellipse><ellipse cx="-1.6021507244854634" cy="-6.98051903229087" rx="3.5" ry="14" transform="rotate(192.85714285714286 -1.6021507244854634 7.01948096770913)" fill="hsl(279.1304347826087, 83.77846573593334%, 50.55054670445213%)"></ellipse><ellipse cx="-3.5999999999999983" cy="-7.764617092752041" rx="3.5" ry="14" transform="rotate(210 -3.5999999999999983 6.235382907247959)" fill="hsl(279.1304347826087, 78.4794387456212%, 50.86869439153537%)"></ellipse><ellipse cx="-5.27797347717475" cy="-9.102756288049381" rx="3.5" ry="14" transform="rotate(227.14285714285714 -5.27797347717475 4.89724371195062)" fill="hsl(279.1304347826087, 85.02604014934539%, 56.875220631605636%)"></ellipse><ellipse cx="-6.486975848897417" cy="-10.87603707835358" rx="3.5" ry="14" transform="rotate(244.28571428571428 -6.486975848897417 3.1239629216464193)" fill="hsl(279.1304347826087, 71.81855226019998%, 51.5614306562952%)"></ellipse><ellipse cx="-7.119581948820925" cy="-12.926895683531544" rx="3.5" ry="14" transform="rotate(261.42857142857144 -7.119581948820925 1.0731043164684548)" fill="hsl(279.1304347826087, 84.38136792408308%, 54.37933715230522%)"></ellipse><ellipse cx="-7.119581948820926" cy="-15.073104316468452" rx="3.5" ry="14" transform="rotate(278.57142857142856 -7.119581948820926 -1.073104316468453)" fill="hsl(279.1304347826087, 90.18908314904216%, 45.89596377667274%)"></ellipse><ellipse cx="-6.486975848897418" cy="-17.123962921646417" rx="3.5" ry="14" transform="rotate(295.7142857142857 -6.486975848897418 -3.1239629216464175)" fill="hsl(279.1304347826087, 82.76344527766577%, 48.48846183133606%)"></ellipse><ellipse cx="-5.277973477174753" cy="-18.897243711950615" rx="3.5" ry="14" transform="rotate(312.85714285714283 -5.277973477174753 -4.897243711950615)" fill="hsl(279.1304347826087, 85.14389640335673%, 50.41796416786681%)"></ellipse><ellipse cx="-3.600000000000003" cy="-20.235382907247956" rx="3.5" ry="14" transform="rotate(330 -3.600000000000003 -6.235382907247956)" fill="hsl(279.1304347826087, 76.57763117206747%, 54.650273125602595%)"></ellipse><ellipse cx="-1.6021507244854587" cy="-21.019480967709132" rx="3.5" ry="14" transform="rotate(347.14285714285717 -1.6021507244854587 -7.019480967709131)" fill="hsl(279.1304347826087, 85.25303578007274%, 53.72297401280283%)"></ellipse><ellipse cx="0.5380566738222554" cy="-21.179867339704497" rx="3.5" ry="14" transform="rotate(364.2857142857143 0.5380566738222554 -7.179867339704497)" fill="hsl(279.1304347826087, 87.35540804819652%, 49.20738597143363%)"></ellipse><ellipse cx="2.630455375438047" cy="-20.702290990238268" rx="3.5" ry="14" transform="rotate(381.42857142857144 2.630455375438047 -6.70229099023827)" fill="hsl(279.1304347826087, 79.76041439270337%, 51.3409792781113%)"></ellipse><ellipse cx="4.4891265733828805" cy="-19.629186673769816" rx="3.5" ry="14" transform="rotate(398.57142857142856 4.4891265733828805 -5.629186673769816)" fill="hsl(279.1304347826087, 71.37714806386865%, 43.42959705653191%)"></ellipse><ellipse cx="5.948919175075161" cy="-18.055904418058084" rx="3.5" ry="14" transform="rotate(415.7142857142857 5.948919175075161 -4.055904418058084)" fill="hsl(279.1304347826087, 76.69112717963172%, 54.207292557246134%)"></ellipse><ellipse cx="6.880124201660214" cy="-16.122237255758506" rx="3.5" ry="14" transform="rotate(432.8571428571429 6.880124201660214 -2.122237255758508)" fill="hsl(279.1304347826087, 68.22195616695886%, 55.42372110116342%)"></ellipse><ellipse cx="7.2" cy="-14.000000000000002" rx="3.5" ry="14" transform="rotate(450 7.2 -1.7634913907721887e-15)" fill="hsl(279.1304347826087, 74.9879338311515%, 53.16329878586953%)"></ellipse><ellipse cx="6.8801242016602115" cy="-11.877762744241483" rx="3.5" ry="14" transform="rotate(467.14285714285717 6.8801242016602115 2.1222372557585167)" fill="hsl(279.1304347826087, 68.15336119738782%, 46.196805408718916%)"></ellipse><ellipse cx="5.9489191750751615" cy="-9.94409558194192" rx="3.5" ry="14" transform="rotate(484.2857142857143 5.9489191750751615 4.0559044180580806)" fill="hsl(279.1304347826087, 68.76758318545808%, 57.95589156424829%)"></ellipse>
				</g>
				<g transform="rotate(17.142857142857142)">
					<ellipse cx="4.792184891032771" cy="-10.732743663230991" rx="3.5" ry="14" transform="rotate(124.28571428571428 4.792184891032771 3.2672563367690084)" fill="hsl(279.1304347826087, 68.62067037906347%, 53.9760452604895%)"></ellipse><ellipse cx="3.616240850780655" cy="-9.465377401685426" rx="3.5" ry="14" transform="rotate(141.42857142857144 3.616240850780655 4.534622598314574)" fill="hsl(279.1304347826087, 87.14306436232695%, 48.19603310473449%)"></ellipse><ellipse cx="2.1189779413250913" cy="-8.600932257863615" rx="3.5" ry="14" transform="rotate(158.57142857142856 2.1189779413250913 5.399067742136385)" fill="hsl(279.1304347826087, 87.93767693072594%, 45.79369198250459%)"></ellipse><ellipse cx="0.43343454280126026" cy="-8.216217976349155" rx="3.5" ry="14" transform="rotate(175.71428571428572 0.43343454280126026 5.783782023650845)" fill="hsl(279.1304347826087, 78.97352113113502%, 47.45085442770119%)"></ellipse><ellipse cx="-1.2906214169466232" cy="-8.345418109345422" rx="3.5" ry="14" transform="rotate(192.85714285714286 -1.2906214169466232 5.654581890654578)" fill="hsl(279.1304347826087, 72.49234514537818%, 56.074174024823435%)"></ellipse><ellipse cx="-2.899999999999999" cy="-8.977052658050255" rx="3.5" ry="14" transform="rotate(210 -2.899999999999999 5.022947341949745)" fill="hsl(279.1304347826087, 84.34789136652975%, 49.123631293113405%)"></ellipse><ellipse cx="-4.2517008566129935" cy="-10.054998120928667" rx="3.5" ry="14" transform="rotate(227.14285714285714 -4.2517008566129935 3.9450018790713326)" fill="hsl(279.1304347826087, 83.66876191755428%, 43.627087719944356%)"></ellipse><ellipse cx="-5.225619433834031" cy="-11.483474313118162" rx="3.5" ry="14" transform="rotate(244.28571428571428 -5.225619433834031 2.516525686881838)" fill="hsl(279.1304347826087, 89.85671867655846%, 49.93520011009325%)"></ellipse><ellipse cx="-5.735218792105746" cy="-13.135554856178187" rx="3.5" ry="14" transform="rotate(261.42857142857144 -5.735218792105746 0.8644451438218135)" fill="hsl(279.1304347826087, 74.0159161826178%, 50.23603175883073%)"></ellipse><ellipse cx="-5.735218792105747" cy="-14.86444514382181" rx="3.5" ry="14" transform="rotate(278.57142857142856 -5.735218792105747 -0.8644451438218095)" fill="hsl(279.1304347826087, 86.11904149965527%, 49.33349358495715%)"></ellipse><ellipse cx="-5.225619433834033" cy="-16.516525686881835" rx="3.5" ry="14" transform="rotate(295.71428571428567 -5.225619433834033 -2.5165256868818346)" fill="hsl(279.1304347826087, 68.87053081934346%, 55.31650363449607%)"></ellipse><ellipse cx="-4.251700856612996" cy="-17.94500187907133" rx="3.5" ry="14" transform="rotate(312.85714285714283 -4.251700856612996 -3.9450018790713295)" fill="hsl(279.1304347826087, 85.75239630048755%, 49.08371056676606%)"></ellipse><ellipse cx="-2.900000000000003" cy="-19.022947341949745" rx="3.5" ry="14" transform="rotate(330 -2.900000000000003 -5.0229473419497435)" fill="hsl(279.1304347826087, 72.30334106346288%, 54.12971659324378%)"></ellipse><ellipse cx="-1.2906214169466197" cy="-19.654581890654576" rx="3.5" ry="14" transform="rotate(347.14285714285717 -1.2906214169466197 -5.654581890654578)" fill="hsl(279.1304347826087, 81.7254979845861%, 48.01931791582503%)"></ellipse><ellipse cx="0.43343454280126137" cy="-19.783782023650843" rx="3.5" ry="14" transform="rotate(364.2857142857143 0.43343454280126137 -5.783782023650845)" fill="hsl(279.1304347826087, 72.16778942925829%, 54.006626778157504%)"></ellipse><ellipse cx="2.1189779413250887" cy="-19.39906774213639" rx="3.5" ry="14" transform="rotate(381.4285714285714 2.1189779413250887 -5.399067742136387)" fill="hsl(279.1304347826087, 81.94923109761177%, 42.91869151880257%)"></ellipse><ellipse cx="3.616240850780654" cy="-18.534622598314574" rx="3.5" ry="14" transform="rotate(398.57142857142856 3.616240850780654 -4.5346225983145745)" fill="hsl(279.1304347826087, 74.02643621431335%, 49.10704397477336%)"></ellipse><ellipse cx="4.792184891032768" cy="-17.267256336769012" rx="3.5" ry="14" transform="rotate(415.7142857142857 4.792184891032768 -3.2672563367690124)" fill="hsl(279.1304347826087, 83.43728464968653%, 56.291900299472495%)"></ellipse><ellipse cx="5.542322273559616" cy="-15.709580011583247" rx="3.5" ry="14" transform="rotate(432.85714285714283 5.542322273559616 -1.7095800115832476)" fill="hsl(279.1304347826087, 86.82296263459325%, 44.95452733904461%)"></ellipse><ellipse cx="5.800000000000001" cy="-14.000000000000002" rx="3.5" ry="14" transform="rotate(450 5.800000000000001 -1.42059028701093e-15)" fill="hsl(279.1304347826087, 71.06610977227217%, 44.874658107800066%)"></ellipse><ellipse cx="5.542322273559619" cy="-12.29041998841676" rx="3.5" ry="14" transform="rotate(467.1428571428571 5.542322273559619 1.70958001158324)" fill="hsl(279.1304347826087, 75.61491918552518%, 52.04904536809891%)"></ellipse>
				</g>
				<g transform="rotate(25.714285714285715)">
					<ellipse cx="4.204520345459019" cy="-12.70307723259202" rx="3.5" ry="14" transform="rotate(107.14285714285714 4.204520345459019 1.2969227674079786)" fill="hsl(279.1304347826087, 79.71233890492698%, 54.08756714965329%)"></ellipse><ellipse cx="3.635450606990378" cy="-11.521391744520063" rx="3.5" ry="14" transform="rotate(124.28571428571428 3.635450606990378 2.478608255479937)" fill="hsl(279.1304347826087, 86.87697892691246%, 45.08583241516248%)"></ellipse><ellipse cx="2.743355128178428" cy="-10.559941477140669" rx="3.5" ry="14" transform="rotate(141.42857142857144 2.743355128178428 3.4400585228593314)" fill="hsl(279.1304347826087, 68.07761618163768%, 45.11726484051079%)"></ellipse><ellipse cx="1.607500507212138" cy="-9.904155505965502" rx="3.5" ry="14" transform="rotate(158.57142857142856 1.607500507212138 4.095844494034499)" fill="hsl(279.1304347826087, 78.20708614611539%, 50.04440880307598%)"></ellipse><ellipse cx="0.3288124117802674" cy="-9.612303292402807" rx="3.5" ry="14" transform="rotate(175.71428571428572 0.3288124117802674 4.387696707597193)" fill="hsl(279.1304347826087, 73.79065185029056%, 46.88722428303529%)"></ellipse><ellipse cx="-0.9790921094077822" cy="-9.710317186399976" rx="3.5" ry="14" transform="rotate(192.85714285714283 -0.9790921094077822 4.289682813600025)" fill="hsl(279.1304347826087, 88.0565529331494%, 52.48929645162292%)"></ellipse><ellipse cx="-2.1999999999999993" cy="-10.18948822334847" rx="3.5" ry="14" transform="rotate(210 -2.1999999999999993 3.8105117766515306)" fill="hsl(279.1304347826087, 71.63857780008263%, 54.0913356944589%)"></ellipse><ellipse cx="-3.2254282360512363" cy="-11.007239953807954" rx="3.5" ry="14" transform="rotate(227.14285714285714 -3.2254282360512363 2.9927600461920454)" fill="hsl(279.1304347826087, 86.28266035046155%, 50.61507049933829%)"></ellipse><ellipse cx="-3.964263018770644" cy="-12.090911547882744" rx="3.5" ry="14" transform="rotate(244.28571428571428 -3.964263018770644 1.9090884521172564)" fill="hsl(279.1304347826087, 85.20035125789357%, 55.19842318389223%)"></ellipse><ellipse cx="-4.350855635390566" cy="-13.344214028824831" rx="3.5" ry="14" transform="rotate(261.42857142857144 -4.350855635390566 0.6557859711751688)" fill="hsl(279.1304347826087, 89.6505521002532%, 43.69783940650991%)"></ellipse><ellipse cx="-4.350855635390566" cy="-14.655785971175165" rx="3.5" ry="14" transform="rotate(278.57142857142856 -4.350855635390566 -0.6557859711751658)" fill="hsl(279.1304347826087, 76.54863573367867%, 44.233483703397106%)"></ellipse><ellipse cx="-3.9642630187706454" cy="-15.909088452117254" rx="3.5" ry="14" transform="rotate(295.71428571428567 -3.9642630187706454 -1.9090884521172538)" fill="hsl(279.1304347826087, 71.83206848605717%, 57.250476112496074%)"></ellipse><ellipse cx="-3.225428236051236" cy="-16.992760046192046" rx="3.5" ry="14" transform="rotate(312.8571428571429 -3.225428236051236 -2.992760046192046)" fill="hsl(279.1304347826087, 74.04442256435175%, 51.58419103007621%)"></ellipse><ellipse cx="-2.200000000000002" cy="-17.81051177665153" rx="3.5" ry="14" transform="rotate(330 -2.200000000000002 -3.8105117766515293)" fill="hsl(279.1304347826087, 72.33949976527663%, 52.349962382326254%)"></ellipse><ellipse cx="-0.9790921094077804" cy="-18.289682813600024" rx="3.5" ry="14" transform="rotate(347.14285714285717 -0.9790921094077804 -4.289682813600025)" fill="hsl(279.1304347826087, 80.0523518647624%, 45.508221669287266%)"></ellipse><ellipse cx="0.3288124117802672" cy="-18.387696707597193" rx="3.5" ry="14" transform="rotate(364.2857142857143 0.3288124117802672 -4.387696707597193)" fill="hsl(279.1304347826087, 85.83100324736408%, 57.94707054635619%)"></ellipse><ellipse cx="1.6075005072121398" cy="-18.0958444940345" rx="3.5" ry="14" transform="rotate(381.42857142857144 1.6075005072121398 -4.095844494034498)" fill="hsl(279.1304347826087, 86.59229601959339%, 49.150174852355654%)"></ellipse><ellipse cx="2.74335512817843" cy="-17.44005852285933" rx="3.5" ry="14" transform="rotate(398.5714285714286 2.74335512817843 -3.4400585228593297)" fill="hsl(279.1304347826087, 78.40719711485285%, 48.24002384905292%)"></ellipse><ellipse cx="3.635450606990376" cy="-16.47860825547994" rx="3.5" ry="14" transform="rotate(415.7142857142857 3.635450606990376 -2.4786082554799402)" fill="hsl(279.1304347826087, 90.07577114041048%, 53.8033534639862%)"></ellipse><ellipse cx="4.20452034545902" cy="-15.296922767407978" rx="3.5" ry="14" transform="rotate(432.8571428571429 4.20452034545902 -1.296922767407977)" fill="hsl(279.1304347826087, 78.80893475908053%, 45.896292612540684%)"></ellipse><ellipse cx="4.4" cy="-14.000000000000002" rx="3.5" ry="14" transform="rotate(450 4.4 -1.077689183249671e-15)" fill="hsl(279.1304347826087, 89.513910319995%, 52.052084987821935%)"></ellipse>
				</g>
				<g transform="rotate(12.857142857142858)">
					<ellipse cx="3" cy="-14" rx="3.5" ry="14" transform="rotate(90 3 0)" fill="hsl(279.1304347826087, 75.52244458553298%, 53.0244704473831%)"></ellipse><ellipse cx="2.866718417358422" cy="-13.115734476767287" rx="3.5" ry="14" transform="rotate(107.14285714285714 2.866718417358422 0.8842655232327126)" fill="hsl(279.1304347826087, 68.93463609651553%, 50.470231646694714%)"></ellipse><ellipse cx="2.4787163229479847" cy="-12.310039825809135" rx="3.5" ry="14" transform="rotate(124.28571428571428 2.4787163229479847 1.6899601741908663)" fill="hsl(279.1304347826087, 72.25441321915297%, 44.46417490094445%)"></ellipse><ellipse cx="1.8704694055762008" cy="-11.65450555259591" rx="3.5" ry="14" transform="rotate(141.42857142857144 1.8704694055762008 2.3454944474040893)" fill="hsl(279.1304347826087, 88.81525792583808%, 56.5373530648516%)"></ellipse><ellipse cx="1.096023073099185" cy="-11.207378754067388" rx="3.5" ry="14" transform="rotate(158.57142857142856 1.096023073099185 2.7926212459326125)" fill="hsl(279.1304347826087, 88.47483819977694%, 55.928846653968854%)"></ellipse><ellipse cx="0.22419028075927316" cy="-11.00838860845646" rx="3.5" ry="14" transform="rotate(175.71428571428572 0.22419028075927316 2.9916113915435405)" fill="hsl(279.1304347826087, 84.63429086051644%, 52.24888893605902%)"></ellipse><ellipse cx="-0.667562801868943" cy="-11.075216263454529" rx="3.5" ry="14" transform="rotate(192.85714285714286 -0.667562801868943 2.924783736545471)" fill="hsl(279.1304347826087, 68.2664713234352%, 55.9838540096534%)"></ellipse><ellipse cx="-1.4999999999999993" cy="-11.401923788646684" rx="3.5" ry="14" transform="rotate(210 -1.4999999999999993 2.598076211353316)" fill="hsl(279.1304347826087, 85.51465783023079%, 56.944160699361234%)"></ellipse><ellipse cx="-2.199155615489479" cy="-11.959481786687242" rx="3.5" ry="14" transform="rotate(227.14285714285714 -2.199155615489479 2.040518213312758)" fill="hsl(279.1304347826087, 82.68584189388197%, 48.7972548881607%)"></ellipse><ellipse cx="-2.702906603707257" cy="-12.698348782647326" rx="3.5" ry="14" transform="rotate(244.28571428571428 -2.702906603707257 1.3016512173526746)" fill="hsl(279.1304347826087, 89.96407130576667%, 50.50460210814238%)"></ellipse><ellipse cx="-2.9664924786753857" cy="-13.552873201471476" rx="3.5" ry="14" transform="rotate(261.42857142857144 -2.9664924786753857 0.44712679852852416)" fill="hsl(279.1304347826087, 70.29643412025543%, 57.670884726073204%)"></ellipse><ellipse cx="-2.966492478675386" cy="-14.447126798528522" rx="3.5" ry="14" transform="rotate(278.57142857142856 -2.966492478675386 -0.4471267985285221)" fill="hsl(279.1304347826087, 75.24441978466864%, 57.09246968605543%)"></ellipse><ellipse cx="-2.7029066037072575" cy="-15.301651217352674" rx="3.5" ry="14" transform="rotate(295.7142857142857 -2.7029066037072575 -1.301651217352674)" fill="hsl(279.1304347826087, 87.33469639970278%, 45.91699808863883%)"></ellipse><ellipse cx="-2.1991556154894787" cy="-16.040518213312758" rx="3.5" ry="14" transform="rotate(312.8571428571429 -2.1991556154894787 -2.040518213312758)" fill="hsl(279.1304347826087, 68.07700986924479%, 50.49246100642908%)"></ellipse><ellipse cx="-1.5000000000000013" cy="-16.598076211353316" rx="3.5" ry="14" transform="rotate(330 -1.5000000000000013 -2.598076211353315)" fill="hsl(279.1304347826087, 86.18852239421479%, 56.23556440467172%)"></ellipse><ellipse cx="-0.6675628018689463" cy="-16.92478373654547" rx="3.5" ry="14" transform="rotate(347.1428571428571 -0.6675628018689463 -2.92478373654547)" fill="hsl(279.1304347826087, 82.59331142927837%, 55.438062783031455%)"></ellipse><ellipse cx="0.2241902807592731" cy="-16.99161139154354" rx="3.5" ry="14" transform="rotate(364.2857142857143 0.2241902807592731 -2.9916113915435405)" fill="hsl(279.1304347826087, 87.04612160486433%, 55.50669531986522%)"></ellipse><ellipse cx="1.096023073099186" cy="-16.79262124593261" rx="3.5" ry="14" transform="rotate(381.42857142857144 1.096023073099186 -2.7926212459326125)" fill="hsl(279.1304347826087, 74.41107805298238%, 53.61965941205959%)"></ellipse><ellipse cx="1.8704694055762001" cy="-16.34549444740409" rx="3.5" ry="14" transform="rotate(398.57142857142856 1.8704694055762001 -2.3454944474040897)" fill="hsl(279.1304347826087, 68.0347585630101%, 57.24491291386915%)"></ellipse><ellipse cx="2.4787163229479834" cy="-15.689960174190869" rx="3.5" ry="14" transform="rotate(415.7142857142857 2.4787163229479834 -1.689960174190868)" fill="hsl(279.1304347826087, 87.946838012269%, 50.19134825602134%)"></ellipse><ellipse cx="2.8667184173584217" cy="-14.884265523232713" rx="3.5" ry="14" transform="rotate(432.85714285714283 2.8667184173584217 -0.8842655232327141)" fill="hsl(279.1304347826087, 81.29387231043569%, 49.83479615501138%)"></ellipse>
				</g>
	</g></svg>