<svg xmlns="http://www.w3.org/2000/svg" viewBox="0 0 100 100" id="svg" shape-rendering="crispEdges" style="--frame-c: #f6c6a4; --frame-bdw: 1em; background-color: rgb(255, 255, 255); --frame-asr: 100 / 100.;">
  <defs>
    <pattern id="squares" width="100" height="100" patternUnits="userSpaceOnUse" shape-rendering="crispEdges">
      <rect x="0" y="0" width="25" height="25" fill="#213050" shape-rendering="crispEdges"></rect><rect x="1.875" y="1.875" width="10.625" height="10.625" fill="#ffffff" shape-rendering="crispEdges"></rect><rect x="12.5" y="12.5" width="10.625" height="10.625" fill="#ffffff" shape-rendering="crispEdges"></rect><rect x="0" y="25" width="25" height="25" fill="#ffffff" shape-rendering="crispEdges"></rect><rect x="1.875" y="26.875" width="10.625" height="10.625" fill="#213050" shape-rendering="crispEdges"></rect><rect x="12.5" y="37.5" width="10.625" height="10.625" fill="#213050" shape-rendering="crispEdges"></rect><rect x="0" y="50" width="25" height="25" fill="#213050" shape-rendering="crispEdges"></rect><rect x="1.875" y="51.875" width="10.625" height="10.625" fill="#ffffff" shape-rendering="crispEdges"></rect><rect x="12.5" y="62.5" width="10.625" height="10.625" fill="#ffffff" shape-rendering="crispEdges"></rect><rect x="0" y="75" width="25" height="25" fill="#ffffff" shape-rendering="crispEdges"></rect><rect x="1.875" y="76.875" width="10.625" height="10.625" fill="#213050" shape-rendering="crispEdges"></rect><rect x="12.5" y="87.5" width="10.625" height="10.625" fill="#213050" shape-rendering="crispEdges"></rect><rect x="25" y="0" width="25" height="25" fill="#ffffff" shape-rendering="crispEdges"></rect><rect x="26.875" y="1.875" width="10.625" height="10.625" fill="#213050" shape-rendering="crispEdges"></rect><rect x="37.5" y="12.5" width="10.625" height="10.625" fill="#213050" shape-rendering="crispEdges"></rect><rect x="25" y="25" width="25" height="25" fill="#213050" shape-rendering="crispEdges"></rect><rect x="26.875" y="26.875" width="10.625" height="10.625" fill="#ffffff" shape-rendering="crispEdges"></rect><rect x="37.5" y="37.5" width="10.625" height="10.625" fill="#ffffff" shape-rendering="crispEdges"></rect><rect x="25" y="50" width="25" height="25" fill="#ffffff" shape-rendering="crispEdges"></rect><rect x="26.875" y="51.875" width="10.625" height="10.625" fill="#213050" shape-rendering="crispEdges"></rect><rect x="37.5" y="62.5" width="10.625" height="10.625" fill="#213050" shape-rendering="crispEdges"></rect><rect x="25" y="75" width="25" height="25" fill="#213050" shape-rendering="crispEdges"></rect><rect x="26.875" y="76.875" width="10.625" height="10.625" fill="#ffffff" shape-rendering="crispEdges"></rect><rect x="37.5" y="87.5" width="10.625" height="10.625" fill="#ffffff" shape-rendering="crispEdges"></rect><rect x="50" y="0" width="25" height="25" fill="#213050" shape-rendering="crispEdges"></rect><rect x="51.875" y="1.875" width="10.625" height="10.625" fill="#ffffff" shape-rendering="crispEdges"></rect><rect x="62.5" y="12.5" width="10.625" height="10.625" fill="#ffffff" shape-rendering="crispEdges"></rect><rect x="50" y="25" width="25" height="25" fill="#ffffff" shape-rendering="crispEdges"></rect><rect x="51.875" y="26.875" width="10.625" height="10.625" fill="#213050" shape-rendering="crispEdges"></rect><rect x="62.5" y="37.5" width="10.625" height="10.625" fill="#213050" shape-rendering="crispEdges"></rect><rect x="50" y="50" width="25" height="25" fill="#213050" shape-rendering="crispEdges"></rect><rect x="51.875" y="51.875" width="10.625" height="10.625" fill="#ffffff" shape-rendering="crispEdges"></rect><rect x="62.5" y="62.5" width="10.625" height="10.625" fill="#ffffff" shape-rendering="crispEdges"></rect><rect x="50" y="75" width="25" height="25" fill="#ffffff" shape-rendering="crispEdges"></rect><rect x="51.875" y="76.875" width="10.625" height="10.625" fill="#213050" shape-rendering="crispEdges"></rect><rect x="62.5" y="87.5" width="10.625" height="10.625" fill="#213050" shape-rendering="crispEdges"></rect><rect x="75" y="0" width="25" height="25" fill="#ffffff" shape-rendering="crispEdges"></rect><rect x="76.875" y="1.875" width="10.625" height="10.625" fill="#213050" shape-rendering="crispEdges"></rect><rect x="87.5" y="12.5" width="10.625" height="10.625" fill="#213050" shape-rendering="crispEdges"></rect><rect x="75" y="25" width="25" height="25" fill="#213050" shape-rendering="crispEdges"></rect><rect x="76.875" y="26.875" width="10.625" height="10.625" fill="#ffffff" shape-rendering="crispEdges"></rect><rect x="87.5" y="37.5" width="10.625" height="10.625" fill="#ffffff" shape-rendering="crispEdges"></rect><rect x="75" y="50" width="25" height="25" fill="#ffffff" shape-rendering="crispEdges"></rect><rect x="76.875" y="51.875" width="10.625" height="10.625" fill="#213050" shape-rendering="crispEdges"></rect><rect x="87.5" y="62.5" width="10.625" height="10.625" fill="#213050" shape-rendering="crispEdges"></rect><rect x="75" y="75" width="25" height="25" fill="#213050" shape-rendering="crispEdges"></rect><rect x="76.875" y="76.875" width="10.625" height="10.625" fill="#ffffff" shape-rendering="crispEdges"></rect><rect x="87.5" y="87.5" width="10.625" height="10.625" fill="#ffffff" shape-rendering="crispEdges"></rect>
    </pattern>
  </defs>
  <g transform="translate(3.75 3.75) scale(0.925)">
    <rect width="100" height="100" fill="url(#squares)" shape-rendering="crispEdges"></rect>
  </g></svg>