<svg xmlns="http://www.w3.org/2000/svg" viewBox="0 0 100 100" id="svg" style="--frame-c: #f6c6a4; --frame-bdw: 1em; background-color: rgb(249, 249, 235); --frame-asr: 100 / 100.;"><g transform="translate(50 50) scale(0.925)">
    <ellipse cx="-46.15384615384615" cy="-46.666666666666664" rx="3.1" ry="3.1" fill="#ee5353"></ellipse>
<ellipse cx="-38.46153846153846" cy="-46.666666666666664" rx="3.1" ry="3.1" fill="#ee5353"></ellipse>
<ellipse cx="-30.769230769230766" cy="-46.666666666666664" rx="3.1" ry="3.1" fill="#ee5353"></ellipse>
<ellipse cx="-23.076923076923077" cy="-46.666666666666664" rx="3.1" ry="3.1" fill="#ee5353"></ellipse>
<ellipse cx="-15.384615384615383" cy="-46.666666666666664" rx="3.1" ry="3.1" fill="#ee5353"></ellipse>
<ellipse cx="-7.692307692307693" cy="-46.666666666666664" rx="3.1" ry="3.1" fill="#ee5353"></ellipse>
<ellipse cx="-4.440892098500626e-16" cy="-46.666666666666664" rx="3.1" ry="3.1" fill="#ee5353"></ellipse>
<ellipse cx="7.692307692307693" cy="-46.666666666666664" rx="3.1" ry="3.1" fill="#ee5353"></ellipse>
<ellipse cx="15.384615384615387" cy="-46.666666666666664" rx="3.1" ry="3.1" fill="#ee5353"></ellipse>
<ellipse cx="23.076923076923073" cy="-46.666666666666664" rx="3.1" ry="3.1" fill="#ee5353"></ellipse>
<ellipse cx="30.769230769230766" cy="-46.666666666666664" rx="3.1" ry="3.1" fill="#ee5353"></ellipse>
<ellipse cx="38.46153846153846" cy="-46.666666666666664" rx="3.1" ry="3.1" fill="#ee5353"></ellipse>
<ellipse cx="46.15384615384615" cy="-46.666666666666664" rx="3.1" ry="3.1" fill="#ee5353"></ellipse>
<ellipse cx="-42.30769230769231" cy="-40" rx="3.1" ry="3.1" fill="#e65058"></ellipse>
<ellipse cx="-34.61538461538461" cy="-40" rx="3.1" ry="3.1" fill="#e75057"></ellipse>
<ellipse cx="-26.923076923076923" cy="-40" rx="3.1" ry="3.1" fill="#e85057"></ellipse>
<ellipse cx="-19.23076923076923" cy="-40" rx="3.1" ry="3.1" fill="#e95156"></ellipse>
<ellipse cx="-11.53846153846154" cy="-40" rx="3.1" ry="3.1" fill="#ea5156"></ellipse>
<ellipse cx="-3.846153846153847" cy="-40" rx="3.1" ry="3.1" fill="#ea5155"></ellipse>
<ellipse cx="3.8461538461538463" cy="-40" rx="3.1" ry="3.1" fill="#eb5255"></ellipse>
<ellipse cx="11.53846153846154" cy="-40" rx="3.1" ry="3.1" fill="#ec5254"></ellipse>
<ellipse cx="19.230769230769234" cy="-40" rx="3.1" ry="3.1" fill="#ed5254"></ellipse>
<ellipse cx="26.923076923076913" cy="-40" rx="3.1" ry="3.1" fill="#ee5353"></ellipse>
<ellipse cx="34.615384615384606" cy="-40" rx="3.1" ry="3.1" fill="#ee5353"></ellipse>
<ellipse cx="42.3076923076923" cy="-40" rx="3.1" ry="3.1" fill="#ee5353"></ellipse>
<ellipse cx="-46.15384615384615" cy="-33.33333333333333" rx="3.1" ry="3.1" fill="#de4c5d"></ellipse>
<ellipse cx="-38.46153846153846" cy="-33.33333333333333" rx="3.1" ry="3.1" fill="#df4c5d"></ellipse>
<ellipse cx="-30.769230769230766" cy="-33.33333333333333" rx="3.1" ry="3.1" fill="#e04d5c"></ellipse>
<ellipse cx="-23.076923076923077" cy="-33.33333333333333" rx="3.1" ry="3.1" fill="#e04d5c"></ellipse>
<ellipse cx="-15.384615384615383" cy="-33.33333333333333" rx="3.1" ry="3.1" fill="#e14d5b"></ellipse>
<ellipse cx="-7.692307692307693" cy="-33.33333333333333" rx="3.1" ry="3.1" fill="#e24e5b"></ellipse>
<ellipse cx="-4.440892098500626e-16" cy="-33.33333333333333" rx="3.1" ry="3.1" fill="#e34e5a"></ellipse>
<ellipse cx="7.692307692307693" cy="-33.33333333333333" rx="3.1" ry="3.1" fill="#e44e5a"></ellipse>
<ellipse cx="15.384615384615387" cy="-33.33333333333333" rx="3.1" ry="3.1" fill="#e44f59"></ellipse>
<ellipse cx="23.076923076923073" cy="-33.33333333333333" rx="3.1" ry="3.1" fill="#e54f59"></ellipse>
<ellipse cx="30.769230769230766" cy="-33.33333333333333" rx="3.1" ry="3.1" fill="#e64f58"></ellipse>
<ellipse cx="38.46153846153846" cy="-33.33333333333333" rx="3.1" ry="3.1" fill="#e75057"></ellipse>
<ellipse cx="46.15384615384615" cy="-33.33333333333333" rx="3.1" ry="3.1" fill="#e85057"></ellipse>
<ellipse cx="-42.30769230769231" cy="-26.666666666666668" rx="3.1" ry="3.1" fill="#d64862"></ellipse>
<ellipse cx="-34.61538461538461" cy="-26.666666666666668" rx="3.1" ry="3.1" fill="#d74961"></ellipse>
<ellipse cx="-26.923076923076923" cy="-26.666666666666668" rx="3.1" ry="3.1" fill="#d84961"></ellipse>
<ellipse cx="-19.23076923076923" cy="-26.666666666666668" rx="3.1" ry="3.1" fill="#d94a60"></ellipse>
<ellipse cx="-11.53846153846154" cy="-26.666666666666668" rx="3.1" ry="3.1" fill="#da4a60"></ellipse>
<ellipse cx="-3.846153846153847" cy="-26.666666666666668" rx="3.1" ry="3.1" fill="#db4a5f"></ellipse>
<ellipse cx="3.8461538461538463" cy="-26.666666666666668" rx="3.1" ry="3.1" fill="#db4b5f"></ellipse>
<ellipse cx="11.53846153846154" cy="-26.666666666666668" rx="3.1" ry="3.1" fill="#dc4b5e"></ellipse>
<ellipse cx="19.230769230769234" cy="-26.666666666666668" rx="3.1" ry="3.1" fill="#dd4b5e"></ellipse>
<ellipse cx="26.923076923076913" cy="-26.666666666666668" rx="3.1" ry="3.1" fill="#de4c5d"></ellipse>
<ellipse cx="34.615384615384606" cy="-26.666666666666668" rx="3.1" ry="3.1" fill="#df4c5d"></ellipse>
<ellipse cx="42.3076923076923" cy="-26.666666666666668" rx="3.1" ry="3.1" fill="#df4c5c"></ellipse>
<ellipse cx="-46.15384615384615" cy="-20" rx="3.1" ry="3.1" fill="#ce4567"></ellipse>
<ellipse cx="-38.46153846153846" cy="-20" rx="3.1" ry="3.1" fill="#cf4567"></ellipse>
<ellipse cx="-30.769230769230766" cy="-20" rx="3.1" ry="3.1" fill="#d04566"></ellipse>
<ellipse cx="-23.076923076923077" cy="-20" rx="3.1" ry="3.1" fill="#d14666"></ellipse>
<ellipse cx="-15.384615384615383" cy="-20" rx="3.1" ry="3.1" fill="#d14665"></ellipse>
<ellipse cx="-7.692307692307693" cy="-20" rx="3.1" ry="3.1" fill="#d24665"></ellipse>
<ellipse cx="-4.440892098500626e-16" cy="-20" rx="3.1" ry="3.1" fill="#d34764"></ellipse>
<ellipse cx="7.692307692307693" cy="-20" rx="3.1" ry="3.1" fill="#d44764"></ellipse>
<ellipse cx="15.384615384615387" cy="-20" rx="3.1" ry="3.1" fill="#d54863"></ellipse>
<ellipse cx="23.076923076923073" cy="-20" rx="3.1" ry="3.1" fill="#d54863"></ellipse>
<ellipse cx="30.769230769230766" cy="-20" rx="3.1" ry="3.1" fill="#d64862"></ellipse>
<ellipse cx="38.46153846153846" cy="-20" rx="3.1" ry="3.1" fill="#d74962"></ellipse>
<ellipse cx="46.15384615384615" cy="-20" rx="3.1" ry="3.1" fill="#d84961"></ellipse>
<ellipse cx="-42.30769230769231" cy="-13.33333333333333" rx="3.1" ry="3.1" fill="#c7416c"></ellipse>
<ellipse cx="-34.61538461538461" cy="-13.33333333333333" rx="3.1" ry="3.1" fill="#c7426b"></ellipse>
<ellipse cx="-26.923076923076923" cy="-13.33333333333333" rx="3.1" ry="3.1" fill="#c8426b"></ellipse>
<ellipse cx="-19.23076923076923" cy="-13.33333333333333" rx="3.1" ry="3.1" fill="#c9426a"></ellipse>
<ellipse cx="-11.53846153846154" cy="-13.33333333333333" rx="3.1" ry="3.1" fill="#ca436a"></ellipse>
<ellipse cx="-3.846153846153847" cy="-13.33333333333333" rx="3.1" ry="3.1" fill="#cb4369"></ellipse>
<ellipse cx="3.8461538461538463" cy="-13.33333333333333" rx="3.1" ry="3.1" fill="#cb4369"></ellipse>
<ellipse cx="11.53846153846154" cy="-13.33333333333333" rx="3.1" ry="3.1" fill="#cc4468"></ellipse>
<ellipse cx="19.230769230769234" cy="-13.33333333333333" rx="3.1" ry="3.1" fill="#cd4468"></ellipse>
<ellipse cx="26.923076923076913" cy="-13.33333333333333" rx="3.1" ry="3.1" fill="#ce4567"></ellipse>
<ellipse cx="34.615384615384606" cy="-13.33333333333333" rx="3.1" ry="3.1" fill="#cf4567"></ellipse>
<ellipse cx="42.3076923076923" cy="-13.33333333333333" rx="3.1" ry="3.1" fill="#cf4566"></ellipse>
<ellipse cx="-46.15384615384615" cy="-6.666666666666666" rx="3.1" ry="3.1" fill="#be3d71"></ellipse>
<ellipse cx="-38.46153846153846" cy="-6.666666666666666" rx="3.1" ry="3.1" fill="#bf3e71"></ellipse>
<ellipse cx="-30.769230769230766" cy="-6.666666666666666" rx="3.1" ry="3.1" fill="#c03e70"></ellipse>
<ellipse cx="-23.076923076923077" cy="-6.666666666666666" rx="3.1" ry="3.1" fill="#c13f70"></ellipse>
<ellipse cx="-15.384615384615383" cy="-6.666666666666666" rx="3.1" ry="3.1" fill="#c13f6f"></ellipse>
<ellipse cx="-7.692307692307693" cy="-6.666666666666666" rx="3.1" ry="3.1" fill="#c23f6f"></ellipse>
<ellipse cx="-4.440892098500626e-16" cy="-6.666666666666666" rx="3.1" ry="3.1" fill="#c3406e"></ellipse>
<ellipse cx="7.692307692307693" cy="-6.666666666666666" rx="3.1" ry="3.1" fill="#c4406e"></ellipse>
<ellipse cx="15.384615384615387" cy="-6.666666666666666" rx="3.1" ry="3.1" fill="#c5406d"></ellipse>
<ellipse cx="23.076923076923073" cy="-6.666666666666666" rx="3.1" ry="3.1" fill="#c5416d"></ellipse>
<ellipse cx="30.769230769230766" cy="-6.666666666666666" rx="3.1" ry="3.1" fill="#c6416c"></ellipse>
<ellipse cx="38.46153846153846" cy="-6.666666666666666" rx="3.1" ry="3.1" fill="#c7416c"></ellipse>
<ellipse cx="46.15384615384615" cy="-6.666666666666666" rx="3.1" ry="3.1" fill="#c8426b"></ellipse>
<ellipse cx="-42.30769230769231" cy="4.884981308350689e-15" rx="3.1" ry="3.1" fill="#b73a76"></ellipse>
<ellipse cx="-34.61538461538461" cy="4.884981308350689e-15" rx="3.1" ry="3.1" fill="#b73a76"></ellipse>
<ellipse cx="-26.923076923076923" cy="4.884981308350689e-15" rx="3.1" ry="3.1" fill="#b83b75"></ellipse>
<ellipse cx="-19.23076923076923" cy="4.884981308350689e-15" rx="3.1" ry="3.1" fill="#b93b75"></ellipse>
<ellipse cx="-11.53846153846154" cy="4.884981308350689e-15" rx="3.1" ry="3.1" fill="#ba3c74"></ellipse>
<ellipse cx="-3.846153846153847" cy="4.884981308350689e-15" rx="3.1" ry="3.1" fill="#bb3c74"></ellipse>
<ellipse cx="3.8461538461538463" cy="4.884981308350689e-15" rx="3.1" ry="3.1" fill="#bb3c73"></ellipse>
<ellipse cx="11.53846153846154" cy="4.884981308350689e-15" rx="3.1" ry="3.1" fill="#bc3d73"></ellipse>
<ellipse cx="19.230769230769234" cy="4.884981308350689e-15" rx="3.1" ry="3.1" fill="#bd3d72"></ellipse>
<ellipse cx="26.923076923076913" cy="4.884981308350689e-15" rx="3.1" ry="3.1" fill="#be3d71"></ellipse>
<ellipse cx="34.615384615384606" cy="4.884981308350689e-15" rx="3.1" ry="3.1" fill="#bf3e71"></ellipse>
<ellipse cx="42.3076923076923" cy="4.884981308350689e-15" rx="3.1" ry="3.1" fill="#bf3e70"></ellipse>
<ellipse cx="-46.15384615384615" cy="6.66666666666667" rx="3.1" ry="3.1" fill="#b23673"></ellipse>
<ellipse cx="-38.46153846153846" cy="6.66666666666667" rx="3.1" ry="3.1" fill="#b23774"></ellipse>
<ellipse cx="-30.769230769230766" cy="6.66666666666667" rx="3.1" ry="3.1" fill="#b23776"></ellipse>
<ellipse cx="-23.076923076923077" cy="6.66666666666667" rx="3.1" ry="3.1" fill="#b23777"></ellipse>
<ellipse cx="-15.384615384615383" cy="6.66666666666667" rx="3.1" ry="3.1" fill="#b23878"></ellipse>
<ellipse cx="-7.692307692307693" cy="6.66666666666667" rx="3.1" ry="3.1" fill="#b23879"></ellipse>
<ellipse cx="-4.440892098500626e-16" cy="6.66666666666667" rx="3.1" ry="3.1" fill="#b33878"></ellipse>
<ellipse cx="7.692307692307693" cy="6.66666666666667" rx="3.1" ry="3.1" fill="#b43978"></ellipse>
<ellipse cx="15.384615384615387" cy="6.66666666666667" rx="3.1" ry="3.1" fill="#b53977"></ellipse>
<ellipse cx="23.076923076923073" cy="6.66666666666667" rx="3.1" ry="3.1" fill="#b53a77"></ellipse>
<ellipse cx="30.769230769230766" cy="6.66666666666667" rx="3.1" ry="3.1" fill="#b63a76"></ellipse>
<ellipse cx="38.46153846153846" cy="6.66666666666667" rx="3.1" ry="3.1" fill="#b73a76"></ellipse>
<ellipse cx="46.15384615384615" cy="6.66666666666667" rx="3.1" ry="3.1" fill="#b83b75"></ellipse>
<ellipse cx="-42.30769230769231" cy="13.333333333333334" rx="3.1" ry="3.1" fill="#b13367"></ellipse>
<ellipse cx="-34.61538461538461" cy="13.333333333333334" rx="3.1" ry="3.1" fill="#b13369"></ellipse>
<ellipse cx="-26.923076923076923" cy="13.333333333333334" rx="3.1" ry="3.1" fill="#b1336a"></ellipse>
<ellipse cx="-19.23076923076923" cy="13.333333333333334" rx="3.1" ry="3.1" fill="#b1346b"></ellipse>
<ellipse cx="-11.53846153846154" cy="13.333333333333334" rx="3.1" ry="3.1" fill="#b1346c"></ellipse>
<ellipse cx="-3.846153846153847" cy="13.333333333333334" rx="3.1" ry="3.1" fill="#b1346e"></ellipse>
<ellipse cx="3.8461538461538463" cy="13.333333333333334" rx="3.1" ry="3.1" fill="#b1356f"></ellipse>
<ellipse cx="11.53846153846154" cy="13.333333333333334" rx="3.1" ry="3.1" fill="#b13570"></ellipse>
<ellipse cx="19.230769230769234" cy="13.333333333333334" rx="3.1" ry="3.1" fill="#b23671"></ellipse>
<ellipse cx="26.923076923076913" cy="13.333333333333334" rx="3.1" ry="3.1" fill="#b23673"></ellipse>
<ellipse cx="34.615384615384606" cy="13.333333333333334" rx="3.1" ry="3.1" fill="#b23674"></ellipse>
<ellipse cx="42.3076923076923" cy="13.333333333333334" rx="3.1" ry="3.1" fill="#b23775"></ellipse>
<ellipse cx="-46.15384615384615" cy="20.000000000000004" rx="3.1" ry="3.1" fill="#b02e5a"></ellipse>
<ellipse cx="-38.46153846153846" cy="20.000000000000004" rx="3.1" ry="3.1" fill="#b02f5b"></ellipse>
<ellipse cx="-30.769230769230766" cy="20.000000000000004" rx="3.1" ry="3.1" fill="#b02f5d"></ellipse>
<ellipse cx="-23.076923076923077" cy="20.000000000000004" rx="3.1" ry="3.1" fill="#b0305e"></ellipse>
<ellipse cx="-15.384615384615383" cy="20.000000000000004" rx="3.1" ry="3.1" fill="#b0305f"></ellipse>
<ellipse cx="-7.692307692307693" cy="20.000000000000004" rx="3.1" ry="3.1" fill="#b03060"></ellipse>
<ellipse cx="-4.440892098500626e-16" cy="20.000000000000004" rx="3.1" ry="3.1" fill="#b13162"></ellipse>
<ellipse cx="7.692307692307693" cy="20.000000000000004" rx="3.1" ry="3.1" fill="#b13163"></ellipse>
<ellipse cx="15.384615384615387" cy="20.000000000000004" rx="3.1" ry="3.1" fill="#b13264"></ellipse>
<ellipse cx="23.076923076923073" cy="20.000000000000004" rx="3.1" ry="3.1" fill="#b13265"></ellipse>
<ellipse cx="30.769230769230766" cy="20.000000000000004" rx="3.1" ry="3.1" fill="#b13267"></ellipse>
<ellipse cx="38.46153846153846" cy="20.000000000000004" rx="3.1" ry="3.1" fill="#b13368"></ellipse>
<ellipse cx="46.15384615384615" cy="20.000000000000004" rx="3.1" ry="3.1" fill="#b13369"></ellipse>
<ellipse cx="-42.30769230769231" cy="26.666666666666675" rx="3.1" ry="3.1" fill="#af2b4e"></ellipse>
<ellipse cx="-34.61538461538461" cy="26.666666666666675" rx="3.1" ry="3.1" fill="#af2b50"></ellipse>
<ellipse cx="-26.923076923076923" cy="26.666666666666675" rx="3.1" ry="3.1" fill="#af2c51"></ellipse>
<ellipse cx="-19.23076923076923" cy="26.666666666666675" rx="3.1" ry="3.1" fill="#b02c52"></ellipse>
<ellipse cx="-11.53846153846154" cy="26.666666666666675" rx="3.1" ry="3.1" fill="#b02c53"></ellipse>
<ellipse cx="-3.846153846153847" cy="26.666666666666675" rx="3.1" ry="3.1" fill="#b02d55"></ellipse>
<ellipse cx="3.8461538461538463" cy="26.666666666666675" rx="3.1" ry="3.1" fill="#b02d56"></ellipse>
<ellipse cx="11.53846153846154" cy="26.666666666666675" rx="3.1" ry="3.1" fill="#b02e57"></ellipse>
<ellipse cx="19.230769230769234" cy="26.666666666666675" rx="3.1" ry="3.1" fill="#b02e58"></ellipse>
<ellipse cx="26.923076923076913" cy="26.666666666666675" rx="3.1" ry="3.1" fill="#b02e5a"></ellipse>
<ellipse cx="34.615384615384606" cy="26.666666666666675" rx="3.1" ry="3.1" fill="#b02f5b"></ellipse>
<ellipse cx="42.3076923076923" cy="26.666666666666675" rx="3.1" ry="3.1" fill="#b02f5c"></ellipse>
<ellipse cx="-46.15384615384615" cy="33.333333333333336" rx="3.1" ry="3.1" fill="#ae2741"></ellipse>
<ellipse cx="-38.46153846153846" cy="33.333333333333336" rx="3.1" ry="3.1" fill="#af2742"></ellipse>
<ellipse cx="-30.769230769230766" cy="33.333333333333336" rx="3.1" ry="3.1" fill="#af2844"></ellipse>
<ellipse cx="-23.076923076923077" cy="33.333333333333336" rx="3.1" ry="3.1" fill="#af2845"></ellipse>
<ellipse cx="-15.384615384615383" cy="33.333333333333336" rx="3.1" ry="3.1" fill="#af2846"></ellipse>
<ellipse cx="-7.692307692307693" cy="33.333333333333336" rx="3.1" ry="3.1" fill="#af2947"></ellipse>
<ellipse cx="-4.440892098500626e-16" cy="33.333333333333336" rx="3.1" ry="3.1" fill="#af2949"></ellipse>
<ellipse cx="7.692307692307693" cy="33.333333333333336" rx="3.1" ry="3.1" fill="#af294a"></ellipse>
<ellipse cx="15.384615384615387" cy="33.333333333333336" rx="3.1" ry="3.1" fill="#af2a4b"></ellipse>
<ellipse cx="23.076923076923073" cy="33.333333333333336" rx="3.1" ry="3.1" fill="#af2a4d"></ellipse>
<ellipse cx="30.769230769230766" cy="33.333333333333336" rx="3.1" ry="3.1" fill="#af2b4e"></ellipse>
<ellipse cx="38.46153846153846" cy="33.333333333333336" rx="3.1" ry="3.1" fill="#af2b4f"></ellipse>
<ellipse cx="46.15384615384615" cy="33.333333333333336" rx="3.1" ry="3.1" fill="#af2b50"></ellipse>
<ellipse cx="-42.30769230769231" cy="40.00000000000001" rx="3.1" ry="3.1" fill="#ae2335"></ellipse>
<ellipse cx="-34.61538461538461" cy="40.00000000000001" rx="3.1" ry="3.1" fill="#ae2437"></ellipse>
<ellipse cx="-26.923076923076923" cy="40.00000000000001" rx="3.1" ry="3.1" fill="#ae2438"></ellipse>
<ellipse cx="-19.23076923076923" cy="40.00000000000001" rx="3.1" ry="3.1" fill="#ae2439"></ellipse>
<ellipse cx="-11.53846153846154" cy="40.00000000000001" rx="3.1" ry="3.1" fill="#ae253a"></ellipse>
<ellipse cx="-3.846153846153847" cy="40.00000000000001" rx="3.1" ry="3.1" fill="#ae253c"></ellipse>
<ellipse cx="3.8461538461538463" cy="40.00000000000001" rx="3.1" ry="3.1" fill="#ae253d"></ellipse>
<ellipse cx="11.53846153846154" cy="40.00000000000001" rx="3.1" ry="3.1" fill="#ae263e"></ellipse>
<ellipse cx="19.230769230769234" cy="40.00000000000001" rx="3.1" ry="3.1" fill="#ae263f"></ellipse>
<ellipse cx="26.923076923076913" cy="40.00000000000001" rx="3.1" ry="3.1" fill="#ae2741"></ellipse>
<ellipse cx="34.615384615384606" cy="40.00000000000001" rx="3.1" ry="3.1" fill="#ae2742"></ellipse>
<ellipse cx="42.3076923076923" cy="40.00000000000001" rx="3.1" ry="3.1" fill="#af2743"></ellipse>
<ellipse cx="-46.15384615384615" cy="46.66666666666668" rx="3.1" ry="3.1" fill="#ad1f28"></ellipse>
<ellipse cx="-38.46153846153846" cy="46.66666666666668" rx="3.1" ry="3.1" fill="#ad1f29"></ellipse>
<ellipse cx="-30.769230769230766" cy="46.66666666666668" rx="3.1" ry="3.1" fill="#ad202b"></ellipse>
<ellipse cx="-23.076923076923077" cy="46.66666666666668" rx="3.1" ry="3.1" fill="#ad202c"></ellipse>
<ellipse cx="-15.384615384615383" cy="46.66666666666668" rx="3.1" ry="3.1" fill="#ad212d"></ellipse>
<ellipse cx="-7.692307692307693" cy="46.66666666666668" rx="3.1" ry="3.1" fill="#ad212f"></ellipse>
<ellipse cx="-4.440892098500626e-16" cy="46.66666666666668" rx="3.1" ry="3.1" fill="#ad2130"></ellipse>
<ellipse cx="7.692307692307693" cy="46.66666666666668" rx="3.1" ry="3.1" fill="#ad2231"></ellipse>
<ellipse cx="15.384615384615387" cy="46.66666666666668" rx="3.1" ry="3.1" fill="#ad2232"></ellipse>
<ellipse cx="23.076923076923073" cy="46.66666666666668" rx="3.1" ry="3.1" fill="#ae2334"></ellipse>
<ellipse cx="30.769230769230766" cy="46.66666666666668" rx="3.1" ry="3.1" fill="#ae2335"></ellipse>
<ellipse cx="38.46153846153846" cy="46.66666666666668" rx="3.1" ry="3.1" fill="#ae2336"></ellipse>
<ellipse cx="46.15384615384615" cy="46.66666666666668" rx="3.1" ry="3.1" fill="#ae2437"></ellipse>
  </g></svg>