<svg xmlns="http://www.w3.org/2000/svg" viewBox="0 0 100 100" id="svg" style="--frame-c: #f6c6a4; --frame-bdw: 1em; background-color: rgb(249, 249, 235); --frame-asr: 100 / 100.;"><g transform="translate(50 50) scale(0.925)">
    <ellipse cx="-46.15384615384615" cy="-48" rx="2" ry="1.952" fill="#537aee"></ellipse>
<ellipse cx="-38.46153846153846" cy="-48" rx="2" ry="1.952" fill="#5d7be6"></ellipse>
<ellipse cx="-30.769230769230766" cy="-48" rx="2" ry="1.952" fill="#667cdd"></ellipse>
<ellipse cx="-23.076923076923077" cy="-48" rx="2" ry="1.952" fill="#707dd5"></ellipse>
<ellipse cx="-15.384615384615383" cy="-48" rx="2" ry="1.952" fill="#797ecc"></ellipse>
<ellipse cx="-7.692307692307693" cy="-48" rx="2" ry="1.952" fill="#837fc4"></ellipse>
<ellipse cx="-4.440892098500626e-16" cy="-48" rx="2" ry="1.952" fill="#8c80bc"></ellipse>
<ellipse cx="7.692307692307693" cy="-48" rx="2" ry="1.952" fill="#9681b3"></ellipse>
<ellipse cx="15.384615384615387" cy="-48" rx="2" ry="1.952" fill="#a082ab"></ellipse>
<ellipse cx="23.076923076923073" cy="-48" rx="2" ry="1.952" fill="#a983a3"></ellipse>
<ellipse cx="30.769230769230766" cy="-48" rx="2" ry="1.952" fill="#9e87a0"></ellipse>
<ellipse cx="38.46153846153846" cy="-48" rx="2" ry="1.952" fill="#8f8b9e"></ellipse>
<ellipse cx="46.15384615384615" cy="-48" rx="2" ry="1.952" fill="#7f8f9c"></ellipse>
<ellipse cx="-42.30769230769231" cy="-44" rx="2" ry="1.856" fill="#5d7be5"></ellipse>
<ellipse cx="-34.61538461538461" cy="-44" rx="2" ry="1.856" fill="#667cdd"></ellipse>
<ellipse cx="-26.923076923076923" cy="-44" rx="2" ry="1.856" fill="#707dd5"></ellipse>
<ellipse cx="-19.23076923076923" cy="-44" rx="2" ry="1.856" fill="#797ecc"></ellipse>
<ellipse cx="-11.53846153846154" cy="-44" rx="2" ry="1.856" fill="#837fc4"></ellipse>
<ellipse cx="-3.846153846153847" cy="-44" rx="2" ry="1.856" fill="#8d80bc"></ellipse>
<ellipse cx="3.8461538461538463" cy="-44" rx="2" ry="1.856" fill="#9681b3"></ellipse>
<ellipse cx="11.53846153846154" cy="-44" rx="2" ry="1.856" fill="#a082ab"></ellipse>
<ellipse cx="19.230769230769234" cy="-44" rx="2" ry="1.856" fill="#a983a2"></ellipse>
<ellipse cx="26.923076923076913" cy="-44" rx="2" ry="1.856" fill="#9e87a0"></ellipse>
<ellipse cx="34.615384615384606" cy="-44" rx="2" ry="1.856" fill="#8e8b9e"></ellipse>
<ellipse cx="42.3076923076923" cy="-44" rx="2" ry="1.856" fill="#7f8f9c"></ellipse>
<ellipse cx="-46.15384615384615" cy="-40" rx="2" ry="1.76" fill="#5d7be5"></ellipse>
<ellipse cx="-38.46153846153846" cy="-40" rx="2" ry="1.76" fill="#677cdd"></ellipse>
<ellipse cx="-30.769230769230766" cy="-40" rx="2" ry="1.76" fill="#707dd5"></ellipse>
<ellipse cx="-23.076923076923077" cy="-40" rx="2" ry="1.76" fill="#7a7ecc"></ellipse>
<ellipse cx="-15.384615384615383" cy="-40" rx="2" ry="1.76" fill="#837fc4"></ellipse>
<ellipse cx="-7.692307692307693" cy="-40" rx="2" ry="1.76" fill="#8d80bb"></ellipse>
<ellipse cx="-4.440892098500626e-16" cy="-40" rx="2" ry="1.76" fill="#9681b3"></ellipse>
<ellipse cx="7.692307692307693" cy="-40" rx="2" ry="1.76" fill="#a082ab"></ellipse>
<ellipse cx="15.384615384615387" cy="-40" rx="2" ry="1.76" fill="#aa83a2"></ellipse>
<ellipse cx="23.076923076923073" cy="-40" rx="2" ry="1.76" fill="#9e87a0"></ellipse>
<ellipse cx="30.769230769230766" cy="-40" rx="2" ry="1.76" fill="#8e8b9e"></ellipse>
<ellipse cx="38.46153846153846" cy="-40" rx="2" ry="1.76" fill="#7e8f9c"></ellipse>
<ellipse cx="46.15384615384615" cy="-40" rx="2" ry="1.76" fill="#6f949b"></ellipse>
<ellipse cx="-42.30769230769231" cy="-36" rx="2" ry="1.6640000000000001" fill="#677cdd"></ellipse>
<ellipse cx="-34.61538461538461" cy="-36" rx="2" ry="1.6640000000000001" fill="#707dd4"></ellipse>
<ellipse cx="-26.923076923076923" cy="-36" rx="2" ry="1.6640000000000001" fill="#7a7ecc"></ellipse>
<ellipse cx="-19.23076923076923" cy="-36" rx="2" ry="1.6640000000000001" fill="#837fc4"></ellipse>
<ellipse cx="-11.53846153846154" cy="-36" rx="2" ry="1.6640000000000001" fill="#8d80bb"></ellipse>
<ellipse cx="-3.846153846153847" cy="-36" rx="2" ry="1.6640000000000001" fill="#9781b3"></ellipse>
<ellipse cx="3.8461538461538463" cy="-36" rx="2" ry="1.6640000000000001" fill="#a082aa"></ellipse>
<ellipse cx="11.53846153846154" cy="-36" rx="2" ry="1.6640000000000001" fill="#aa83a2"></ellipse>
<ellipse cx="19.230769230769234" cy="-36" rx="2" ry="1.6640000000000001" fill="#9d87a0"></ellipse>
<ellipse cx="26.923076923076913" cy="-36" rx="2" ry="1.6640000000000001" fill="#8e8b9e"></ellipse>
<ellipse cx="34.615384615384606" cy="-36" rx="2" ry="1.6640000000000001" fill="#7e8f9c"></ellipse>
<ellipse cx="42.3076923076923" cy="-36" rx="2" ry="1.6640000000000001" fill="#6e949b"></ellipse>
<ellipse cx="-46.15384615384615" cy="-32" rx="2" ry="1.568" fill="#677cdd"></ellipse>
<ellipse cx="-38.46153846153846" cy="-32" rx="2" ry="1.568" fill="#707dd4"></ellipse>
<ellipse cx="-30.769230769230766" cy="-32" rx="2" ry="1.568" fill="#7a7ecc"></ellipse>
<ellipse cx="-23.076923076923077" cy="-32" rx="2" ry="1.568" fill="#847fc3"></ellipse>
<ellipse cx="-15.384615384615383" cy="-32" rx="2" ry="1.568" fill="#8d80bb"></ellipse>
<ellipse cx="-7.692307692307693" cy="-32" rx="2" ry="1.568" fill="#9781b3"></ellipse>
<ellipse cx="-4.440892098500626e-16" cy="-32" rx="2" ry="1.568" fill="#a082aa"></ellipse>
<ellipse cx="7.692307692307693" cy="-32" rx="2" ry="1.568" fill="#aa83a2"></ellipse>
<ellipse cx="15.384615384615387" cy="-32" rx="2" ry="1.568" fill="#9d87a0"></ellipse>
<ellipse cx="23.076923076923073" cy="-32" rx="2" ry="1.568" fill="#8d8b9e"></ellipse>
<ellipse cx="30.769230769230766" cy="-32" rx="2" ry="1.568" fill="#7e909c"></ellipse>
<ellipse cx="38.46153846153846" cy="-32" rx="2" ry="1.568" fill="#6e949b"></ellipse>
<ellipse cx="46.15384615384615" cy="-32" rx="2" ry="1.568" fill="#5e9899"></ellipse>
<ellipse cx="-42.30769230769231" cy="-28" rx="2" ry="1.472" fill="#717dd4"></ellipse>
<ellipse cx="-34.61538461538461" cy="-28" rx="2" ry="1.472" fill="#7a7ecc"></ellipse>
<ellipse cx="-26.923076923076923" cy="-28" rx="2" ry="1.472" fill="#847fc3"></ellipse>
<ellipse cx="-19.23076923076923" cy="-28" rx="2" ry="1.472" fill="#8d80bb"></ellipse>
<ellipse cx="-11.53846153846154" cy="-28" rx="2" ry="1.472" fill="#9781b3"></ellipse>
<ellipse cx="-3.846153846153847" cy="-28" rx="2" ry="1.472" fill="#a182aa"></ellipse>
<ellipse cx="3.8461538461538463" cy="-28" rx="2" ry="1.472" fill="#aa83a2"></ellipse>
<ellipse cx="11.53846153846154" cy="-28" rx="2" ry="1.472" fill="#9d87a0"></ellipse>
<ellipse cx="19.230769230769234" cy="-28" rx="2" ry="1.472" fill="#8d8b9e"></ellipse>
<ellipse cx="26.923076923076913" cy="-28" rx="2" ry="1.472" fill="#7d909c"></ellipse>
<ellipse cx="34.615384615384606" cy="-28" rx="2" ry="1.472" fill="#6e949b"></ellipse>
<ellipse cx="42.3076923076923" cy="-28" rx="2" ry="1.472" fill="#5e9899"></ellipse>
<ellipse cx="-46.15384615384615" cy="-24" rx="2" ry="1.376" fill="#717dd4"></ellipse>
<ellipse cx="-38.46153846153846" cy="-24" rx="2" ry="1.376" fill="#7a7ecb"></ellipse>
<ellipse cx="-30.769230769230766" cy="-24" rx="2" ry="1.376" fill="#847fc3"></ellipse>
<ellipse cx="-23.076923076923077" cy="-24" rx="2" ry="1.376" fill="#8e80bb"></ellipse>
<ellipse cx="-15.384615384615383" cy="-24" rx="2" ry="1.376" fill="#9781b2"></ellipse>
<ellipse cx="-7.692307692307693" cy="-24" rx="2" ry="1.376" fill="#a182aa"></ellipse>
<ellipse cx="-4.440892098500626e-16" cy="-24" rx="2" ry="1.376" fill="#aa83a2"></ellipse>
<ellipse cx="7.692307692307693" cy="-24" rx="2" ry="1.376" fill="#9c879f"></ellipse>
<ellipse cx="15.384615384615387" cy="-24" rx="2" ry="1.376" fill="#8d8b9e"></ellipse>
<ellipse cx="23.076923076923073" cy="-24" rx="2" ry="1.376" fill="#7d909c"></ellipse>
<ellipse cx="30.769230769230766" cy="-24" rx="2" ry="1.376" fill="#6d949b"></ellipse>
<ellipse cx="38.46153846153846" cy="-24" rx="2" ry="1.376" fill="#5e9899"></ellipse>
<ellipse cx="46.15384615384615" cy="-24" rx="2" ry="1.376" fill="#4e9d97"></ellipse>
<ellipse cx="-42.30769230769231" cy="-20" rx="2" ry="1.28" fill="#7b7ecb"></ellipse>
<ellipse cx="-34.61538461538461" cy="-20" rx="2" ry="1.28" fill="#847fc3"></ellipse>
<ellipse cx="-26.923076923076923" cy="-20" rx="2" ry="1.28" fill="#8e80bb"></ellipse>
<ellipse cx="-19.23076923076923" cy="-20" rx="2" ry="1.28" fill="#9781b2"></ellipse>
<ellipse cx="-11.53846153846154" cy="-20" rx="2" ry="1.28" fill="#a182aa"></ellipse>
<ellipse cx="-3.846153846153847" cy="-20" rx="2" ry="1.28" fill="#aa83a1"></ellipse>
<ellipse cx="3.8461538461538463" cy="-20" rx="2" ry="1.28" fill="#9c879f"></ellipse>
<ellipse cx="11.53846153846154" cy="-20" rx="2" ry="1.28" fill="#8c8b9e"></ellipse>
<ellipse cx="19.230769230769234" cy="-20" rx="2" ry="1.28" fill="#7d909c"></ellipse>
<ellipse cx="26.923076923076913" cy="-20" rx="2" ry="1.28" fill="#6d949b"></ellipse>
<ellipse cx="34.615384615384606" cy="-20" rx="2" ry="1.28" fill="#5d9999"></ellipse>
<ellipse cx="42.3076923076923" cy="-20" rx="2" ry="1.28" fill="#4e9d97"></ellipse>
<ellipse cx="-46.15384615384615" cy="-16" rx="2" ry="1.1840000000000002" fill="#7b7ecb"></ellipse>
<ellipse cx="-38.46153846153846" cy="-16" rx="2" ry="1.1840000000000002" fill="#847fc3"></ellipse>
<ellipse cx="-30.769230769230766" cy="-16" rx="2" ry="1.1840000000000002" fill="#8e80ba"></ellipse>
<ellipse cx="-23.076923076923077" cy="-16" rx="2" ry="1.1840000000000002" fill="#9881b2"></ellipse>
<ellipse cx="-15.384615384615383" cy="-16" rx="2" ry="1.1840000000000002" fill="#a182aa"></ellipse>
<ellipse cx="-7.692307692307693" cy="-16" rx="2" ry="1.1840000000000002" fill="#ab83a1"></ellipse>
<ellipse cx="-4.440892098500626e-16" cy="-16" rx="2" ry="1.1840000000000002" fill="#9c879f"></ellipse>
<ellipse cx="7.692307692307693" cy="-16" rx="2" ry="1.1840000000000002" fill="#8c8c9e"></ellipse>
<ellipse cx="15.384615384615387" cy="-16" rx="2" ry="1.1840000000000002" fill="#7d909c"></ellipse>
<ellipse cx="23.076923076923073" cy="-16" rx="2" ry="1.1840000000000002" fill="#6d949b"></ellipse>
<ellipse cx="30.769230769230766" cy="-16" rx="2" ry="1.1840000000000002" fill="#5d9999"></ellipse>
<ellipse cx="38.46153846153846" cy="-16" rx="2" ry="1.1840000000000002" fill="#4e9d97"></ellipse>
<ellipse cx="46.15384615384615" cy="-16" rx="2" ry="1.1840000000000002" fill="#3ea196"></ellipse>
<ellipse cx="-42.30769230769231" cy="-12" rx="2" ry="1.088" fill="#857fc3"></ellipse>
<ellipse cx="-34.61538461538461" cy="-12" rx="2" ry="1.088" fill="#8e80ba"></ellipse>
<ellipse cx="-26.923076923076923" cy="-12" rx="2" ry="1.088" fill="#9881b2"></ellipse>
<ellipse cx="-19.23076923076923" cy="-12" rx="2" ry="1.088" fill="#a182a9"></ellipse>
<ellipse cx="-11.53846153846154" cy="-12" rx="2" ry="1.088" fill="#ab83a1"></ellipse>
<ellipse cx="-3.846153846153847" cy="-12" rx="2" ry="1.088" fill="#9c879f"></ellipse>
<ellipse cx="3.8461538461538463" cy="-12" rx="2" ry="1.088" fill="#8c8c9e"></ellipse>
<ellipse cx="11.53846153846154" cy="-12" rx="2" ry="1.088" fill="#7c909c"></ellipse>
<ellipse cx="19.230769230769234" cy="-12" rx="2" ry="1.088" fill="#6d949a"></ellipse>
<ellipse cx="26.923076923076913" cy="-12" rx="2" ry="1.088" fill="#5d9999"></ellipse>
<ellipse cx="34.615384615384606" cy="-12" rx="2" ry="1.088" fill="#4d9d97"></ellipse>
<ellipse cx="42.3076923076923" cy="-12" rx="2" ry="1.088" fill="#3ea196"></ellipse>
<ellipse cx="-46.15384615384615" cy="-8" rx="2" ry="0.992" fill="#857fc2"></ellipse>
<ellipse cx="-38.46153846153846" cy="-8" rx="2" ry="0.992" fill="#8e80ba"></ellipse>
<ellipse cx="-30.769230769230766" cy="-8" rx="2" ry="0.992" fill="#9881b2"></ellipse>
<ellipse cx="-23.076923076923077" cy="-8" rx="2" ry="0.992" fill="#a182a9"></ellipse>
<ellipse cx="-15.384615384615383" cy="-8" rx="2" ry="0.992" fill="#ab83a1"></ellipse>
<ellipse cx="-7.692307692307693" cy="-8" rx="2" ry="0.992" fill="#9b879f"></ellipse>
<ellipse cx="-4.440892098500626e-16" cy="-8" rx="2" ry="0.992" fill="#8c8c9e"></ellipse>
<ellipse cx="7.692307692307693" cy="-8" rx="2" ry="0.992" fill="#7c909c"></ellipse>
<ellipse cx="15.384615384615387" cy="-8" rx="2" ry="0.992" fill="#6c949a"></ellipse>
<ellipse cx="23.076923076923073" cy="-8" rx="2" ry="0.992" fill="#5d9999"></ellipse>
<ellipse cx="30.769230769230766" cy="-8" rx="2" ry="0.992" fill="#4d9d97"></ellipse>
<ellipse cx="38.46153846153846" cy="-8" rx="2" ry="0.992" fill="#3da196"></ellipse>
<ellipse cx="46.15384615384615" cy="-8" rx="2" ry="0.992" fill="#2ea694"></ellipse>
<ellipse cx="-42.30769230769231" cy="-4" rx="2" ry="0.896" fill="#8f80ba"></ellipse>
<ellipse cx="-34.61538461538461" cy="-4" rx="2" ry="0.896" fill="#9881b2"></ellipse>
<ellipse cx="-26.923076923076923" cy="-4" rx="2" ry="0.896" fill="#a282a9"></ellipse>
<ellipse cx="-19.23076923076923" cy="-4" rx="2" ry="0.896" fill="#ab83a1"></ellipse>
<ellipse cx="-11.53846153846154" cy="-4" rx="2" ry="0.896" fill="#9b879f"></ellipse>
<ellipse cx="-3.846153846153847" cy="-4" rx="2" ry="0.896" fill="#8b8c9e"></ellipse>
<ellipse cx="3.8461538461538463" cy="-4" rx="2" ry="0.896" fill="#7c909c"></ellipse>
<ellipse cx="11.53846153846154" cy="-4" rx="2" ry="0.896" fill="#6c959a"></ellipse>
<ellipse cx="19.230769230769234" cy="-4" rx="2" ry="0.896" fill="#5c9999"></ellipse>
<ellipse cx="26.923076923076913" cy="-4" rx="2" ry="0.896" fill="#4d9d97"></ellipse>
<ellipse cx="34.615384615384606" cy="-4" rx="2" ry="0.896" fill="#3da296"></ellipse>
<ellipse cx="42.3076923076923" cy="-4" rx="2" ry="0.896" fill="#2da694"></ellipse>
<ellipse cx="-46.15384615384615" cy="0" rx="2" ry="0.8" fill="#8f80ba"></ellipse>
<ellipse cx="-38.46153846153846" cy="0" rx="2" ry="0.8" fill="#9881b1"></ellipse>
<ellipse cx="-30.769230769230766" cy="0" rx="2" ry="0.8" fill="#a282a9"></ellipse>
<ellipse cx="-23.076923076923077" cy="0" rx="2" ry="0.8" fill="#aa83a1"></ellipse>
<ellipse cx="-15.384615384615383" cy="0" rx="2" ry="0.8" fill="#9b889f"></ellipse>
<ellipse cx="-7.692307692307693" cy="0" rx="2" ry="0.8" fill="#8b8c9e"></ellipse>
<ellipse cx="-4.440892098500626e-16" cy="0" rx="2" ry="0.8" fill="#7b909c"></ellipse>
<ellipse cx="7.692307692307693" cy="0" rx="2" ry="0.8" fill="#6c959a"></ellipse>
<ellipse cx="15.384615384615387" cy="0" rx="2" ry="0.8" fill="#5c9999"></ellipse>
<ellipse cx="23.076923076923073" cy="0" rx="2" ry="0.8" fill="#4c9d97"></ellipse>
<ellipse cx="30.769230769230766" cy="0" rx="2" ry="0.8" fill="#3da295"></ellipse>
<ellipse cx="38.46153846153846" cy="0" rx="2" ry="0.8" fill="#2da694"></ellipse>
<ellipse cx="46.15384615384615" cy="0" rx="2" ry="0.8" fill="#1daa92"></ellipse>
<ellipse cx="-42.30769230769231" cy="4" rx="2" ry="0.896" fill="#9981b1"></ellipse>
<ellipse cx="-34.61538461538461" cy="4" rx="2" ry="0.896" fill="#a282a9"></ellipse>
<ellipse cx="-26.923076923076923" cy="4" rx="2" ry="0.896" fill="#aa83a1"></ellipse>
<ellipse cx="-19.23076923076923" cy="4" rx="2" ry="0.896" fill="#9a889f"></ellipse>
<ellipse cx="-11.53846153846154" cy="4" rx="2" ry="0.896" fill="#8b8c9e"></ellipse>
<ellipse cx="-3.846153846153847" cy="4" rx="2" ry="0.896" fill="#7b909c"></ellipse>
<ellipse cx="3.8461538461538463" cy="4" rx="2" ry="0.896" fill="#6b959a"></ellipse>
<ellipse cx="11.53846153846154" cy="4" rx="2" ry="0.896" fill="#5c9999"></ellipse>
<ellipse cx="19.230769230769234" cy="4" rx="2" ry="0.896" fill="#4c9d97"></ellipse>
<ellipse cx="26.923076923076913" cy="4" rx="2" ry="0.896" fill="#3ca295"></ellipse>
<ellipse cx="34.615384615384606" cy="4" rx="2" ry="0.896" fill="#2da694"></ellipse>
<ellipse cx="42.3076923076923" cy="4" rx="2" ry="0.896" fill="#1daa92"></ellipse>
<ellipse cx="-46.15384615384615" cy="8" rx="2" ry="0.992" fill="#9981b1"></ellipse>
<ellipse cx="-38.46153846153846" cy="8" rx="2" ry="0.992" fill="#a282a9"></ellipse>
<ellipse cx="-30.769230769230766" cy="8" rx="2" ry="0.992" fill="#aa83a1"></ellipse>
<ellipse cx="-23.076923076923077" cy="8" rx="2" ry="0.992" fill="#9a889f"></ellipse>
<ellipse cx="-15.384615384615383" cy="8" rx="2" ry="0.992" fill="#8a8c9e"></ellipse>
<ellipse cx="-7.692307692307693" cy="8" rx="2" ry="0.992" fill="#7b909c"></ellipse>
<ellipse cx="-4.440892098500626e-16" cy="8" rx="2" ry="0.992" fill="#6b959a"></ellipse>
<ellipse cx="7.692307692307693" cy="8" rx="2" ry="0.992" fill="#5b9999"></ellipse>
<ellipse cx="15.384615384615387" cy="8" rx="2" ry="0.992" fill="#4c9d97"></ellipse>
<ellipse cx="23.076923076923073" cy="8" rx="2" ry="0.992" fill="#3ca295"></ellipse>
<ellipse cx="30.769230769230766" cy="8" rx="2" ry="0.992" fill="#2ca694"></ellipse>
<ellipse cx="38.46153846153846" cy="8" rx="2" ry="0.992" fill="#1dab92"></ellipse>
<ellipse cx="46.15384615384615" cy="8" rx="2" ry="0.992" fill="#1bab92"></ellipse>
<ellipse cx="-42.30769230769231" cy="12" rx="2" ry="1.088" fill="#a282a8"></ellipse>
<ellipse cx="-34.61538461538461" cy="12" rx="2" ry="1.088" fill="#a983a1"></ellipse>
<ellipse cx="-26.923076923076923" cy="12" rx="2" ry="1.088" fill="#9a889f"></ellipse>
<ellipse cx="-19.23076923076923" cy="12" rx="2" ry="1.088" fill="#8a8c9e"></ellipse>
<ellipse cx="-11.53846153846154" cy="12" rx="2" ry="1.088" fill="#7a919c"></ellipse>
<ellipse cx="-3.846153846153847" cy="12" rx="2" ry="1.088" fill="#6b959a"></ellipse>
<ellipse cx="3.8461538461538463" cy="12" rx="2" ry="1.088" fill="#5b9999"></ellipse>
<ellipse cx="11.53846153846154" cy="12" rx="2" ry="1.088" fill="#4b9e97"></ellipse>
<ellipse cx="19.230769230769234" cy="12" rx="2" ry="1.088" fill="#3ca295"></ellipse>
<ellipse cx="26.923076923076913" cy="12" rx="2" ry="1.088" fill="#2ca694"></ellipse>
<ellipse cx="34.615384615384606" cy="12" rx="2" ry="1.088" fill="#1cab92"></ellipse>
<ellipse cx="42.3076923076923" cy="12" rx="2" ry="1.088" fill="#1bab92"></ellipse>
<ellipse cx="-46.15384615384615" cy="16" rx="2" ry="1.1840000000000002" fill="#a382a8"></ellipse>
<ellipse cx="-38.46153846153846" cy="16" rx="2" ry="1.1840000000000002" fill="#a984a1"></ellipse>
<ellipse cx="-30.769230769230766" cy="16" rx="2" ry="1.1840000000000002" fill="#99889f"></ellipse>
<ellipse cx="-23.076923076923077" cy="16" rx="2" ry="1.1840000000000002" fill="#8a8c9e"></ellipse>
<ellipse cx="-15.384615384615383" cy="16" rx="2" ry="1.1840000000000002" fill="#7a919c"></ellipse>
<ellipse cx="-7.692307692307693" cy="16" rx="2" ry="1.1840000000000002" fill="#6a959a"></ellipse>
<ellipse cx="-4.440892098500626e-16" cy="16" rx="2" ry="1.1840000000000002" fill="#5b9999"></ellipse>
<ellipse cx="7.692307692307693" cy="16" rx="2" ry="1.1840000000000002" fill="#4b9e97"></ellipse>
<ellipse cx="15.384615384615387" cy="16" rx="2" ry="1.1840000000000002" fill="#3ba295"></ellipse>
<ellipse cx="23.076923076923073" cy="16" rx="2" ry="1.1840000000000002" fill="#2ca694"></ellipse>
<ellipse cx="30.769230769230766" cy="16" rx="2" ry="1.1840000000000002" fill="#1cab92"></ellipse>
<ellipse cx="38.46153846153846" cy="16" rx="2" ry="1.1840000000000002" fill="#1bab92"></ellipse>
<ellipse cx="46.15384615384615" cy="16" rx="2" ry="1.1840000000000002" fill="#1bab92"></ellipse>
<ellipse cx="-42.30769230769231" cy="20" rx="2" ry="1.28" fill="#a984a1"></ellipse>
<ellipse cx="-34.61538461538461" cy="20" rx="2" ry="1.28" fill="#99889f"></ellipse>
<ellipse cx="-26.923076923076923" cy="20" rx="2" ry="1.28" fill="#898c9d"></ellipse>
<ellipse cx="-19.23076923076923" cy="20" rx="2" ry="1.28" fill="#7a919c"></ellipse>
<ellipse cx="-11.53846153846154" cy="20" rx="2" ry="1.28" fill="#6a959a"></ellipse>
<ellipse cx="-3.846153846153847" cy="20" rx="2" ry="1.28" fill="#5a9999"></ellipse>
<ellipse cx="3.8461538461538463" cy="20" rx="2" ry="1.28" fill="#4b9e97"></ellipse>
<ellipse cx="11.53846153846154" cy="20" rx="2" ry="1.28" fill="#3ba295"></ellipse>
<ellipse cx="19.230769230769234" cy="20" rx="2" ry="1.28" fill="#2ba694"></ellipse>
<ellipse cx="26.923076923076913" cy="20" rx="2" ry="1.28" fill="#1cab92"></ellipse>
<ellipse cx="34.615384615384606" cy="20" rx="2" ry="1.28" fill="#1bab92"></ellipse>
<ellipse cx="42.3076923076923" cy="20" rx="2" ry="1.28" fill="#1bab92"></ellipse>
<ellipse cx="-46.15384615384615" cy="24" rx="2" ry="1.376" fill="#a884a1"></ellipse>
<ellipse cx="-38.46153846153846" cy="24" rx="2" ry="1.376" fill="#99889f"></ellipse>
<ellipse cx="-30.769230769230766" cy="24" rx="2" ry="1.376" fill="#898c9d"></ellipse>
<ellipse cx="-23.076923076923077" cy="24" rx="2" ry="1.376" fill="#79919c"></ellipse>
<ellipse cx="-15.384615384615383" cy="24" rx="2" ry="1.376" fill="#6a959a"></ellipse>
<ellipse cx="-7.692307692307693" cy="24" rx="2" ry="1.376" fill="#5a9999"></ellipse>
<ellipse cx="-4.440892098500626e-16" cy="24" rx="2" ry="1.376" fill="#4a9e97"></ellipse>
<ellipse cx="7.692307692307693" cy="24" rx="2" ry="1.376" fill="#3ba295"></ellipse>
<ellipse cx="15.384615384615387" cy="24" rx="2" ry="1.376" fill="#2ba794"></ellipse>
<ellipse cx="23.076923076923073" cy="24" rx="2" ry="1.376" fill="#1bab92"></ellipse>
<ellipse cx="30.769230769230766" cy="24" rx="2" ry="1.376" fill="#1bab92"></ellipse>
<ellipse cx="38.46153846153846" cy="24" rx="2" ry="1.376" fill="#1bab92"></ellipse>
<ellipse cx="46.15384615384615" cy="24" rx="2" ry="1.376" fill="#1bab92"></ellipse>
<ellipse cx="-42.30769230769231" cy="28" rx="2" ry="1.472" fill="#98889f"></ellipse>
<ellipse cx="-34.61538461538461" cy="28" rx="2" ry="1.472" fill="#898d9d"></ellipse>
<ellipse cx="-26.923076923076923" cy="28" rx="2" ry="1.472" fill="#79919c"></ellipse>
<ellipse cx="-19.23076923076923" cy="28" rx="2" ry="1.472" fill="#69959a"></ellipse>
<ellipse cx="-11.53846153846154" cy="28" rx="2" ry="1.472" fill="#5a9a99"></ellipse>
<ellipse cx="-3.846153846153847" cy="28" rx="2" ry="1.472" fill="#4a9e97"></ellipse>
<ellipse cx="3.8461538461538463" cy="28" rx="2" ry="1.472" fill="#3aa295"></ellipse>
<ellipse cx="11.53846153846154" cy="28" rx="2" ry="1.472" fill="#2ba794"></ellipse>
<ellipse cx="19.230769230769234" cy="28" rx="2" ry="1.472" fill="#1bab92"></ellipse>
<ellipse cx="26.923076923076913" cy="28" rx="2" ry="1.472" fill="#1bab92"></ellipse>
<ellipse cx="34.615384615384606" cy="28" rx="2" ry="1.472" fill="#1bab92"></ellipse>
<ellipse cx="42.3076923076923" cy="28" rx="2" ry="1.472" fill="#1bab92"></ellipse>
<ellipse cx="-46.15384615384615" cy="32" rx="2" ry="1.568" fill="#98889f"></ellipse>
<ellipse cx="-38.46153846153846" cy="32" rx="2" ry="1.568" fill="#888d9d"></ellipse>
<ellipse cx="-30.769230769230766" cy="32" rx="2" ry="1.568" fill="#79919c"></ellipse>
<ellipse cx="-23.076923076923077" cy="32" rx="2" ry="1.568" fill="#69959a"></ellipse>
<ellipse cx="-15.384615384615383" cy="32" rx="2" ry="1.568" fill="#599a99"></ellipse>
<ellipse cx="-7.692307692307693" cy="32" rx="2" ry="1.568" fill="#4a9e97"></ellipse>
<ellipse cx="-4.440892098500626e-16" cy="32" rx="2" ry="1.568" fill="#3aa295"></ellipse>
<ellipse cx="7.692307692307693" cy="32" rx="2" ry="1.568" fill="#2aa794"></ellipse>
<ellipse cx="15.384615384615387" cy="32" rx="2" ry="1.568" fill="#1bab92"></ellipse>
<ellipse cx="23.076923076923073" cy="32" rx="2" ry="1.568" fill="#1bab92"></ellipse>
<ellipse cx="30.769230769230766" cy="32" rx="2" ry="1.568" fill="#1bab92"></ellipse>
<ellipse cx="38.46153846153846" cy="32" rx="2" ry="1.568" fill="#1bab92"></ellipse>
<ellipse cx="46.15384615384615" cy="32" rx="2" ry="1.568" fill="#1bab92"></ellipse>
<ellipse cx="-42.30769230769231" cy="36" rx="2" ry="1.6640000000000001" fill="#888d9d"></ellipse>
<ellipse cx="-34.61538461538461" cy="36" rx="2" ry="1.6640000000000001" fill="#78919c"></ellipse>
<ellipse cx="-26.923076923076923" cy="36" rx="2" ry="1.6640000000000001" fill="#69959a"></ellipse>
<ellipse cx="-19.23076923076923" cy="36" rx="2" ry="1.6640000000000001" fill="#599a98"></ellipse>
<ellipse cx="-11.53846153846154" cy="36" rx="2" ry="1.6640000000000001" fill="#499e97"></ellipse>
<ellipse cx="-3.846153846153847" cy="36" rx="2" ry="1.6640000000000001" fill="#3aa295"></ellipse>
<ellipse cx="3.8461538461538463" cy="36" rx="2" ry="1.6640000000000001" fill="#2aa794"></ellipse>
<ellipse cx="11.53846153846154" cy="36" rx="2" ry="1.6640000000000001" fill="#1bab92"></ellipse>
<ellipse cx="19.230769230769234" cy="36" rx="2" ry="1.6640000000000001" fill="#1bab92"></ellipse>
<ellipse cx="26.923076923076913" cy="36" rx="2" ry="1.6640000000000001" fill="#1bab92"></ellipse>
<ellipse cx="34.615384615384606" cy="36" rx="2" ry="1.6640000000000001" fill="#1bab92"></ellipse>
<ellipse cx="42.3076923076923" cy="36" rx="2" ry="1.6640000000000001" fill="#1bab92"></ellipse>
<ellipse cx="-46.15384615384615" cy="40" rx="2" ry="1.76" fill="#888d9d"></ellipse>
<ellipse cx="-38.46153846153846" cy="40" rx="2" ry="1.76" fill="#78919c"></ellipse>
<ellipse cx="-30.769230769230766" cy="40" rx="2" ry="1.76" fill="#68959a"></ellipse>
<ellipse cx="-23.076923076923077" cy="40" rx="2" ry="1.76" fill="#599a98"></ellipse>
<ellipse cx="-15.384615384615383" cy="40" rx="2" ry="1.76" fill="#499e97"></ellipse>
<ellipse cx="-7.692307692307693" cy="40" rx="2" ry="1.76" fill="#39a395"></ellipse>
<ellipse cx="-4.440892098500626e-16" cy="40" rx="2" ry="1.76" fill="#2aa794"></ellipse>
<ellipse cx="7.692307692307693" cy="40" rx="2" ry="1.76" fill="#1bab92"></ellipse>
<ellipse cx="15.384615384615387" cy="40" rx="2" ry="1.76" fill="#1bab92"></ellipse>
<ellipse cx="23.076923076923073" cy="40" rx="2" ry="1.76" fill="#1bab92"></ellipse>
<ellipse cx="30.769230769230766" cy="40" rx="2" ry="1.76" fill="#1bab92"></ellipse>
<ellipse cx="38.46153846153846" cy="40" rx="2" ry="1.76" fill="#1bab92"></ellipse>
<ellipse cx="46.15384615384615" cy="40" rx="2" ry="1.76" fill="#1bab92"></ellipse>
<ellipse cx="-42.30769230769231" cy="44" rx="2" ry="1.856" fill="#78919c"></ellipse>
<ellipse cx="-34.61538461538461" cy="44" rx="2" ry="1.856" fill="#68969a"></ellipse>
<ellipse cx="-26.923076923076923" cy="44" rx="2" ry="1.856" fill="#589a98"></ellipse>
<ellipse cx="-19.23076923076923" cy="44" rx="2" ry="1.856" fill="#499e97"></ellipse>
<ellipse cx="-11.53846153846154" cy="44" rx="2" ry="1.856" fill="#39a395"></ellipse>
<ellipse cx="-3.846153846153847" cy="44" rx="2" ry="1.856" fill="#29a794"></ellipse>
<ellipse cx="3.8461538461538463" cy="44" rx="2" ry="1.856" fill="#1bab92"></ellipse>
<ellipse cx="11.53846153846154" cy="44" rx="2" ry="1.856" fill="#1bab92"></ellipse>
<ellipse cx="19.230769230769234" cy="44" rx="2" ry="1.856" fill="#1bab92"></ellipse>
<ellipse cx="26.923076923076913" cy="44" rx="2" ry="1.856" fill="#1bab92"></ellipse>
<ellipse cx="34.615384615384606" cy="44" rx="2" ry="1.856" fill="#1bab92"></ellipse>
<ellipse cx="42.3076923076923" cy="44" rx="2" ry="1.856" fill="#1bab92"></ellipse>
<ellipse cx="-46.15384615384615" cy="48" rx="2" ry="1.952" fill="#77919c"></ellipse>
<ellipse cx="-38.46153846153846" cy="48" rx="2" ry="1.952" fill="#68969a"></ellipse>
<ellipse cx="-30.769230769230766" cy="48" rx="2" ry="1.952" fill="#589a98"></ellipse>
<ellipse cx="-23.076923076923077" cy="48" rx="2" ry="1.952" fill="#499e97"></ellipse>
<ellipse cx="-15.384615384615383" cy="48" rx="2" ry="1.952" fill="#39a395"></ellipse>
<ellipse cx="-7.692307692307693" cy="48" rx="2" ry="1.952" fill="#29a793"></ellipse>
<ellipse cx="-4.440892098500626e-16" cy="48" rx="2" ry="1.952" fill="#1bab92"></ellipse>
<ellipse cx="7.692307692307693" cy="48" rx="2" ry="1.952" fill="#1bab92"></ellipse>
<ellipse cx="15.384615384615387" cy="48" rx="2" ry="1.952" fill="#1bab92"></ellipse>
<ellipse cx="23.076923076923073" cy="48" rx="2" ry="1.952" fill="#1bab92"></ellipse>
<ellipse cx="30.769230769230766" cy="48" rx="2" ry="1.952" fill="#1bab92"></ellipse>
<ellipse cx="38.46153846153846" cy="48" rx="2" ry="1.952" fill="#1bab92"></ellipse>
<ellipse cx="46.15384615384615" cy="48" rx="2" ry="1.952" fill="#1bab92"></ellipse>
  </g></svg>