<svg xmlns="http://www.w3.org/2000/svg" viewBox="0 0 100 100" id="svg" style="--frame-c: #f6c6a4; --frame-bdw: 1em; stroke: rgba(96, 122, 26, 0.65); stroke-width: 0.2; background-color: rgb(30, 38, 8); --frame-asr: 100 / 100.;"><g transform="translate(50 50) scale(0.95)">
    <circle cx="0" cy="0" r="50" fill="none"></circle>

    <circle cx="0" cy="48" r="2" fill="none"></circle><circle cx="0" cy="46" r="4" fill="none"></circle><circle cx="0" cy="44" r="6" fill="none"></circle><circle cx="0" cy="42" r="8" fill="none"></circle><circle cx="0" cy="40" r="10" fill="none"></circle><circle cx="0" cy="38" r="12" fill="none"></circle><circle cx="0" cy="36" r="14" fill="none"></circle><circle cx="0" cy="34" r="16" fill="none"></circle><circle cx="0" cy="32" r="18" fill="none"></circle><circle cx="0" cy="30" r="20" fill="none"></circle><circle cx="0" cy="28" r="22" fill="none"></circle><circle cx="0" cy="26" r="24" fill="none"></circle><circle cx="0" cy="24" r="26" fill="none"></circle><circle cx="0" cy="22" r="28" fill="none"></circle><circle cx="0" cy="20" r="30" fill="none"></circle><circle cx="0" cy="18" r="32" fill="none"></circle><circle cx="0" cy="16" r="34" fill="none"></circle><circle cx="0" cy="14" r="36" fill="none"></circle><circle cx="0" cy="12" r="38" fill="none"></circle><circle cx="0" cy="10" r="40" fill="none"></circle><circle cx="0" cy="8" r="42" fill="none"></circle><circle cx="0" cy="6" r="44" fill="none"></circle><circle cx="0" cy="4" r="46" fill="none"></circle><circle cx="0" cy="2" r="48" fill="none"></circle>

    <circle cx="-48" cy="0" r="2" fill="none"></circle><circle cx="-46" cy="0" r="4" fill="none"></circle><circle cx="-44" cy="0" r="6" fill="none"></circle><circle cx="-42" cy="0" r="8" fill="none"></circle><circle cx="-40" cy="0" r="10" fill="none"></circle><circle cx="-38" cy="0" r="12" fill="none"></circle><circle cx="-36" cy="0" r="14" fill="none"></circle><circle cx="-34" cy="0" r="16" fill="none"></circle><circle cx="-32" cy="0" r="18" fill="none"></circle><circle cx="-30" cy="0" r="20" fill="none"></circle><circle cx="-28" cy="0" r="22" fill="none"></circle><circle cx="-26" cy="0" r="24" fill="none"></circle><circle cx="-24" cy="0" r="26" fill="none"></circle><circle cx="-22" cy="0" r="28" fill="none"></circle><circle cx="-20" cy="0" r="30" fill="none"></circle><circle cx="-18" cy="0" r="32" fill="none"></circle><circle cx="-16" cy="0" r="34" fill="none"></circle><circle cx="-14" cy="0" r="36" fill="none"></circle><circle cx="-12" cy="0" r="38" fill="none"></circle><circle cx="-10" cy="0" r="40" fill="none"></circle><circle cx="-8" cy="0" r="42" fill="none"></circle><circle cx="-6" cy="0" r="44" fill="none"></circle><circle cx="-4" cy="0" r="46" fill="none"></circle><circle cx="-2" cy="0" r="48" fill="none"></circle>

    <circle cx="48" cy="0" r="2" fill="none"></circle><circle cx="46" cy="0" r="4" fill="none"></circle><circle cx="44" cy="0" r="6" fill="none"></circle><circle cx="42" cy="0" r="8" fill="none"></circle><circle cx="40" cy="0" r="10" fill="none"></circle><circle cx="38" cy="0" r="12" fill="none"></circle><circle cx="36" cy="0" r="14" fill="none"></circle><circle cx="34" cy="0" r="16" fill="none"></circle><circle cx="32" cy="0" r="18" fill="none"></circle><circle cx="30" cy="0" r="20" fill="none"></circle><circle cx="28" cy="0" r="22" fill="none"></circle><circle cx="26" cy="0" r="24" fill="none"></circle><circle cx="24" cy="0" r="26" fill="none"></circle><circle cx="22" cy="0" r="28" fill="none"></circle><circle cx="20" cy="0" r="30" fill="none"></circle><circle cx="18" cy="0" r="32" fill="none"></circle><circle cx="16" cy="0" r="34" fill="none"></circle><circle cx="14" cy="0" r="36" fill="none"></circle><circle cx="12" cy="0" r="38" fill="none"></circle><circle cx="10" cy="0" r="40" fill="none"></circle><circle cx="8" cy="0" r="42" fill="none"></circle><circle cx="6" cy="0" r="44" fill="none"></circle><circle cx="4" cy="0" r="46" fill="none"></circle><circle cx="2" cy="0" r="48" fill="none"></circle>

    <circle cx="0" cy="-48" r="2" fill="none"></circle><circle cx="0" cy="-46" r="4" fill="none"></circle><circle cx="0" cy="-44" r="6" fill="none"></circle><circle cx="0" cy="-42" r="8" fill="none"></circle><circle cx="0" cy="-40" r="10" fill="none"></circle><circle cx="0" cy="-38" r="12" fill="none"></circle><circle cx="0" cy="-36" r="14" fill="none"></circle><circle cx="0" cy="-34" r="16" fill="none"></circle><circle cx="0" cy="-32" r="18" fill="none"></circle><circle cx="0" cy="-30" r="20" fill="none"></circle><circle cx="0" cy="-28" r="22" fill="none"></circle><circle cx="0" cy="-26" r="24" fill="none"></circle><circle cx="0" cy="-24" r="26" fill="none"></circle><circle cx="0" cy="-22" r="28" fill="none"></circle><circle cx="0" cy="-20" r="30" fill="none"></circle><circle cx="0" cy="-18" r="32" fill="none"></circle><circle cx="0" cy="-16" r="34" fill="none"></circle><circle cx="0" cy="-14" r="36" fill="none"></circle><circle cx="0" cy="-12" r="38" fill="none"></circle><circle cx="0" cy="-10" r="40" fill="none"></circle><circle cx="0" cy="-8" r="42" fill="none"></circle><circle cx="0" cy="-6" r="44" fill="none"></circle><circle cx="0" cy="-4" r="46" fill="none"></circle><circle cx="0" cy="-2" r="48" fill="none"></circle>
  </g></svg>