<svg xmlns="http://www.w3.org/2000/svg" viewBox="0 0 100 100" id="svg" style="--frame-c: #f6c6a4; --frame-bdw: 1em; stroke: rgba(255, 0, 0, 0.01); stroke-width: 0.01; background-color: rgb(38, 8, 8); --frame-asr: 100 / 100.;"><g transform="translate(50 50) scale(0.95)">
    <circle cx="0" cy="0" r="50" fill="none"></circle>

    <circle cx="0" cy="46.15384615384615" r="3.8461538461538463" fill="hsla(0, 100%, 50%, .1)"></circle><circle cx="0" cy="42.30769230769231" r="7.6923076923076925" fill="hsla(0, 100%, 50%, .1)"></circle><circle cx="0" cy="38.46153846153846" r="11.538461538461538" fill="hsla(0, 100%, 50%, .1)"></circle><circle cx="0" cy="34.61538461538461" r="15.384615384615385" fill="hsla(0, 100%, 50%, .1)"></circle><circle cx="0" cy="30.76923076923077" r="19.23076923076923" fill="hsla(0, 100%, 50%, .1)"></circle><circle cx="0" cy="26.923076923076923" r="23.076923076923077" fill="hsla(0, 100%, 50%, .1)"></circle><circle cx="0" cy="23.076923076923077" r="26.923076923076923" fill="hsla(0, 100%, 50%, .1)"></circle><circle cx="0" cy="19.23076923076923" r="30.76923076923077" fill="hsla(0, 100%, 50%, .1)"></circle><circle cx="0" cy="15.384615384615387" r="34.61538461538461" fill="hsla(0, 100%, 50%, .1)"></circle><circle cx="0" cy="11.53846153846154" r="38.46153846153846" fill="hsla(0, 100%, 50%, .1)"></circle><circle cx="0" cy="7.692307692307693" r="42.30769230769231" fill="hsla(0, 100%, 50%, .1)"></circle><circle cx="0" cy="3.8461538461538467" r="46.15384615384615" fill="hsla(0, 100%, 50%, .1)"></circle>

    

    

    <circle cx="0" cy="-46.15384615384615" r="3.8461538461538463" fill="hsla(0, 100%, 50%, .1)"></circle><circle cx="0" cy="-42.30769230769231" r="7.6923076923076925" fill="hsla(0, 100%, 50%, .1)"></circle><circle cx="0" cy="-38.46153846153846" r="11.538461538461538" fill="hsla(0, 100%, 50%, .1)"></circle><circle cx="0" cy="-34.61538461538461" r="15.384615384615385" fill="hsla(0, 100%, 50%, .1)"></circle><circle cx="0" cy="-30.76923076923077" r="19.23076923076923" fill="hsla(0, 100%, 50%, .1)"></circle><circle cx="0" cy="-26.923076923076923" r="23.076923076923077" fill="hsla(0, 100%, 50%, .1)"></circle><circle cx="0" cy="-23.076923076923077" r="26.923076923076923" fill="hsla(0, 100%, 50%, .1)"></circle><circle cx="0" cy="-19.23076923076923" r="30.76923076923077" fill="hsla(0, 100%, 50%, .1)"></circle><circle cx="0" cy="-15.384615384615387" r="34.61538461538461" fill="hsla(0, 100%, 50%, .1)"></circle><circle cx="0" cy="-11.53846153846154" r="38.46153846153846" fill="hsla(0, 100%, 50%, .1)"></circle><circle cx="0" cy="-7.692307692307693" r="42.30769230769231" fill="hsla(0, 100%, 50%, .1)"></circle><circle cx="0" cy="-3.8461538461538467" r="46.15384615384615" fill="hsla(0, 100%, 50%, .1)"></circle>
  </g></svg>