<svg xmlns="http://www.w3.org/2000/svg" viewBox="0 0 100 100" id="svg" style="--frame-c: #f6c6a4; --frame-bdw: 1em; stroke: rgba(0, 255, 255, 0.75); stroke-width: 0.15; background-color: rgb(8, 8, 40); --frame-asr: 100 / 100.;"><g transform="translate(50 50) scale(0.95)">
    <circle cx="0" cy="0" r="50" fill="none"></circle>

    <circle cx="0" cy="42.857142857142854" r="7.142857142857143" fill="hsla(180, 100%, 50%, .1)"></circle><circle cx="0" cy="35.714285714285715" r="14.285714285714286" fill="hsla(180, 100%, 50%, .1)"></circle><circle cx="0" cy="28.57142857142857" r="21.42857142857143" fill="hsla(180, 100%, 50%, .1)"></circle><circle cx="0" cy="21.428571428571427" r="28.571428571428573" fill="hsla(180, 100%, 50%, .1)"></circle><circle cx="0" cy="14.285714285714285" r="35.714285714285715" fill="hsla(180, 100%, 50%, .1)"></circle><circle cx="0" cy="7.142857142857139" r="42.85714285714286" fill="hsla(180, 100%, 50%, .1)"></circle>

    <circle cx="-42.857142857142854" cy="0" r="7.142857142857143" fill="hsla(180, 100%, 50%, .1)"></circle><circle cx="-35.714285714285715" cy="0" r="14.285714285714286" fill="hsla(180, 100%, 50%, .1)"></circle><circle cx="-28.57142857142857" cy="0" r="21.42857142857143" fill="hsla(180, 100%, 50%, .1)"></circle><circle cx="-21.428571428571427" cy="0" r="28.571428571428573" fill="hsla(180, 100%, 50%, .1)"></circle><circle cx="-14.285714285714285" cy="0" r="35.714285714285715" fill="hsla(180, 100%, 50%, .1)"></circle><circle cx="-7.142857142857139" cy="0" r="42.85714285714286" fill="hsla(180, 100%, 50%, .1)"></circle>

    <circle cx="42.857142857142854" cy="0" r="7.142857142857143" fill="hsla(180, 100%, 50%, .1)"></circle><circle cx="35.714285714285715" cy="0" r="14.285714285714286" fill="hsla(180, 100%, 50%, .1)"></circle><circle cx="28.57142857142857" cy="0" r="21.42857142857143" fill="hsla(180, 100%, 50%, .1)"></circle><circle cx="21.428571428571427" cy="0" r="28.571428571428573" fill="hsla(180, 100%, 50%, .1)"></circle><circle cx="14.285714285714285" cy="0" r="35.714285714285715" fill="hsla(180, 100%, 50%, .1)"></circle><circle cx="7.142857142857139" cy="0" r="42.85714285714286" fill="hsla(180, 100%, 50%, .1)"></circle>

    <circle cx="0" cy="-42.857142857142854" r="7.142857142857143" fill="hsla(180, 100%, 50%, .1)"></circle><circle cx="0" cy="-35.714285714285715" r="14.285714285714286" fill="hsla(180, 100%, 50%, .1)"></circle><circle cx="0" cy="-28.57142857142857" r="21.42857142857143" fill="hsla(180, 100%, 50%, .1)"></circle><circle cx="0" cy="-21.428571428571427" r="28.571428571428573" fill="hsla(180, 100%, 50%, .1)"></circle><circle cx="0" cy="-14.285714285714285" r="35.714285714285715" fill="hsla(180, 100%, 50%, .1)"></circle><circle cx="0" cy="-7.142857142857139" r="42.85714285714286" fill="hsla(180, 100%, 50%, .1)"></circle>
  </g></svg>