<svg xmlns="http://www.w3.org/2000/svg" viewBox="0 0 100 100" id="svg" fill="none" style="--frame-c: #f6c6a4; --frame-bdw: 1em; stroke: rgba(255, 115, 0, 0.65); background-color: rgb(247, 183, 8); --frame-asr: 100 / 100.;"><g transform="translate(50 50) scale(1.375)">
    <circle cx="0" cy="0" r="45" stroke-width="0.55" fill="none"></circle>
    <line x1="0" y1="45" x2="38.97114317029974" y2="-22.5" stroke-width="0.55"></line><line x1="38.97114317029974" y1="-22.5" x2="-38.97114317029974" y2="-22.5" stroke-width="0.55"></line><line x1="-38.97114317029974" y1="-22.5" x2="0" y2="45" stroke-width="0.55"></line><line x1="0" y1="-45" x2="-12.990381056766578" y2="-22.5" stroke-width="0.55"></line><line x1="0" y1="-45" x2="12.990381056766578" y2="-22.5" stroke-width="0.55"></line><line x1="-38.97114317029974" y1="22.5" x2="-25.980762113533157" y2="0" stroke-width="0.55"></line><line x1="-38.97114317029974" y1="22.5" x2="-12.990381056766578" y2="22.5" stroke-width="0.55"></line><line x1="38.97114317029974" y1="22.5" x2="25.980762113533157" y2="0" stroke-width="0.55"></line><line x1="38.97114317029974" y1="22.5" x2="12.990381056766578" y2="22.5" stroke-width="0.55"></line><line x1="0" y1="0" x2="0" y2="-45" stroke-width="0.55"></line><line x1="-38.97114317029974" y1="22.5" x2="0" y2="0" stroke-width="0.55"></line><line x1="38.97114317029974" y1="22.5" x2="0" y2="0" stroke-width="0.55"></line><line x1="0" y1="-22.5" x2="-19.48557158514987" y2="11.25" stroke-width="0.55"></line><line x1="0" y1="-22.5" x2="19.48557158514987" y2="11.25" stroke-width="0.55"></line><line x1="-19.48557158514987" y1="11.25" x2="19.48557158514987" y2="11.25" stroke-width="0.55"></line>
  </g></svg>