<svg xmlns="http://www.w3.org/2000/svg" viewBox="0 0 100 100" id="svg" style="--frame-c: #f6c6a4; --frame-bdw: 1em; background-color: rgb(249, 249, 235); --frame-asr: 100 / 100.;"><g transform="translate(50 50) scale(0.8)">
    <polygon points="-45.23809523809524,-50 -40.47619047619048,-50 -6.0714285714285765,-7.571428571428569 -6.785714285714285,-7.285714285714285" fill="#1d1d1d"></polygon>
<polygon points="-35.714285714285715,-50 -30.952380952380953,-50 -4.642857142857142,-8.142857142857146 -5.357142857142858,-7.857142857142854" fill="#1d1d1d"></polygon>
<polygon points="-26.19047619047619,-50 -21.428571428571427,-50 -3.2142857142857153,-8.714285714285715 -3.9285714285714306,-8.428571428571427" fill="#1d1d1d"></polygon>
<polygon points="-16.666666666666664,-50 -11.904761904761902,-50 -1.7857142857142847,-9.285714285714285 -2.5,-9" fill="#1d1d1d"></polygon>
<polygon points="-7.142857142857146,-50 -2.380952380952384,-50 -0.35714285714285765,-9.857142857142854 -1.071428571428572,-9.571428571428573" fill="#1d1d1d"></polygon>
<polygon points="2.3809523809523796,-50 7.1428571428571415,-50 4.285714285714285,-11.714285714285712 1.4285714285714277,-10.571428571428573" fill="#1d1d1d"></polygon>
<polygon points="11.904761904761905,-50 16.666666666666668,-50 10,-14 7.142857142857143,-12.857142857142861" fill="#1d1d1d"></polygon>
<polygon points="21.42857142857143,-50 26.190476190476193,-50 15.714285714285715,-16.285714285714292 12.857142857142858,-15.142857142857142" fill="#1d1d1d"></polygon>
<polygon points="30.95238095238095,-50 35.71428571428571,-50 21.428571428571423,-18.57142857142857 18.57142857142857,-17.42857142857143" fill="#1d1d1d"></polygon>
<polygon points="40.47619047619048,-50 45.23809523809524,-50 27.142857142857142,-20.857142857142854 24.28571428571429,-19.714285714285715" fill="#1d1d1d"></polygon>
<polygon points="-6.785714285714285,-7.285714285714285 -6.0714285714285765,-7.571428571428569 -40.47619047619048,50 -45.23809523809524,50" fill="#1d1d1d"></polygon>
<polygon points="-5.357142857142858,-7.857142857142854 -4.642857142857142,-8.142857142857146 -30.952380952380953,50 -35.714285714285715,50" fill="#1d1d1d"></polygon>
<polygon points="-3.9285714285714306,-8.428571428571427 -3.2142857142857153,-8.714285714285715 -21.428571428571427,50 -26.19047619047619,50" fill="#1d1d1d"></polygon>
<polygon points="-2.5,-9 -1.7857142857142847,-9.285714285714285 -11.904761904761902,50 -16.666666666666664,50" fill="#1d1d1d"></polygon>
<polygon points="-1.071428571428572,-9.571428571428573 -0.35714285714285765,-9.857142857142854 -2.380952380952384,50 -7.142857142857146,50" fill="#1d1d1d"></polygon>
<polygon points="1.4285714285714277,-10.571428571428573 4.285714285714285,-11.714285714285712 7.1428571428571415,50 2.3809523809523796,50" fill="#1d1d1d"></polygon>
<polygon points="7.142857142857143,-12.857142857142861 10,-14 16.666666666666668,50 11.904761904761905,50" fill="#1d1d1d"></polygon>
<polygon points="12.857142857142858,-15.142857142857142 15.714285714285715,-16.285714285714292 26.190476190476193,50 21.42857142857143,50" fill="#1d1d1d"></polygon>
<polygon points="18.57142857142857,-17.42857142857143 21.428571428571423,-18.57142857142857 35.71428571428571,50 30.95238095238095,50" fill="#1d1d1d"></polygon>
<polygon points="24.28571428571429,-19.714285714285715 27.142857142857142,-20.857142857142854 45.23809523809524,50 40.47619047619048,50" fill="#1d1d1d"></polygon>
  </g></svg>