<svg xmlns="http://www.w3.org/2000/svg" viewBox="0 0 100 100" id="svg" style="--frame-c: #f6c6a4; --frame-bdw: 1em; background-color: rgb(249, 249, 235); --frame-asr: 100 / 100.;"><g transform="translate(50 50) scale(0.8)">
    <polygon points="-42.30769230769231,-50 -34.61538461538461,-50 -5.192307692307693,21.91884615384615 -6.346153846153847,21.611923076923077" fill="#c21e1e"></polygon>
<polygon points="-26.923076923076923,-50 -19.23076923076923,-50 -2.8846153846153832,22.532692307692304 -4.03846153846154,22.225769230769227" fill="#c21e1e"></polygon>
<polygon points="-11.53846153846154,-50 -3.8461538461538476,-50 -0.5769230769230771,23.14653846153846 -1.7307692307692317,22.839615384615378" fill="#c21e1e"></polygon>
<polygon points="3.8461538461538467,-50 11.53846153846154,-50 1.7307692307692317,23.760384615384616 0.5769230769230771,23.453461538461536" fill="#c21e1e"></polygon>
<polygon points="19.230769230769226,-50 26.92307692307692,-50 4.03846153846154,24.374230769230763 2.8846153846153832,24.06730769230769" fill="#c21e1e"></polygon>
<polygon points="34.61538461538461,-50 42.30769230769231,-50 6.346153846153847,24.988076923076918 5.192307692307693,24.681153846153844" fill="#c21e1e"></polygon>
<polygon points="-6.346153846153847,21.611923076923077 -5.192307692307693,21.91884615384615 -34.61538461538461,50 -42.30769230769231,50" fill="#c21e1e"></polygon>
<polygon points="-4.03846153846154,22.225769230769227 -2.8846153846153832,22.532692307692304 -19.23076923076923,50 -26.923076923076923,50" fill="#c21e1e"></polygon>
<polygon points="-1.7307692307692317,22.839615384615378 -0.5769230769230771,23.14653846153846 -3.8461538461538476,50 -11.53846153846154,50" fill="#c21e1e"></polygon>
<polygon points="0.5769230769230771,23.453461538461536 1.7307692307692317,23.760384615384616 11.53846153846154,50 3.8461538461538467,50" fill="#c21e1e"></polygon>
<polygon points="2.8846153846153832,24.06730769230769 4.03846153846154,24.374230769230763 26.92307692307692,50 19.230769230769226,50" fill="#c21e1e"></polygon>
<polygon points="5.192307692307693,24.681153846153844 6.346153846153847,24.988076923076918 42.30769230769231,50 34.61538461538461,50" fill="#c21e1e"></polygon>
  </g></svg>