<svg xmlns="http://www.w3.org/2000/svg" viewBox="0 0 100 100" id="svg" style="--frame-c: #f6c6a4; --frame-bdw: 1em; background-color: rgb(249, 249, 235); --frame-asr: 100 / 100.;"><g transform="translate(50 50) scale(0.8)">
    <polygon points="-47.95918367346939,-50 -45.91836734693878,-50 -9.183673469387756,-9.183673469387756 -9.591836734693878,-9.591836734693878" fill="#06488e"></polygon>
<polygon points="-43.87755102040816,-50 -41.83673469387755,-50 -8.367346938775512,-8.367346938775512 -8.775510204081634,-8.775510204081634" fill="#06488e"></polygon>
<polygon points="-39.79591836734694,-50 -37.75510204081633,-50 -7.551020408163264,-7.551020408163268 -7.959183673469386,-7.959183673469383" fill="#06488e"></polygon>
<polygon points="-35.714285714285715,-50 -33.673469387755105,-50 -6.73469387755102,-6.734693877551024 -7.142857142857142,-7.142857142857139" fill="#06488e"></polygon>
<polygon points="-31.632653061224488,-50 -29.591836734693874,-50 -5.918367346938773,-5.918367346938773 -6.326530612244895,-6.326530612244895" fill="#06488e"></polygon>
<polygon points="-27.551020408163264,-50 -25.51020408163265,-50 -5.102040816326529,-5.102040816326529 -5.510204081632651,-5.510204081632651" fill="#06488e"></polygon>
<polygon points="-23.46938775510204,-50 -21.428571428571427,-50 -4.285714285714285,-4.285714285714285 -4.693877551020407,-4.693877551020407" fill="#06488e"></polygon>
<polygon points="-19.387755102040817,-50 -17.346938775510203,-50 -3.4693877551020407,-3.4693877551020407 -3.8775510204081627,-3.8775510204081627" fill="#06488e"></polygon>
<polygon points="-15.306122448979593,-50 -13.265306122448981,-50 -2.653061224489795,-2.6530612244897966 -3.0612244897959187,-3.0612244897959187" fill="#06488e"></polygon>
<polygon points="-11.224489795918366,-50 -9.183673469387754,-50 -1.8367346938775508,-1.8367346938775526 -2.244897959183673,-2.2448979591836746" fill="#06488e"></polygon>
<polygon points="-7.142857142857139,-50 -5.102040816326527,-50 -1.020408163265305,-1.0204081632653015 -1.428571428571427,-1.4285714285714306" fill="#06488e"></polygon>
<polygon points="-3.0612244897959187,-50 -1.0204081632653064,-50 -0.20408163265306123,-0.20408163265306456 -0.6122448979591835,-0.6122448979591866" fill="#06488e"></polygon>
<polygon points="1.0204081632653086,-50 3.061224489795921,-50 1.8367346938775524,1.8367346938775526 0.6122448979591851,0.6122448979591937" fill="#06488e"></polygon>
<polygon points="5.102040816326529,-50 7.142857142857141,-50 4.285714285714285,4.285714285714285 3.0612244897959173,3.0612244897959187" fill="#06488e"></polygon>
<polygon points="9.183673469387756,-50 11.224489795918368,-50 6.73469387755102,6.734693877551024 5.510204081632653,5.510204081632651" fill="#06488e"></polygon>
<polygon points="13.265306122448983,-50 15.306122448979595,-50 9.183673469387756,9.183673469387756 7.95918367346939,7.959183673469397" fill="#06488e"></polygon>
<polygon points="17.34693877551021,-50 19.387755102040824,-50 11.632653061224495,11.632653061224495 10.408163265306126,10.408163265306122" fill="#06488e"></polygon>
<polygon points="21.42857142857143,-50 23.469387755102044,-50 14.081632653061225,14.08163265306122 12.857142857142858,12.857142857142854" fill="#06488e"></polygon>
<polygon points="25.51020408163265,-50 27.551020408163264,-50 16.53061224489796,16.530612244897952 15.30612244897959,15.306122448979593" fill="#06488e"></polygon>
<polygon points="29.591836734693885,-50 31.6326530612245,-50 18.9795918367347,18.9795918367347 17.755102040816332,17.755102040816325" fill="#06488e"></polygon>
<polygon points="33.673469387755105,-50 35.714285714285715,-50 21.42857142857143,21.42857142857143 20.204081632653065,20.20408163265307" fill="#06488e"></polygon>
<polygon points="37.755102040816325,-50 39.795918367346935,-50 23.877551020408163,23.877551020408163 22.653061224489797,22.65306122448979" fill="#06488e"></polygon>
<polygon points="41.83673469387756,-50 43.87755102040817,-50 26.326530612244902,26.32653061224491 25.102040816326536,25.102040816326536" fill="#06488e"></polygon>
<polygon points="45.91836734693878,-50 47.95918367346939,-50 28.775510204081634,28.775510204081627 27.551020408163268,27.551020408163268" fill="#06488e"></polygon>
<polygon points="-9.591836734693878,-9.591836734693878 -9.183673469387756,-9.183673469387756 -45.91836734693878,50 -47.95918367346939,50" fill="#06488e"></polygon>
<polygon points="-8.775510204081634,-8.775510204081634 -8.367346938775512,-8.367346938775512 -41.83673469387755,50 -43.87755102040816,50" fill="#06488e"></polygon>
<polygon points="-7.959183673469386,-7.959183673469383 -7.551020408163264,-7.551020408163268 -37.75510204081633,50 -39.79591836734694,50" fill="#06488e"></polygon>
<polygon points="-7.142857142857142,-7.142857142857139 -6.73469387755102,-6.734693877551024 -33.673469387755105,50 -35.714285714285715,50" fill="#06488e"></polygon>
<polygon points="-6.326530612244895,-6.326530612244895 -5.918367346938773,-5.918367346938773 -29.591836734693874,50 -31.632653061224488,50" fill="#06488e"></polygon>
<polygon points="-5.510204081632651,-5.510204081632651 -5.102040816326529,-5.102040816326529 -25.51020408163265,50 -27.551020408163264,50" fill="#06488e"></polygon>
<polygon points="-4.693877551020407,-4.693877551020407 -4.285714285714285,-4.285714285714285 -21.428571428571427,50 -23.46938775510204,50" fill="#06488e"></polygon>
<polygon points="-3.8775510204081627,-3.8775510204081627 -3.4693877551020407,-3.4693877551020407 -17.346938775510203,50 -19.387755102040817,50" fill="#06488e"></polygon>
<polygon points="-3.0612244897959187,-3.0612244897959187 -2.653061224489795,-2.6530612244897966 -13.265306122448981,50 -15.306122448979593,50" fill="#06488e"></polygon>
<polygon points="-2.244897959183673,-2.2448979591836746 -1.8367346938775508,-1.8367346938775526 -9.183673469387754,50 -11.224489795918366,50" fill="#06488e"></polygon>
<polygon points="-1.428571428571427,-1.4285714285714306 -1.020408163265305,-1.0204081632653015 -5.102040816326527,50 -7.142857142857139,50" fill="#06488e"></polygon>
<polygon points="-0.6122448979591835,-0.6122448979591866 -0.20408163265306123,-0.20408163265306456 -1.0204081632653064,50 -3.0612244897959187,50" fill="#06488e"></polygon>
<polygon points="0.6122448979591851,0.6122448979591937 1.8367346938775524,1.8367346938775526 3.061224489795921,50 1.0204081632653086,50" fill="#06488e"></polygon>
<polygon points="3.0612244897959173,3.0612244897959187 4.285714285714285,4.285714285714285 7.142857142857141,50 5.102040816326529,50" fill="#06488e"></polygon>
<polygon points="5.510204081632653,5.510204081632651 6.73469387755102,6.734693877551024 11.224489795918368,50 9.183673469387756,50" fill="#06488e"></polygon>
<polygon points="7.95918367346939,7.959183673469397 9.183673469387756,9.183673469387756 15.306122448979595,50 13.265306122448983,50" fill="#06488e"></polygon>
<polygon points="10.408163265306126,10.408163265306122 11.632653061224495,11.632653061224495 19.387755102040824,50 17.34693877551021,50" fill="#06488e"></polygon>
<polygon points="12.857142857142858,12.857142857142854 14.081632653061225,14.08163265306122 23.469387755102044,50 21.42857142857143,50" fill="#06488e"></polygon>
<polygon points="15.30612244897959,15.306122448979593 16.53061224489796,16.530612244897952 27.551020408163264,50 25.51020408163265,50" fill="#06488e"></polygon>
<polygon points="17.755102040816332,17.755102040816325 18.9795918367347,18.9795918367347 31.6326530612245,50 29.591836734693885,50" fill="#06488e"></polygon>
<polygon points="20.204081632653065,20.20408163265307 21.42857142857143,21.42857142857143 35.714285714285715,50 33.673469387755105,50" fill="#06488e"></polygon>
<polygon points="22.653061224489797,22.65306122448979 23.877551020408163,23.877551020408163 39.795918367346935,50 37.755102040816325,50" fill="#06488e"></polygon>
<polygon points="25.102040816326536,25.102040816326536 26.326530612244902,26.32653061224491 43.87755102040817,50 41.83673469387756,50" fill="#06488e"></polygon>
<polygon points="27.551020408163268,27.551020408163268 28.775510204081634,28.775510204081627 47.95918367346939,50 45.91836734693878,50" fill="#06488e"></polygon>
  </g></svg>