<svg xmlns="http://www.w3.org/2000/svg" viewBox="0 0 100 100" id="svg" style="--frame-c: #0c0b0b; --frame-bdw: 1em; fill: rgb(27, 90, 172); background-color: rgb(255, 255, 255); --frame-asr: 100 / 100.;"><g transform="translate(50 50) scale(0.925) rotate(0)">
    
      <rect x="-50" y="-50" width="9.195402298850574" height="50"></rect>
    
      <rect x="-32.44827586206897" y="-50" width="7.517241379310345" height="50"></rect>
    
      <rect x="-18.252873563218394" y="-50" width="5.8390804597701145" height="50"></rect>
    
      <rect x="-7.413793103448279" y="-50" width="4.1609195402298855" height="50"></rect>
    
      <rect x="0.0689655172413759" y="-50" width="2.4827586206896552" height="50"></rect>
    
      <rect x="4.1954022988505715" y="-50" width="0.8045977011494253" height="50"></rect>
    
      <rect x="6.643678160919537" y="-50" width="2.4827586206896552" height="50"></rect>
    
      <rect x="12.44827586206896" y="-50" width="4.1609195402298855" height="50"></rect>
    
      <rect x="21.609195402298845" y="-50" width="5.8390804597701145" height="50"></rect>
    
      <rect x="34.126436781609186" y="-50" width="7.517241379310345" height="50"></rect>
    
      <rect x="-40.804597701149426" y="0" width="8.35632183908046" height="50"></rect>
    
      <rect x="-24.931034482758623" y="0" width="6.678160919540229" height="50"></rect>
    
      <rect x="-12.41379310344828" y="0" width="5" height="50"></rect>
    
      <rect x="-3.252873563218394" y="0" width="3.3218390804597697" height="50"></rect>
    
      <rect x="2.551724137931031" y="0" width="1.6436781609195403" height="50"></rect>
    
      <rect x="4.9999999999999964" y="0" width="1.6436781609195403" height="50"></rect>
    
      <rect x="9.126436781609192" y="0" width="3.3218390804597697" height="50"></rect>
    
      <rect x="16.609195402298845" y="0" width="5" height="50"></rect>
    
      <rect x="27.44827586206896" y="0" width="6.678160919540229" height="50"></rect>
    
      <rect x="41.643678160919535" y="0" width="8.35632183908046" height="50"></rect>
    
  </g></svg>