<svg xmlns="http://www.w3.org/2000/svg" viewBox="0 0 100 100" id="svg" style="--frame-c: #0c0b0b; --frame-bdw: 1em; fill: rgb(17, 17, 17); background-color: rgb(255, 255, 255); --frame-asr: 100 / 100.;"><g transform="translate(50 50) scale(0.925) rotate(0)">
    
      <rect x="-50" y="-50" width="6.127450980392156" height="6.25"></rect>
    
      <rect x="-38.12040441176471" y="-50" width="5.376838235294118" height="6.25"></rect>
    
      <rect x="-27.742034313725497" y="-50" width="4.626225490196078" height="6.25"></rect>
    
      <rect x="-18.864889705882362" y="-50" width="3.875612745098039" height="6.25"></rect>
    
      <rect x="-11.488970588235304" y="-50" width="3.125" height="6.25"></rect>
    
      <rect x="-5.6142769607843235" y="-50" width="2.374387254901961" height="6.25"></rect>
    
      <rect x="-1.2408088235294215" y="-50" width="1.6237745098039216" height="6.25"></rect>
    
      <rect x="1.631433823529402" y="-50" width="0.8731617647058824" height="6.25"></rect>
    
      <rect x="3.0024509803921466" y="-50" width="0.12254901960784313" height="6.25"></rect>
    
      <rect x="3.6228553921568523" y="-50" width="0.8731617647058824" height="6.25"></rect>
    
      <rect x="5.744485294117636" y="-50" width="1.6237745098039216" height="6.25"></rect>
    
      <rect x="9.367340686274499" y="-50" width="2.374387254901961" height="6.25"></rect>
    
      <rect x="14.491421568627441" y="-50" width="3.125" height="6.25"></rect>
    
      <rect x="21.11672794117646" y="-50" width="3.875612745098039" height="6.25"></rect>
    
      <rect x="29.243259803921557" y="-50" width="4.626225490196078" height="6.25"></rect>
    
      <rect x="38.871017156862735" y="-50" width="5.376838235294118" height="6.25"></rect>
    
      <rect x="-43.872549019607845" y="-43.75" width="5.752144607843137" height="6.25"></rect>
    
      <rect x="-32.743566176470594" y="-43.75" width="5.0015318627450975" height="6.25"></rect>
    
      <rect x="-23.11580882352942" y="-43.75" width="4.250919117647059" height="6.25"></rect>
    
      <rect x="-14.989276960784323" y="-43.75" width="3.5003063725490193" height="6.25"></rect>
    
      <rect x="-8.363970588235304" y="-43.75" width="2.7496936274509802" height="6.25"></rect>
    
      <rect x="-3.2398897058823626" y="-43.75" width="1.9990808823529411" height="6.25"></rect>
    
      <rect x="0.3829656862745001" y="-43.75" width="1.2484681372549018" height="6.25"></rect>
    
      <rect x="2.504595588235284" y="-43.75" width="0.4978553921568627" height="6.25"></rect>
    
      <rect x="3.12499999999999" y="-43.75" width="0.4978553921568627" height="6.25"></rect>
    
      <rect x="4.4960171568627345" y="-43.75" width="1.2484681372549018" height="6.25"></rect>
    
      <rect x="7.368259803921558" y="-43.75" width="1.9990808823529411" height="6.25"></rect>
    
      <rect x="11.74172794117646" y="-43.75" width="2.7496936274509802" height="6.25"></rect>
    
      <rect x="17.61642156862744" y="-43.75" width="3.5003063725490193" height="6.25"></rect>
    
      <rect x="24.9923406862745" y="-43.75" width="4.250919117647059" height="6.25"></rect>
    
      <rect x="33.86948529411764" y="-43.75" width="5.0015318627450975" height="6.25"></rect>
    
      <rect x="44.24785539215685" y="-43.75" width="5.752144607843137" height="6.25"></rect>
    
      <rect x="-50" y="-37.5" width="6.127450980392156" height="6.25"></rect>
    
      <rect x="-38.12040441176471" y="-37.5" width="5.376838235294118" height="6.25"></rect>
    
      <rect x="-27.742034313725497" y="-37.5" width="4.626225490196078" height="6.25"></rect>
    
      <rect x="-18.864889705882362" y="-37.5" width="3.875612745098039" height="6.25"></rect>
    
      <rect x="-11.488970588235304" y="-37.5" width="3.125" height="6.25"></rect>
    
      <rect x="-5.6142769607843235" y="-37.5" width="2.374387254901961" height="6.25"></rect>
    
      <rect x="-1.2408088235294215" y="-37.5" width="1.6237745098039216" height="6.25"></rect>
    
      <rect x="1.631433823529402" y="-37.5" width="0.8731617647058824" height="6.25"></rect>
    
      <rect x="3.0024509803921466" y="-37.5" width="0.12254901960784313" height="6.25"></rect>
    
      <rect x="3.6228553921568523" y="-37.5" width="0.8731617647058824" height="6.25"></rect>
    
      <rect x="5.744485294117636" y="-37.5" width="1.6237745098039216" height="6.25"></rect>
    
      <rect x="9.367340686274499" y="-37.5" width="2.374387254901961" height="6.25"></rect>
    
      <rect x="14.491421568627441" y="-37.5" width="3.125" height="6.25"></rect>
    
      <rect x="21.11672794117646" y="-37.5" width="3.875612745098039" height="6.25"></rect>
    
      <rect x="29.243259803921557" y="-37.5" width="4.626225490196078" height="6.25"></rect>
    
      <rect x="38.871017156862735" y="-37.5" width="5.376838235294118" height="6.25"></rect>
    
      <rect x="-43.872549019607845" y="-31.25" width="5.752144607843137" height="6.25"></rect>
    
      <rect x="-32.743566176470594" y="-31.25" width="5.0015318627450975" height="6.25"></rect>
    
      <rect x="-23.11580882352942" y="-31.25" width="4.250919117647059" height="6.25"></rect>
    
      <rect x="-14.989276960784323" y="-31.25" width="3.5003063725490193" height="6.25"></rect>
    
      <rect x="-8.363970588235304" y="-31.25" width="2.7496936274509802" height="6.25"></rect>
    
      <rect x="-3.2398897058823626" y="-31.25" width="1.9990808823529411" height="6.25"></rect>
    
      <rect x="0.3829656862745001" y="-31.25" width="1.2484681372549018" height="6.25"></rect>
    
      <rect x="2.504595588235284" y="-31.25" width="0.4978553921568627" height="6.25"></rect>
    
      <rect x="3.12499999999999" y="-31.25" width="0.4978553921568627" height="6.25"></rect>
    
      <rect x="4.4960171568627345" y="-31.25" width="1.2484681372549018" height="6.25"></rect>
    
      <rect x="7.368259803921558" y="-31.25" width="1.9990808823529411" height="6.25"></rect>
    
      <rect x="11.74172794117646" y="-31.25" width="2.7496936274509802" height="6.25"></rect>
    
      <rect x="17.61642156862744" y="-31.25" width="3.5003063725490193" height="6.25"></rect>
    
      <rect x="24.9923406862745" y="-31.25" width="4.250919117647059" height="6.25"></rect>
    
      <rect x="33.86948529411764" y="-31.25" width="5.0015318627450975" height="6.25"></rect>
    
      <rect x="44.24785539215685" y="-31.25" width="5.752144607843137" height="6.25"></rect>
    
      <rect x="-50" y="-25" width="6.127450980392156" height="6.25"></rect>
    
      <rect x="-38.12040441176471" y="-25" width="5.376838235294118" height="6.25"></rect>
    
      <rect x="-27.742034313725497" y="-25" width="4.626225490196078" height="6.25"></rect>
    
      <rect x="-18.864889705882362" y="-25" width="3.875612745098039" height="6.25"></rect>
    
      <rect x="-11.488970588235304" y="-25" width="3.125" height="6.25"></rect>
    
      <rect x="-5.6142769607843235" y="-25" width="2.374387254901961" height="6.25"></rect>
    
      <rect x="-1.2408088235294215" y="-25" width="1.6237745098039216" height="6.25"></rect>
    
      <rect x="1.631433823529402" y="-25" width="0.8731617647058824" height="6.25"></rect>
    
      <rect x="3.0024509803921466" y="-25" width="0.12254901960784313" height="6.25"></rect>
    
      <rect x="3.6228553921568523" y="-25" width="0.8731617647058824" height="6.25"></rect>
    
      <rect x="5.744485294117636" y="-25" width="1.6237745098039216" height="6.25"></rect>
    
      <rect x="9.367340686274499" y="-25" width="2.374387254901961" height="6.25"></rect>
    
      <rect x="14.491421568627441" y="-25" width="3.125" height="6.25"></rect>
    
      <rect x="21.11672794117646" y="-25" width="3.875612745098039" height="6.25"></rect>
    
      <rect x="29.243259803921557" y="-25" width="4.626225490196078" height="6.25"></rect>
    
      <rect x="38.871017156862735" y="-25" width="5.376838235294118" height="6.25"></rect>
    
      <rect x="-43.872549019607845" y="-18.75" width="5.752144607843137" height="6.25"></rect>
    
      <rect x="-32.743566176470594" y="-18.75" width="5.0015318627450975" height="6.25"></rect>
    
      <rect x="-23.11580882352942" y="-18.75" width="4.250919117647059" height="6.25"></rect>
    
      <rect x="-14.989276960784323" y="-18.75" width="3.5003063725490193" height="6.25"></rect>
    
      <rect x="-8.363970588235304" y="-18.75" width="2.7496936274509802" height="6.25"></rect>
    
      <rect x="-3.2398897058823626" y="-18.75" width="1.9990808823529411" height="6.25"></rect>
    
      <rect x="0.3829656862745001" y="-18.75" width="1.2484681372549018" height="6.25"></rect>
    
      <rect x="2.504595588235284" y="-18.75" width="0.4978553921568627" height="6.25"></rect>
    
      <rect x="3.12499999999999" y="-18.75" width="0.4978553921568627" height="6.25"></rect>
    
      <rect x="4.4960171568627345" y="-18.75" width="1.2484681372549018" height="6.25"></rect>
    
      <rect x="7.368259803921558" y="-18.75" width="1.9990808823529411" height="6.25"></rect>
    
      <rect x="11.74172794117646" y="-18.75" width="2.7496936274509802" height="6.25"></rect>
    
      <rect x="17.61642156862744" y="-18.75" width="3.5003063725490193" height="6.25"></rect>
    
      <rect x="24.9923406862745" y="-18.75" width="4.250919117647059" height="6.25"></rect>
    
      <rect x="33.86948529411764" y="-18.75" width="5.0015318627450975" height="6.25"></rect>
    
      <rect x="44.24785539215685" y="-18.75" width="5.752144607843137" height="6.25"></rect>
    
      <rect x="-50" y="-12.5" width="6.127450980392156" height="6.25"></rect>
    
      <rect x="-38.12040441176471" y="-12.5" width="5.376838235294118" height="6.25"></rect>
    
      <rect x="-27.742034313725497" y="-12.5" width="4.626225490196078" height="6.25"></rect>
    
      <rect x="-18.864889705882362" y="-12.5" width="3.875612745098039" height="6.25"></rect>
    
      <rect x="-11.488970588235304" y="-12.5" width="3.125" height="6.25"></rect>
    
      <rect x="-5.6142769607843235" y="-12.5" width="2.374387254901961" height="6.25"></rect>
    
      <rect x="-1.2408088235294215" y="-12.5" width="1.6237745098039216" height="6.25"></rect>
    
      <rect x="1.631433823529402" y="-12.5" width="0.8731617647058824" height="6.25"></rect>
    
      <rect x="3.0024509803921466" y="-12.5" width="0.12254901960784313" height="6.25"></rect>
    
      <rect x="3.6228553921568523" y="-12.5" width="0.8731617647058824" height="6.25"></rect>
    
      <rect x="5.744485294117636" y="-12.5" width="1.6237745098039216" height="6.25"></rect>
    
      <rect x="9.367340686274499" y="-12.5" width="2.374387254901961" height="6.25"></rect>
    
      <rect x="14.491421568627441" y="-12.5" width="3.125" height="6.25"></rect>
    
      <rect x="21.11672794117646" y="-12.5" width="3.875612745098039" height="6.25"></rect>
    
      <rect x="29.243259803921557" y="-12.5" width="4.626225490196078" height="6.25"></rect>
    
      <rect x="38.871017156862735" y="-12.5" width="5.376838235294118" height="6.25"></rect>
    
      <rect x="-43.872549019607845" y="-6.25" width="5.752144607843137" height="6.25"></rect>
    
      <rect x="-32.743566176470594" y="-6.25" width="5.0015318627450975" height="6.25"></rect>
    
      <rect x="-23.11580882352942" y="-6.25" width="4.250919117647059" height="6.25"></rect>
    
      <rect x="-14.989276960784323" y="-6.25" width="3.5003063725490193" height="6.25"></rect>
    
      <rect x="-8.363970588235304" y="-6.25" width="2.7496936274509802" height="6.25"></rect>
    
      <rect x="-3.2398897058823626" y="-6.25" width="1.9990808823529411" height="6.25"></rect>
    
      <rect x="0.3829656862745001" y="-6.25" width="1.2484681372549018" height="6.25"></rect>
    
      <rect x="2.504595588235284" y="-6.25" width="0.4978553921568627" height="6.25"></rect>
    
      <rect x="3.12499999999999" y="-6.25" width="0.4978553921568627" height="6.25"></rect>
    
      <rect x="4.4960171568627345" y="-6.25" width="1.2484681372549018" height="6.25"></rect>
    
      <rect x="7.368259803921558" y="-6.25" width="1.9990808823529411" height="6.25"></rect>
    
      <rect x="11.74172794117646" y="-6.25" width="2.7496936274509802" height="6.25"></rect>
    
      <rect x="17.61642156862744" y="-6.25" width="3.5003063725490193" height="6.25"></rect>
    
      <rect x="24.9923406862745" y="-6.25" width="4.250919117647059" height="6.25"></rect>
    
      <rect x="33.86948529411764" y="-6.25" width="5.0015318627450975" height="6.25"></rect>
    
      <rect x="44.24785539215685" y="-6.25" width="5.752144607843137" height="6.25"></rect>
    
      <rect x="-50" y="0" width="6.127450980392156" height="6.25"></rect>
    
      <rect x="-38.12040441176471" y="0" width="5.376838235294118" height="6.25"></rect>
    
      <rect x="-27.742034313725497" y="0" width="4.626225490196078" height="6.25"></rect>
    
      <rect x="-18.864889705882362" y="0" width="3.875612745098039" height="6.25"></rect>
    
      <rect x="-11.488970588235304" y="0" width="3.125" height="6.25"></rect>
    
      <rect x="-5.6142769607843235" y="0" width="2.374387254901961" height="6.25"></rect>
    
      <rect x="-1.2408088235294215" y="0" width="1.6237745098039216" height="6.25"></rect>
    
      <rect x="1.631433823529402" y="0" width="0.8731617647058824" height="6.25"></rect>
    
      <rect x="3.0024509803921466" y="0" width="0.12254901960784313" height="6.25"></rect>
    
      <rect x="3.6228553921568523" y="0" width="0.8731617647058824" height="6.25"></rect>
    
      <rect x="5.744485294117636" y="0" width="1.6237745098039216" height="6.25"></rect>
    
      <rect x="9.367340686274499" y="0" width="2.374387254901961" height="6.25"></rect>
    
      <rect x="14.491421568627441" y="0" width="3.125" height="6.25"></rect>
    
      <rect x="21.11672794117646" y="0" width="3.875612745098039" height="6.25"></rect>
    
      <rect x="29.243259803921557" y="0" width="4.626225490196078" height="6.25"></rect>
    
      <rect x="38.871017156862735" y="0" width="5.376838235294118" height="6.25"></rect>
    
      <rect x="-43.872549019607845" y="6.25" width="5.752144607843137" height="6.25"></rect>
    
      <rect x="-32.743566176470594" y="6.25" width="5.0015318627450975" height="6.25"></rect>
    
      <rect x="-23.11580882352942" y="6.25" width="4.250919117647059" height="6.25"></rect>
    
      <rect x="-14.989276960784323" y="6.25" width="3.5003063725490193" height="6.25"></rect>
    
      <rect x="-8.363970588235304" y="6.25" width="2.7496936274509802" height="6.25"></rect>
    
      <rect x="-3.2398897058823626" y="6.25" width="1.9990808823529411" height="6.25"></rect>
    
      <rect x="0.3829656862745001" y="6.25" width="1.2484681372549018" height="6.25"></rect>
    
      <rect x="2.504595588235284" y="6.25" width="0.4978553921568627" height="6.25"></rect>
    
      <rect x="3.12499999999999" y="6.25" width="0.4978553921568627" height="6.25"></rect>
    
      <rect x="4.4960171568627345" y="6.25" width="1.2484681372549018" height="6.25"></rect>
    
      <rect x="7.368259803921558" y="6.25" width="1.9990808823529411" height="6.25"></rect>
    
      <rect x="11.74172794117646" y="6.25" width="2.7496936274509802" height="6.25"></rect>
    
      <rect x="17.61642156862744" y="6.25" width="3.5003063725490193" height="6.25"></rect>
    
      <rect x="24.9923406862745" y="6.25" width="4.250919117647059" height="6.25"></rect>
    
      <rect x="33.86948529411764" y="6.25" width="5.0015318627450975" height="6.25"></rect>
    
      <rect x="44.24785539215685" y="6.25" width="5.752144607843137" height="6.25"></rect>
    
      <rect x="-50" y="12.5" width="6.127450980392156" height="6.25"></rect>
    
      <rect x="-38.12040441176471" y="12.5" width="5.376838235294118" height="6.25"></rect>
    
      <rect x="-27.742034313725497" y="12.5" width="4.626225490196078" height="6.25"></rect>
    
      <rect x="-18.864889705882362" y="12.5" width="3.875612745098039" height="6.25"></rect>
    
      <rect x="-11.488970588235304" y="12.5" width="3.125" height="6.25"></rect>
    
      <rect x="-5.6142769607843235" y="12.5" width="2.374387254901961" height="6.25"></rect>
    
      <rect x="-1.2408088235294215" y="12.5" width="1.6237745098039216" height="6.25"></rect>
    
      <rect x="1.631433823529402" y="12.5" width="0.8731617647058824" height="6.25"></rect>
    
      <rect x="3.0024509803921466" y="12.5" width="0.12254901960784313" height="6.25"></rect>
    
      <rect x="3.6228553921568523" y="12.5" width="0.8731617647058824" height="6.25"></rect>
    
      <rect x="5.744485294117636" y="12.5" width="1.6237745098039216" height="6.25"></rect>
    
      <rect x="9.367340686274499" y="12.5" width="2.374387254901961" height="6.25"></rect>
    
      <rect x="14.491421568627441" y="12.5" width="3.125" height="6.25"></rect>
    
      <rect x="21.11672794117646" y="12.5" width="3.875612745098039" height="6.25"></rect>
    
      <rect x="29.243259803921557" y="12.5" width="4.626225490196078" height="6.25"></rect>
    
      <rect x="38.871017156862735" y="12.5" width="5.376838235294118" height="6.25"></rect>
    
      <rect x="-43.872549019607845" y="18.75" width="5.752144607843137" height="6.25"></rect>
    
      <rect x="-32.743566176470594" y="18.75" width="5.0015318627450975" height="6.25"></rect>
    
      <rect x="-23.11580882352942" y="18.75" width="4.250919117647059" height="6.25"></rect>
    
      <rect x="-14.989276960784323" y="18.75" width="3.5003063725490193" height="6.25"></rect>
    
      <rect x="-8.363970588235304" y="18.75" width="2.7496936274509802" height="6.25"></rect>
    
      <rect x="-3.2398897058823626" y="18.75" width="1.9990808823529411" height="6.25"></rect>
    
      <rect x="0.3829656862745001" y="18.75" width="1.2484681372549018" height="6.25"></rect>
    
      <rect x="2.504595588235284" y="18.75" width="0.4978553921568627" height="6.25"></rect>
    
      <rect x="3.12499999999999" y="18.75" width="0.4978553921568627" height="6.25"></rect>
    
      <rect x="4.4960171568627345" y="18.75" width="1.2484681372549018" height="6.25"></rect>
    
      <rect x="7.368259803921558" y="18.75" width="1.9990808823529411" height="6.25"></rect>
    
      <rect x="11.74172794117646" y="18.75" width="2.7496936274509802" height="6.25"></rect>
    
      <rect x="17.61642156862744" y="18.75" width="3.5003063725490193" height="6.25"></rect>
    
      <rect x="24.9923406862745" y="18.75" width="4.250919117647059" height="6.25"></rect>
    
      <rect x="33.86948529411764" y="18.75" width="5.0015318627450975" height="6.25"></rect>
    
      <rect x="44.24785539215685" y="18.75" width="5.752144607843137" height="6.25"></rect>
    
      <rect x="-50" y="25" width="6.127450980392156" height="6.25"></rect>
    
      <rect x="-38.12040441176471" y="25" width="5.376838235294118" height="6.25"></rect>
    
      <rect x="-27.742034313725497" y="25" width="4.626225490196078" height="6.25"></rect>
    
      <rect x="-18.864889705882362" y="25" width="3.875612745098039" height="6.25"></rect>
    
      <rect x="-11.488970588235304" y="25" width="3.125" height="6.25"></rect>
    
      <rect x="-5.6142769607843235" y="25" width="2.374387254901961" height="6.25"></rect>
    
      <rect x="-1.2408088235294215" y="25" width="1.6237745098039216" height="6.25"></rect>
    
      <rect x="1.631433823529402" y="25" width="0.8731617647058824" height="6.25"></rect>
    
      <rect x="3.0024509803921466" y="25" width="0.12254901960784313" height="6.25"></rect>
    
      <rect x="3.6228553921568523" y="25" width="0.8731617647058824" height="6.25"></rect>
    
      <rect x="5.744485294117636" y="25" width="1.6237745098039216" height="6.25"></rect>
    
      <rect x="9.367340686274499" y="25" width="2.374387254901961" height="6.25"></rect>
    
      <rect x="14.491421568627441" y="25" width="3.125" height="6.25"></rect>
    
      <rect x="21.11672794117646" y="25" width="3.875612745098039" height="6.25"></rect>
    
      <rect x="29.243259803921557" y="25" width="4.626225490196078" height="6.25"></rect>
    
      <rect x="38.871017156862735" y="25" width="5.376838235294118" height="6.25"></rect>
    
      <rect x="-43.872549019607845" y="31.25" width="5.752144607843137" height="6.25"></rect>
    
      <rect x="-32.743566176470594" y="31.25" width="5.0015318627450975" height="6.25"></rect>
    
      <rect x="-23.11580882352942" y="31.25" width="4.250919117647059" height="6.25"></rect>
    
      <rect x="-14.989276960784323" y="31.25" width="3.5003063725490193" height="6.25"></rect>
    
      <rect x="-8.363970588235304" y="31.25" width="2.7496936274509802" height="6.25"></rect>
    
      <rect x="-3.2398897058823626" y="31.25" width="1.9990808823529411" height="6.25"></rect>
    
      <rect x="0.3829656862745001" y="31.25" width="1.2484681372549018" height="6.25"></rect>
    
      <rect x="2.504595588235284" y="31.25" width="0.4978553921568627" height="6.25"></rect>
    
      <rect x="3.12499999999999" y="31.25" width="0.4978553921568627" height="6.25"></rect>
    
      <rect x="4.4960171568627345" y="31.25" width="1.2484681372549018" height="6.25"></rect>
    
      <rect x="7.368259803921558" y="31.25" width="1.9990808823529411" height="6.25"></rect>
    
      <rect x="11.74172794117646" y="31.25" width="2.7496936274509802" height="6.25"></rect>
    
      <rect x="17.61642156862744" y="31.25" width="3.5003063725490193" height="6.25"></rect>
    
      <rect x="24.9923406862745" y="31.25" width="4.250919117647059" height="6.25"></rect>
    
      <rect x="33.86948529411764" y="31.25" width="5.0015318627450975" height="6.25"></rect>
    
      <rect x="44.24785539215685" y="31.25" width="5.752144607843137" height="6.25"></rect>
    
      <rect x="-50" y="37.5" width="6.127450980392156" height="6.25"></rect>
    
      <rect x="-38.12040441176471" y="37.5" width="5.376838235294118" height="6.25"></rect>
    
      <rect x="-27.742034313725497" y="37.5" width="4.626225490196078" height="6.25"></rect>
    
      <rect x="-18.864889705882362" y="37.5" width="3.875612745098039" height="6.25"></rect>
    
      <rect x="-11.488970588235304" y="37.5" width="3.125" height="6.25"></rect>
    
      <rect x="-5.6142769607843235" y="37.5" width="2.374387254901961" height="6.25"></rect>
    
      <rect x="-1.2408088235294215" y="37.5" width="1.6237745098039216" height="6.25"></rect>
    
      <rect x="1.631433823529402" y="37.5" width="0.8731617647058824" height="6.25"></rect>
    
      <rect x="3.0024509803921466" y="37.5" width="0.12254901960784313" height="6.25"></rect>
    
      <rect x="3.6228553921568523" y="37.5" width="0.8731617647058824" height="6.25"></rect>
    
      <rect x="5.744485294117636" y="37.5" width="1.6237745098039216" height="6.25"></rect>
    
      <rect x="9.367340686274499" y="37.5" width="2.374387254901961" height="6.25"></rect>
    
      <rect x="14.491421568627441" y="37.5" width="3.125" height="6.25"></rect>
    
      <rect x="21.11672794117646" y="37.5" width="3.875612745098039" height="6.25"></rect>
    
      <rect x="29.243259803921557" y="37.5" width="4.626225490196078" height="6.25"></rect>
    
      <rect x="38.871017156862735" y="37.5" width="5.376838235294118" height="6.25"></rect>
    
      <rect x="-43.872549019607845" y="43.75" width="5.752144607843137" height="6.25"></rect>
    
      <rect x="-32.743566176470594" y="43.75" width="5.0015318627450975" height="6.25"></rect>
    
      <rect x="-23.11580882352942" y="43.75" width="4.250919117647059" height="6.25"></rect>
    
      <rect x="-14.989276960784323" y="43.75" width="3.5003063725490193" height="6.25"></rect>
    
      <rect x="-8.363970588235304" y="43.75" width="2.7496936274509802" height="6.25"></rect>
    
      <rect x="-3.2398897058823626" y="43.75" width="1.9990808823529411" height="6.25"></rect>
    
      <rect x="0.3829656862745001" y="43.75" width="1.2484681372549018" height="6.25"></rect>
    
      <rect x="2.504595588235284" y="43.75" width="0.4978553921568627" height="6.25"></rect>
    
      <rect x="3.12499999999999" y="43.75" width="0.4978553921568627" height="6.25"></rect>
    
      <rect x="4.4960171568627345" y="43.75" width="1.2484681372549018" height="6.25"></rect>
    
      <rect x="7.368259803921558" y="43.75" width="1.9990808823529411" height="6.25"></rect>
    
      <rect x="11.74172794117646" y="43.75" width="2.7496936274509802" height="6.25"></rect>
    
      <rect x="17.61642156862744" y="43.75" width="3.5003063725490193" height="6.25"></rect>
    
      <rect x="24.9923406862745" y="43.75" width="4.250919117647059" height="6.25"></rect>
    
      <rect x="33.86948529411764" y="43.75" width="5.0015318627450975" height="6.25"></rect>
    
      <rect x="44.24785539215685" y="43.75" width="5.752144607843137" height="6.25"></rect>
    
  </g></svg>