<svg xmlns="http://www.w3.org/2000/svg" viewBox="0 0 100 100" id="svg" style="--frame-c: #0c0b0b; --frame-bdw: 1em; fill: rgb(145, 8, 8); background-color: rgb(255, 255, 255); --frame-asr: 100 / 100.;"><g transform="translate(50 50) scale(0.925) rotate(0)">
    
      <rect x="-50" y="-50" width="0.09456264775413711" height="20"></rect>
    
      <rect x="-49.76569477278697" y="-50" width="0.18492251116364591" height="20"></rect>
    
      <rect x="-49.35066981875492" y="-50" width="0.27528237457315474" height="20"></rect>
    
      <rect x="-48.75492513790386" y="-50" width="0.3656422379826635" height="20"></rect>
    
      <rect x="-47.97846073023378" y="-50" width="0.45600210139217234" height="20"></rect>
    
      <rect x="-47.02127659574468" y="-50" width="0.5463619648016811" height="20"></rect>
    
      <rect x="-45.88337273443656" y="-50" width="0.6367218282111898" height="20"></rect>
    
      <rect x="-44.56474914630943" y="-50" width="0.7270816916206988" height="20"></rect>
    
      <rect x="-43.06540583136328" y="-50" width="0.8174415550302075" height="20"></rect>
    
      <rect x="-41.38534278959811" y="-50" width="0.9078014184397163" height="20"></rect>
    
      <rect x="-39.524560021013926" y="-50" width="0.998161281849225" height="20"></rect>
    
      <rect x="-37.48305752561072" y="-50" width="1.0885211452587338" height="20"></rect>
    
      <rect x="-35.2608353033885" y="-50" width="1.1788810086682426" height="20"></rect>
    
      <rect x="-32.857893354347254" y="-50" width="1.2692408720777513" height="20"></rect>
    
      <rect x="-30.274231678486995" y="-50" width="1.3596007354872603" height="20"></rect>
    
      <rect x="-27.50985027580772" y="-50" width="1.4499605988967692" height="20"></rect>
    
      <rect x="-24.564749146309428" y="-50" width="1.5403204623062778" height="20"></rect>
    
      <rect x="-21.43892828999212" y="-50" width="1.6306803257157867" height="20"></rect>
    
      <rect x="-18.13238770685579" y="-50" width="1.7210401891252953" height="20"></rect>
    
      <rect x="-14.645127396900447" y="-50" width="1.8114000525348042" height="20"></rect>
    
      <rect x="-10.977147360126084" y="-50" width="1.9017599159443128" height="20"></rect>
    
      <rect x="-7.128447596532704" y="-50" width="1.992119779353822" height="20"></rect>
    
      <rect x="-3.099028106120305" y="-50" width="2.0824796427633308" height="20"></rect>
    
      <rect x="1.1111111111111107" y="-50" width="2.0824796427633308" height="20"></rect>
    
      <rect x="5.230890464933018" y="-50" width="1.992119779353822" height="20"></rect>
    
      <rect x="9.169950091935908" y="-50" width="1.9017599159443133" height="20"></rect>
    
      <rect x="12.92828999211978" y="-50" width="1.8114000525348042" height="20"></rect>
    
      <rect x="16.505910165484632" y="-50" width="1.7210401891252953" height="20"></rect>
    
      <rect x="19.902810612030468" y="-50" width="1.6306803257157867" height="20"></rect>
    
      <rect x="23.118991331757286" y="-50" width="1.5403204623062778" height="20"></rect>
    
      <rect x="26.154452324665087" y="-50" width="1.4499605988967692" height="20"></rect>
    
      <rect x="29.00919359075387" y="-50" width="1.3596007354872603" height="20"></rect>
    
      <rect x="31.683215130023637" y="-50" width="1.2692408720777515" height="20"></rect>
    
      <rect x="34.176516942474386" y="-50" width="1.1788810086682426" height="20"></rect>
    
      <rect x="36.48909902810612" y="-50" width="1.0885211452587338" height="20"></rect>
    
      <rect x="38.62096138691883" y="-50" width="0.998161281849225" height="20"></rect>
    
      <rect x="40.572104018912526" y="-50" width="0.9078014184397163" height="20"></rect>
    
      <rect x="42.3425269240872" y="-50" width="0.8174415550302073" height="20"></rect>
    
      <rect x="43.932230102442865" y="-50" width="0.7270816916206986" height="20"></rect>
    
      <rect x="45.34121355397951" y="-50" width="0.6367218282111898" height="20"></rect>
    
      <rect x="46.56947727869713" y="-50" width="0.5463619648016811" height="20"></rect>
    
      <rect x="47.617021276595736" y="-50" width="0.45600210139217234" height="20"></rect>
    
      <rect x="48.48384554767533" y="-50" width="0.3656422379826633" height="20"></rect>
    
      <rect x="49.1699500919359" y="-50" width="0.2752823745731546" height="20"></rect>
    
      <rect x="49.675334909377455" y="-50" width="0.18492251116364583" height="20"></rect>
    
      <rect x="-49.90543735224586" y="-30" width="0.13974257945889154" height="20"></rect>
    
      <rect x="-49.58077226162332" y="-30" width="0.23010244286840031" height="20"></rect>
    
      <rect x="-49.07538744418177" y="-30" width="0.3204623062779091" height="20"></rect>
    
      <rect x="-48.3892828999212" y="-30" width="0.4108221696874179" height="20"></rect>
    
      <rect x="-47.522458628841605" y="-30" width="0.5011820330969268" height="20"></rect>
    
      <rect x="-46.474914630943" y="-30" width="0.5915418965064355" height="20"></rect>
    
      <rect x="-45.246650906225376" y="-30" width="0.6819017599159443" height="20"></rect>
    
      <rect x="-43.837667454688734" y="-30" width="0.7722616233254531" height="20"></rect>
    
      <rect x="-42.24796427633307" y="-30" width="0.8626214867349619" height="20"></rect>
    
      <rect x="-40.477541371158395" y="-30" width="0.9529813501444706" height="20"></rect>
    
      <rect x="-38.5263987391647" y="-30" width="1.0433412135539795" height="20"></rect>
    
      <rect x="-36.39453638035199" y="-30" width="1.1337010769634883" height="20"></rect>
    
      <rect x="-34.081954294720255" y="-30" width="1.2240609403729972" height="20"></rect>
    
      <rect x="-31.588652482269502" y="-30" width="1.3144208037825058" height="20"></rect>
    
      <rect x="-28.914630942999736" y="-30" width="1.4047806671920149" height="20"></rect>
    
      <rect x="-26.059889676910952" y="-30" width="1.4951405306015235" height="20"></rect>
    
      <rect x="-23.02442868400315" y="-30" width="1.5855003940110324" height="20"></rect>
    
      <rect x="-19.808247964276333" y="-30" width="1.675860257420541" height="20"></rect>
    
      <rect x="-16.411347517730498" y="-30" width="1.7662201208300499" height="20"></rect>
    
      <rect x="-12.833727344365643" y="-30" width="1.8565799842395587" height="20"></rect>
    
      <rect x="-9.075387444181771" y="-30" width="1.9469398476490676" height="20"></rect>
    
      <rect x="-5.1363278171788815" y="-30" width="2.0372997110585764" height="20"></rect>
    
      <rect x="-1.0165484633569744" y="-30" width="2.127659574468085" height="20"></rect>
    
      <rect x="3.1935907538744415" y="-30" width="2.0372997110585764" height="20"></rect>
    
      <rect x="7.22301024428684" y="-30" width="1.9469398476490676" height="20"></rect>
    
      <rect x="11.07171000788022" y="-30" width="1.8565799842395587" height="20"></rect>
    
      <rect x="14.739690044654584" y="-30" width="1.7662201208300499" height="20"></rect>
    
      <rect x="18.226950354609926" y="-30" width="1.675860257420541" height="20"></rect>
    
      <rect x="21.533490937746254" y="-30" width="1.5855003940110324" height="20"></rect>
    
      <rect x="24.659311794063562" y="-30" width="1.4951405306015235" height="20"></rect>
    
      <rect x="27.604412923561856" y="-30" width="1.4047806671920144" height="20"></rect>
    
      <rect x="30.36879432624113" y="-30" width="1.3144208037825058" height="20"></rect>
    
      <rect x="32.952456002101385" y="-30" width="1.2240609403729972" height="20"></rect>
    
      <rect x="35.35539795114263" y="-30" width="1.1337010769634883" height="20"></rect>
    
      <rect x="37.57762017336485" y="-30" width="1.0433412135539795" height="20"></rect>
    
      <rect x="39.61912266876806" y="-30" width="0.9529813501444707" height="20"></rect>
    
      <rect x="41.479905437352244" y="-30" width="0.8626214867349619" height="20"></rect>
    
      <rect x="43.15996847911741" y="-30" width="0.7722616233254531" height="20"></rect>
    
      <rect x="44.65931179406356" y="-30" width="0.6819017599159443" height="20"></rect>
    
      <rect x="45.977935382190694" y="-30" width="0.5915418965064355" height="20"></rect>
    
      <rect x="47.11583924349881" y="-30" width="0.5011820330969268" height="20"></rect>
    
      <rect x="48.07302337798791" y="-30" width="0.41082216968741797" height="20"></rect>
    
      <rect x="48.84948778565799" y="-30" width="0.3204623062779092" height="20"></rect>
    
      <rect x="49.445232466509054" y="-30" width="0.2301024428684002" height="20"></rect>
    
      <rect x="49.8602574205411" y="-30" width="0.13974257945889146" height="20"></rect>
    
      <rect x="-50" y="-10" width="0.09456264775413711" height="20"></rect>
    
      <rect x="-49.76569477278697" y="-10" width="0.18492251116364591" height="20"></rect>
    
      <rect x="-49.35066981875492" y="-10" width="0.27528237457315474" height="20"></rect>
    
      <rect x="-48.75492513790386" y="-10" width="0.3656422379826635" height="20"></rect>
    
      <rect x="-47.97846073023378" y="-10" width="0.45600210139217234" height="20"></rect>
    
      <rect x="-47.02127659574468" y="-10" width="0.5463619648016811" height="20"></rect>
    
      <rect x="-45.88337273443656" y="-10" width="0.6367218282111898" height="20"></rect>
    
      <rect x="-44.56474914630943" y="-10" width="0.7270816916206988" height="20"></rect>
    
      <rect x="-43.06540583136328" y="-10" width="0.8174415550302075" height="20"></rect>
    
      <rect x="-41.38534278959811" y="-10" width="0.9078014184397163" height="20"></rect>
    
      <rect x="-39.524560021013926" y="-10" width="0.998161281849225" height="20"></rect>
    
      <rect x="-37.48305752561072" y="-10" width="1.0885211452587338" height="20"></rect>
    
      <rect x="-35.2608353033885" y="-10" width="1.1788810086682426" height="20"></rect>
    
      <rect x="-32.857893354347254" y="-10" width="1.2692408720777513" height="20"></rect>
    
      <rect x="-30.274231678486995" y="-10" width="1.3596007354872603" height="20"></rect>
    
      <rect x="-27.50985027580772" y="-10" width="1.4499605988967692" height="20"></rect>
    
      <rect x="-24.564749146309428" y="-10" width="1.5403204623062778" height="20"></rect>
    
      <rect x="-21.43892828999212" y="-10" width="1.6306803257157867" height="20"></rect>
    
      <rect x="-18.13238770685579" y="-10" width="1.7210401891252953" height="20"></rect>
    
      <rect x="-14.645127396900447" y="-10" width="1.8114000525348042" height="20"></rect>
    
      <rect x="-10.977147360126084" y="-10" width="1.9017599159443128" height="20"></rect>
    
      <rect x="-7.128447596532704" y="-10" width="1.992119779353822" height="20"></rect>
    
      <rect x="-3.099028106120305" y="-10" width="2.0824796427633308" height="20"></rect>
    
      <rect x="1.1111111111111107" y="-10" width="2.0824796427633308" height="20"></rect>
    
      <rect x="5.230890464933018" y="-10" width="1.992119779353822" height="20"></rect>
    
      <rect x="9.169950091935908" y="-10" width="1.9017599159443133" height="20"></rect>
    
      <rect x="12.92828999211978" y="-10" width="1.8114000525348042" height="20"></rect>
    
      <rect x="16.505910165484632" y="-10" width="1.7210401891252953" height="20"></rect>
    
      <rect x="19.902810612030468" y="-10" width="1.6306803257157867" height="20"></rect>
    
      <rect x="23.118991331757286" y="-10" width="1.5403204623062778" height="20"></rect>
    
      <rect x="26.154452324665087" y="-10" width="1.4499605988967692" height="20"></rect>
    
      <rect x="29.00919359075387" y="-10" width="1.3596007354872603" height="20"></rect>
    
      <rect x="31.683215130023637" y="-10" width="1.2692408720777515" height="20"></rect>
    
      <rect x="34.176516942474386" y="-10" width="1.1788810086682426" height="20"></rect>
    
      <rect x="36.48909902810612" y="-10" width="1.0885211452587338" height="20"></rect>
    
      <rect x="38.62096138691883" y="-10" width="0.998161281849225" height="20"></rect>
    
      <rect x="40.572104018912526" y="-10" width="0.9078014184397163" height="20"></rect>
    
      <rect x="42.3425269240872" y="-10" width="0.8174415550302073" height="20"></rect>
    
      <rect x="43.932230102442865" y="-10" width="0.7270816916206986" height="20"></rect>
    
      <rect x="45.34121355397951" y="-10" width="0.6367218282111898" height="20"></rect>
    
      <rect x="46.56947727869713" y="-10" width="0.5463619648016811" height="20"></rect>
    
      <rect x="47.617021276595736" y="-10" width="0.45600210139217234" height="20"></rect>
    
      <rect x="48.48384554767533" y="-10" width="0.3656422379826633" height="20"></rect>
    
      <rect x="49.1699500919359" y="-10" width="0.2752823745731546" height="20"></rect>
    
      <rect x="49.675334909377455" y="-10" width="0.18492251116364583" height="20"></rect>
    
      <rect x="-49.90543735224586" y="10" width="0.13974257945889154" height="20"></rect>
    
      <rect x="-49.58077226162332" y="10" width="0.23010244286840031" height="20"></rect>
    
      <rect x="-49.07538744418177" y="10" width="0.3204623062779091" height="20"></rect>
    
      <rect x="-48.3892828999212" y="10" width="0.4108221696874179" height="20"></rect>
    
      <rect x="-47.522458628841605" y="10" width="0.5011820330969268" height="20"></rect>
    
      <rect x="-46.474914630943" y="10" width="0.5915418965064355" height="20"></rect>
    
      <rect x="-45.246650906225376" y="10" width="0.6819017599159443" height="20"></rect>
    
      <rect x="-43.837667454688734" y="10" width="0.7722616233254531" height="20"></rect>
    
      <rect x="-42.24796427633307" y="10" width="0.8626214867349619" height="20"></rect>
    
      <rect x="-40.477541371158395" y="10" width="0.9529813501444706" height="20"></rect>
    
      <rect x="-38.5263987391647" y="10" width="1.0433412135539795" height="20"></rect>
    
      <rect x="-36.39453638035199" y="10" width="1.1337010769634883" height="20"></rect>
    
      <rect x="-34.081954294720255" y="10" width="1.2240609403729972" height="20"></rect>
    
      <rect x="-31.588652482269502" y="10" width="1.3144208037825058" height="20"></rect>
    
      <rect x="-28.914630942999736" y="10" width="1.4047806671920149" height="20"></rect>
    
      <rect x="-26.059889676910952" y="10" width="1.4951405306015235" height="20"></rect>
    
      <rect x="-23.02442868400315" y="10" width="1.5855003940110324" height="20"></rect>
    
      <rect x="-19.808247964276333" y="10" width="1.675860257420541" height="20"></rect>
    
      <rect x="-16.411347517730498" y="10" width="1.7662201208300499" height="20"></rect>
    
      <rect x="-12.833727344365643" y="10" width="1.8565799842395587" height="20"></rect>
    
      <rect x="-9.075387444181771" y="10" width="1.9469398476490676" height="20"></rect>
    
      <rect x="-5.1363278171788815" y="10" width="2.0372997110585764" height="20"></rect>
    
      <rect x="-1.0165484633569744" y="10" width="2.127659574468085" height="20"></rect>
    
      <rect x="3.1935907538744415" y="10" width="2.0372997110585764" height="20"></rect>
    
      <rect x="7.22301024428684" y="10" width="1.9469398476490676" height="20"></rect>
    
      <rect x="11.07171000788022" y="10" width="1.8565799842395587" height="20"></rect>
    
      <rect x="14.739690044654584" y="10" width="1.7662201208300499" height="20"></rect>
    
      <rect x="18.226950354609926" y="10" width="1.675860257420541" height="20"></rect>
    
      <rect x="21.533490937746254" y="10" width="1.5855003940110324" height="20"></rect>
    
      <rect x="24.659311794063562" y="10" width="1.4951405306015235" height="20"></rect>
    
      <rect x="27.604412923561856" y="10" width="1.4047806671920144" height="20"></rect>
    
      <rect x="30.36879432624113" y="10" width="1.3144208037825058" height="20"></rect>
    
      <rect x="32.952456002101385" y="10" width="1.2240609403729972" height="20"></rect>
    
      <rect x="35.35539795114263" y="10" width="1.1337010769634883" height="20"></rect>
    
      <rect x="37.57762017336485" y="10" width="1.0433412135539795" height="20"></rect>
    
      <rect x="39.61912266876806" y="10" width="0.9529813501444707" height="20"></rect>
    
      <rect x="41.479905437352244" y="10" width="0.8626214867349619" height="20"></rect>
    
      <rect x="43.15996847911741" y="10" width="0.7722616233254531" height="20"></rect>
    
      <rect x="44.65931179406356" y="10" width="0.6819017599159443" height="20"></rect>
    
      <rect x="45.977935382190694" y="10" width="0.5915418965064355" height="20"></rect>
    
      <rect x="47.11583924349881" y="10" width="0.5011820330969268" height="20"></rect>
    
      <rect x="48.07302337798791" y="10" width="0.41082216968741797" height="20"></rect>
    
      <rect x="48.84948778565799" y="10" width="0.3204623062779092" height="20"></rect>
    
      <rect x="49.445232466509054" y="10" width="0.2301024428684002" height="20"></rect>
    
      <rect x="49.8602574205411" y="10" width="0.13974257945889146" height="20"></rect>
    
      <rect x="-50" y="30" width="0.09456264775413711" height="20"></rect>
    
      <rect x="-49.76569477278697" y="30" width="0.18492251116364591" height="20"></rect>
    
      <rect x="-49.35066981875492" y="30" width="0.27528237457315474" height="20"></rect>
    
      <rect x="-48.75492513790386" y="30" width="0.3656422379826635" height="20"></rect>
    
      <rect x="-47.97846073023378" y="30" width="0.45600210139217234" height="20"></rect>
    
      <rect x="-47.02127659574468" y="30" width="0.5463619648016811" height="20"></rect>
    
      <rect x="-45.88337273443656" y="30" width="0.6367218282111898" height="20"></rect>
    
      <rect x="-44.56474914630943" y="30" width="0.7270816916206988" height="20"></rect>
    
      <rect x="-43.06540583136328" y="30" width="0.8174415550302075" height="20"></rect>
    
      <rect x="-41.38534278959811" y="30" width="0.9078014184397163" height="20"></rect>
    
      <rect x="-39.524560021013926" y="30" width="0.998161281849225" height="20"></rect>
    
      <rect x="-37.48305752561072" y="30" width="1.0885211452587338" height="20"></rect>
    
      <rect x="-35.2608353033885" y="30" width="1.1788810086682426" height="20"></rect>
    
      <rect x="-32.857893354347254" y="30" width="1.2692408720777513" height="20"></rect>
    
      <rect x="-30.274231678486995" y="30" width="1.3596007354872603" height="20"></rect>
    
      <rect x="-27.50985027580772" y="30" width="1.4499605988967692" height="20"></rect>
    
      <rect x="-24.564749146309428" y="30" width="1.5403204623062778" height="20"></rect>
    
      <rect x="-21.43892828999212" y="30" width="1.6306803257157867" height="20"></rect>
    
      <rect x="-18.13238770685579" y="30" width="1.7210401891252953" height="20"></rect>
    
      <rect x="-14.645127396900447" y="30" width="1.8114000525348042" height="20"></rect>
    
      <rect x="-10.977147360126084" y="30" width="1.9017599159443128" height="20"></rect>
    
      <rect x="-7.128447596532704" y="30" width="1.992119779353822" height="20"></rect>
    
      <rect x="-3.099028106120305" y="30" width="2.0824796427633308" height="20"></rect>
    
      <rect x="1.1111111111111107" y="30" width="2.0824796427633308" height="20"></rect>
    
      <rect x="5.230890464933018" y="30" width="1.992119779353822" height="20"></rect>
    
      <rect x="9.169950091935908" y="30" width="1.9017599159443133" height="20"></rect>
    
      <rect x="12.92828999211978" y="30" width="1.8114000525348042" height="20"></rect>
    
      <rect x="16.505910165484632" y="30" width="1.7210401891252953" height="20"></rect>
    
      <rect x="19.902810612030468" y="30" width="1.6306803257157867" height="20"></rect>
    
      <rect x="23.118991331757286" y="30" width="1.5403204623062778" height="20"></rect>
    
      <rect x="26.154452324665087" y="30" width="1.4499605988967692" height="20"></rect>
    
      <rect x="29.00919359075387" y="30" width="1.3596007354872603" height="20"></rect>
    
      <rect x="31.683215130023637" y="30" width="1.2692408720777515" height="20"></rect>
    
      <rect x="34.176516942474386" y="30" width="1.1788810086682426" height="20"></rect>
    
      <rect x="36.48909902810612" y="30" width="1.0885211452587338" height="20"></rect>
    
      <rect x="38.62096138691883" y="30" width="0.998161281849225" height="20"></rect>
    
      <rect x="40.572104018912526" y="30" width="0.9078014184397163" height="20"></rect>
    
      <rect x="42.3425269240872" y="30" width="0.8174415550302073" height="20"></rect>
    
      <rect x="43.932230102442865" y="30" width="0.7270816916206986" height="20"></rect>
    
      <rect x="45.34121355397951" y="30" width="0.6367218282111898" height="20"></rect>
    
      <rect x="46.56947727869713" y="30" width="0.5463619648016811" height="20"></rect>
    
      <rect x="47.617021276595736" y="30" width="0.45600210139217234" height="20"></rect>
    
      <rect x="48.48384554767533" y="30" width="0.3656422379826633" height="20"></rect>
    
      <rect x="49.1699500919359" y="30" width="0.2752823745731546" height="20"></rect>
    
      <rect x="49.675334909377455" y="30" width="0.18492251116364583" height="20"></rect>
    
  </g></svg>