<svg xmlns="http://www.w3.org/2000/svg" viewBox="0 0 100 100" id="svg" style="--frame-c: #f6c6a4; --frame-bdw: 1em; background-color: rgb(255, 255, 255); --frame-asr: 100 / 100.;"><g transform="rotate(90) translate(0, -100)">
      <rect width="2.857142857142857" height="100" x="0" y="0" fill="#DE99B5">
      </rect>
      <rect width="2.857142857142857" height="100" x="2.857142857142857" y="0" fill="#E2A65E">
      </rect>
      <rect width="2.857142857142857" height="100" x="5.714285714285714" y="0" fill="#E9C0BE">
      </rect>
      <rect width="2.857142857142857" height="100" x="8.571428571428571" y="0" fill="#96C8D3">
      </rect>
      <rect width="2.857142857142857" height="100" x="11.428571428571429" y="0" fill="#E9C0BE">
      </rect>
      <rect width="2.857142857142857" height="100" x="14.285714285714286" y="0" fill="#96C8D3">
      </rect>
      <rect width="2.857142857142857" height="100" x="17.142857142857142" y="0" fill="#E0A4BD">
      </rect>
      <rect width="2.857142857142857" height="100" x="20" y="0" fill="#E2A35C">
      </rect>
      <rect width="2.857142857142857" height="100" x="22.857142857142858" y="0" fill="#E9C0BE">
      </rect>
      <rect width="2.857142857142857" height="100" x="25.714285714285715" y="0" fill="#E2A35C">
      </rect>
      <rect width="2.857142857142857" height="100" x="28.571428571428573" y="0" fill="#92BFE9">
      </rect>
      <rect width="2.857142857142857" height="100" x="31.42857142857143" y="0" fill="#D58272">
      </rect>
      <rect width="2.857142857142857" height="100" x="34.285714285714285" y="0" fill="#E0A6BE">
      </rect>
      <rect width="2.857142857142857" height="100" x="37.14285714285714" y="0" fill="#D6806F">
      </rect>
      <rect width="2.857142857142857" height="100" x="39.99999999999999" y="0" fill="#61AB7A">
      </rect>
      <rect width="2.857142857142857" height="100" x="42.85714285714285" y="0" fill="#D3A9BD">
      </rect>
      <rect width="2.857142857142857" height="100" x="45.7142857142857" y="0" fill="#DC8E5E">
      </rect>
      <rect width="2.857142857142857" height="100" x="48.571428571428555" y="0" fill="#9BA9D6">
      </rect>
      <rect width="2.857142857142857" height="100" x="51.42857142857141" y="0" fill="#87B43D">
      </rect>
      <rect width="2.857142857142857" height="100" x="54.28571428571426" y="0" fill="#F0C713">
      </rect>
      <rect width="2.857142857142857" height="100" x="57.14285714285712" y="0" fill="#DE99B5">
      </rect>
      <rect width="2.857142857142857" height="100" x="59.99999999999997" y="0" fill="#E2A65E">
      </rect>
      <rect width="2.857142857142857" height="100" x="62.857142857142826" y="0" fill="#E9C0BE">
      </rect>
      <rect width="2.857142857142857" height="100" x="65.71428571428568" y="0" fill="#96C8D3">
      </rect>
      <rect width="2.857142857142857" height="100" x="68.57142857142854" y="0" fill="#E9C0BE">
      </rect>
      <rect width="2.857142857142857" height="100" x="71.4285714285714" y="0" fill="#96C8D3">
      </rect>
      <rect width="2.857142857142857" height="100" x="74.28571428571426" y="0" fill="#E0A4BD">
      </rect>
      <rect width="2.857142857142857" height="100" x="77.14285714285712" y="0" fill="#E2A35C">
      </rect>
      <rect width="2.857142857142857" height="100" x="79.99999999999999" y="0" fill="#E9C0BE">
      </rect>
      <rect width="2.857142857142857" height="100" x="82.85714285714285" y="0" fill="#E2A35C">
      </rect>
      <rect width="2.857142857142857" height="100" x="85.71428571428571" y="0" fill="#92BFE9">
      </rect>
      <rect width="2.857142857142857" height="100" x="88.57142857142857" y="0" fill="#D58272">
      </rect>
      <rect width="2.857142857142857" height="100" x="91.42857142857143" y="0" fill="#E0A6BE">
      </rect>
      <rect width="2.857142857142857" height="100" x="94.28571428571429" y="0" fill="#D6806F">
      </rect>
      <rect width="2.857142857142857" height="100" x="97.14285714285715" y="0" fill="#61AB7A">
      </rect></g></svg>