<svg xmlns="http://www.w3.org/2000/svg" viewBox="0 0 100 100" id="svg" style="--frame-c: #f6c6a4; --frame-bdw: 1em; background-color: rgb(255, 255, 255); --frame-asr: 100 / 100.;"><g>
      <rect width="3.172355062332587" height="100" x="0" y="0" fill="hsl(192, 93.45463773479133%, 64.05384276783272%)">
      </rect>
      <rect width="4.59109289949226" height="100" x="3.172355062332587" y="0" fill="hsl(192, 65.73180630192815%, 70.09655297257659%)">
      </rect>
      <rect width="1.6820606915112262" height="100" x="7.763447961824847" y="0" fill="hsl(192, 58.17880524552829%, 47.946737811021876%)">
      </rect>
      <rect width="1.925747309750086" height="100" x="9.445508653336073" y="0" fill="hsl(192, 51.367642787423875%, 57.42564614639245%)">
      </rect>
      <rect width="1.7062108097984225" height="100" x="11.37125596308616" y="0" fill="hsl(192, 87.86450447164383%, 86.87043625353871%)">
      </rect>
      <rect width="0.9175976976136797" height="100" x="13.077466772884582" y="0" fill="hsl(192, 53.27038252207578%, 47.348682809191544%)">
      </rect>
      <rect width="4.30284547289521" height="100" x="13.995064470498262" y="0" fill="hsl(192, 51.27082681814943%, 88.49891930199507%)">
      </rect>
      <rect width="4.989581622537507" height="100" x="18.29790994339347" y="0" fill="hsl(192, 73.11982236044352%, 66.37231408530639%)">
      </rect>
      <rect width="2.7811881914802083" height="100" x="23.287491565930978" y="0" fill="hsl(192, 53.37045044798815%, 66.80437551261215%)">
      </rect>
      <rect width="4.773293098300497" height="100" x="26.068679757411186" y="0" fill="hsl(192, 78.88155653112213%, 38.32038529240906%)">
      </rect>
      <rect width="0.8922461503144231" height="100" x="30.84197285571168" y="0" fill="hsl(192, 90.09027176334169%, 81.44835382469165%)">
      </rect>
      <rect width="2.789854961924" height="100" x="31.734219006026105" y="0" fill="hsl(192, 77.3794269871832%, 80.02110608175101%)">
      </rect>
      <rect width="0.7733608771366645" height="100" x="34.5240739679501" y="0" fill="hsl(192, 55.678333442503515%, 44.129025606755334%)">
      </rect>
      <rect width="3.18309951714615" height="100" x="35.29743484508677" y="0" fill="hsl(192, 62.00698083592043%, 39.89921928535739%)">
      </rect>
      <rect width="1.4756562189747016" height="100" x="38.480534362232916" y="0" fill="hsl(192, 58.53006385530709%, 83.14556041685782%)">
      </rect>
      <rect width="1.7289677000302608" height="100" x="39.956190581207615" y="0" fill="hsl(192, 87.57709285791333%, 54.843466003188496%)">
      </rect>
      <rect width="5.057980942595849" height="100" x="41.685158281237875" y="0" fill="hsl(192, 74.43106669349005%, 47.67241268117455%)">
      </rect>
      <rect width="4.569602555847611" height="100" x="46.74313922383372" y="0" fill="hsl(192, 73.85716616033685%, 89.04362291107633%)">
      </rect>
      <rect width="3.199760533005521" height="100" x="51.31274177968133" y="0" fill="hsl(192, 54.15135371844818%, 49.87049623658518%)">
      </rect>
      <rect width="0.891899832807868" height="100" x="54.512502312686856" y="0" fill="hsl(192, 67.04395466416338%, 40.06741877941273%)">
      </rect>
      <rect width="2.6530415513423335" height="100" x="55.40440214549472" y="0" fill="hsl(192, 59.95608752837647%, 60.63203290334965%)">
      </rect>
      <rect width="5.148939028847074" height="100" x="58.057443696837055" y="0" fill="hsl(192, 88.69549311542117%, 48.61043963004235%)">
      </rect>
      <rect width="2.9586631171844044" height="100" x="63.20638272568413" y="0" fill="hsl(192, 67.4396801786919%, 36.59577397731026%)">
      </rect>
      <rect width="1.2454207697068325" height="100" x="66.16504584286854" y="0" fill="hsl(192, 71.30287383887766%, 82.44751226922585%)">
      </rect>
      <rect width="2.556935313958286" height="100" x="67.41046661257536" y="0" fill="hsl(192, 67.62509888298834%, 46.75115890376384%)">
      </rect>
      <rect width="2.7320614217673844" height="100" x="69.96740192653365" y="0" fill="hsl(192, 53.97391340498705%, 67.43855809641059%)">
      </rect>
      <rect width="2.479237014207164" height="100" x="72.69946334830104" y="0" fill="hsl(192, 98.14703756486503%, 70.03038000187456%)">
      </rect>
      <rect width="3.033197320017107" height="100" x="75.1787003625082" y="0" fill="hsl(192, 72.96142675556862%, 76.82976076144328%)">
      </rect>
      <rect width="2.289316338608463" height="100" x="78.2118976825253" y="0" fill="hsl(192, 66.49483978206472%, 61.708825219619186%)">
      </rect>
      <rect width="3.237073575399384" height="100" x="80.50121402113376" y="0" fill="hsl(192, 57.44666431841938%, 88.40312250718219%)">
      </rect>
      <rect width="3.2370956539747078" height="100" x="83.73828759653314" y="0" fill="hsl(192, 73.62134251736083%, 66.80884918631841%)">
      </rect>
      <rect width="4.238026033976997" height="100" x="86.97538325050785" y="0" fill="hsl(192, 88.75894033258757%, 44.542682621179445%)">
      </rect>
      <rect width="5.03615364259822" height="100" x="91.21340928448484" y="0" fill="hsl(192, 83.90630087594249%, 59.78361313764921%)">
      </rect>
      <rect width="3.679069746215341" height="100" x="96.24956292708306" y="0" fill="hsl(192, 86.33391504535587%, 73.56423488245952%)">
      </rect>
      <rect width="0.07136732670156028" height="100" x="99.92863267329841" y="0" fill="hsl(192, 66.61602460759512%, 45.00791555567736%)">
      </rect></g></svg>