<svg xmlns="http://www.w3.org/2000/svg" id="svg" width="800" height="800" viewBox="0 0 100 100" style="stroke: rgb(255, 255, 255); stroke-width: 0px; --frame-c: #f6c6a4;" stroke-linecap="round"><g><polygon points="0,0 12.5,12.5 12.5,87.5 0,100" fill="hsl(38.815009927268115, 79.78103847948563%, 58.69097439291402%)"></polygon><polygon points="12.5,12.5 25,25 25,75 12.5,87.5" fill="hsl(25.891321000387585, 58.39029706607983%, 32.65624939659735%)"></polygon><polygon points="25,25 37.5,37.5 37.5,62.5 25,75" fill="hsl(42.56630661758379, 73.32750929150887%, 37.368159832339664%)"></polygon><polygon points="37.5,37.5 50,50 50,50 37.5,62.5" fill="hsl(16.725615814609803, 66.87615397905293%, 33.21947477712995%)"></polygon></g><g><polygon points="100,0 87.5,12.5 87.5,87.5 100,100" fill="hsl(23.23508242349073, 69.24283248212276%, 47.98931197429049%)"></polygon><polygon points="87.5,12.5 75,25 75,75 87.5,87.5" fill="hsl(10.775151350356062, 60.9814946150442%, 42.420775065041944%)"></polygon><polygon points="75,25 62.5,37.5 62.5,62.5 75,75" fill="hsl(23.94401418532583, 76.3289942357629%, 43.80162500506757%)"></polygon><polygon points="62.5,37.5 50,50 50,50 62.5,62.5" fill="hsl(36.59006564268124, 73.6190963203075%, 43.588222556363505%)"></polygon></g><g><polygon points="0,0 12.5,12.5 87.5,12.5 100,0" fill="hsl(41.932593924295226, 41.978640586343545%, 36.54219316561547%)"></polygon><polygon points="12.5,12.5 25,25 75,25 87.5,12.5" fill="hsl(38.949328154950614, 50.539540332576465%, 37.157843392112966%)"></polygon><polygon points="25,25 37.5,37.5 62.5,37.5 75,25" fill="hsl(29.662176276063736, 79.93201109954165%, 50.11684039862945%)"></polygon><polygon points="37.5,37.5 50,50 50,50 62.5,37.5" fill="hsl(33.94118528922753, 74.76597887918327%, 36.352324227768925%)"></polygon></g><g><polygon points="0,100 12.5,87.5 87.5,87.5 100,100" fill="hsl(33.219060429402035, 40.0787035255325%, 36.46423429473818%)"></polygon><polygon points="12.5,87.5 25,75 75,75 87.5,87.5" fill="hsl(28.910333051017126, 55.31730667737171%, 48.67909479570629%)"></polygon><polygon points="25,75 37.5,62.5 62.5,62.5 75,75" fill="hsl(25.15801743187603, 57.1271030981401%, 49.99488560624994%)"></polygon><polygon points="37.5,62.5 50,50 50,50 62.5,62.5" fill="hsl(39.78972952702495, 73.37884375500455%, 45.704137261935884%)"></polygon></g><g><polygon points="50,50 50,50 50,50 50,50" fill="hsl(13.056680392126125, 42.573825493047025%, 51.98159440000399%)"></polygon><polygon points="50,50 50,50 50,50 50,50" fill="hsl(10.776058102265097, 44.76572387454524%, 36.2463255968989%)"></polygon><polygon points="50,50 50,50 50,50 50,50" fill="hsl(27.635536650972426, 44.11327314891362%, 40.31167287612901%)"></polygon><polygon points="50,50 50,50 50,50 50,50" fill="hsl(40.042127408833466, 41.18899399863698%, 40.65523629111581%)"></polygon></g></svg>