<svg xmlns="http://www.w3.org/2000/svg" viewBox="0 0 100 100" id="svg" style="--frame-c: #f6c6a4; --frame-bdw: 1em; background-color: rgb(255, 255, 255); --frame-asr: 100 / 100.;"><g transform="skewY(30) translate(0, -100)">
				<rect width="20" height="33.333333333333336" x="0" y="0" fill="hsl(33.78858953166776, 79.94466933853792%, 67.90010984525003%)">
				</rect>
				<rect width="20" height="33.333333333333336" x="0" y="33.333333333333336" fill="hsl(305.6575285057408, 52.3436151128311%, 60.04135609679149%)">
				</rect>
				<rect width="20" height="33.333333333333336" x="0" y="66.66666666666667" fill="hsl(229.6320618974989, 56.79282032039113%, 71.00505550828031%)">
				</rect>
				<rect width="20" height="33.333333333333336" x="0" y="100" fill="hsl(310.0753093931751, 73.46155611603496%, 55.692048185003515%)">
				</rect>
				<rect width="20" height="66.66666666666667" x="0" y="133.33333333333334" fill="hsl(118.81111397569742, 58.891480241722306%, 77.6402103368767%)">
				</rect></g><g transform="skewY(30) translate(0, -100)">
				<rect width="20" height="33.333333333333336" x="20" y="0" fill="hsl(27.217310638218677, 52.11222006818964%, 77.3689172219054%)">
				</rect>
				<rect width="20" height="33.333333333333336" x="20" y="33.333333333333336" fill="hsl(255.23259107627567, 79.82504274949395%, 68.2419167910019%)">
				</rect>
				<rect width="20" height="33.333333333333336" x="20" y="66.66666666666667" fill="hsl(234.8935338551085, 61.481707795281395%, 58.26055849630188%)">
				</rect>
				<rect width="20" height="33.333333333333336" x="20" y="100" fill="hsl(152.73399596329216, 76.8102709980019%, 59.43625722222375%)">
				</rect>
				<rect width="20" height="33.333333333333336" x="20" y="133.33333333333334" fill="hsl(86.53525154099752, 71.85513237546031%, 76.27810531389098%)">
				</rect>
				<rect width="20" height="33.333333333333336" x="20" y="166.66666666666669" fill="hsl(322.81334771282, 79.44805047561162%, 74.7952121080972%)">
				</rect></g><g transform="skewY(30) translate(0, -100)">
				<rect width="20" height="33.333333333333336" x="40" y="0" fill="hsl(328.41837498691797, 70.10575349646288%, 59.35247339088909%)">
				</rect>
				<rect width="20" height="33.333333333333336" x="40" y="33.333333333333336" fill="hsl(49.731542711973944, 76.48604673864195%, 55.90081321271926%)">
				</rect>
				<rect width="20" height="33.333333333333336" x="40" y="66.66666666666667" fill="hsl(114.7845196416524, 72.64146393326358%, 59.90637707543051%)">
				</rect>
				<rect width="20" height="33.333333333333336" x="40" y="100" fill="hsl(250.761976672044, 66.88097623861907%, 61.52907201494994%)">
				</rect>
				<rect width="20" height="33.333333333333336" x="40" y="133.33333333333334" fill="hsl(101.3104496772347, 56.43048819801882%, 70.48609318077008%)">
				</rect>
				<rect width="20" height="33.333333333333336" x="40" y="166.66666666666669" fill="hsl(22.490696120078674, 58.56494797047482%, 70.30563100903535%)">
				</rect></g><g transform="skewY(30) translate(0, -100)">
				<rect width="20" height="33.333333333333336" x="60" y="0" fill="hsl(132.97985281334422, 75.34799040050923%, 71.08592527780363%)">
				</rect>
				<rect width="20" height="66.66666666666667" x="60" y="33.333333333333336" fill="hsl(83.01021712964398, 54.770356893018345%, 79.18002570797792%)">
				</rect>
				<rect width="20" height="33.333333333333336" x="60" y="100" fill="hsl(15.204583337975793, 60.45132789028982%, 76.5104986101626%)">
				</rect>
				<rect width="20" height="33.333333333333336" x="60" y="133.33333333333334" fill="hsl(20.784610607566822, 66.44165456332921%, 60.17108961920641%)">
				</rect>
				<rect width="20" height="33.333333333333336" x="60" y="166.66666666666669" fill="hsl(92.22412130710148, 53.302211281257826%, 62.77032690967583%)">
				</rect></g><g transform="skewY(30) translate(0, -100)">
				<rect width="20" height="33.333333333333336" x="80" y="0" fill="hsl(153.38191521166448, 60.694077173736716%, 53.94025464332378%)">
				</rect>
				<rect width="20" height="66.66666666666667" x="80" y="33.333333333333336" fill="hsl(153.73748400591472, 67.4232433139908%, 50.83291135221331%)">
				</rect>
				<rect width="20" height="33.333333333333336" x="80" y="100" fill="hsl(311.0879942511295, 62.81482569057729%, 50.432789169796%)">
				</rect>
				<rect width="20" height="33.333333333333336" x="80" y="133.33333333333334" fill="hsl(162.82550179213902, 68.08309629343647%, 52.25665676407723%)">
				</rect>
				<rect width="20" height="33.333333333333336" x="80" y="166.66666666666669" fill="hsl(44.192169707872175, 56.11842454540593%, 63.02606752164398%)">
				</rect></g></svg>