<svg xmlns="http://www.w3.org/2000/svg" viewBox="0 0 100 100" id="svg" style="--frame-c: #f6c6a4; --frame-bdw: 1em; fill: rgba(128, 153, 255, 0.2); stroke: rgba(240, 117, 240, 0); background-color: rgb(8, 8, 40); --frame-asr: 100 / 100.;"><g transform="translate(50 50) scale(2)"><circle cx="0" cy="0" r="12.5" stroke-width="0.1"></circle><circle cx="12.5" cy="0" r="12.5" stroke-width="0.1"></circle><circle cx="6.250000000000002" cy="10.825317547305483" r="12.5" stroke-width="0.1"></circle><circle cx="-6.249999999999997" cy="10.825317547305485" r="12.5" stroke-width="0.1"></circle><circle cx="-12.5" cy="1.5308084989341915e-15" r="12.5" stroke-width="0.1"></circle><circle cx="-6.250000000000005" cy="-10.82531754730548" r="12.5" stroke-width="0.1"></circle><circle cx="6.249999999999992" cy="-10.825317547305488" r="12.5" stroke-width="0.1"></circle><circle cx="25" cy="0" r="12.5" stroke-width="0.1"></circle><circle cx="18.75" cy="10.825317547305483" r="12.5" stroke-width="0.1"></circle><circle cx="12.500000000000004" cy="21.650635094610966" r="12.5" stroke-width="0.1"></circle><circle cx="4.440892098500626e-15" cy="21.65063509461097" r="12.5" stroke-width="0.1"></circle><circle cx="-12.499999999999995" cy="21.65063509461097" r="12.5" stroke-width="0.1"></circle><circle cx="-18.749999999999996" cy="10.825317547305486" r="12.5" stroke-width="0.1"></circle><circle cx="-25" cy="3.061616997868383e-15" r="12.5" stroke-width="0.1"></circle><circle cx="-18.750000000000007" cy="-10.825317547305477" r="12.5" stroke-width="0.1"></circle><circle cx="-12.50000000000001" cy="-21.65063509461096" r="12.5" stroke-width="0.1"></circle><circle cx="-1.3322676295501878e-14" cy="-21.65063509461097" r="12.5" stroke-width="0.1"></circle><circle cx="12.499999999999984" cy="-21.650635094610976" r="12.5" stroke-width="0.1"></circle><circle cx="18.749999999999993" cy="-10.825317547305502" r="12.5" stroke-width="0.1"></circle><circle cx="37.5" cy="0" r="12.5" stroke-width="0.1"></circle><circle cx="31.25" cy="10.825317547305483" r="12.5" stroke-width="0.1"></circle><circle cx="25.000000000000004" cy="21.650635094610966" r="12.5" stroke-width="0.1"></circle><circle cx="18.750000000000004" cy="32.47595264191645" r="12.5" stroke-width="0.1"></circle><circle cx="6.250000000000006" cy="32.47595264191645" r="12.5" stroke-width="0.1"></circle><circle cx="-6.249999999999993" cy="32.47595264191645" r="12.5" stroke-width="0.1"></circle><circle cx="-18.749999999999993" cy="32.47595264191645" r="12.5" stroke-width="0.1"></circle><circle cx="-24.999999999999993" cy="21.65063509461097" r="12.5" stroke-width="0.1"></circle><circle cx="-31.249999999999996" cy="10.825317547305488" r="12.5" stroke-width="0.1"></circle><circle cx="-37.5" cy="4.592425496802574e-15" r="12.5" stroke-width="0.1"></circle><circle cx="-31.250000000000007" cy="-10.825317547305476" r="12.5" stroke-width="0.1"></circle><circle cx="-25.00000000000001" cy="-21.65063509461096" r="12.5" stroke-width="0.1"></circle><circle cx="-18.750000000000018" cy="-32.475952641916436" r="12.5" stroke-width="0.1"></circle><circle cx="-6.250000000000019" cy="-32.47595264191645" r="12.5" stroke-width="0.1"></circle><circle cx="6.249999999999979" cy="-32.47595264191646" r="12.5" stroke-width="0.1"></circle><circle cx="18.749999999999975" cy="-32.475952641916464" r="12.5" stroke-width="0.1"></circle><circle cx="24.999999999999986" cy="-21.65063509461099" r="12.5" stroke-width="0.1"></circle><circle cx="31.249999999999993" cy="-10.825317547305517" r="12.5" stroke-width="0.1"></circle></g></svg>