<svg xmlns="http://www.w3.org/2000/svg" viewBox="0 0 100 100" id="svg" style="--frame-c: #f6c6a4; --frame-bdw: 1em; fill: rgba(184, 20, 20, 0.2); stroke: rgba(240, 117, 117, 0.69); background-color: rgb(8, 8, 40); --frame-asr: 100 / 100.;"><g transform="translate(50 50) scale(0.8)"><circle cx="0" cy="0" r="13" stroke-width="0.3"></circle><circle cx="13" cy="0" r="13" stroke-width="0.3"></circle><circle cx="6.500000000000002" cy="11.258330249197702" r="13" stroke-width="0.3"></circle><circle cx="-6.499999999999997" cy="11.258330249197703" r="13" stroke-width="0.3"></circle><circle cx="-13" cy="1.592040838891559e-15" r="13" stroke-width="0.3"></circle><circle cx="-6.500000000000005" cy="-11.258330249197698" r="13" stroke-width="0.3"></circle><circle cx="6.499999999999991" cy="-11.258330249197707" r="13" stroke-width="0.3"></circle><circle cx="26" cy="0" r="13" stroke-width="0.3"></circle><circle cx="19.5" cy="11.258330249197702" r="13" stroke-width="0.3"></circle><circle cx="13.000000000000004" cy="22.516660498395403" r="13" stroke-width="0.3"></circle><circle cx="4.440892098500626e-15" cy="22.516660498395403" r="13" stroke-width="0.3"></circle><circle cx="-12.999999999999995" cy="22.516660498395407" r="13" stroke-width="0.3"></circle><circle cx="-19.499999999999996" cy="11.258330249197705" r="13" stroke-width="0.3"></circle><circle cx="-26" cy="3.184081677783118e-15" r="13" stroke-width="0.3"></circle><circle cx="-19.500000000000007" cy="-11.258330249197696" r="13" stroke-width="0.3"></circle><circle cx="-13.00000000000001" cy="-22.516660498395396" r="13" stroke-width="0.3"></circle><circle cx="-1.4210854715202004e-14" cy="-22.516660498395403" r="13" stroke-width="0.3"></circle><circle cx="12.999999999999982" cy="-22.516660498395414" r="13" stroke-width="0.3"></circle><circle cx="19.499999999999993" cy="-11.258330249197721" r="13" stroke-width="0.3"></circle><circle cx="39" cy="0" r="13" stroke-width="0.3"></circle><circle cx="32.5" cy="11.258330249197702" r="13" stroke-width="0.3"></circle><circle cx="26.000000000000004" cy="22.516660498395403" r="13" stroke-width="0.3"></circle><circle cx="19.500000000000004" cy="33.77499074759311" r="13" stroke-width="0.3"></circle><circle cx="6.500000000000006" cy="33.77499074759311" r="13" stroke-width="0.3"></circle><circle cx="-6.499999999999993" cy="33.77499074759311" r="13" stroke-width="0.3"></circle><circle cx="-19.499999999999993" cy="33.77499074759311" r="13" stroke-width="0.3"></circle><circle cx="-25.999999999999993" cy="22.516660498395407" r="13" stroke-width="0.3"></circle><circle cx="-32.5" cy="11.258330249197707" r="13" stroke-width="0.3"></circle><circle cx="-39" cy="4.776122516674678e-15" r="13" stroke-width="0.3"></circle><circle cx="-32.50000000000001" cy="-11.258330249197694" r="13" stroke-width="0.3"></circle><circle cx="-26.00000000000001" cy="-22.516660498395396" r="13" stroke-width="0.3"></circle><circle cx="-19.500000000000018" cy="-33.774990747593094" r="13" stroke-width="0.3"></circle><circle cx="-6.5000000000000195" cy="-33.7749907475931" r="13" stroke-width="0.3"></circle><circle cx="6.499999999999977" cy="-33.77499074759311" r="13" stroke-width="0.3"></circle><circle cx="19.499999999999975" cy="-33.77499074759312" r="13" stroke-width="0.3"></circle><circle cx="25.999999999999982" cy="-22.516660498395428" r="13" stroke-width="0.3"></circle><circle cx="32.49999999999999" cy="-11.258330249197737" r="13" stroke-width="0.3"></circle><circle cx="52" cy="0" r="13" stroke-width="0.3"></circle><circle cx="45.5" cy="11.258330249197702" r="13" stroke-width="0.3"></circle><circle cx="39" cy="22.516660498395403" r="13" stroke-width="0.3"></circle><circle cx="32.5" cy="33.77499074759311" r="13" stroke-width="0.3"></circle><circle cx="26.000000000000007" cy="45.033320996790806" r="13" stroke-width="0.3"></circle><circle cx="13.000000000000007" cy="45.03332099679081" r="13" stroke-width="0.3"></circle><circle cx="8.881784197001252e-15" cy="45.033320996790806" r="13" stroke-width="0.3"></circle><circle cx="-12.999999999999991" cy="45.033320996790806" r="13" stroke-width="0.3"></circle><circle cx="-25.99999999999999" cy="45.03332099679081" r="13" stroke-width="0.3"></circle><circle cx="-32.49999999999999" cy="33.77499074759311" r="13" stroke-width="0.3"></circle><circle cx="-38.99999999999999" cy="22.51666049839541" r="13" stroke-width="0.3"></circle><circle cx="-45.5" cy="11.258330249197709" r="13" stroke-width="0.3"></circle><circle cx="-52" cy="6.368163355566236e-15" r="13" stroke-width="0.3"></circle><circle cx="-45.50000000000001" cy="-11.258330249197693" r="13" stroke-width="0.3"></circle><circle cx="-39.000000000000014" cy="-22.516660498395392" r="13" stroke-width="0.3"></circle><circle cx="-32.500000000000014" cy="-33.774990747593094" r="13" stroke-width="0.3"></circle><circle cx="-26.00000000000002" cy="-45.03332099679079" r="13" stroke-width="0.3"></circle><circle cx="-13.000000000000027" cy="-45.0333209967908" r="13" stroke-width="0.3"></circle><circle cx="-2.842170943040401e-14" cy="-45.033320996790806" r="13" stroke-width="0.3"></circle><circle cx="12.99999999999997" cy="-45.03332099679082" r="13" stroke-width="0.3"></circle><circle cx="25.999999999999964" cy="-45.03332099679083" r="13" stroke-width="0.3"></circle><circle cx="32.49999999999997" cy="-33.77499074759314" r="13" stroke-width="0.3"></circle><circle cx="38.999999999999986" cy="-22.516660498395442" r="13" stroke-width="0.3"></circle><circle cx="45.49999999999999" cy="-11.258330249197751" r="13" stroke-width="0.3"></circle><circle cx="65" cy="0" r="13" stroke-width="0.3"></circle><circle cx="58.5" cy="11.258330249197702" r="13" stroke-width="0.3"></circle><circle cx="52" cy="22.516660498395403" r="13" stroke-width="0.3"></circle><circle cx="45.5" cy="33.77499074759311" r="13" stroke-width="0.3"></circle><circle cx="39.00000000000001" cy="45.033320996790806" r="13" stroke-width="0.3"></circle><circle cx="32.50000000000001" cy="56.29165124598851" r="13" stroke-width="0.3"></circle><circle cx="19.50000000000001" cy="56.29165124598851" r="13" stroke-width="0.3"></circle><circle cx="6.500000000000009" cy="56.29165124598852" r="13" stroke-width="0.3"></circle><circle cx="-6.499999999999989" cy="56.29165124598851" r="13" stroke-width="0.3"></circle><circle cx="-19.499999999999986" cy="56.29165124598852" r="13" stroke-width="0.3"></circle><circle cx="-32.499999999999986" cy="56.29165124598852" r="13" stroke-width="0.3"></circle><circle cx="-38.999999999999986" cy="45.03332099679081" r="13" stroke-width="0.3"></circle><circle cx="-45.49999999999999" cy="33.77499074759311" r="13" stroke-width="0.3"></circle><circle cx="-51.99999999999999" cy="22.51666049839541" r="13" stroke-width="0.3"></circle><circle cx="-58.5" cy="11.25833024919771" r="13" stroke-width="0.3"></circle><circle cx="-65" cy="7.960204194457796e-15" r="13" stroke-width="0.3"></circle><circle cx="-58.50000000000001" cy="-11.25833024919769" r="13" stroke-width="0.3"></circle><circle cx="-52.000000000000014" cy="-22.516660498395392" r="13" stroke-width="0.3"></circle><circle cx="-45.500000000000014" cy="-33.774990747593094" r="13" stroke-width="0.3"></circle><circle cx="-39.00000000000002" cy="-45.03332099679079" r="13" stroke-width="0.3"></circle><circle cx="-32.50000000000003" cy="-56.2916512459885" r="13" stroke-width="0.3"></circle><circle cx="-19.50000000000003" cy="-56.2916512459885" r="13" stroke-width="0.3"></circle><circle cx="-6.5000000000000355" cy="-56.291651245988504" r="13" stroke-width="0.3"></circle><circle cx="6.4999999999999645" cy="-56.29165124598852" r="13" stroke-width="0.3"></circle><circle cx="19.499999999999957" cy="-56.291651245988525" r="13" stroke-width="0.3"></circle><circle cx="32.49999999999996" cy="-56.29165124598854" r="13" stroke-width="0.3"></circle><circle cx="38.999999999999964" cy="-45.03332099679084" r="13" stroke-width="0.3"></circle><circle cx="45.49999999999997" cy="-33.77499074759315" r="13" stroke-width="0.3"></circle><circle cx="51.999999999999986" cy="-22.516660498395456" r="13" stroke-width="0.3"></circle><circle cx="58.49999999999999" cy="-11.258330249197765" r="13" stroke-width="0.3"></circle><circle cx="78" cy="0" r="13" stroke-width="0.3"></circle><circle cx="71.5" cy="11.258330249197702" r="13" stroke-width="0.3"></circle><circle cx="65" cy="22.516660498395403" r="13" stroke-width="0.3"></circle><circle cx="58.5" cy="33.77499074759311" r="13" stroke-width="0.3"></circle><circle cx="52.00000000000001" cy="45.033320996790806" r="13" stroke-width="0.3"></circle><circle cx="45.50000000000001" cy="56.29165124598851" r="13" stroke-width="0.3"></circle><circle cx="39.00000000000001" cy="67.54998149518622" r="13" stroke-width="0.3"></circle><circle cx="26.00000000000001" cy="67.54998149518622" r="13" stroke-width="0.3"></circle><circle cx="13.000000000000012" cy="67.54998149518622" r="13" stroke-width="0.3"></circle><circle cx="1.0658141036401503e-14" cy="67.54998149518622" r="13" stroke-width="0.3"></circle><circle cx="-12.999999999999986" cy="67.54998149518622" r="13" stroke-width="0.3"></circle><circle cx="-25.999999999999986" cy="67.54998149518622" r="13" stroke-width="0.3"></circle><circle cx="-38.999999999999986" cy="67.54998149518622" r="13" stroke-width="0.3"></circle><circle cx="-45.499999999999986" cy="56.29165124598852" r="13" stroke-width="0.3"></circle><circle cx="-51.999999999999986" cy="45.03332099679081" r="13" stroke-width="0.3"></circle><circle cx="-58.49999999999999" cy="33.774990747593115" r="13" stroke-width="0.3"></circle><circle cx="-65" cy="22.516660498395414" r="13" stroke-width="0.3"></circle><circle cx="-71.5" cy="11.25833024919771" r="13" stroke-width="0.3"></circle><circle cx="-78" cy="9.552245033349356e-15" r="13" stroke-width="0.3"></circle><circle cx="-71.5" cy="-11.25833024919769" r="13" stroke-width="0.3"></circle><circle cx="-65.00000000000001" cy="-22.51666049839539" r="13" stroke-width="0.3"></circle><circle cx="-58.500000000000014" cy="-33.77499074759309" r="13" stroke-width="0.3"></circle><circle cx="-52.00000000000002" cy="-45.03332099679079" r="13" stroke-width="0.3"></circle><circle cx="-45.50000000000003" cy="-56.2916512459885" r="13" stroke-width="0.3"></circle><circle cx="-39.000000000000036" cy="-67.54998149518619" r="13" stroke-width="0.3"></circle><circle cx="-26.000000000000036" cy="-67.5499814951862" r="13" stroke-width="0.3"></circle><circle cx="-13.000000000000039" cy="-67.5499814951862" r="13" stroke-width="0.3"></circle><circle cx="-4.263256414560601e-14" cy="-67.54998149518622" r="13" stroke-width="0.3"></circle><circle cx="12.999999999999954" cy="-67.54998149518622" r="13" stroke-width="0.3"></circle><circle cx="25.99999999999995" cy="-67.54998149518624" r="13" stroke-width="0.3"></circle><circle cx="38.99999999999995" cy="-67.54998149518624" r="13" stroke-width="0.3"></circle><circle cx="45.49999999999996" cy="-56.291651245988554" r="13" stroke-width="0.3"></circle><circle cx="51.999999999999964" cy="-45.033320996790856" r="13" stroke-width="0.3"></circle><circle cx="58.49999999999997" cy="-33.774990747593165" r="13" stroke-width="0.3"></circle><circle cx="64.99999999999999" cy="-22.516660498395474" r="13" stroke-width="0.3"></circle><circle cx="71.49999999999999" cy="-11.25833024919778" r="13" stroke-width="0.3"></circle><circle cx="91" cy="0" r="13" stroke-width="0.3"></circle><circle cx="84.5" cy="11.258330249197702" r="13" stroke-width="0.3"></circle><circle cx="78" cy="22.516660498395403" r="13" stroke-width="0.3"></circle><circle cx="71.5" cy="33.77499074759311" r="13" stroke-width="0.3"></circle><circle cx="65" cy="45.033320996790806" r="13" stroke-width="0.3"></circle><circle cx="58.50000000000001" cy="56.29165124598851" r="13" stroke-width="0.3"></circle><circle cx="52.00000000000001" cy="67.54998149518622" r="13" stroke-width="0.3"></circle><circle cx="45.50000000000001" cy="78.80831174438391" r="13" stroke-width="0.3"></circle><circle cx="32.50000000000001" cy="78.80831174438391" r="13" stroke-width="0.3"></circle><circle cx="19.500000000000014" cy="78.80831174438391" r="13" stroke-width="0.3"></circle><circle cx="6.500000000000014" cy="78.80831174438391" r="13" stroke-width="0.3"></circle><circle cx="-6.499999999999986" cy="78.80831174438393" r="13" stroke-width="0.3"></circle><circle cx="-19.499999999999982" cy="78.80831174438393" r="13" stroke-width="0.3"></circle><circle cx="-32.499999999999986" cy="78.80831174438391" r="13" stroke-width="0.3"></circle><circle cx="-45.49999999999998" cy="78.80831174438393" r="13" stroke-width="0.3"></circle><circle cx="-51.999999999999986" cy="67.54998149518622" r="13" stroke-width="0.3"></circle><circle cx="-58.499999999999986" cy="56.29165124598852" r="13" stroke-width="0.3"></circle><circle cx="-64.99999999999999" cy="45.03332099679082" r="13" stroke-width="0.3"></circle><circle cx="-71.5" cy="33.774990747593115" r="13" stroke-width="0.3"></circle><circle cx="-78" cy="22.516660498395414" r="13" stroke-width="0.3"></circle><circle cx="-84.5" cy="11.258330249197712" r="13" stroke-width="0.3"></circle><circle cx="-91" cy="1.1144285872240914e-14" r="13" stroke-width="0.3"></circle><circle cx="-84.5" cy="-11.258330249197689" r="13" stroke-width="0.3"></circle><circle cx="-78.00000000000001" cy="-22.51666049839539" r="13" stroke-width="0.3"></circle><circle cx="-71.50000000000001" cy="-33.77499074759309" r="13" stroke-width="0.3"></circle><circle cx="-65.00000000000003" cy="-45.033320996790785" r="13" stroke-width="0.3"></circle><circle cx="-58.50000000000003" cy="-56.2916512459885" r="13" stroke-width="0.3"></circle><circle cx="-52.000000000000036" cy="-67.54998149518619" r="13" stroke-width="0.3"></circle><circle cx="-45.50000000000004" cy="-78.80831174438389" r="13" stroke-width="0.3"></circle><circle cx="-32.50000000000004" cy="-78.8083117443839" r="13" stroke-width="0.3"></circle><circle cx="-19.500000000000046" cy="-78.80831174438391" r="13" stroke-width="0.3"></circle><circle cx="-6.500000000000046" cy="-78.80831174438391" r="13" stroke-width="0.3"></circle><circle cx="6.499999999999947" cy="-78.80831174438393" r="13" stroke-width="0.3"></circle><circle cx="19.499999999999947" cy="-78.80831174438393" r="13" stroke-width="0.3"></circle><circle cx="32.49999999999994" cy="-78.80831174438394" r="13" stroke-width="0.3"></circle><circle cx="45.499999999999936" cy="-78.80831174438396" r="13" stroke-width="0.3"></circle><circle cx="51.99999999999995" cy="-67.54998149518626" r="13" stroke-width="0.3"></circle><circle cx="58.49999999999996" cy="-56.29165124598857" r="13" stroke-width="0.3"></circle><circle cx="64.99999999999997" cy="-45.03332099679087" r="13" stroke-width="0.3"></circle><circle cx="71.49999999999997" cy="-33.77499074759318" r="13" stroke-width="0.3"></circle><circle cx="77.99999999999999" cy="-22.51666049839549" r="13" stroke-width="0.3"></circle><circle cx="84.49999999999999" cy="-11.258330249197796" r="13" stroke-width="0.3"></circle></g></svg>