<svg xmlns="http://www.w3.org/2000/svg" viewBox="0 0 100 100" id="svg" style="--frame-c: #f6c6a4; --frame-bdw: 1em; fill: rgb(62, 229, 126); background-color: rgb(255, 255, 255); --frame-asr: 100 / 100.;"><circle r="8.402559056276134" cx="79" cy="58"></circle><circle r="12.662905932099934" cx="23" cy="65"></circle><circle r="9.54814204419275" cx="4" cy="92"></circle><circle r="14.50616688132715" cx="94" cy="95"></circle><circle r="14.078410725536415" cx="57" cy="14"></circle><circle r="11.786788069334541" cx="49" cy="75"></circle><circle r="12.263027486942018" cx="5" cy="35"></circle><circle r="11.590182540077548" cx="91" cy="4"></circle><circle r="2.4875186303651717" cx="50" cy="35"></circle><circle r="7.422938169594964" cx="9" cy="10"></circle><circle r="1.8790367774633694" cx="6" cy="78"></circle><circle r="6.364215423690069" cx="23" cy="5"></circle><circle r="1.6473052478551864" cx="18" cy="28"></circle><circle r="2.3244621860223034" cx="71" cy="24"></circle><circle r="5.581625342590649" cx="63" cy="88"></circle><circle r="10.597170668911485" cx="30" cy="91"></circle><circle r="5.601059533896992" cx="99" cy="42"></circle><circle r="1.0445320715696553" cx="18" cy="19"></circle><circle r="1.2849287937420266" cx="30" cy="14"></circle><circle r="3.697141727788921" cx="85" cy="74"></circle><circle r="2.869514659887082" cx="40" cy="49"></circle><circle r="8.081095682315123" cx="57" cy="46"></circle><circle r="2.1788780153823413" cx="88" cy="48"></circle><circle r="3.156498413369296" cx="62" cy="99"></circle><circle r="1.1167934312775833" cx="31" cy="28"></circle><circle r="4.481337027288838" cx="98" cy="64"></circle><circle r="6.554146654169575" cx="68" cy="33"></circle><circle r="1.1346325310053555" cx="16" cy="82"></circle><circle r="3.3788290448526963" cx="4" cy="60"></circle><circle r="2.0906761070367312" cx="75" cy="96"></circle><circle r="3.133736004202504" cx="28" cy="21"></circle><circle r="1.8858034517390698" cx="37" cy="21"></circle><circle r="7.449942341498561" cx="84" cy="32"></circle><circle r="6.050156470504973" cx="26" cy="37"></circle><circle r="2.5135426186761487" cx="77" cy="15"></circle><circle r="1.075890730107929" cx="8" cy="73"></circle><circle r="2.1685003374556544" cx="91" cy="62"></circle><circle r="3.540725805550206" cx="33" cy="46"></circle><circle r="2.0866040730665114" cx="32" cy="1"></circle><circle r="1.3199295982760382" cx="92" cy="52"></circle><circle r="2.3514551313558583" cx="34" cy="12"></circle><circle r="1.1923897130762007" cx="87" cy="64"></circle><circle r="1.1308455858272155" cx="16" cy="78"></circle><circle r="1.226872048501125" cx="35" cy="75"></circle><circle r="7.1032299421076734" cx="97" cy="23"></circle><circle r="2.0745996607765074" cx="46" cy="1"></circle><circle r="2.4794584560922606" cx="42" cy="25"></circle><circle r="2.5249435298848875" cx="75" cy="89"></circle><circle r="1.375763351964984" cx="94" cy="78"></circle><circle r="2.899394311338136" cx="66" cy="55"></circle><circle r="2.5974988165619792" cx="96" cy="53"></circle><circle r="1.7479295019756256" cx="15" cy="19"></circle><circle r="6.604248876287498" cx="51" cy="95"></circle><circle r="2.498047124873409" cx="93" cy="74"></circle><circle r="2.6786599293450983" cx="53" cy="57"></circle><circle r="1.119475262043153" cx="47" cy="53"></circle><circle r="3.7337345071230996" cx="67" cy="64"></circle><circle r="2.414156079197022" cx="16" cy="86"></circle><circle r="1.217825629304072" cx="42" cy="30"></circle><circle r="1.5685220582100818" cx="1" cy="56"></circle><circle r="1.6098917171808909" cx="30" cy="52"></circle><circle r="2.5480631980763184" cx="12" cy="0"></circle><circle r="1.9005821760378052" cx="67" cy="75"></circle><circle r="2.522549574976164" cx="36" cy="57"></circle><circle r="1.4866295999228076" cx="68" cy="44"></circle><circle r="1.9122891916551126" cx="6" cy="20"></circle><circle r="3.0883425413236094" cx="20" cy="15"></circle><circle r="4.87754368606072" cx="0" cy="72"></circle><circle r="1.6733139105614785" cx="91" cy="56"></circle><circle r="2.079466204248212" cx="19" cy="48"></circle><circle r="1.6045766954418523" cx="45" cy="43"></circle><circle r="2.351251559465727" cx="79" cy="70"></circle><circle r="2.5871952675876955" cx="81" cy="43"></circle><circle r="2.677349930011189" cx="73" cy="69"></circle><circle r="2.785967376651126" cx="60" cy="57"></circle><circle r="2.4935020211643377" cx="41" cy="61"></circle><circle r="1.2333615684478532" cx="79" cy="77"></circle><circle r="1.4230378446409921" cx="41" cy="8"></circle><circle r="1.6326192150742957" cx="76" cy="6"></circle><circle r="1.5723286373276295" cx="73" cy="80"></circle><circle r="2.390452123825761" cx="19" cy="98"></circle><circle r="1.919130056265257" cx="27" cy="28"></circle><circle r="3.0219805877702655" cx="43" cy="36"></circle><circle r="2.4820934342454426" cx="33" cy="25"></circle><circle r="1.197654160372752" cx="73" cy="6"></circle><circle r="1.52162736102632" cx="43" cy="56"></circle><circle r="1.6684637783739942" cx="67" cy="95"></circle><circle r="2.327454838467328" cx="15" cy="51"></circle><circle r="2.2990042351284687" cx="42" cy="99"></circle><circle r="1.8138875018628258" cx="0" cy="20"></circle><circle r="1.4957492571980349" cx="10" cy="20"></circle><circle r="3.538250483222672" cx="69" cy="49"></circle><circle r="4.389452001173646" cx="79" cy="83"></circle><circle r="1.3494797182326046" cx="35" cy="16"></circle><circle r="1.5226070417151822" cx="79" cy="23"></circle><circle r="1.6089804521588755" cx="86" cy="41"></circle><circle r="2.9060688374554875" cx="40" cy="1"></circle><circle r="1.593543461074968" cx="48" cy="41"></circle><circle r="1.2537770052855093" cx="70" cy="1"></circle><circle r="1.684618533626205" cx="0" cy="2"></circle><circle r="1.3977450260073518" cx="16" cy="44"></circle><circle r="1.5959939077347345" cx="25" cy="16"></circle><circle r="1.411096403458922" cx="29" cy="11"></circle><circle r="2.749571263978944" cx="75" cy="76"></circle><circle r="2.071100138087384" cx="10" cy="54"></circle><circle r="1.6140058109161473" cx="72" cy="43"></circle><circle r="2.64122924700493" cx="64" cy="70"></circle><circle r="1.299941050659982" cx="92" cy="49"></circle><circle r="1.518820444607893" cx="8" cy="1"></circle><circle r="1.1931851935102635" cx="13" cy="79"></circle><circle r="1.3231086090671624" cx="45" cy="28"></circle><circle r="1.245891034120632" cx="42" cy="87"></circle><circle r="1.8251878170173277" cx="49" cy="28"></circle><circle r="1.4391283032514006" cx="93" cy="31"></circle><circle r="1.1342553636738897" cx="37" cy="64"></circle><circle r="2.343922413337356" cx="21" cy="81"></circle><circle r="1.9901410608812125" cx="47" cy="60"></circle><circle r="2.321939572062079" cx="35" cy="30"></circle><circle r="1.0010986845032077" cx="55" cy="87"></circle><circle r="1.3216488791446155" cx="54" cy="36"></circle><circle r="2.0548751185417267" cx="0" cy="65"></circle><circle r="1.6020143771424187" cx="57" cy="35"></circle><circle r="3.6140979315960395" cx="21" cy="23"></circle><circle r="1.43022493513336" cx="13" cy="76"></circle><circle r="1.0273965016220195" cx="76" cy="37"></circle><circle r="1.9369001346257813" cx="8" cy="69"></circle><circle r="2.031847037741474" cx="74" cy="20"></circle><circle r="1.0808626811668742" cx="2" cy="78"></circle><circle r="2.452275959389166" cx="88" cy="18"></circle><circle r="2.111030880999121" cx="67" cy="80"></circle><circle r="3.574437146797258" cx="99" cy="73"></circle><circle r="1.7327350854795691" cx="56" cy="30"></circle><circle r="2.569209977186354" cx="38" cy="39"></circle><circle r="1.3592421542387139" cx="81" cy="18"></circle><circle r="1.1321999435406611" cx="83" cy="68"></circle><circle r="3.308937903120424" cx="76" cy="1"></circle><circle r="3.1358056431465915" cx="90" cy="69"></circle><circle r="2.202813653383448" cx="10" cy="49"></circle><circle r="2.422359955471766" cx="92" cy="38"></circle><circle r="1.1869903487685183" cx="86" cy="81"></circle><circle r="2.6806331295470653" cx="36" cy="6"></circle><circle r="1.9602444478884231" cx="19" cy="42"></circle><circle r="1.2854075670392655" cx="40" cy="18"></circle><circle r="1.3828856452285878" cx="78" cy="11"></circle><circle r="1.3953952745904004" cx="98" cy="57"></circle><circle r="1.4195282446589825" cx="32" cy="77"></circle><circle r="1.3832596890451274" cx="84" cy="17"></circle><circle r="1.0501460504222315" cx="76" cy="9"></circle><circle r="1.1512755875099288" cx="32" cy="9"></circle><circle r="2.457597923499888" cx="76" cy="44"></circle><circle r="1.347611122260191" cx="29" cy="78"></circle><circle r="1.1914699293097524" cx="0" cy="14"></circle><circle r="1.0034014410979197" cx="82" cy="78"></circle><circle r="1.541643204394334" cx="3" cy="18"></circle><circle r="1.445048679342611" cx="68" cy="71"></circle><circle r="1.5633902988913708" cx="9" cy="62"></circle><circle r="1.5487175100981405" cx="45" cy="49"></circle><circle r="1.0479790413813426" cx="26" cy="12"></circle><circle r="1.8757339888346594" cx="36" cy="52"></circle><circle r="1.6488416741601144" cx="61" cy="62"></circle><circle r="1.16359415777019" cx="94" cy="57"></circle><circle r="2.048845079061223" cx="1" cy="50"></circle><circle r="1.1950787750069858" cx="77" cy="25"></circle><circle r="1.2358855481050601" cx="33" cy="19"></circle><circle r="1.6434053395340036" cx="81" cy="48"></circle><circle r="1.5954966029732636" cx="89" cy="53"></circle><circle r="1.8106210879223208" cx="36" cy="35"></circle><circle r="1.8854543909791133" cx="59" cy="65"></circle><circle r="1.1877036378686099" cx="23" cy="29"></circle><circle r="1.2593755453021243" cx="70" cy="95"></circle><circle r="1.4203505686214273" cx="22" cy="46"></circle><circle r="2.6577639857445368" cx="71" cy="84"></circle><circle r="1.1515694067805677" cx="71" cy="98"></circle><circle r="1.8017474616462668" cx="40" cy="44"></circle><circle r="1.1409408797472524" cx="2" cy="81"></circle><circle r="1.5158099664498859" cx="38" cy="15"></circle><circle r="1.1895407835718483" cx="25" cy="48"></circle><circle r="1.054738894642537" cx="0" cy="79"></circle><circle r="1.0764233078302152" cx="11" cy="81"></circle><circle r="1.036791584509483" cx="33" cy="33"></circle><circle r="1.2546509293644132" cx="41" cy="21"></circle><circle r="1.2753087623660484" cx="78" cy="94"></circle><circle r="1.2420263240863205" cx="88" cy="24"></circle><circle r="1.0098986050004695" cx="52" cy="61"></circle><circle r="1.4916660135837798" cx="50" cy="0"></circle><circle r="1.059827138831671" cx="44" cy="91"></circle><circle r="1.5276409509403375" cx="34" cy="41"></circle><circle r="1.537314463078303" cx="44" cy="5"></circle><circle r="1.4353529415260589" cx="5" cy="53"></circle><circle r="1.2324378527340056" cx="90" cy="44"></circle><circle r="1.1004238009258716" cx="6" cy="50"></circle><circle r="1.7894370216648405" cx="16" cy="94"></circle><circle r="1.0303011569688638" cx="1" cy="5"></circle><circle r="1.155195879167338" cx="3" cy="21"></circle><circle r="1.4509263978095968" cx="83" cy="20"></circle><circle r="1.8250264992192466" cx="73" cy="13"></circle><circle r="1.1241265479387135" cx="37" cy="69"></circle><circle r="1.1370747716677676" cx="62" cy="81"></circle><circle r="2.1863552523135708" cx="14" cy="99"></circle><circle r="1.074219828564098" cx="61" cy="37"></circle><circle r="1.1410247242675804" cx="0" cy="9"></circle><circle r="1.007350769345022" cx="39" cy="12"></circle><circle r="1.201732765054253" cx="7" cy="56"></circle><circle r="1.0549094859107297" cx="47" cy="47"></circle><circle r="1.476872078689654" cx="64" cy="59"></circle><circle r="1.4945322776464471" cx="78" cy="20"></circle><circle r="1.3960970311727854" cx="49" cy="56"></circle><circle r="1.0282761239247464" cx="78" cy="39"></circle><circle r="1.1131479859293636" cx="77" cy="48"></circle><circle r="1.4449165703721034" cx="85" cy="23"></circle><circle r="1.2338121450532444" cx="57" cy="62"></circle><circle r="1.1237670157891175" cx="31" cy="17"></circle><circle r="1.2024692412002778" cx="12" cy="84"></circle><circle r="1.0694369728834014" cx="95" cy="35"></circle><circle r="1.1590743172942357" cx="46" cy="32"></circle><circle r="1.268426769369749" cx="84" cy="49"></circle><circle r="1.4115500163578862" cx="38" cy="27"></circle><circle r="1.4377531190033879" cx="5" cy="67"></circle><circle r="1.0301832070194865" cx="69" cy="92"></circle><circle r="1.3015025114451144" cx="89" cy="80"></circle><circle r="1.203858232927542" cx="71" cy="73"></circle><circle r="1.055486332856845" cx="98" cy="35"></circle><circle r="1.824808000133769" cx="67" cy="0"></circle><circle r="1.3077988547081727" cx="54" cy="33"></circle><circle r="1.7285494450973364" cx="74" cy="39"></circle><circle r="1.0894893070503784" cx="7" cy="81"></circle><circle r="1.2361995163327633" cx="97" cy="49"></circle><circle r="1.0181699856532207" cx="28" cy="48"></circle><circle r="1.2062088386277816" cx="92" cy="42"></circle><circle r="1.0365240967644067" cx="7" cy="65"></circle><circle r="1.1725264488132647" cx="38" cy="10"></circle><circle r="1.5739270953736821" cx="39" cy="31"></circle><circle r="1.1600692798212413" cx="71" cy="89"></circle><circle r="1.2524274031286478" cx="5" cy="0"></circle><circle r="1.2441634332525409" cx="15" cy="25"></circle><circle r="1.090148246273145" cx="36" cy="79"></circle><circle r="1.0709130907395372" cx="12" cy="22"></circle><circle r="1.4040673453525123" cx="42" cy="93"></circle><circle r="1.6899096771284943" cx="19" cy="33"></circle><circle r="1.0369370497423631" cx="17" cy="91"></circle><circle r="1.7835767067905683" cx="63" cy="77"></circle><circle r="1.007545130492753" cx="13" cy="82"></circle><circle r="1.310215308817928" cx="52" cy="29"></circle><circle r="1.2503784706677061" cx="38" cy="24"></circle><circle r="1.6798787024314943" cx="81" cy="13"></circle><circle r="1.1071078799176646" cx="87" cy="44"></circle><circle r="1.373113802256701" cx="96" cy="32"></circle><circle r="1.0304414953087355" cx="15" cy="2"></circle><circle r="1.068052917865661" cx="27" cy="14"></circle><circle r="1.4629740696107305" cx="70" cy="4"></circle><circle r="1.101292666240524" cx="17" cy="0"></circle><circle r="1.112051806660137" cx="46" cy="57"></circle><circle r="1.2436909410489951" cx="31" cy="6"></circle><circle r="1.1009000107375417" cx="36" cy="72"></circle><circle r="1.041753587351303" cx="18" cy="11"></circle><circle r="1.4825667017449082" cx="68" cy="99"></circle><circle r="1.2665894345943096" cx="23" cy="51"></circle><circle r="1.3689441994076934" cx="73" cy="93"></circle></svg>