<svg xmlns="http://www.w3.org/2000/svg" viewBox="0 0 100 100" id="svg" style="--frame-c: #f6c6a4; --frame-bdw: 1em; fill: rgb(228, 71, 61); background-color: rgb(255, 255, 255); --frame-asr: 100 / 100.;"><circle r="13.730816063586484" cx="54" cy="0"></circle><circle r="10.068993997087137" cx="31" cy="13"></circle><circle r="11.68631054216743" cx="77" cy="73"></circle><circle r="4.28056230357117" cx="71" cy="49"></circle><circle r="10.098984036172382" cx="39" cy="68"></circle><circle r="6.278931437487234" cx="26" cy="46"></circle><circle r="9.655769048609852" cx="88" cy="39"></circle><circle r="2.079506549382483" cx="2" cy="57"></circle><circle r="7.509989886813124" cx="79" cy="8"></circle><circle r="8.44030492818062" cx="96" cy="82"></circle><circle r="6.8663485113475655" cx="63" cy="35"></circle><circle r="3.193146573671354" cx="50" cy="94"></circle><circle r="4.836556968021133" cx="58" cy="51"></circle><circle r="2.8688021928571015" cx="16" cy="67"></circle><circle r="1.5567886264967568" cx="44" cy="37"></circle><circle r="1.2797501786306995" cx="55" cy="94"></circle><circle r="3.0017565445738468" cx="8" cy="12"></circle><circle r="7.20207548347058" cx="94" cy="6"></circle><circle r="1.2716364701125076" cx="88" cy="24"></circle><circle r="1.1771500046379582" cx="50" cy="34"></circle><circle r="5.031129236316122" cx="37" cy="29"></circle><circle r="7.056649006874364" cx="99" cy="57"></circle><circle r="1.025588155979443" cx="18" cy="23"></circle><circle r="3.0693773849011348" cx="1" cy="67"></circle><circle r="2.214769148383336" cx="50" cy="59"></circle><circle r="7.529593074207092" cx="9" cy="94"></circle><circle r="9.827307780365441" cx="10" cy="48"></circle><circle r="7.101585359974011" cx="16" cy="0"></circle><circle r="2.0750930794135627" cx="29" cy="34"></circle><circle r="2.5982935917553998" cx="79" cy="30"></circle><circle r="4.798844039870258" cx="99" cy="97"></circle><circle r="3.4268359657079563" cx="80" cy="21"></circle><circle r="6.791908568921548" cx="53" cy="80"></circle><circle r="4.0791430181841" cx="61" cy="88"></circle><circle r="5.358759845512955" cx="73" cy="92"></circle><circle r="1.2959030211743516" cx="4" cy="2"></circle><circle r="3.435902583179493" cx="80" cy="54"></circle><circle r="2.151085715456221" cx="58" cy="27"></circle><circle r="1.0684253292283579" cx="22" cy="73"></circle><circle r="1.2721681634608601" cx="89" cy="55"></circle><circle r="2.3079091170436308" cx="86" cy="99"></circle><circle r="5.368262364742328" cx="28" cy="87"></circle><circle r="1.9707720059701717" cx="48" cy="16"></circle><circle r="5.8829622573240545" cx="6" cy="32"></circle><circle r="1.7485116788938027" cx="62" cy="26"></circle><circle r="3.7058328152855955" cx="11" cy="77"></circle><circle r="1.929123656031261" cx="48" cy="29"></circle><circle r="1.416056311717281" cx="82" cy="90"></circle><circle r="3.445511835023593" cx="89" cy="92"></circle><circle r="1.5689753784053275" cx="1" cy="18"></circle><circle r="1.1864438088970002" cx="74" cy="18"></circle><circle r="1.2095993950865482" cx="27" cy="31"></circle><circle r="1.384982357160383" cx="7" cy="20"></circle><circle r="3.856733493426081" cx="7" cy="62"></circle><circle r="5.3917527186104" cx="22" cy="58"></circle><circle r="1.297235188332598" cx="64" cy="61"></circle><circle r="2.6022063901460104" cx="16" cy="18"></circle><circle r="2.2488084301380438" cx="18" cy="76"></circle><circle r="5.595622377356879" cx="28" cy="98"></circle><circle r="2.545761199182553" cx="71" cy="26"></circle><circle r="1.0215151618178786" cx="67" cy="23"></circle><circle r="1.2598433508164488" cx="63" cy="14"></circle><circle r="1.0069279097871364" cx="26" cy="37"></circle><circle r="1.555474994003665" cx="0" cy="96"></circle><circle r="2.8010357699547965" cx="1" cy="80"></circle><circle r="4.8953544260477155" cx="99" cy="29"></circle><circle r="3.227824639806703" cx="98" cy="16"></circle><circle r="3.8057349411723385" cx="93" cy="22"></circle><circle r="1.8773783780353868" cx="22" cy="24"></circle><circle r="3.485485535391772" cx="48" cy="53"></circle><circle r="1.3044116874632903" cx="7" cy="84"></circle><circle r="2.3865471005890004" cx="1" cy="10"></circle><circle r="1.5453077084132936" cx="19" cy="86"></circle><circle r="1.4936752624584435" cx="27" cy="24"></circle><circle r="1.931345110275808" cx="67" cy="54"></circle><circle r="3.3542763635384003" cx="36" cy="42"></circle><circle r="1.5751565069513074" cx="55" cy="38"></circle><circle r="2.334239429352582" cx="50" cy="43"></circle><circle r="1.4052522588241612" cx="83" cy="29"></circle><circle r="1.2966429992724096" cx="92" cy="51"></circle><circle r="1.9772993617895467" cx="18" cy="37"></circle><circle r="2.3024232473940645" cx="59" cy="66"></circle><circle r="1.205558672358137" cx="26" cy="68"></circle><circle r="4.2480390973170055" cx="92" cy="67"></circle><circle r="2.005670672155533" cx="36" cy="36"></circle><circle r="2.432851161941471" cx="71" cy="41"></circle><circle r="1.4874679496967622" cx="19" cy="15"></circle><circle r="3.2788918022501434" cx="68" cy="18"></circle><circle r="2.2707537203457164" cx="54" cy="68"></circle><circle r="2.397427550919694" cx="68" cy="85"></circle><circle r="1.8046342842276606" cx="50" cy="37"></circle><circle r="1.283623323043757" cx="79" cy="97"></circle><circle r="1.0173038470118883" cx="2" cy="24"></circle><circle r="2.457355528079787" cx="61" cy="96"></circle><circle r="1.254637519179881" cx="28" cy="1"></circle><circle r="4.790495325897249" cx="40" cy="94"></circle><circle r="1.4863840267901316" cx="61" cy="21"></circle><circle r="1.2425423538638922" cx="10" cy="7"></circle><circle r="1.7772088322742277" cx="53" cy="34"></circle><circle r="1.2407427056285063" cx="35" cy="89"></circle></svg>