<svg xmlns="http://www.w3.org/2000/svg" viewBox="0 0 100 100" id="svg" style="--frame-c: #f6c6a4; --frame-bdw: 1em; fill: rgb(102, 10, 128); background-color: rgb(255, 255, 255); --frame-asr: 100 / 100.;"><circle r="14.468884688554468" cx="21" cy="29"></circle><circle r="4.295281771551202" cx="44" cy="50"></circle><circle r="3.6421815244711535" cx="67" cy="68"></circle><circle r="8.136845530657222" cx="67" cy="16"></circle><circle r="12.057236997032621" cx="99" cy="4"></circle><circle r="7.914946547604588" cx="88" cy="84"></circle><circle r="3.309651405743557" cx="26" cy="4"></circle><circle r="8.028391783966558" cx="85" cy="42"></circle><circle r="16.865954227406768" cx="1" cy="3"></circle><circle r="5.587667522506843" cx="49" cy="27"></circle><circle r="11.82797687507262" cx="25" cy="80"></circle><circle r="6.610348720554224" cx="11" cy="51"></circle><circle r="4.009322842169825" cx="60" cy="58"></circle><circle r="4.6869770576556515" cx="55" cy="75"></circle><circle r="6.896159200614539" cx="95" cy="62"></circle><circle r="1.0799530100763741" cx="82" cy="6"></circle><circle r="3.392716712505194" cx="0" cy="45"></circle><circle r="1.0095823279241718" cx="74" cy="25"></circle><circle r="9.4976019551097" cx="59" cy="0"></circle><circle r="3.599601714111845" cx="61" cy="34"></circle><circle r="2.50767835469044" cx="94" cy="95"></circle><circle r="5.586675002738049" cx="5" cy="78"></circle><circle r="1.4921560603758364" cx="64" cy="76"></circle><circle r="3.338597060036536" cx="59" cy="86"></circle><circle r="3.7555470554011174" cx="80" cy="58"></circle></svg>