<svg xmlns="http://www.w3.org/2000/svg" viewBox="0 0 100 100" id="svg" style="--frame-c: #f6c6a4; --frame-bdw: 1em; stroke: rgb(240, 117, 240); stroke-width: 0.15; background-color: rgb(8, 8, 40); --frame-asr: 100 / 100.;"><g transform="translate(53.34220259843841 50) scale(1)">
  <circle cx="28.31559480312316" cy="20.57248383023656" r="15" fill="#6c6ce0"></circle><circle cx="-10.815594803123165" cy="33.28697807033037" r="15" fill="#6b6bdf"></circle><circle cx="-35" cy="-1.1256858547736457e-14" r="15" fill="#6a6ade"></circle><circle cx="-10.815594803123165" cy="-33.28697807033037" r="15" fill="#6969dd"></circle><circle cx="28.315594803123172" cy="-20.57248383023654" r="15" fill="#6868dc"></circle><circle cx="29.55147739257053" cy="18.753937824264884" r="13.6" fill="#6767da"></circle><circle cx="26.96796349715262" cy="22.309839641204142" r="13.6" fill="#6666d9"></circle><circle cx="-8.70414605076992" cy="33.900410639502084" r="13.6" fill="#6565d8"></circle><circle cx="-12.884359343963729" cy="32.5421770060888" r="13.6" fill="#6464d7"></circle><circle cx="-34.930935494989505" cy="2.19766818352596" r="13.6" fill="#6363d6"></circle><circle cx="-34.930935494989505" cy="-2.197668183525967" r="13.6" fill="#6262d5"></circle><circle cx="-12.884359343963723" cy="-32.5421770060888" r="13.6" fill="#6161d4"></circle><circle cx="-8.704146050769905" cy="-33.90041063950209" r="13.6" fill="#6060d3"></circle><circle cx="26.967963497152628" cy="-22.30983964120414" r="13.6" fill="#6060d2"></circle><circle cx="29.551477392570536" cy="-18.75393782426487" r="13.6" fill="#5f5fd1"></circle><circle cx="30.670733801535224" cy="16.861378593560037" r="12.200000000000001" fill="#5e5ecf"></circle><circle cx="-6.558346010500369" cy="34.3800537755041" r="12.200000000000001" fill="#5d5dce"></circle><circle cx="-34.72401454600673" cy="4.386663174750643" r="12.200000000000001" fill="#5c5ccd"></circle><circle cx="-14.902275204777526" cy="-31.668946836310692" r="12.200000000000001" fill="#5b5bcc"></circle><circle cx="25.513901959749415" cy="-23.95914870750409" r="12.200000000000001" fill="#5a5acb"></circle><circle cx="25.513901959749404" cy="23.959148707504106" r="12.2" fill="#5959ca"></circle><circle cx="-14.902275204777546" cy="31.66894683631068" r="12.2" fill="#5858c9"></circle><circle cx="-34.72401454600673" cy="-4.38666317475065" r="12.2" fill="#5757c8"></circle><circle cx="-6.558346010500362" cy="-34.3800537755041" r="12.2" fill="#5656c7"></circle><circle cx="30.670733801535224" cy="-16.861378593560037" r="12.2" fill="#5555c6"></circle><circle cx="23.959148707504102" cy="25.513901959749404" r="10.8" fill="#5454c4"></circle><circle cx="-16.86137859356004" cy="30.67073380153522" r="10.8" fill="#5353c3"></circle><circle cx="-34.3800537755041" cy="-6.558346010500367" r="10.8" fill="#5252c2"></circle><circle cx="-4.38666317475063" cy="-34.72401454600673" r="10.8" fill="#5151c1"></circle><circle cx="31.66894683631069" cy="-14.902275204777528" r="10.8" fill="#5050c0"></circle><circle cx="31.66894683631068" cy="14.902275204777546" r="10.799999999999999" fill="#4f4fbf"></circle><circle cx="-4.386663174750653" cy="34.72401454600672" r="10.799999999999999" fill="#4e4ebe"></circle><circle cx="-34.3800537755041" cy="6.55834601050036" r="10.799999999999999" fill="#4d4dbd"></circle><circle cx="-16.861378593560033" cy="-30.670733801535224" r="10.799999999999999" fill="#4c4cbc"></circle><circle cx="23.959148707504102" cy="-25.513901959749404" r="10.799999999999999" fill="#4b4bbb"></circle><circle cx="32.5421770060888" cy="12.884359343963729" r="9.4" fill="#4a4ab9"></circle><circle cx="-2.1976681835259693" cy="34.930935494989505" r="9.4" fill="#4949b8"></circle><circle cx="-33.900410639502084" cy="8.70414605076992" r="9.4" fill="#4848b7"></circle><circle cx="-18.75393782426487" cy="-29.551477392570536" r="9.4" fill="#4848b6"></circle><circle cx="22.30983964120415" cy="-26.967963497152617" r="9.4" fill="#4747b5"></circle><circle cx="22.30983964120414" cy="26.967963497152624" r="9.399999999999999" fill="#4646b4"></circle><circle cx="-18.75393782426489" cy="29.551477392570522" r="9.399999999999999" fill="#4545b3"></circle><circle cx="-33.900410639502084" cy="-8.704146050769925" r="9.399999999999999" fill="#4444b2"></circle><circle cx="-2.197668183525962" cy="-34.930935494989505" r="9.399999999999999" fill="#4343b1"></circle><circle cx="32.5421770060888" cy="-12.884359343963725" r="9.399999999999999" fill="#4242b0"></circle><circle cx="33.28697807033037" cy="10.815594803123158" r="8" fill="#4141ae"></circle><circle cx="20.572483830236557" cy="28.31559480312316" r="8" fill="#4040ad"></circle><circle cx="-5.6284292738682275e-15" cy="35" r="8" fill="#3f3fac"></circle><circle cx="-20.572483830236557" cy="28.31559480312316" r="8" fill="#3e3eab"></circle><circle cx="-33.28697807033038" cy="10.81559480312315" r="8" fill="#3d3daa"></circle><circle cx="-33.28697807033037" cy="-10.81559480312317" r="8" fill="#3c3ca9"></circle><circle cx="-20.572483830236564" cy="-28.315594803123158" r="8" fill="#3b3ba8"></circle><circle cx="-6.429395695523604e-15" cy="-35" r="8" fill="#3a3aa7"></circle><circle cx="20.57248383023658" cy="-28.315594803123144" r="8" fill="#3939a6"></circle><circle cx="33.286978070330385" cy="-10.815594803123137" r="8" fill="#3838a5"></circle><circle cx="33.900410639502084" cy="8.704146050769918" r="6.6000000000000005" fill="#3737a3"></circle><circle cx="2.1976681835259657" cy="34.930935494989505" r="6.6000000000000005" fill="#3636a2"></circle><circle cx="-32.5421770060888" cy="12.884359343963721" r="6.6000000000000005" fill="#3535a1"></circle><circle cx="-22.30983964120413" cy="-26.967963497152628" r="6.6000000000000005" fill="#3434a0"></circle><circle cx="18.753937824264888" cy="-29.551477392570522" r="6.6000000000000005" fill="#33339f"></circle><circle cx="18.75393782426488" cy="29.55147739257053" r="6.6" fill="#32329e"></circle><circle cx="-22.309839641204142" cy="26.967963497152624" r="6.6" fill="#31319d"></circle><circle cx="-32.54217700608879" cy="-12.884359343963741" r="6.6" fill="#31319c"></circle><circle cx="2.1976681835259804" cy="-34.930935494989505" r="6.6" fill="#30309b"></circle><circle cx="33.90041063950209" cy="-8.704146050769907" r="6.6" fill="#2f2f9a"></circle><circle cx="16.86137859356003" cy="30.670733801535228" r="5.200000000000001" fill="#2e2e98"></circle><circle cx="-23.959148707504106" cy="25.5139019597494" r="5.200000000000001" fill="#2d2d97"></circle><circle cx="-31.66894683631068" cy="-14.902275204777544" r="5.200000000000001" fill="#2c2c96"></circle><circle cx="4.386663174750648" cy="-34.72401454600673" r="5.200000000000001" fill="#2b2b95"></circle><circle cx="34.3800537755041" cy="-6.558346010500364" r="5.200000000000001" fill="#2a2a94"></circle><circle cx="34.3800537755041" cy="6.558346010500362" r="5.2" fill="#292993"></circle><circle cx="4.386663174750649" cy="34.72401454600673" r="5.2" fill="#282892"></circle><circle cx="-31.668946836310685" cy="14.902275204777537" r="5.2" fill="#272791"></circle><circle cx="-23.959148707504102" cy="-25.513901959749404" r="5.2" fill="#262690"></circle><circle cx="16.86137859356005" cy="-30.670733801535217" r="5.2" fill="#25258f"></circle><circle cx="34.72401454600673" cy="4.386663174750649" r="3.8000000000000003" fill="#24248d"></circle><circle cx="6.558346010500358" cy="34.3800537755041" r="3.8000000000000003" fill="#23238c"></circle><circle cx="-30.670733801535224" cy="16.861378593560033" r="3.8000000000000003" fill="#22228b"></circle><circle cx="-25.513901959749404" cy="-23.959148707504106" r="3.8000000000000003" fill="#21218a"></circle><circle cx="14.902275204777542" cy="-31.668946836310685" r="3.8000000000000003" fill="#202089"></circle><circle cx="14.902275204777544" cy="31.668946836310685" r="3.799999999999999" fill="#1f1f88"></circle><circle cx="-25.513901959749408" cy="23.9591487075041" r="3.799999999999999" fill="#1e1e87"></circle><circle cx="-30.67073380153522" cy="-16.861378593560037" r="3.799999999999999" fill="#1d1d86"></circle><circle cx="6.5583460105003795" cy="-34.3800537755041" r="3.799999999999999" fill="#1c1c85"></circle><circle cx="34.72401454600673" cy="-4.386663174750632" r="3.799999999999999" fill="#1b1b84"></circle><circle cx="34.930935494989505" cy="2.197668183525968" r="2.4000000000000004" fill="#1a1a82"></circle><circle cx="12.884359343963725" cy="32.5421770060888" r="2.4000000000000004" fill="#191981"></circle><circle cx="8.704146050769916" cy="33.900410639502084" r="2.4000000000000004" fill="#191980"></circle><circle cx="-26.967963497152628" cy="22.30983964120413" r="2.4000000000000004" fill="#18187f"></circle><circle cx="-29.55147739257053" cy="18.753937824264884" r="2.4000000000000004" fill="#17177e"></circle><circle cx="-29.551477392570522" cy="-18.753937824264888" r="2.4000000000000004" fill="#16167d"></circle><circle cx="-26.967963497152617" cy="-22.30983964120415" r="2.4000000000000004" fill="#15157c"></circle><circle cx="8.704146050769923" cy="-33.900410639502084" r="2.4000000000000004" fill="#14147b"></circle><circle cx="12.88435934396374" cy="-32.54217700608879" r="2.4000000000000004" fill="#13137a"></circle><circle cx="34.930935494989505" cy="-2.1976681835259644" r="2.4000000000000004" fill="#121279"></circle><circle cx="35" cy="0" r="1" fill="#111177"></circle><circle cx="10.815594803123162" cy="33.28697807033037" r="1" fill="#101076"></circle><circle cx="-28.315594803123158" cy="20.572483830236564" r="1" fill="#0f0f75"></circle><circle cx="-28.315594803123155" cy="-20.572483830236568" r="1" fill="#0e0e74"></circle><circle cx="10.815594803123153" cy="-33.28697807033038" r="1" fill="#0d0d73"></circle></g></svg>