<svg xmlns="http://www.w3.org/2000/svg" viewBox="0 0 100 100" id="svg" style="--frame-c: #f6c6a4; --frame-bdw: 1em; stroke: rgb(54, 99, 65); stroke-width: 0.15; background-color: rgb(20, 38, 8); --frame-asr: 100 / 100.;"><g transform="translate(52.077519867359484 50) scale(1)">
  <circle cx="20.823031017752488" cy="13.8347887310836" r="23.666666666666668" fill="#092f19"></circle><circle cx="19.592336433145995" cy="15.528694506957757" r="23.666666666666668" fill="#0a3019"></circle><circle cx="-6.72299551538164" cy="24.079064169941454" r="23.666666666666668" fill="#0b3119"></circle><circle cx="-8.714301183045375" cy="23.43204973729729" r="23.666666666666668" fill="#0c3219"></circle><circle cx="-24.97807075247146" cy="1.0468913432299953" r="23.666666666666668" fill="#0d3318"></circle><circle cx="-24.97807075247146" cy="-1.046891343229978" r="23.666666666666668" fill="#0d3418"></circle><circle cx="-8.714301183045386" cy="-23.432049737297287" r="23.666666666666668" fill="#0e3518"></circle><circle cx="-6.722995515381645" cy="-24.079064169941454" r="23.666666666666668" fill="#0f3518"></circle><circle cx="19.59233643314599" cy="-15.528694506957766" r="23.666666666666668" fill="#103618"></circle><circle cx="20.823031017752474" cy="-13.834788731083625" r="23.666666666666668" fill="#113718"></circle><circle cx="21.90766700109659" cy="12.04384185254288" r="21" fill="#123817"></circle><circle cx="18.224215685535288" cy="17.113677648217216" r="21" fill="#133917"></circle><circle cx="-4.68453286464311" cy="24.557181268217217" r="21" fill="#143a17"></circle><circle cx="-10.644482289126808" cy="22.62067631165049" r="21" fill="#143b17"></circle><circle cx="-24.802867532861946" cy="3.1333308391076136" r="21" fill="#153c17"></circle><circle cx="-24.802867532861946" cy="-3.1333308391075962" r="21" fill="#163d17"></circle><circle cx="-10.644482289126824" cy="-22.620676311650485" r="21" fill="#173e16"></circle><circle cx="-4.6845328646431375" cy="-24.557181268217214" r="21" fill="#183f16"></circle><circle cx="18.22421568553528" cy="-17.113677648217223" r="21" fill="#194016"></circle><circle cx="21.907667001096577" cy="-12.043841852542903" r="21" fill="#1a4016"></circle><circle cx="16.728265158971457" cy="18.578620636934858" r="18.333333333333336" fill="#1b4116"></circle><circle cx="-12.499999999999995" cy="21.65063509461097" r="18.333333333333336" fill="#1b4216"></circle><circle cx="-24.453690018345142" cy="-5.197792270443976" r="18.333333333333336" fill="#1c4315"></circle><circle cx="-2.6132115816913557" cy="-24.863047384206833" r="18.333333333333336" fill="#1d4415"></circle><circle cx="22.838636441065013" cy="-10.168416076895022" r="18.333333333333336" fill="#1e4515"></circle><circle cx="22.83863644106502" cy="10.168416076895003" r="18.333333333333332" fill="#1f4615"></circle><circle cx="-2.6132115816913335" cy="24.863047384206833" r="18.333333333333332" fill="#204715"></circle><circle cx="-24.45369001834514" cy="5.197792270443993" r="18.333333333333332" fill="#214815"></circle><circle cx="-12.50000000000001" cy="-21.65063509461096" r="18.333333333333332" fill="#224914"></circle><circle cx="16.728265158971446" cy="-18.578620636934865" r="18.333333333333332" fill="#224a14"></circle><circle cx="23.609409255937027" cy="8.22166616846458" r="15.666666666666666" fill="#234b14"></circle><circle cx="15.114977871559374" cy="19.913247950604905" r="15.666666666666666" fill="#244b14"></circle><circle cx="-0.5235604970839176" cy="24.994517086871138" r="15.666666666666666" fill="#254c14"></circle><circle cx="-14.26783919211079" cy="20.528730228342603" r="15.666666666666666" fill="#264d14"></circle><circle cx="-23.93298743830168" cy="7.225794923611803" r="15.666666666666666" fill="#274e13"></circle><circle cx="-23.932987438301687" cy="-7.225794923611775" r="15.666666666666666" fill="#284f13"></circle><circle cx="-14.267839192110804" cy="-20.528730228342592" r="15.666666666666666" fill="#295013"></circle><circle cx="-0.5235604970839404" cy="-24.994517086871138" r="15.666666666666666" fill="#2a5113"></circle><circle cx="15.11497787155936" cy="-19.91324795060492" r="15.666666666666666" fill="#2a5213"></circle><circle cx="23.60940925593702" cy="-8.221666168464598" r="15.666666666666666" fill="#2b5313"></circle><circle cx="24.214579028215777" cy="6.217247179121369" r="13" fill="#2c5413"></circle><circle cx="13.395669874474919" cy="21.108198137550374" r="13" fill="#2d5512"></circle><circle cx="1.569762988232838" cy="24.950668210706787" r="13" fill="#2e5612"></circle><circle cx="-15.935599743717235" cy="19.262831069394736" r="13" fill="#2f5712"></circle><circle cx="-23.244412147206283" cy="9.203113817116954" r="13" fill="#305712"></circle><circle cx="-23.24441214720629" cy="-9.203113817116936" r="13" fill="#315812"></circle><circle cx="-15.935599743717255" cy="-19.26283106939472" r="13" fill="#315912"></circle><circle cx="1.5697629882328208" cy="-24.950668210706787" r="13" fill="#325a11"></circle><circle cx="13.3956698744749" cy="-21.10819813755039" r="13" fill="#335b11"></circle><circle cx="24.214579028215773" cy="-6.217247179121384" r="13" fill="#345c11"></circle><circle cx="11.582400877996545" cy="22.15508948078037" r="10.333333333333334" fill="#355d11"></circle><circle cx="-17.49158351283413" cy="17.86181699082009" r="10.333333333333334" fill="#365e11"></circle><circle cx="-22.392794005985326" cy="-11.115879479623178" r="10.333333333333334" fill="#375f11"></circle><circle cx="3.65207571406028" cy="-24.73180832407471" r="10.333333333333334" fill="#386010"></circle><circle cx="24.649900926762623" cy="-4.169218667902568" r="10.333333333333334" fill="#386110"></circle><circle cx="24.649900926762626" cy="4.169218667902556" r="10.333333333333332" fill="#396210"></circle><circle cx="3.6520757140602966" cy="24.73180832407471" r="10.333333333333332" fill="#3a6210"></circle><circle cx="-22.392794005985316" cy="11.115879479623194" r="10.333333333333332" fill="#3b6310"></circle><circle cx="-17.49158351283414" cy="-17.861816990820078" r="10.333333333333332" fill="#3c6410"></circle><circle cx="11.582400877996523" cy="-22.155089480780376" r="10.333333333333332" fill="#3d650f"></circle><circle cx="24.91232148123761" cy="2.091946083307887" r="7.666666666666666" fill="#3e660f"></circle><circle cx="5.708771752766397" cy="24.339472571829006" r="7.666666666666666" fill="#3f670f"></circle><circle cx="-21.38410650401266" cy="12.950675234328266" r="7.666666666666666" fill="#3f680f"></circle><circle cx="-18.924876391293918" cy="-16.335515099752627" r="7.666666666666666" fill="#40690f"></circle><circle cx="9.687889661302552" cy="-23.04657878971252" r="7.666666666666666" fill="#416a0f"></circle><circle cx="9.687889661302577" cy="23.046578789712513" r="7.666666666666664" fill="#426b0e"></circle><circle cx="-18.924876391293907" cy="16.33551509975264" r="7.666666666666664" fill="#436c0e"></circle><circle cx="-21.38410650401267" cy="-12.95067523432825" r="7.666666666666664" fill="#446d0e"></circle><circle cx="5.708771752766386" cy="-24.339472571829006" r="7.666666666666664" fill="#456d0e"></circle><circle cx="24.912321481237605" cy="-2.091946083307896" r="7.666666666666664" fill="#466e0e"></circle><circle cx="25" cy="0" r="5" fill="#466f0e"></circle><circle cx="7.725424859373686" cy="23.776412907378838" r="5" fill="#47700d"></circle><circle cx="-20.225424859373682" cy="14.69463130731183" r="5" fill="#48710d"></circle><circle cx="-20.225424859373696" cy="-14.694631307311818" r="5" fill="#49720d"></circle><circle cx="7.725424859373681" cy="-23.77641290737884" r="5" fill="#4a730d"></circle></g></svg>