<svg xmlns="http://www.w3.org/2000/svg" viewBox="0 0 100 100" id="svg" style="--frame-c: #f6c6a4; --frame-bdw: 1em; stroke: rgb(99, 8, 8); stroke-width: 0.15; background-color: rgb(32, 9, 9); --frame-asr: 100 / 100.;"><g transform="translate(55.01884877646923 50) scale(1)">
  <circle cx="35" cy="0" r="1" fill="#c31d36"></circle><circle cx="34.85069617032621" cy="3.2293925812155697" r="2.235294117647059" fill="#c31d36"></circle><circle cx="34.40405848893656" cy="6.431233123579962" r="3.4705882352941173" fill="#c31d35"></circle><circle cx="33.66389751104867" cy="9.5782046525229" r="4.705882352941177" fill="#c31d35"></circle><circle cx="32.63652802915245" cy="12.643458316550353" r="5.941176470588235" fill="#c31d34"></circle><circle cx="31.330715197427182" cy="15.600842452178838" r="7.1764705882352935" fill="#c21c34"></circle><circle cx="29.757599750536496" cy="18.42512570070745" r="8.411764705882353" fill="#c21c33"></circle><circle cx="27.930602954808382" cy="21.092212273273976" r="9.647058823529411" fill="#c21c33"></circle><circle cx="25.865312102723067" cy="23.5793475276295" r="10.88235294117647" fill="#c21c32"></circle><circle cx="23.5793475276295" cy="25.865312102723067" r="12.117647058823529" fill="#c21c32"></circle><circle cx="21.092212273273976" cy="27.930602954808382" r="13.352941176470587" fill="#c21c31"></circle><circle cx="18.425125700707454" cy="29.757599750536492" r="14.588235294117647" fill="#c21c31"></circle><circle cx="15.60084245217884" cy="31.330715197427182" r="14.176470588235295" fill="#c21c30"></circle><circle cx="12.643458316550356" cy="32.63652802915245" r="12.941176470588236" fill="#c21b30"></circle><circle cx="9.578204652522897" cy="33.66389751104867" r="11.705882352941178" fill="#c21b2f"></circle><circle cx="6.431233123579961" cy="34.40405848893656" r="10.47058823529412" fill="#c11b2f"></circle><circle cx="3.2293925812155706" cy="34.85069617032621" r="9.23529411764706" fill="#c11b2e"></circle><circle cx="2.1431318985078682e-15" cy="35" r="8" fill="#c11b2e"></circle><circle cx="-3.229392581215566" cy="34.85069617032621" r="6.764705882352942" fill="#c11b2d"></circle><circle cx="-6.431233123579964" cy="34.40405848893656" r="5.529411764705884" fill="#c11b2d"></circle><circle cx="-9.578204652522901" cy="33.66389751104867" r="4.294117647058824" fill="#c11b2c"></circle><circle cx="-12.643458316550353" cy="32.63652802915245" r="3.0588235294117663" fill="#c11a2c"></circle><circle cx="-15.600842452178837" cy="31.330715197427182" r="1.8235294117647083" fill="#c11a2b"></circle><circle cx="-18.425125700707458" cy="29.757599750536492" r="1.4117647058823515" fill="#c11a2b"></circle><circle cx="-21.09221227327397" cy="27.930602954808386" r="2.6470588235294104" fill="#c01a2a"></circle><circle cx="-23.5793475276295" cy="25.865312102723067" r="3.882352941176469" fill="#c01a2a"></circle><circle cx="-25.865312102723063" cy="23.57934752762951" r="5.117647058823528" fill="#c01a29"></circle><circle cx="-27.930602954808382" cy="21.092212273273976" r="6.352941176470586" fill="#c01a29"></circle><circle cx="-29.757599750536496" cy="18.42512570070745" r="7.588235294117645" fill="#c01a28"></circle><circle cx="-31.33071519742718" cy="15.600842452178842" r="8.823529411764705" fill="#c01a28"></circle><circle cx="-32.63652802915245" cy="12.643458316550353" r="10.058823529411763" fill="#c01927"></circle><circle cx="-33.66389751104867" cy="9.578204652522906" r="11.29411764705882" fill="#c01927"></circle><circle cx="-34.40405848893656" cy="6.431233123579963" r="12.52941176470588" fill="#c01926"></circle><circle cx="-34.85069617032621" cy="3.229392581215565" r="13.764705882352938" fill="#c01926"></circle><circle cx="-35" cy="4.2862637970157365e-15" r="1.0000000000000018" fill="#bf1925"></circle><circle cx="-34.85069617032621" cy="-3.229392581215572" r="13.764705882352944" fill="#bf1925"></circle><circle cx="-34.40405848893656" cy="-6.431233123579954" r="12.529411764705884" fill="#bf1924"></circle><circle cx="-33.66389751104867" cy="-9.5782046525229" r="11.294117647058826" fill="#bf1924"></circle><circle cx="-32.63652802915245" cy="-12.643458316550358" r="10.058823529411768" fill="#bf1823"></circle><circle cx="-31.330715197427182" cy="-15.600842452178835" r="8.823529411764708" fill="#bf1823"></circle><circle cx="-29.757599750536492" cy="-18.425125700707454" r="7.58823529411765" fill="#bf1822"></circle><circle cx="-27.930602954808386" cy="-21.092212273273965" r="6.3529411764705905" fill="#bf1822"></circle><circle cx="-25.865312102723067" cy="-23.5793475276295" r="5.1176470588235325" fill="#bf1821"></circle><circle cx="-23.579347527629498" cy="-25.86531210272307" r="3.882352941176473" fill="#bf1821"></circle><circle cx="-21.09221227327398" cy="-27.930602954808382" r="2.647058823529415" fill="#be1820"></circle><circle cx="-18.425125700707465" cy="-29.75759975053649" r="1.4117647058823568" fill="#be1820"></circle><circle cx="-15.600842452178831" cy="-31.330715197427185" r="1.823529411764703" fill="#be181f"></circle><circle cx="-12.643458316550355" cy="-32.63652802915245" r="3.058823529411762" fill="#be171f"></circle><circle cx="-9.578204652522908" cy="-33.66389751104867" r="4.294117647058821" fill="#be171e"></circle><circle cx="-6.43123312357995" cy="-34.40405848893656" r="5.52941176470588" fill="#be171e"></circle><circle cx="-3.229392581215567" cy="-34.85069617032621" r="6.764705882352938" fill="#be171d"></circle><circle cx="-6.429395695523604e-15" cy="-35" r="7.9999999999999964" fill="#be171d"></circle><circle cx="3.229392581215554" cy="-34.85069617032621" r="9.235294117647056" fill="#be171c"></circle><circle cx="6.431233123579967" cy="-34.40405848893656" r="10.470588235294114" fill="#bd171c"></circle><circle cx="9.578204652522897" cy="-33.66389751104867" r="11.705882352941172" fill="#bd171b"></circle><circle cx="12.643458316550342" cy="-32.63652802915246" r="12.941176470588232" fill="#bd161b"></circle><circle cx="15.60084245217885" cy="-31.33071519742718" r="14.17647058823529" fill="#bd161a"></circle><circle cx="18.425125700707454" cy="-29.757599750536492" r="14.58823529411765" fill="#bd161a"></circle><circle cx="21.092212273273965" cy="-27.93060295480839" r="13.352941176470592" fill="#bd1619"></circle><circle cx="23.57934752762951" cy="-25.86531210272306" r="12.117647058823533" fill="#bd1619"></circle><circle cx="25.86531210272307" cy="-23.579347527629498" r="10.882352941176475" fill="#bd1618"></circle><circle cx="27.93060295480838" cy="-21.09221227327398" r="9.647058823529417" fill="#bd1618"></circle><circle cx="29.757599750536485" cy="-18.425125700707465" r="8.411764705882357" fill="#bd1617"></circle><circle cx="31.330715197427185" cy="-15.600842452178833" r="7.176470588235299" fill="#bc1517"></circle><circle cx="32.63652802915245" cy="-12.643458316550356" r="5.941176470588239" fill="#bc1516"></circle><circle cx="33.66389751104866" cy="-9.578204652522912" r="4.705882352941181" fill="#bc1516"></circle><circle cx="34.40405848893656" cy="-6.431233123579952" r="3.4705882352941213" fill="#bc1515"></circle><circle cx="34.85069617032621" cy="-3.2293925812155693" r="2.2352941176470633" fill="#bc1515"></circle></g></svg>