<svg xmlns="http://www.w3.org/2000/svg" viewBox="0 0 100 100" id="svg" style="--frame-c: #f6c6a4; --frame-bdw: 1em; background-color: rgb(8, 35, 38); --frame-asr: 100 / 100.;"><g transform="translate(0 0) scale(1)">
    
      <circle cx="50" cy="50" r="1.8" fill="none" stroke="#8577C7" stroke-width="0.5"></circle>
    
      <circle cx="50" cy="50" r="3.6" fill="none" stroke="#59B64C" stroke-width="0.5"></circle>
    
      <circle cx="50" cy="50" r="5.4" fill="none" stroke="#E67E33" stroke-width="0.5"></circle>
    
      <circle cx="50" cy="50" r="7.2" fill="none" stroke="#B22E2F" stroke-width="0.5"></circle>
    
      <circle cx="50" cy="50" r="9" fill="none" stroke="#3E6740" stroke-width="0.5"></circle>
    
      <circle cx="50" cy="50" r="10.8" fill="none" stroke="#9E7B35" stroke-width="0.5"></circle>
    
      <circle cx="50" cy="50" r="12.6" fill="none" stroke="#8577C7" stroke-width="0.5"></circle>
    
      <circle cx="50" cy="50" r="14.4" fill="none" stroke="#59B64C" stroke-width="0.5"></circle>
    
      <circle cx="50" cy="50" r="16.2" fill="none" stroke="#E67E33" stroke-width="0.5"></circle>
    
      <circle cx="50" cy="50" r="18" fill="none" stroke="#B22E2F" stroke-width="0.5"></circle>
    
      <circle cx="50" cy="50" r="19.8" fill="none" stroke="#3E6740" stroke-width="0.5"></circle>
    
      <circle cx="50" cy="50" r="21.6" fill="none" stroke="#9E7B35" stroke-width="0.5"></circle>
    
      <circle cx="50" cy="50" r="23.4" fill="none" stroke="#8577C7" stroke-width="0.5"></circle>
    
      <circle cx="50" cy="50" r="25.2" fill="none" stroke="#59B64C" stroke-width="0.5"></circle>
    
      <circle cx="50" cy="50" r="27" fill="none" stroke="#E67E33" stroke-width="0.5"></circle>
    
      <circle cx="50" cy="50" r="28.8" fill="none" stroke="#B22E2F" stroke-width="0.5"></circle>
    
      <circle cx="50" cy="50" r="30.6" fill="none" stroke="#3E6740" stroke-width="0.5"></circle>
    
      <circle cx="50" cy="50" r="32.4" fill="none" stroke="#9E7B35" stroke-width="0.5"></circle>
    
      <circle cx="50" cy="50" r="34.2" fill="none" stroke="#8577C7" stroke-width="0.5"></circle>
    
      <circle cx="50" cy="50" r="36" fill="none" stroke="#59B64C" stroke-width="0.5"></circle>
    
      <circle cx="50" cy="50" r="37.8" fill="none" stroke="#E67E33" stroke-width="0.5"></circle>
    
      <circle cx="50" cy="50" r="39.6" fill="none" stroke="#B22E2F" stroke-width="0.5"></circle>
    
      <circle cx="50" cy="50" r="41.4" fill="none" stroke="#3E6740" stroke-width="0.5"></circle>
    
      <circle cx="50" cy="50" r="43.2" fill="none" stroke="#9E7B35" stroke-width="0.5"></circle>
    
      <circle cx="50" cy="50" r="45" fill="none" stroke="#8577C7" stroke-width="0.5"></circle>
    
  </g></svg>