<svg xmlns="http://www.w3.org/2000/svg" viewBox="0 0 100 100" id="svg" style="--frame-c: #f6c6a4; --frame-bdw: 1em; background-color: rgb(8, 35, 38); --frame-asr: 100 / 100.;"><g transform="translate(-50 -50) scale(2)">
    
      <circle cx="50" cy="50" r="1.1538461538461537" fill="none" stroke="#BB3331" stroke-width="0.5"></circle>
    
      <circle cx="50" cy="50" r="2.3076923076923075" fill="none" stroke="#8A8D95" stroke-width="0.5"></circle>
    
      <circle cx="50" cy="50" r="3.4615384615384617" fill="none" stroke="#F3D654" stroke-width="0.5"></circle>
    
      <circle cx="50" cy="50" r="4.615384615384615" fill="none" stroke="#882D2F" stroke-width="0.5"></circle>
    
      <circle cx="50" cy="50" r="5.769230769230769" fill="none" stroke="#463781" stroke-width="0.5"></circle>
    
      <circle cx="50" cy="50" r="6.923076923076923" fill="none" stroke="#A16834" stroke-width="0.5"></circle>
    
      <circle cx="50" cy="50" r="8.076923076923077" fill="none" stroke="#47A2CD" stroke-width="0.5"></circle>
    
      <circle cx="50" cy="50" r="9.23076923076923" fill="none" stroke="#C75C91" stroke-width="0.5"></circle>
    
      <circle cx="50" cy="50" r="10.384615384615385" fill="none" stroke="#E2713C" stroke-width="0.5"></circle>
    
      <circle cx="50" cy="50" r="11.538461538461538" fill="none" stroke="#273D78" stroke-width="0.5"></circle>
    
      <circle cx="50" cy="50" r="12.692307692307692" fill="none" stroke="#999DA1" stroke-width="0.5"></circle>
    
      <circle cx="50" cy="50" r="13.846153846153847" fill="none" stroke="#DF6738" stroke-width="0.5"></circle>
    
      <circle cx="50" cy="50" r="15" fill="none" stroke="#885F54" stroke-width="0.5"></circle>
    
      <circle cx="50" cy="50" r="16.153846153846153" fill="none" stroke="#204E3E" stroke-width="0.5"></circle>
    
      <circle cx="50" cy="50" r="17.307692307692307" fill="none" stroke="#D1C74C" stroke-width="0.5"></circle>
    
      <circle cx="50" cy="50" r="18.46153846153846" fill="none" stroke="#2B6767" stroke-width="0.5"></circle>
    
      <circle cx="50" cy="50" r="19.615384615384617" fill="none" stroke="#BB3331" stroke-width="0.5"></circle>
    
      <circle cx="50" cy="50" r="20.76923076923077" fill="none" stroke="#8A8D95" stroke-width="0.5"></circle>
    
      <circle cx="50" cy="50" r="21.923076923076923" fill="none" stroke="#F3D654" stroke-width="0.5"></circle>
    
      <circle cx="50" cy="50" r="23.076923076923077" fill="none" stroke="#882D2F" stroke-width="0.5"></circle>
    
      <circle cx="50" cy="50" r="24.23076923076923" fill="none" stroke="#463781" stroke-width="0.5"></circle>
    
      <circle cx="50" cy="50" r="25.384615384615383" fill="none" stroke="#A16834" stroke-width="0.5"></circle>
    
      <circle cx="50" cy="50" r="26.53846153846154" fill="none" stroke="#47A2CD" stroke-width="0.5"></circle>
    
      <circle cx="50" cy="50" r="27.692307692307693" fill="none" stroke="#C75C91" stroke-width="0.5"></circle>
    
      <circle cx="50" cy="50" r="28.846153846153847" fill="none" stroke="#E2713C" stroke-width="0.5"></circle>
    
      <circle cx="50" cy="50" r="30" fill="none" stroke="#273D78" stroke-width="0.5"></circle>
    
      <circle cx="50" cy="50" r="31.153846153846153" fill="none" stroke="#999DA1" stroke-width="0.5"></circle>
    
      <circle cx="50" cy="50" r="32.30769230769231" fill="none" stroke="#DF6738" stroke-width="0.5"></circle>
    
      <circle cx="50" cy="50" r="33.46153846153846" fill="none" stroke="#885F54" stroke-width="0.5"></circle>
    
      <circle cx="50" cy="50" r="34.61538461538461" fill="none" stroke="#204E3E" stroke-width="0.5"></circle>
    
      <circle cx="50" cy="50" r="35.76923076923077" fill="none" stroke="#D1C74C" stroke-width="0.5"></circle>
    
      <circle cx="50" cy="50" r="36.92307692307692" fill="none" stroke="#2B6767" stroke-width="0.5"></circle>
    
      <circle cx="50" cy="50" r="38.07692307692308" fill="none" stroke="#BB3331" stroke-width="0.5"></circle>
    
      <circle cx="50" cy="50" r="39.23076923076923" fill="none" stroke="#8A8D95" stroke-width="0.5"></circle>
    
      <circle cx="50" cy="50" r="40.38461538461539" fill="none" stroke="#F3D654" stroke-width="0.5"></circle>
    
      <circle cx="50" cy="50" r="41.53846153846154" fill="none" stroke="#882D2F" stroke-width="0.5"></circle>
    
      <circle cx="50" cy="50" r="42.69230769230769" fill="none" stroke="#463781" stroke-width="0.5"></circle>
    
      <circle cx="50" cy="50" r="43.84615384615385" fill="none" stroke="#A16834" stroke-width="0.5"></circle>
    
      <circle cx="50" cy="50" r="45" fill="none" stroke="#47A2CD" stroke-width="0.5"></circle>
    
  </g></svg>