<svg xmlns="http://www.w3.org/2000/svg" viewBox="0 0 100 100" id="svg" style="--frame-c: #0c0b0b; --frame-bdw: 1em; fill: rgba(0, 0, 0, 0); background-color: rgb(255, 255, 255); --frame-asr: 100 / 100.;"><g transform="translate(50 50) scale(1)">
    <circle cx="-45.875" cy="-41.625" r="4.25" stroke="#f906c4" stroke-width="4"></circle><circle cx="-29.125" cy="-41.625" r="4.25" stroke="#f906c4" stroke-width="4"></circle><circle cx="-20.875" cy="-45.875" r="4.25" stroke="#b62be9" stroke-width="4"></circle><circle cx="-8.375" cy="-41.625" r="4.25" stroke="#b62be9" stroke-width="4"></circle><circle cx="8.375" cy="-41.625" r="4.25" stroke="#f906c4" stroke-width="4"></circle><circle cx="20.875" cy="-41.625" r="4.25" stroke="#f906c4" stroke-width="4"></circle><circle cx="33.375" cy="-45.875" r="4.25" stroke="#b62be9" stroke-width="4"></circle><circle cx="41.625" cy="-41.625" r="4.25" stroke="#b62be9" stroke-width="4"></circle><circle cx="-41.625" cy="-33.375" r="4.25" stroke="#f906c4" stroke-width="4"></circle><circle cx="-33.375" cy="-33.375" r="4.25" stroke="#b62be9" stroke-width="4"></circle><circle cx="-16.625" cy="-33.375" r="4.25" stroke="#b62be9" stroke-width="4"></circle><circle cx="-4.125" cy="-29.125" r="4.25" stroke="#f906c4" stroke-width="4"></circle><circle cx="8.375" cy="-33.375" r="4.25" stroke="#f906c4" stroke-width="4"></circle><circle cx="16.625" cy="-29.125" r="4.25" stroke="#f906c4" stroke-width="4"></circle><circle cx="33.375" cy="-33.375" r="4.25" stroke="#f906c4" stroke-width="4"></circle><circle cx="45.875" cy="-29.125" r="4.25" stroke="#b62be9" stroke-width="4"></circle><circle cx="-41.625" cy="-16.625" r="4.25" stroke="#f906c4" stroke-width="4"></circle><circle cx="-29.125" cy="-16.625" r="4.25" stroke="#b62be9" stroke-width="4"></circle><circle cx="-20.875" cy="-16.625" r="4.25" stroke="#f906c4" stroke-width="4"></circle><circle cx="-4.125" cy="-16.625" r="4.25" stroke="#f906c4" stroke-width="4"></circle><circle cx="4.125" cy="-20.875" r="4.25" stroke="#b62be9" stroke-width="4"></circle><circle cx="20.875" cy="-16.625" r="4.25" stroke="#b62be9" stroke-width="4"></circle><circle cx="33.375" cy="-16.625" r="4.25" stroke="#b62be9" stroke-width="4"></circle><circle cx="45.875" cy="-20.875" r="4.25" stroke="#f906c4" stroke-width="4"></circle><circle cx="-45.875" cy="-8.375" r="4.25" stroke="#b62be9" stroke-width="4"></circle><circle cx="-29.125" cy="-8.375" r="4.25" stroke="#f906c4" stroke-width="4"></circle><circle cx="-20.875" cy="-4.125" r="4.25" stroke="#f906c4" stroke-width="4"></circle><circle cx="-4.125" cy="-4.125" r="4.25" stroke="#b62be9" stroke-width="4"></circle><circle cx="4.125" cy="-8.375" r="4.25" stroke="#b62be9" stroke-width="4"></circle><circle cx="20.875" cy="-4.125" r="4.25" stroke="#b62be9" stroke-width="4"></circle><circle cx="33.375" cy="-8.375" r="4.25" stroke="#f906c4" stroke-width="4"></circle><circle cx="41.625" cy="-8.375" r="4.25" stroke="#f906c4" stroke-width="4"></circle><circle cx="-41.625" cy="8.375" r="4.25" stroke="#f906c4" stroke-width="4"></circle><circle cx="-33.375" cy="4.125" r="4.25" stroke="#f906c4" stroke-width="4"></circle><circle cx="-16.625" cy="8.375" r="4.25" stroke="#b62be9" stroke-width="4"></circle><circle cx="-4.125" cy="8.375" r="4.25" stroke="#f906c4" stroke-width="4"></circle><circle cx="8.375" cy="4.125" r="4.25" stroke="#f906c4" stroke-width="4"></circle><circle cx="20.875" cy="4.125" r="4.25" stroke="#f906c4" stroke-width="4"></circle><circle cx="29.125" cy="8.375" r="4.25" stroke="#b62be9" stroke-width="4"></circle><circle cx="41.625" cy="4.125" r="4.25" stroke="#b62be9" stroke-width="4"></circle><circle cx="-45.875" cy="20.875" r="4.25" stroke="#f906c4" stroke-width="4"></circle><circle cx="-29.125" cy="20.875" r="4.25" stroke="#b62be9" stroke-width="4"></circle><circle cx="-20.875" cy="16.625" r="4.25" stroke="#b62be9" stroke-width="4"></circle><circle cx="-4.125" cy="16.625" r="4.25" stroke="#f906c4" stroke-width="4"></circle><circle cx="8.375" cy="20.875" r="4.25" stroke="#b62be9" stroke-width="4"></circle><circle cx="20.875" cy="16.625" r="4.25" stroke="#b62be9" stroke-width="4"></circle><circle cx="33.375" cy="20.875" r="4.25" stroke="#f906c4" stroke-width="4"></circle><circle cx="41.625" cy="16.625" r="4.25" stroke="#f906c4" stroke-width="4"></circle><circle cx="-41.625" cy="29.125" r="4.25" stroke="#f906c4" stroke-width="4"></circle><circle cx="-33.375" cy="29.125" r="4.25" stroke="#f906c4" stroke-width="4"></circle><circle cx="-16.625" cy="29.125" r="4.25" stroke="#f906c4" stroke-width="4"></circle><circle cx="-4.125" cy="29.125" r="4.25" stroke="#f906c4" stroke-width="4"></circle><circle cx="4.125" cy="29.125" r="4.25" stroke="#f906c4" stroke-width="4"></circle><circle cx="20.875" cy="33.375" r="4.25" stroke="#f906c4" stroke-width="4"></circle><circle cx="29.125" cy="29.125" r="4.25" stroke="#f906c4" stroke-width="4"></circle><circle cx="45.875" cy="33.375" r="4.25" stroke="#b62be9" stroke-width="4"></circle><circle cx="-45.875" cy="45.875" r="4.25" stroke="#b62be9" stroke-width="4"></circle><circle cx="-33.375" cy="41.625" r="4.25" stroke="#f906c4" stroke-width="4"></circle><circle cx="-20.875" cy="45.875" r="4.25" stroke="#b62be9" stroke-width="4"></circle><circle cx="-4.125" cy="45.875" r="4.25" stroke="#f906c4" stroke-width="4"></circle><circle cx="8.375" cy="41.625" r="4.25" stroke="#f906c4" stroke-width="4"></circle><circle cx="20.875" cy="45.875" r="4.25" stroke="#b62be9" stroke-width="4"></circle><circle cx="29.125" cy="41.625" r="4.25" stroke="#b62be9" stroke-width="4"></circle><circle cx="41.625" cy="41.625" r="4.25" stroke="#b62be9" stroke-width="4"></circle>
  </g></svg>