<svg xmlns="http://www.w3.org/2000/svg" viewBox="0 0 100 100" id="svg" style="--frame-c: #0c0b0b; --frame-bdw: 1em; fill: rgba(0, 0, 0, 0); background-color: rgb(255, 255, 255); --frame-asr: 100 / 100.;"><g transform="translate(50 50) scale(1)">
    <circle cx="-42.625" cy="-47.375" r="4.75" stroke="#f8c706" stroke-width="0.5"></circle><circle cx="-37.375" cy="-42.625" r="4.75" stroke="#f8c706" stroke-width="0.5"></circle><circle cx="-22.625" cy="-42.625" r="4.75" stroke="#e8e529" stroke-width="0.5"></circle><circle cx="-17.375" cy="-42.625" r="4.75" stroke="#e8e529" stroke-width="0.5"></circle><circle cx="-2.625" cy="-42.625" r="4.75" stroke="#f8c706" stroke-width="0.5"></circle><circle cx="7.375" cy="-47.375" r="4.75" stroke="#f8c706" stroke-width="0.5"></circle><circle cx="12.625" cy="-47.375" r="4.75" stroke="#f8c706" stroke-width="0.5"></circle><circle cx="27.375" cy="-47.375" r="4.75" stroke="#f8c706" stroke-width="0.5"></circle><circle cx="37.375" cy="-42.625" r="4.75" stroke="#f8c706" stroke-width="0.5"></circle><circle cx="47.375" cy="-42.625" r="4.75" stroke="#f8c706" stroke-width="0.5"></circle><circle cx="-47.375" cy="-32.625" r="4.75" stroke="#f8c706" stroke-width="0.5"></circle><circle cx="-37.375" cy="-37.375" r="4.75" stroke="#f8c706" stroke-width="0.5"></circle><circle cx="-27.375" cy="-32.625" r="4.75" stroke="#e8e529" stroke-width="0.5"></circle><circle cx="-12.625" cy="-32.625" r="4.75" stroke="#f8c706" stroke-width="0.5"></circle><circle cx="-2.625" cy="-32.625" r="4.75" stroke="#f8c706" stroke-width="0.5"></circle><circle cx="7.375" cy="-32.625" r="4.75" stroke="#f8c706" stroke-width="0.5"></circle><circle cx="17.375" cy="-32.625" r="4.75" stroke="#f8c706" stroke-width="0.5"></circle><circle cx="27.375" cy="-32.625" r="4.75" stroke="#f8c706" stroke-width="0.5"></circle><circle cx="37.375" cy="-37.375" r="4.75" stroke="#f8c706" stroke-width="0.5"></circle><circle cx="42.625" cy="-37.375" r="4.75" stroke="#e8e529" stroke-width="0.5"></circle><circle cx="-42.625" cy="-22.625" r="4.75" stroke="#f8c706" stroke-width="0.5"></circle><circle cx="-32.625" cy="-27.375" r="4.75" stroke="#f8c706" stroke-width="0.5"></circle><circle cx="-27.375" cy="-22.625" r="4.75" stroke="#e8e529" stroke-width="0.5"></circle><circle cx="-12.625" cy="-27.375" r="4.75" stroke="#f8c706" stroke-width="0.5"></circle><circle cx="-7.375" cy="-27.375" r="4.75" stroke="#e8e529" stroke-width="0.5"></circle><circle cx="2.625" cy="-27.375" r="4.75" stroke="#e8e529" stroke-width="0.5"></circle><circle cx="17.375" cy="-22.625" r="4.75" stroke="#e8e529" stroke-width="0.5"></circle><circle cx="27.375" cy="-27.375" r="4.75" stroke="#e8e529" stroke-width="0.5"></circle><circle cx="32.625" cy="-27.375" r="4.75" stroke="#e8e529" stroke-width="0.5"></circle><circle cx="42.625" cy="-22.625" r="4.75" stroke="#f8c706" stroke-width="0.5"></circle><circle cx="-47.375" cy="-12.625" r="4.75" stroke="#e8e529" stroke-width="0.5"></circle><circle cx="-32.625" cy="-17.375" r="4.75" stroke="#e8e529" stroke-width="0.5"></circle><circle cx="-22.625" cy="-17.375" r="4.75" stroke="#f8c706" stroke-width="0.5"></circle><circle cx="-12.625" cy="-17.375" r="4.75" stroke="#f8c706" stroke-width="0.5"></circle><circle cx="-7.375" cy="-12.625" r="4.75" stroke="#e8e529" stroke-width="0.5"></circle><circle cx="7.375" cy="-12.625" r="4.75" stroke="#f8c706" stroke-width="0.5"></circle><circle cx="17.375" cy="-12.625" r="4.75" stroke="#f8c706" stroke-width="0.5"></circle><circle cx="22.625" cy="-17.375" r="4.75" stroke="#f8c706" stroke-width="0.5"></circle><circle cx="32.625" cy="-12.625" r="4.75" stroke="#e8e529" stroke-width="0.5"></circle><circle cx="47.375" cy="-12.625" r="4.75" stroke="#f8c706" stroke-width="0.5"></circle><circle cx="-47.375" cy="-2.625" r="4.75" stroke="#e8e529" stroke-width="0.5"></circle><circle cx="-37.375" cy="-2.625" r="4.75" stroke="#f8c706" stroke-width="0.5"></circle><circle cx="-22.625" cy="-2.625" r="4.75" stroke="#f8c706" stroke-width="0.5"></circle><circle cx="-17.375" cy="-7.375" r="4.75" stroke="#e8e529" stroke-width="0.5"></circle><circle cx="-2.625" cy="-2.625" r="4.75" stroke="#f8c706" stroke-width="0.5"></circle><circle cx="2.625" cy="-2.625" r="4.75" stroke="#e8e529" stroke-width="0.5"></circle><circle cx="17.375" cy="-7.375" r="4.75" stroke="#f8c706" stroke-width="0.5"></circle><circle cx="27.375" cy="-7.375" r="4.75" stroke="#e8e529" stroke-width="0.5"></circle><circle cx="32.625" cy="-2.625" r="4.75" stroke="#f8c706" stroke-width="0.5"></circle><circle cx="42.625" cy="-2.625" r="4.75" stroke="#f8c706" stroke-width="0.5"></circle><circle cx="-47.375" cy="2.625" r="4.75" stroke="#f8c706" stroke-width="0.5"></circle><circle cx="-37.375" cy="2.625" r="4.75" stroke="#e8e529" stroke-width="0.5"></circle><circle cx="-27.375" cy="2.625" r="4.75" stroke="#e8e529" stroke-width="0.5"></circle><circle cx="-12.625" cy="2.625" r="4.75" stroke="#f8c706" stroke-width="0.5"></circle><circle cx="-2.625" cy="2.625" r="4.75" stroke="#f8c706" stroke-width="0.5"></circle><circle cx="7.375" cy="7.375" r="4.75" stroke="#f8c706" stroke-width="0.5"></circle><circle cx="12.625" cy="2.625" r="4.75" stroke="#f8c706" stroke-width="0.5"></circle><circle cx="22.625" cy="7.375" r="4.75" stroke="#e8e529" stroke-width="0.5"></circle><circle cx="37.375" cy="2.625" r="4.75" stroke="#f8c706" stroke-width="0.5"></circle><circle cx="47.375" cy="7.375" r="4.75" stroke="#e8e529" stroke-width="0.5"></circle><circle cx="-42.625" cy="12.625" r="4.75" stroke="#f8c706" stroke-width="0.5"></circle><circle cx="-37.375" cy="17.375" r="4.75" stroke="#e8e529" stroke-width="0.5"></circle><circle cx="-27.375" cy="17.375" r="4.75" stroke="#f8c706" stroke-width="0.5"></circle><circle cx="-12.625" cy="12.625" r="4.75" stroke="#f8c706" stroke-width="0.5"></circle><circle cx="-7.375" cy="17.375" r="4.75" stroke="#f8c706" stroke-width="0.5"></circle><circle cx="7.375" cy="12.625" r="4.75" stroke="#f8c706" stroke-width="0.5"></circle><circle cx="12.625" cy="17.375" r="4.75" stroke="#e8e529" stroke-width="0.5"></circle><circle cx="27.375" cy="12.625" r="4.75" stroke="#e8e529" stroke-width="0.5"></circle><circle cx="37.375" cy="12.625" r="4.75" stroke="#e8e529" stroke-width="0.5"></circle><circle cx="47.375" cy="12.625" r="4.75" stroke="#f8c706" stroke-width="0.5"></circle><circle cx="-47.375" cy="27.375" r="4.75" stroke="#f8c706" stroke-width="0.5"></circle><circle cx="-37.375" cy="22.625" r="4.75" stroke="#f8c706" stroke-width="0.5"></circle><circle cx="-27.375" cy="22.625" r="4.75" stroke="#f8c706" stroke-width="0.5"></circle><circle cx="-17.375" cy="22.625" r="4.75" stroke="#f8c706" stroke-width="0.5"></circle><circle cx="-7.375" cy="22.625" r="4.75" stroke="#e8e529" stroke-width="0.5"></circle><circle cx="2.625" cy="22.625" r="4.75" stroke="#f8c706" stroke-width="0.5"></circle><circle cx="17.375" cy="27.375" r="4.75" stroke="#f8c706" stroke-width="0.5"></circle><circle cx="22.625" cy="22.625" r="4.75" stroke="#e8e529" stroke-width="0.5"></circle><circle cx="32.625" cy="22.625" r="4.75" stroke="#f8c706" stroke-width="0.5"></circle><circle cx="42.625" cy="22.625" r="4.75" stroke="#f8c706" stroke-width="0.5"></circle><circle cx="-42.625" cy="32.625" r="4.75" stroke="#f8c706" stroke-width="0.5"></circle><circle cx="-37.375" cy="32.625" r="4.75" stroke="#f8c706" stroke-width="0.5"></circle><circle cx="-27.375" cy="37.375" r="4.75" stroke="#f8c706" stroke-width="0.5"></circle><circle cx="-12.625" cy="37.375" r="4.75" stroke="#e8e529" stroke-width="0.5"></circle><circle cx="-7.375" cy="37.375" r="4.75" stroke="#f8c706" stroke-width="0.5"></circle><circle cx="2.625" cy="32.625" r="4.75" stroke="#e8e529" stroke-width="0.5"></circle><circle cx="12.625" cy="37.375" r="4.75" stroke="#f8c706" stroke-width="0.5"></circle><circle cx="27.375" cy="37.375" r="4.75" stroke="#e8e529" stroke-width="0.5"></circle><circle cx="37.375" cy="37.375" r="4.75" stroke="#e8e529" stroke-width="0.5"></circle><circle cx="47.375" cy="32.625" r="4.75" stroke="#f8c706" stroke-width="0.5"></circle><circle cx="-47.375" cy="47.375" r="4.75" stroke="#e8e529" stroke-width="0.5"></circle><circle cx="-32.625" cy="47.375" r="4.75" stroke="#f8c706" stroke-width="0.5"></circle><circle cx="-22.625" cy="42.625" r="4.75" stroke="#e8e529" stroke-width="0.5"></circle><circle cx="-12.625" cy="47.375" r="4.75" stroke="#e8e529" stroke-width="0.5"></circle><circle cx="-7.375" cy="47.375" r="4.75" stroke="#f8c706" stroke-width="0.5"></circle><circle cx="2.625" cy="42.625" r="4.75" stroke="#e8e529" stroke-width="0.5"></circle><circle cx="12.625" cy="42.625" r="4.75" stroke="#e8e529" stroke-width="0.5"></circle><circle cx="22.625" cy="47.375" r="4.75" stroke="#e8e529" stroke-width="0.5"></circle><circle cx="32.625" cy="42.625" r="4.75" stroke="#e8e529" stroke-width="0.5"></circle><circle cx="42.625" cy="42.625" r="4.75" stroke="#f8c706" stroke-width="0.5"></circle>
  </g></svg>