<svg xmlns="http://www.w3.org/2000/svg" viewBox="0 0 100 100" id="svg" shape-rendering="crispEdges" style="--frame-c: #f6c6a4; --frame-bdw: 1em; background-color: rgb(255, 255, 255); --frame-asr: 100 / 100.;">
  <defs>
    <pattern id="squares" width="100" height="100" patternUnits="userSpaceOnUse" shape-rendering="crispEdges">
      <rect x="0" y="0" width="25" height="25" fill="#C7B8AE" shape-rendering="crispEdges"></rect><rect x="0" y="0" width="8.333333333333334" height="8.333333333333334" fill="#B2A196" shape-rendering="crispEdges"></rect><rect x="8.333333333333334" y="0" width="8.333333333333334" height="8.333333333333334" fill="#B2A196" shape-rendering="crispEdges"></rect><rect x="16.666666666666668" y="0" width="8.333333333333334" height="8.333333333333334" fill="#B2A196" shape-rendering="crispEdges"></rect><rect x="25" y="0" width="25" height="25" fill="#A99488" shape-rendering="crispEdges"></rect><rect x="25" y="0" width="8.333333333333334" height="8.333333333333334" fill="#9A7F6B" shape-rendering="crispEdges"></rect><rect x="50" y="0" width="25" height="25" fill="#746258" shape-rendering="crispEdges"></rect><rect x="50" y="0" width="8.333333333333334" height="8.333333333333334" fill="#E3D4CD" shape-rendering="crispEdges"></rect><rect x="58.333333333333336" y="0" width="8.333333333333334" height="8.333333333333334" fill="#E3D4CD" shape-rendering="crispEdges"></rect><rect x="66.66666666666667" y="0" width="8.333333333333334" height="8.333333333333334" fill="#E3D4CD" shape-rendering="crispEdges"></rect><rect x="50" y="8.333333333333334" width="8.333333333333334" height="8.333333333333334" fill="#E3D4CD" shape-rendering="crispEdges"></rect><rect x="75" y="0" width="25" height="25" fill="#A99488" shape-rendering="crispEdges"></rect><rect x="75" y="0" width="8.333333333333334" height="8.333333333333334" fill="#9A7F6B" shape-rendering="crispEdges"></rect><rect x="0" y="25" width="25" height="25" fill="#968073" shape-rendering="crispEdges"></rect><rect x="0" y="25" width="8.333333333333334" height="8.333333333333334" fill="#856A57" shape-rendering="crispEdges"></rect><rect x="8.333333333333334" y="25" width="8.333333333333334" height="8.333333333333334" fill="#856A57" shape-rendering="crispEdges"></rect><rect x="16.666666666666668" y="25" width="8.333333333333334" height="8.333333333333334" fill="#856A57" shape-rendering="crispEdges"></rect><rect x="0" y="33.333333333333336" width="8.333333333333334" height="8.333333333333334" fill="#856A57" shape-rendering="crispEdges"></rect><rect x="8.333333333333334" y="33.333333333333336" width="8.333333333333334" height="8.333333333333334" fill="#856A57" shape-rendering="crispEdges"></rect><rect x="25" y="25" width="25" height="25" fill="#DBD0C7" shape-rendering="crispEdges"></rect><rect x="25" y="25" width="8.333333333333334" height="8.333333333333334" fill="#DBD0C7" shape-rendering="crispEdges"></rect><rect x="33.333333333333336" y="25" width="8.333333333333334" height="8.333333333333334" fill="#DBD0C7" shape-rendering="crispEdges"></rect><rect x="41.66666666666667" y="25" width="8.333333333333334" height="8.333333333333334" fill="#DBD0C7" shape-rendering="crispEdges"></rect><rect x="25" y="33.333333333333336" width="8.333333333333334" height="8.333333333333334" fill="#DBD0C7" shape-rendering="crispEdges"></rect><rect x="33.333333333333336" y="33.333333333333336" width="8.333333333333334" height="8.333333333333334" fill="#DBD0C7" shape-rendering="crispEdges"></rect><rect x="41.66666666666667" y="33.333333333333336" width="8.333333333333334" height="8.333333333333334" fill="#DBD0C7" shape-rendering="crispEdges"></rect><rect x="25" y="41.66666666666667" width="8.333333333333334" height="8.333333333333334" fill="#DBD0C7" shape-rendering="crispEdges"></rect><rect x="33.333333333333336" y="41.66666666666667" width="8.333333333333334" height="8.333333333333334" fill="#DBD0C7" shape-rendering="crispEdges"></rect><rect x="41.66666666666667" y="41.66666666666667" width="8.333333333333334" height="8.333333333333334" fill="#DBD0C7" shape-rendering="crispEdges"></rect><rect x="50" y="25" width="25" height="25" fill="#82746E" shape-rendering="crispEdges"></rect><rect x="50" y="25" width="8.333333333333334" height="8.333333333333334" fill="#D1B5AC" shape-rendering="crispEdges"></rect><rect x="58.333333333333336" y="25" width="8.333333333333334" height="8.333333333333334" fill="#D1B5AC" shape-rendering="crispEdges"></rect><rect x="75" y="25" width="25" height="25" fill="#665952" shape-rendering="crispEdges"></rect><rect x="75" y="25" width="8.333333333333334" height="8.333333333333334" fill="#C09E93" shape-rendering="crispEdges"></rect><rect x="83.33333333333333" y="25" width="8.333333333333334" height="8.333333333333334" fill="#C09E93" shape-rendering="crispEdges"></rect><rect x="91.66666666666667" y="25" width="8.333333333333334" height="8.333333333333334" fill="#C09E93" shape-rendering="crispEdges"></rect><rect x="75" y="33.333333333333336" width="8.333333333333334" height="8.333333333333334" fill="#C09E93" shape-rendering="crispEdges"></rect><rect x="83.33333333333333" y="33.333333333333336" width="8.333333333333334" height="8.333333333333334" fill="#C09E93" shape-rendering="crispEdges"></rect><rect x="91.66666666666667" y="33.333333333333336" width="8.333333333333334" height="8.333333333333334" fill="#C09E93" shape-rendering="crispEdges"></rect><rect x="0" y="50" width="25" height="25" fill="#968073" shape-rendering="crispEdges"></rect><rect x="0" y="50" width="8.333333333333334" height="8.333333333333334" fill="#856A57" shape-rendering="crispEdges"></rect><rect x="8.333333333333334" y="50" width="8.333333333333334" height="8.333333333333334" fill="#856A57" shape-rendering="crispEdges"></rect><rect x="16.666666666666668" y="50" width="8.333333333333334" height="8.333333333333334" fill="#856A57" shape-rendering="crispEdges"></rect><rect x="0" y="58.333333333333336" width="8.333333333333334" height="8.333333333333334" fill="#856A57" shape-rendering="crispEdges"></rect><rect x="8.333333333333334" y="58.333333333333336" width="8.333333333333334" height="8.333333333333334" fill="#856A57" shape-rendering="crispEdges"></rect><rect x="25" y="50" width="25" height="25" fill="#C7B8AE" shape-rendering="crispEdges"></rect><rect x="25" y="50" width="8.333333333333334" height="8.333333333333334" fill="#B2A196" shape-rendering="crispEdges"></rect><rect x="33.333333333333336" y="50" width="8.333333333333334" height="8.333333333333334" fill="#B2A196" shape-rendering="crispEdges"></rect><rect x="41.66666666666667" y="50" width="8.333333333333334" height="8.333333333333334" fill="#B2A196" shape-rendering="crispEdges"></rect><rect x="50" y="50" width="25" height="25" fill="#968073" shape-rendering="crispEdges"></rect><rect x="50" y="50" width="8.333333333333334" height="8.333333333333334" fill="#856A57" shape-rendering="crispEdges"></rect><rect x="58.333333333333336" y="50" width="8.333333333333334" height="8.333333333333334" fill="#856A57" shape-rendering="crispEdges"></rect><rect x="66.66666666666667" y="50" width="8.333333333333334" height="8.333333333333334" fill="#856A57" shape-rendering="crispEdges"></rect><rect x="50" y="58.333333333333336" width="8.333333333333334" height="8.333333333333334" fill="#856A57" shape-rendering="crispEdges"></rect><rect x="58.333333333333336" y="58.333333333333336" width="8.333333333333334" height="8.333333333333334" fill="#856A57" shape-rendering="crispEdges"></rect><rect x="75" y="50" width="25" height="25" fill="#5A4A42" shape-rendering="crispEdges"></rect><rect x="75" y="50" width="8.333333333333334" height="8.333333333333334" fill="#D6C0B6" shape-rendering="crispEdges"></rect><rect x="83.33333333333333" y="50" width="8.333333333333334" height="8.333333333333334" fill="#D6C0B6" shape-rendering="crispEdges"></rect><rect x="91.66666666666667" y="50" width="8.333333333333334" height="8.333333333333334" fill="#D6C0B6" shape-rendering="crispEdges"></rect><rect x="75" y="58.333333333333336" width="8.333333333333334" height="8.333333333333334" fill="#D6C0B6" shape-rendering="crispEdges"></rect><rect x="83.33333333333333" y="58.333333333333336" width="8.333333333333334" height="8.333333333333334" fill="#D6C0B6" shape-rendering="crispEdges"></rect><rect x="91.66666666666667" y="58.333333333333336" width="8.333333333333334" height="8.333333333333334" fill="#D6C0B6" shape-rendering="crispEdges"></rect><rect x="75" y="66.66666666666667" width="8.333333333333334" height="8.333333333333334" fill="#D6C0B6" shape-rendering="crispEdges"></rect><rect x="83.33333333333333" y="66.66666666666667" width="8.333333333333334" height="8.333333333333334" fill="#D6C0B6" shape-rendering="crispEdges"></rect><rect x="0" y="75" width="25" height="25" fill="#DBD0C7" shape-rendering="crispEdges"></rect><rect x="0" y="75" width="8.333333333333334" height="8.333333333333334" fill="#DBD0C7" shape-rendering="crispEdges"></rect><rect x="8.333333333333334" y="75" width="8.333333333333334" height="8.333333333333334" fill="#DBD0C7" shape-rendering="crispEdges"></rect><rect x="16.666666666666668" y="75" width="8.333333333333334" height="8.333333333333334" fill="#DBD0C7" shape-rendering="crispEdges"></rect><rect x="0" y="83.33333333333333" width="8.333333333333334" height="8.333333333333334" fill="#DBD0C7" shape-rendering="crispEdges"></rect><rect x="8.333333333333334" y="83.33333333333333" width="8.333333333333334" height="8.333333333333334" fill="#DBD0C7" shape-rendering="crispEdges"></rect><rect x="16.666666666666668" y="83.33333333333333" width="8.333333333333334" height="8.333333333333334" fill="#DBD0C7" shape-rendering="crispEdges"></rect><rect x="0" y="91.66666666666667" width="8.333333333333334" height="8.333333333333334" fill="#DBD0C7" shape-rendering="crispEdges"></rect><rect x="8.333333333333334" y="91.66666666666667" width="8.333333333333334" height="8.333333333333334" fill="#DBD0C7" shape-rendering="crispEdges"></rect><rect x="16.666666666666668" y="91.66666666666667" width="8.333333333333334" height="8.333333333333334" fill="#DBD0C7" shape-rendering="crispEdges"></rect><rect x="25" y="75" width="25" height="25" fill="#B4A399" shape-rendering="crispEdges"></rect><rect x="25" y="75" width="8.333333333333334" height="8.333333333333334" fill="#A08E82" shape-rendering="crispEdges"></rect><rect x="33.333333333333336" y="75" width="8.333333333333334" height="8.333333333333334" fill="#A08E82" shape-rendering="crispEdges"></rect><rect x="41.66666666666667" y="75" width="8.333333333333334" height="8.333333333333334" fill="#A08E82" shape-rendering="crispEdges"></rect><rect x="25" y="83.33333333333333" width="8.333333333333334" height="8.333333333333334" fill="#A08E82" shape-rendering="crispEdges"></rect><rect x="33.333333333333336" y="83.33333333333333" width="8.333333333333334" height="8.333333333333334" fill="#A08E82" shape-rendering="crispEdges"></rect><rect x="41.66666666666667" y="83.33333333333333" width="8.333333333333334" height="8.333333333333334" fill="#A08E82" shape-rendering="crispEdges"></rect><rect x="25" y="91.66666666666667" width="8.333333333333334" height="8.333333333333334" fill="#A08E82" shape-rendering="crispEdges"></rect><rect x="50" y="75" width="25" height="25" fill="#DBD0C7" shape-rendering="crispEdges"></rect><rect x="50" y="75" width="8.333333333333334" height="8.333333333333334" fill="#DBD0C7" shape-rendering="crispEdges"></rect><rect x="58.333333333333336" y="75" width="8.333333333333334" height="8.333333333333334" fill="#DBD0C7" shape-rendering="crispEdges"></rect><rect x="66.66666666666667" y="75" width="8.333333333333334" height="8.333333333333334" fill="#DBD0C7" shape-rendering="crispEdges"></rect><rect x="50" y="83.33333333333333" width="8.333333333333334" height="8.333333333333334" fill="#DBD0C7" shape-rendering="crispEdges"></rect><rect x="58.333333333333336" y="83.33333333333333" width="8.333333333333334" height="8.333333333333334" fill="#DBD0C7" shape-rendering="crispEdges"></rect><rect x="66.66666666666667" y="83.33333333333333" width="8.333333333333334" height="8.333333333333334" fill="#DBD0C7" shape-rendering="crispEdges"></rect><rect x="50" y="91.66666666666667" width="8.333333333333334" height="8.333333333333334" fill="#DBD0C7" shape-rendering="crispEdges"></rect><rect x="58.333333333333336" y="91.66666666666667" width="8.333333333333334" height="8.333333333333334" fill="#DBD0C7" shape-rendering="crispEdges"></rect><rect x="66.66666666666667" y="91.66666666666667" width="8.333333333333334" height="8.333333333333334" fill="#DBD0C7" shape-rendering="crispEdges"></rect><rect x="75" y="75" width="25" height="25" fill="#C7B8AE" shape-rendering="crispEdges"></rect><rect x="75" y="75" width="8.333333333333334" height="8.333333333333334" fill="#B2A196" shape-rendering="crispEdges"></rect><rect x="83.33333333333333" y="75" width="8.333333333333334" height="8.333333333333334" fill="#B2A196" shape-rendering="crispEdges"></rect><rect x="91.66666666666667" y="75" width="8.333333333333334" height="8.333333333333334" fill="#B2A196" shape-rendering="crispEdges"></rect>
    </pattern>
  </defs>
  <g transform="translate(0 0) scale(1)">
    <rect width="100" height="100" fill="url(#squares)" shape-rendering="crispEdges"></rect>
  </g></svg>