<svg xmlns="http://www.w3.org/2000/svg" viewBox="0 0 100 100" id="svg" style="fill: rgba(0, 0, 0, 0); --frame-c: #f6c6a4; --frame-bdw: 1em; stroke: rgb(150, 206, 146); stroke-width: 0.15; background-color: rgb(21, 51, 21); --frame-asr: 100 / 100.;"><circle cx="50" cy="50" r="46" fill="#325832"></circle><circle cx="50" cy="50" r="43.57142857142857" fill="#396139"></circle><circle cx="50" cy="50" r="41.14285714285714" fill="#406940"></circle><circle cx="50" cy="50" r="38.71428571428571" fill="#487246"></circle><circle cx="50" cy="50" r="36.285714285714285" fill="#4f7a4d"></circle><circle cx="50" cy="50" r="33.857142857142854" fill="#568254"></circle><circle cx="50" cy="50" r="31.428571428571427" fill="#5d8b5b"></circle><circle cx="50" cy="50" r="29" fill="#649362"></circle><circle cx="50" cy="50" r="26.57142857142857" fill="#6b9c69"></circle><circle cx="50" cy="50" r="24.142857142857142" fill="#72a470"></circle><circle cx="50" cy="50" r="21.714285714285715" fill="#79ac77"></circle><circle cx="50" cy="50" r="19.285714285714285" fill="#81b57d"></circle><circle cx="50" cy="50" r="16.857142857142858" fill="#88bd84"></circle><circle cx="50" cy="50" r="14.428571428571429" fill="#8fc68b"></circle><circle cx="50" cy="50" r="12" fill="#96ce92"></circle><g></g><g><path d="M 50 38 A 46 46 0 0 0 56.85594424410403 4.513781993644088"></path><path d="M 51.788507194114096 38.134030085298456 A 46 46 0 0 0 63.558738022901586 6.043650933837526"></path><path d="M 53.53706209293085 38.53312633056631 A 46 46 0 0 0 69.95865199940769 8.555432076488728"></path><path d="M 55.2066048694107 39.18837358517097 A 46 46 0 0 0 75.91272267092661 11.993016381464237"></path><path d="M 56.75984069676346 40.08513470820806 A 46 46 0 0 0 81.2879459374623 16.279613895827985"></path><path d="M 58.16207285325103 41.20337753804208 A 46 46 0 0 0 85.96424819352937 21.319469114498254"></path><path d="M 59.38197778961636 42.5181223776952 A 46 46 0 0 0 89.83716857408419 27.000000000000004"></path><path d="M 60.392304845413264 44 A 46 46 0 0 0 92.8201924376334 33.194312879145826"></path><path d="M 61.17048498373045 45.615907707603256 A 46 46 0 0 0 94.84668396036389 39.76403703800953"></path><path d="M 61.699134946181886 47.32974879252423 A 46 46 0 0 0 95.87137467033429 46.56241569502448"></path><path d="M 61.96644556617416 49.103238876962905 A 46 46 0 0 0 95.87137467033429 53.43758430497551"></path><path d="M 61.96644556617416 50.89676112303709 A 46 46 0 0 0 94.84668396036389 60.23596296199045"></path><path d="M 61.699134946181886 52.67025120747577 A 46 46 0 0 0 92.8201924376334 66.80568712085417"></path><path d="M 61.17048498373045 54.384092292396744 A 46 46 0 0 0 89.83716857408419 73"></path><path d="M 60.392304845413264 56 A 46 46 0 0 0 85.96424819352936 78.68053088550175"></path><path d="M 59.38197778961636 57.4818776223048 A 46 46 0 0 0 81.2879459374623 83.72038610417201"></path><path d="M 58.16207285325103 58.79662246195792 A 46 46 0 0 0 75.91272267092661 88.00698361853577"></path><path d="M 56.75984069676346 59.91486529179194 A 46 46 0 0 0 69.95865199940766 91.44456792351129"></path><path d="M 55.2066048694107 60.81162641482903 A 46 46 0 0 0 63.558738022901586 93.95634906616247"></path><path d="M 53.53706209293085 61.46687366943369 A 46 46 0 0 0 56.855944244104016 95.48621800635593"></path><path d="M 51.788507194114096 61.865969914701544 A 46 46 0 0 0 50 96"></path><path d="M 50 62 A 46 46 0 0 0 43.14405575589597 95.48621800635591"></path><path d="M 48.21149280588591 61.865969914701544 A 46 46 0 0 0 36.44126197709842 93.95634906616247"></path><path d="M 46.462937907069154 61.46687366943369 A 46 46 0 0 0 30.04134800059231 91.44456792351127"></path><path d="M 44.793395130589296 60.81162641482903 A 46 46 0 0 0 24.087277329073384 88.00698361853577"></path><path d="M 43.24015930323654 59.91486529179194 A 46 46 0 0 0 18.7120540625377 83.72038610417201"></path><path d="M 41.83792714674897 58.79662246195792 A 46 46 0 0 0 14.035751806470628 78.68053088550175"></path><path d="M 40.61802221038364 57.4818776223048 A 46 46 0 0 0 10.162831425915819 73"></path><path d="M 39.607695154586736 56 A 46 46 0 0 0 7.179807562366598 66.80568712085416"></path><path d="M 38.82951501626955 54.384092292396744 A 46 46 0 0 0 5.153316039636117 60.23596296199049"></path><path d="M 38.300865053818114 52.67025120747578 A 46 46 0 0 0 4.1286253296657165 53.43758430497556"></path><path d="M 38.03355443382584 50.896761123037095 A 46 46 0 0 0 4.1286253296657165 46.5624156950245"></path><path d="M 38.03355443382584 49.10323887696291 A 46 46 0 0 0 5.15331603963611 39.76403703800956"></path><path d="M 38.300865053818114 47.329748792524235 A 46 46 0 0 0 7.179807562366591 33.19431287914587"></path><path d="M 38.82951501626955 45.615907707603256 A 46 46 0 0 0 10.162831425915826 26.999999999999996"></path><path d="M 39.607695154586736 44 A 46 46 0 0 0 14.035751806470621 21.319469114498265"></path><path d="M 40.61802221038364 42.5181223776952 A 46 46 0 0 0 18.712054062537696 16.279613895828007"></path><path d="M 41.83792714674897 41.20337753804209 A 46 46 0 0 0 24.087277329073324 11.99301638146428"></path><path d="M 43.24015930323654 40.08513470820806 A 46 46 0 0 0 30.04134800059232 8.555432076488728"></path><path d="M 44.7933951305893 39.18837358517097 A 46 46 0 0 0 36.441261977098385 6.043650933837533"></path><path d="M 46.46293790706915 38.53312633056631 A 46 46 0 0 0 43.14405575589594 4.513781993644095"></path><path d="M 48.21149280588591 38.134030085298456 A 46 46 0 0 0 49.99999999999999 4"></path></g></svg>