<svg xmlns="http://www.w3.org/2000/svg" viewBox="0 0 100 100" id="svg" style="fill: rgba(0, 0, 0, 0); --frame-c: #f6c6a4; --frame-bdw: 1em; stroke: rgb(108, 51, 97); stroke-width: 0.15; background-color: rgb(108, 51, 97); --frame-asr: 100 / 100.;"><circle cx="50" cy="50" r="46" fill="#9496d2"></circle><circle cx="50" cy="50" r="43" fill="#9b8fcb"></circle><circle cx="50" cy="50" r="40" fill="#a389c5"></circle><circle cx="50" cy="50" r="37" fill="#ab82be"></circle><circle cx="50" cy="50" r="34" fill="#b27bb7"></circle><circle cx="50" cy="50" r="31" fill="#ba74b0"></circle><circle cx="50" cy="50" r="28" fill="#c26da9"></circle><circle cx="50" cy="50" r="25" fill="#c967a3"></circle><circle cx="50" cy="50" r="22" fill="#d1609c"></circle><circle cx="50" cy="50" r="19" fill="#d95995"></circle><circle cx="50" cy="50" r="16" fill="#e0528e"></circle><circle cx="50" cy="50" r="13" fill="#e84b87"></circle><circle cx="50" cy="50" r="10" fill="#f04581"></circle><circle cx="50" cy="50" r="7" fill="#f73e7a"></circle><circle cx="50" cy="50" r="4" fill="#ff3773"></circle><g><path d="M 50 46 A 46 46 0 0 1 56.85594424410403 4.513781993644088"></path><path d="M 50.596169064704696 46.04467669509948 A 46 46 0 0 1 63.558738022901586 6.043650933837526"></path><path d="M 51.179020697643615 46.17770877685544 A 46 46 0 0 1 69.95865199940769 8.555432076488728"></path><path d="M 51.73553495647023 46.396124528390324 A 46 46 0 0 1 75.91272267092661 11.993016381464237"></path><path d="M 52.25328023225449 46.69504490273602 A 46 46 0 0 1 81.2879459374623 16.279613895827985"></path><path d="M 52.720690951083675 47.0677925126807 A 46 46 0 0 1 85.96424819352937 21.319469114498254"></path><path d="M 53.12732592987212 47.50604079256507 A 46 46 0 0 1 89.83716857408419 27.000000000000004"></path><path d="M 53.46410161513776 48 A 46 46 0 0 1 92.8201924376334 33.194312879145826"></path><path d="M 53.72349499457682 48.53863590253442 A 46 46 0 0 1 94.84668396036389 39.76403703800953"></path><path d="M 53.8997116487273 49.10991626417474 A 46 46 0 0 1 95.87137467033429 46.56241569502448"></path><path d="M 53.98881518872472 49.7010796256543 A 46 46 0 0 1 95.87137467033429 53.43758430497551"></path><path d="M 53.98881518872472 50.2989203743457 A 46 46 0 0 1 94.84668396036389 60.23596296199045"></path><path d="M 53.8997116487273 50.89008373582526 A 46 46 0 0 1 92.8201924376334 66.80568712085417"></path><path d="M 53.72349499457682 51.46136409746558 A 46 46 0 0 1 89.83716857408419 73"></path><path d="M 53.46410161513776 52 A 46 46 0 0 1 85.96424819352936 78.68053088550175"></path><path d="M 53.12732592987212 52.49395920743493 A 46 46 0 0 1 81.2879459374623 83.72038610417201"></path><path d="M 52.720690951083675 52.9322074873193 A 46 46 0 0 1 75.91272267092661 88.00698361853577"></path><path d="M 52.25328023225449 53.30495509726398 A 46 46 0 0 1 69.95865199940766 91.44456792351129"></path><path d="M 51.73553495647023 53.603875471609676 A 46 46 0 0 1 63.558738022901586 93.95634906616247"></path><path d="M 51.179020697643615 53.82229122314456 A 46 46 0 0 1 56.855944244104016 95.48621800635593"></path><path d="M 50.596169064704696 53.95532330490052 A 46 46 0 0 1 50 96"></path><path d="M 50 54 A 46 46 0 0 1 43.14405575589597 95.48621800635591"></path><path d="M 49.403830935295304 53.95532330490052 A 46 46 0 0 1 36.44126197709842 93.95634906616247"></path><path d="M 48.820979302356385 53.82229122314456 A 46 46 0 0 1 30.04134800059231 91.44456792351127"></path><path d="M 48.26446504352977 53.603875471609676 A 46 46 0 0 1 24.087277329073384 88.00698361853577"></path><path d="M 47.74671976774551 53.30495509726398 A 46 46 0 0 1 18.7120540625377 83.72038610417201"></path><path d="M 47.279309048916325 52.9322074873193 A 46 46 0 0 1 14.035751806470628 78.68053088550175"></path><path d="M 46.87267407012788 52.49395920743493 A 46 46 0 0 1 10.162831425915819 73"></path><path d="M 46.53589838486224 52 A 46 46 0 0 1 7.179807562366598 66.80568712085416"></path><path d="M 46.27650500542318 51.461364097465584 A 46 46 0 0 1 5.153316039636117 60.23596296199049"></path><path d="M 46.10028835127271 50.89008373582526 A 46 46 0 0 1 4.1286253296657165 53.43758430497556"></path><path d="M 46.01118481127528 50.2989203743457 A 46 46 0 0 1 4.1286253296657165 46.5624156950245"></path><path d="M 46.01118481127528 49.7010796256543 A 46 46 0 0 1 5.15331603963611 39.76403703800956"></path><path d="M 46.1002883512727 49.10991626417474 A 46 46 0 0 1 7.179807562366591 33.19431287914587"></path><path d="M 46.27650500542318 48.538635902534416 A 46 46 0 0 1 10.162831425915826 26.999999999999996"></path><path d="M 46.53589838486224 48 A 46 46 0 0 1 14.035751806470621 21.319469114498265"></path><path d="M 46.87267407012788 47.50604079256507 A 46 46 0 0 1 18.712054062537696 16.279613895828007"></path><path d="M 47.27930904891632 47.0677925126807 A 46 46 0 0 1 24.087277329073324 11.99301638146428"></path><path d="M 47.74671976774551 46.69504490273602 A 46 46 0 0 1 30.04134800059232 8.555432076488728"></path><path d="M 48.26446504352977 46.396124528390324 A 46 46 0 0 1 36.441261977098385 6.043650933837533"></path><path d="M 48.820979302356385 46.17770877685544 A 46 46 0 0 1 43.14405575589594 4.513781993644095"></path><path d="M 49.403830935295304 46.04467669509948 A 46 46 0 0 1 49.99999999999999 4"></path></g><g><path d="M 50 46 A 46 46 0 0 0 56.85594424410403 4.513781993644088"></path><path d="M 50.596169064704696 46.04467669509948 A 46 46 0 0 0 63.558738022901586 6.043650933837526"></path><path d="M 51.179020697643615 46.17770877685544 A 46 46 0 0 0 69.95865199940769 8.555432076488728"></path><path d="M 51.73553495647023 46.396124528390324 A 46 46 0 0 0 75.91272267092661 11.993016381464237"></path><path d="M 52.25328023225449 46.69504490273602 A 46 46 0 0 0 81.2879459374623 16.279613895827985"></path><path d="M 52.720690951083675 47.0677925126807 A 46 46 0 0 0 85.96424819352937 21.319469114498254"></path><path d="M 53.12732592987212 47.50604079256507 A 46 46 0 0 0 89.83716857408419 27.000000000000004"></path><path d="M 53.46410161513776 48 A 46 46 0 0 0 92.8201924376334 33.194312879145826"></path><path d="M 53.72349499457682 48.53863590253442 A 46 46 0 0 0 94.84668396036389 39.76403703800953"></path><path d="M 53.8997116487273 49.10991626417474 A 46 46 0 0 0 95.87137467033429 46.56241569502448"></path><path d="M 53.98881518872472 49.7010796256543 A 46 46 0 0 0 95.87137467033429 53.43758430497551"></path><path d="M 53.98881518872472 50.2989203743457 A 46 46 0 0 0 94.84668396036389 60.23596296199045"></path><path d="M 53.8997116487273 50.89008373582526 A 46 46 0 0 0 92.8201924376334 66.80568712085417"></path><path d="M 53.72349499457682 51.46136409746558 A 46 46 0 0 0 89.83716857408419 73"></path><path d="M 53.46410161513776 52 A 46 46 0 0 0 85.96424819352936 78.68053088550175"></path><path d="M 53.12732592987212 52.49395920743493 A 46 46 0 0 0 81.2879459374623 83.72038610417201"></path><path d="M 52.720690951083675 52.9322074873193 A 46 46 0 0 0 75.91272267092661 88.00698361853577"></path><path d="M 52.25328023225449 53.30495509726398 A 46 46 0 0 0 69.95865199940766 91.44456792351129"></path><path d="M 51.73553495647023 53.603875471609676 A 46 46 0 0 0 63.558738022901586 93.95634906616247"></path><path d="M 51.179020697643615 53.82229122314456 A 46 46 0 0 0 56.855944244104016 95.48621800635593"></path><path d="M 50.596169064704696 53.95532330490052 A 46 46 0 0 0 50 96"></path><path d="M 50 54 A 46 46 0 0 0 43.14405575589597 95.48621800635591"></path><path d="M 49.403830935295304 53.95532330490052 A 46 46 0 0 0 36.44126197709842 93.95634906616247"></path><path d="M 48.820979302356385 53.82229122314456 A 46 46 0 0 0 30.04134800059231 91.44456792351127"></path><path d="M 48.26446504352977 53.603875471609676 A 46 46 0 0 0 24.087277329073384 88.00698361853577"></path><path d="M 47.74671976774551 53.30495509726398 A 46 46 0 0 0 18.7120540625377 83.72038610417201"></path><path d="M 47.279309048916325 52.9322074873193 A 46 46 0 0 0 14.035751806470628 78.68053088550175"></path><path d="M 46.87267407012788 52.49395920743493 A 46 46 0 0 0 10.162831425915819 73"></path><path d="M 46.53589838486224 52 A 46 46 0 0 0 7.179807562366598 66.80568712085416"></path><path d="M 46.27650500542318 51.461364097465584 A 46 46 0 0 0 5.153316039636117 60.23596296199049"></path><path d="M 46.10028835127271 50.89008373582526 A 46 46 0 0 0 4.1286253296657165 53.43758430497556"></path><path d="M 46.01118481127528 50.2989203743457 A 46 46 0 0 0 4.1286253296657165 46.5624156950245"></path><path d="M 46.01118481127528 49.7010796256543 A 46 46 0 0 0 5.15331603963611 39.76403703800956"></path><path d="M 46.1002883512727 49.10991626417474 A 46 46 0 0 0 7.179807562366591 33.19431287914587"></path><path d="M 46.27650500542318 48.538635902534416 A 46 46 0 0 0 10.162831425915826 26.999999999999996"></path><path d="M 46.53589838486224 48 A 46 46 0 0 0 14.035751806470621 21.319469114498265"></path><path d="M 46.87267407012788 47.50604079256507 A 46 46 0 0 0 18.712054062537696 16.279613895828007"></path><path d="M 47.27930904891632 47.0677925126807 A 46 46 0 0 0 24.087277329073324 11.99301638146428"></path><path d="M 47.74671976774551 46.69504490273602 A 46 46 0 0 0 30.04134800059232 8.555432076488728"></path><path d="M 48.26446504352977 46.396124528390324 A 46 46 0 0 0 36.441261977098385 6.043650933837533"></path><path d="M 48.820979302356385 46.17770877685544 A 46 46 0 0 0 43.14405575589594 4.513781993644095"></path><path d="M 49.403830935295304 46.04467669509948 A 46 46 0 0 0 49.99999999999999 4"></path></g></svg>