<svg xmlns="http://www.w3.org/2000/svg" viewBox="0 0 100 100" id="svg" fill="none" style="--frame-c: #f6c6a4; --frame-bdw: 1em; stroke: rgba(240, 117, 240, 0.75); background-color: rgb(8, 8, 40); --frame-asr: 100 / 100.;"><g transform="translate(50 50) scale(1)"><circle cx="0" cy="-36" r="9" stroke-width="0.15" fill="none"></circle><circle cx="-31.17691453623979" cy="-18" r="9" stroke-width="0.15" fill="none"></circle><circle cx="0" cy="-18" r="9" stroke-width="0.15" fill="none"></circle><circle cx="31.17691453623979" cy="-18" r="9" stroke-width="0.15" fill="none"></circle><circle cx="-15.588457268119894" cy="-9" r="9" stroke-width="0.15" fill="none"></circle><circle cx="0" cy="0" r="9" stroke-width="0.15" fill="none"></circle><circle cx="15.588457268119894" cy="-9" r="9" stroke-width="0.15" fill="none"></circle><circle cx="-15.588457268119894" cy="9" r="9" stroke-width="0.15" fill="none"></circle><circle cx="15.588457268119894" cy="9" r="9" stroke-width="0.15" fill="none"></circle><circle cx="-31.17691453623979" cy="18" r="9" stroke-width="0.15" fill="none"></circle><circle cx="0" cy="18" r="9" stroke-width="0.15" fill="none"></circle><circle cx="31.17691453623979" cy="18" r="9" stroke-width="0.15" fill="none"></circle><circle cx="0" cy="36" r="9" stroke-width="0.15" fill="none"></circle><line x1="0" y1="-36" x2="-31.17691453623979" y2="-18" stroke-width="0.15"></line><line x1="0" y1="-36" x2="0" y2="-18" stroke-width="0.15"></line><line x1="0" y1="-36" x2="31.17691453623979" y2="-18" stroke-width="0.15"></line><line x1="0" y1="-36" x2="-15.588457268119894" y2="-9" stroke-width="0.15"></line><line x1="0" y1="-36" x2="0" y2="0" stroke-width="0.15"></line><line x1="0" y1="-36" x2="15.588457268119894" y2="-9" stroke-width="0.15"></line><line x1="0" y1="-36" x2="-15.588457268119894" y2="9" stroke-width="0.15"></line><line x1="0" y1="-36" x2="15.588457268119894" y2="9" stroke-width="0.15"></line><line x1="0" y1="-36" x2="-31.17691453623979" y2="18" stroke-width="0.15"></line><line x1="0" y1="-36" x2="0" y2="18" stroke-width="0.15"></line><line x1="0" y1="-36" x2="31.17691453623979" y2="18" stroke-width="0.15"></line><line x1="0" y1="-36" x2="0" y2="36" stroke-width="0.15"></line><line x1="-31.17691453623979" y1="-18" x2="0" y2="-18" stroke-width="0.15"></line><line x1="-31.17691453623979" y1="-18" x2="31.17691453623979" y2="-18" stroke-width="0.15"></line><line x1="-31.17691453623979" y1="-18" x2="-15.588457268119894" y2="-9" stroke-width="0.15"></line><line x1="-31.17691453623979" y1="-18" x2="0" y2="0" stroke-width="0.15"></line><line x1="-31.17691453623979" y1="-18" x2="15.588457268119894" y2="-9" stroke-width="0.15"></line><line x1="-31.17691453623979" y1="-18" x2="-15.588457268119894" y2="9" stroke-width="0.15"></line><line x1="-31.17691453623979" y1="-18" x2="15.588457268119894" y2="9" stroke-width="0.15"></line><line x1="-31.17691453623979" y1="-18" x2="-31.17691453623979" y2="18" stroke-width="0.15"></line><line x1="-31.17691453623979" y1="-18" x2="0" y2="18" stroke-width="0.15"></line><line x1="-31.17691453623979" y1="-18" x2="31.17691453623979" y2="18" stroke-width="0.15"></line><line x1="-31.17691453623979" y1="-18" x2="0" y2="36" stroke-width="0.15"></line><line x1="0" y1="-18" x2="31.17691453623979" y2="-18" stroke-width="0.15"></line><line x1="0" y1="-18" x2="-15.588457268119894" y2="-9" stroke-width="0.15"></line><line x1="0" y1="-18" x2="0" y2="0" stroke-width="0.15"></line><line x1="0" y1="-18" x2="15.588457268119894" y2="-9" stroke-width="0.15"></line><line x1="0" y1="-18" x2="-15.588457268119894" y2="9" stroke-width="0.15"></line><line x1="0" y1="-18" x2="15.588457268119894" y2="9" stroke-width="0.15"></line><line x1="0" y1="-18" x2="-31.17691453623979" y2="18" stroke-width="0.15"></line><line x1="0" y1="-18" x2="0" y2="18" stroke-width="0.15"></line><line x1="0" y1="-18" x2="31.17691453623979" y2="18" stroke-width="0.15"></line><line x1="0" y1="-18" x2="0" y2="36" stroke-width="0.15"></line><line x1="31.17691453623979" y1="-18" x2="-15.588457268119894" y2="-9" stroke-width="0.15"></line><line x1="31.17691453623979" y1="-18" x2="0" y2="0" stroke-width="0.15"></line><line x1="31.17691453623979" y1="-18" x2="15.588457268119894" y2="-9" stroke-width="0.15"></line><line x1="31.17691453623979" y1="-18" x2="-15.588457268119894" y2="9" stroke-width="0.15"></line><line x1="31.17691453623979" y1="-18" x2="15.588457268119894" y2="9" stroke-width="0.15"></line><line x1="31.17691453623979" y1="-18" x2="-31.17691453623979" y2="18" stroke-width="0.15"></line><line x1="31.17691453623979" y1="-18" x2="0" y2="18" stroke-width="0.15"></line><line x1="31.17691453623979" y1="-18" x2="31.17691453623979" y2="18" stroke-width="0.15"></line><line x1="31.17691453623979" y1="-18" x2="0" y2="36" stroke-width="0.15"></line><line x1="-15.588457268119894" y1="-9" x2="0" y2="0" stroke-width="0.15"></line><line x1="-15.588457268119894" y1="-9" x2="15.588457268119894" y2="-9" stroke-width="0.15"></line><line x1="-15.588457268119894" y1="-9" x2="-15.588457268119894" y2="9" stroke-width="0.15"></line><line x1="-15.588457268119894" y1="-9" x2="15.588457268119894" y2="9" stroke-width="0.15"></line><line x1="-15.588457268119894" y1="-9" x2="-31.17691453623979" y2="18" stroke-width="0.15"></line><line x1="-15.588457268119894" y1="-9" x2="0" y2="18" stroke-width="0.15"></line><line x1="-15.588457268119894" y1="-9" x2="31.17691453623979" y2="18" stroke-width="0.15"></line><line x1="-15.588457268119894" y1="-9" x2="0" y2="36" stroke-width="0.15"></line><line x1="0" y1="0" x2="15.588457268119894" y2="-9" stroke-width="0.15"></line><line x1="0" y1="0" x2="-15.588457268119894" y2="9" stroke-width="0.15"></line><line x1="0" y1="0" x2="15.588457268119894" y2="9" stroke-width="0.15"></line><line x1="0" y1="0" x2="-31.17691453623979" y2="18" stroke-width="0.15"></line><line x1="0" y1="0" x2="0" y2="18" stroke-width="0.15"></line><line x1="0" y1="0" x2="31.17691453623979" y2="18" stroke-width="0.15"></line><line x1="0" y1="0" x2="0" y2="36" stroke-width="0.15"></line><line x1="15.588457268119894" y1="-9" x2="-15.588457268119894" y2="9" stroke-width="0.15"></line><line x1="15.588457268119894" y1="-9" x2="15.588457268119894" y2="9" stroke-width="0.15"></line><line x1="15.588457268119894" y1="-9" x2="-31.17691453623979" y2="18" stroke-width="0.15"></line><line x1="15.588457268119894" y1="-9" x2="0" y2="18" stroke-width="0.15"></line><line x1="15.588457268119894" y1="-9" x2="31.17691453623979" y2="18" stroke-width="0.15"></line><line x1="15.588457268119894" y1="-9" x2="0" y2="36" stroke-width="0.15"></line><line x1="-15.588457268119894" y1="9" x2="15.588457268119894" y2="9" stroke-width="0.15"></line><line x1="-15.588457268119894" y1="9" x2="-31.17691453623979" y2="18" stroke-width="0.15"></line><line x1="-15.588457268119894" y1="9" x2="0" y2="18" stroke-width="0.15"></line><line x1="-15.588457268119894" y1="9" x2="31.17691453623979" y2="18" stroke-width="0.15"></line><line x1="-15.588457268119894" y1="9" x2="0" y2="36" stroke-width="0.15"></line><line x1="15.588457268119894" y1="9" x2="-31.17691453623979" y2="18" stroke-width="0.15"></line><line x1="15.588457268119894" y1="9" x2="0" y2="18" stroke-width="0.15"></line><line x1="15.588457268119894" y1="9" x2="31.17691453623979" y2="18" stroke-width="0.15"></line><line x1="15.588457268119894" y1="9" x2="0" y2="36" stroke-width="0.15"></line><line x1="-31.17691453623979" y1="18" x2="0" y2="18" stroke-width="0.15"></line><line x1="-31.17691453623979" y1="18" x2="31.17691453623979" y2="18" stroke-width="0.15"></line><line x1="-31.17691453623979" y1="18" x2="0" y2="36" stroke-width="0.15"></line><line x1="0" y1="18" x2="31.17691453623979" y2="18" stroke-width="0.15"></line><line x1="0" y1="18" x2="0" y2="36" stroke-width="0.15"></line><line x1="31.17691453623979" y1="18" x2="0" y2="36" stroke-width="0.15"></line></g></svg>