<svg xmlns="http://www.w3.org/2000/svg" viewBox="0 0 100 100" id="svg" style="--frame-c: #f6c6a4; --frame-bdw: 1em; background-color: rgb(240, 241, 236); --frame-asr: 100 / 100.;">
    <g>
      <rect x="10" y="0" width="10" height="10" fill="#E8CD26"></rect>
<rect x="20" y="0" width="10" height="10" fill="#2B337E"></rect>
<rect x="40" y="0" width="10" height="10" fill="#E8CD26"></rect>
<rect x="50" y="0" width="10" height="10" fill="#E8CD26"></rect>
<rect x="60" y="0" width="10" height="10" fill="#E8CD26"></rect>
<rect x="70" y="0" width="10" height="10" fill="#9F3E37"></rect>
<rect x="80" y="0" width="10" height="10" fill="#E8CD26"></rect>
<rect x="90" y="0" width="10" height="10" fill="#E8CD26"></rect>
<rect x="0" y="10" width="10" height="10" fill="#4E69CA"></rect>
<rect x="10" y="10" width="10" height="10" fill="#4E69CA"></rect>
<rect x="20" y="10" width="10" height="10" fill="#4E69CA"></rect>
<rect x="30" y="10" width="10" height="10" fill="#4E69CA"></rect>
<rect x="40" y="10" width="10" height="10" fill="#E8CD26"></rect>
<rect x="50" y="10" width="10" height="10" fill="#4E69CA"></rect>
<rect x="60" y="10" width="10" height="10" fill="#4E69CA"></rect>
<rect x="70" y="10" width="10" height="10" fill="#E8CD26"></rect>
<rect x="80" y="10" width="10" height="10" fill="#E8CD26"></rect>
<rect x="90" y="10" width="10" height="10" fill="#4E69CA"></rect>
<rect x="0" y="20" width="10" height="10" fill="#E8CD26"></rect>
<rect x="10" y="20" width="10" height="10" fill="#E0E2DF"></rect>
<rect x="20" y="20" width="10" height="10" fill="#E0E2DF"></rect>
<rect x="30" y="20" width="10" height="10" fill="#E8CD26"></rect>
<rect x="40" y="20" width="10" height="10" fill="#E8CD26"></rect>
<rect x="50" y="20" width="10" height="10" fill="#9F3E37"></rect>
<rect x="60" y="20" width="10" height="10" fill="#9F3E37"></rect>
<rect x="70" y="20" width="10" height="10" fill="#9F3E37"></rect>
<rect x="80" y="20" width="10" height="10" fill="#E8CD26"></rect>
<rect x="90" y="20" width="10" height="10" fill="#E8CD26"></rect>
<rect x="0" y="30" width="10" height="10" fill="#E8CD26"></rect>
<rect x="10" y="30" width="10" height="10" fill="#E8CD26"></rect>
<rect x="20" y="30" width="10" height="10" fill="#E8CD26"></rect>
<rect x="40" y="30" width="10" height="10" fill="#E8CD26"></rect>
<rect x="50" y="30" width="10" height="10" fill="#E8CD26"></rect>
<rect x="60" y="30" width="10" height="10" fill="#E8CD26"></rect>
<rect x="70" y="30" width="10" height="10" fill="#E8CD26"></rect>
<rect x="80" y="30" width="10" height="10" fill="#E8CD26"></rect>
<rect x="90" y="30" width="10" height="10" fill="#E8CD26"></rect>
<rect x="0" y="40" width="10" height="10" fill="#E8CD26"></rect>
<rect x="10" y="40" width="10" height="10" fill="#E8CD26"></rect>
<rect x="20" y="40" width="10" height="10" fill="#E8CD26"></rect>
<rect x="40" y="40" width="10" height="10" fill="#E8CD26"></rect>
<rect x="50" y="40" width="10" height="10" fill="#E8CD26"></rect>
<rect x="60" y="40" width="10" height="10" fill="#E8CD26"></rect>
<rect x="70" y="40" width="10" height="10" fill="#E8CD26"></rect>
<rect x="80" y="40" width="10" height="10" fill="#E8CD26"></rect>
<rect x="90" y="40" width="10" height="10" fill="#E8CD26"></rect>
<rect x="0" y="50" width="10" height="10" fill="#2B337E"></rect>
<rect x="10" y="50" width="10" height="10" fill="#2B337E"></rect>
<rect x="20" y="50" width="10" height="10" fill="#2B337E"></rect>
<rect x="30" y="50" width="10" height="10" fill="#2B337E"></rect>
<rect x="40" y="50" width="10" height="10" fill="#E8CD26"></rect>
<rect x="50" y="50" width="10" height="10" fill="#E8CD26"></rect>
<rect x="60" y="50" width="10" height="10" fill="#2B337E"></rect>
<rect x="70" y="50" width="10" height="10" fill="#2B337E"></rect>
<rect x="80" y="50" width="10" height="10" fill="#2B337E"></rect>
<rect x="90" y="50" width="10" height="10" fill="#2B337E"></rect>
<rect x="0" y="60" width="10" height="10" fill="#E8CD26"></rect>
<rect x="10" y="60" width="10" height="10" fill="#E8CD26"></rect>
<rect x="20" y="60" width="10" height="10" fill="#E8CD26"></rect>
<rect x="30" y="60" width="10" height="10" fill="#E8CD26"></rect>
<rect x="40" y="60" width="10" height="10" fill="#E8CD26"></rect>
<rect x="50" y="60" width="10" height="10" fill="#E8CD26"></rect>
<rect x="60" y="60" width="10" height="10" fill="#E8CD26"></rect>
<rect x="70" y="60" width="10" height="10" fill="#E8CD26"></rect>
<rect x="80" y="60" width="10" height="10" fill="#E8CD26"></rect>
<rect x="90" y="60" width="10" height="10" fill="#E8CD26"></rect>
<rect x="0" y="70" width="10" height="10" fill="#E8CD26"></rect>
<rect x="10" y="70" width="10" height="10" fill="#E8CD26"></rect>
<rect x="20" y="70" width="10" height="10" fill="#E8CD26"></rect>
<rect x="30" y="70" width="10" height="10" fill="#E8CD26"></rect>
<rect x="40" y="70" width="10" height="10" fill="#E8CD26"></rect>
<rect x="50" y="70" width="10" height="10" fill="#E8CD26"></rect>
<rect x="60" y="70" width="10" height="10" fill="#E8CD26"></rect>
<rect x="70" y="70" width="10" height="10" fill="#E8CD26"></rect>
<rect x="80" y="70" width="10" height="10" fill="#E8CD26"></rect>
<rect x="90" y="70" width="10" height="10" fill="#E8CD26"></rect>
<rect x="20" y="80" width="10" height="10" fill="#2B337E"></rect>
<rect x="40" y="80" width="10" height="10" fill="#E8CD26"></rect>
<rect x="60" y="80" width="10" height="10" fill="#E8CD26"></rect>
<rect x="70" y="80" width="10" height="10" fill="#9F3E37"></rect>
<rect x="90" y="80" width="10" height="10" fill="#E8CD26"></rect>
<rect x="0" y="90" width="10" height="10" fill="#E8CD26"></rect>
<rect x="10" y="90" width="10" height="10" fill="#E8CD26"></rect>
<rect x="20" y="90" width="10" height="10" fill="#E8CD26"></rect>
<rect x="30" y="90" width="10" height="10" fill="#E8CD26"></rect>
<rect x="40" y="90" width="10" height="10" fill="#E8CD26"></rect>
<rect x="50" y="90" width="10" height="10" fill="#E8CD26"></rect>
<rect x="60" y="90" width="10" height="10" fill="#E8CD26"></rect>
<rect x="70" y="90" width="10" height="10" fill="#E8CD26"></rect>
<rect x="80" y="90" width="10" height="10" fill="#E8CD26"></rect>
<rect x="90" y="90" width="10" height="10" fill="#E8CD26"></rect>
      <line x1="0" y1="0" x2="100" y2="0"></line>
<line x1="0" y1="0" x2="0" y2="100"></line>
<line x1="0" y1="10" x2="100" y2="10"></line>
<line x1="10" y1="0" x2="10" y2="100"></line>
<line x1="0" y1="20" x2="100" y2="20"></line>
<line x1="20" y1="0" x2="20" y2="100"></line>
<line x1="0" y1="30" x2="100" y2="30"></line>
<line x1="30" y1="0" x2="30" y2="100"></line>
<line x1="0" y1="40" x2="100" y2="40"></line>
<line x1="40" y1="0" x2="40" y2="100"></line>
<line x1="0" y1="50" x2="100" y2="50"></line>
<line x1="50" y1="0" x2="50" y2="100"></line>
<line x1="0" y1="60" x2="100" y2="60"></line>
<line x1="60" y1="0" x2="60" y2="100"></line>
<line x1="0" y1="70" x2="100" y2="70"></line>
<line x1="70" y1="0" x2="70" y2="100"></line>
<line x1="0" y1="80" x2="100" y2="80"></line>
<line x1="80" y1="0" x2="80" y2="100"></line>
<line x1="0" y1="90" x2="100" y2="90"></line>
<line x1="90" y1="0" x2="90" y2="100"></line>
<line x1="0" y1="100" x2="100" y2="100"></line>
<line x1="100" y1="0" x2="100" y2="100"></line>
    </g>
  </svg>